<?xml version="1.0" encoding="UTF-8" standalone="no"?>
<!-- Created with Inkscape (http://www.inkscape.org/) -->

<svg
   xmlns:dc="http://purl.org/dc/elements/1.1/"
   xmlns:cc="http://creativecommons.org/ns#"
   xmlns:rdf="http://www.w3.org/1999/02/22-rdf-syntax-ns#"
   xmlns:svg="http://www.w3.org/2000/svg"
   xmlns="http://www.w3.org/2000/svg"
   xmlns:sodipodi="http://sodipodi.sourceforge.net/DTD/sodipodi-0.dtd"
   xmlns:inkscape="http://www.inkscape.org/namespaces/inkscape"
   width="900"
   height="900"
   id="svg2"
   version="1.1"
   inkscape:version="0.91 r13725"
   sodipodi:docname="quantum-water-bear.svg"
   inkscape:export-xdpi="72"
   inkscape:export-ydpi="72"
   inkscape:export-filename="D:\book2018-quantumxie\svg\quantum-waterbear1.png">
  <title
     id="title2988">BITCOIN SIGN</title>
  <defs
     id="defs4" />
  <sodipodi:namedview
     id="base"
     pagecolor="#ffffff"
     bordercolor="#666666"
     borderopacity="1.0"
     inkscape:pageopacity="0"
     inkscape:pageshadow="2"
     inkscape:zoom="1.13"
     inkscape:cx="450"
     inkscape:cy="494.33581"
     inkscape:document-units="px"
     inkscape:current-layer="layer1"
     showgrid="false"
     inkscape:window-width="2560"
     inkscape:window-height="1027"
     inkscape:window-x="-8"
     inkscape:window-y="-8"
     inkscape:window-maximized="1"
     inkscape:showpageshadow="true"
     borderlayer="true"
     showguides="false"
     inkscape:guide-bbox="true"
     fit-margin-top="0"
     fit-margin-left="0"
     fit-margin-right="0"
     fit-margin-bottom="0">
    <inkscape:grid
       type="xygrid"
       id="grid2985"
       originx="-145.88716"
       originy="-462.66995" />
    <sodipodi:guide
       orientation="0,1"
       position="-73.839376,-276.75016"
       id="guide2987" />
    <sodipodi:guide
       orientation="1,0"
       position="204.92734,-1.205455"
       id="guide2989" />
  </sodipodi:namedview>
  <metadata
     id="metadata7">
    <rdf:RDF>
      <cc:Work
         rdf:about="">
        <dc:format>image/svg+xml</dc:format>
        <dc:type
           rdf:resource="http://purl.org/dc/dcmitype/StillImage" />
        <dc:title>BITCOIN SIGN</dc:title>
        <dc:date>2011-07-19</dc:date>
        <dc:creator>
          <cc:Agent>
            <dc:title>Pander</dc:title>
          </cc:Agent>
        </dc:creator>
        <dc:publisher>
          <cc:Agent>
            <dc:title>Bitcoin</dc:title>
          </cc:Agent>
        </dc:publisher>
        <dc:subject>
          <rdf:Bag>
            <rdf:li>unicode</rdf:li>
            <rdf:li>bitcoin</rdf:li>
            <rdf:li>sign</rdf:li>
            <rdf:li>symbol</rdf:li>
            <rdf:li>currency</rdf:li>
          </rdf:Bag>
        </dc:subject>
        <dc:description>Character shape for character code request at Unicode Consortium that is proposed for Currency Symbols range 20A0 - 20CF</dc:description>
        <cc:license
           rdf:resource="http://creativecommons.org/publicdomain/zero/1.0/" />
      </cc:Work>
      <cc:License
         rdf:about="http://creativecommons.org/publicdomain/zero/1.0/">
        <cc:permits
           rdf:resource="http://creativecommons.org/ns#Reproduction" />
        <cc:permits
           rdf:resource="http://creativecommons.org/ns#Distribution" />
        <cc:permits
           rdf:resource="http://creativecommons.org/ns#DerivativeWorks" />
      </cc:License>
    </rdf:RDF>
  </metadata>
  <g
     inkscape:label="Layer 1"
     inkscape:groupmode="layer"
     id="layer1"
     transform="translate(-145.88716,310.30776)"
     style="display:inline">
    <rect
       style="opacity:1;fill:#ff2a2a;fill-opacity:1;fill-rule:evenodd;stroke:none;stroke-width:50;stroke-linecap:square;stroke-linejoin:miter;stroke-miterlimit:4;stroke-dasharray:none;stroke-dashoffset:0;stroke-opacity:1"
       id="rect4516"
       width="816.31201"
       height="526.42847"
       x="183.32318"
       y="-170.19797" />
    <g
       style="font-style:normal;font-variant:normal;font-weight:normal;font-stretch:normal;font-size:1041.66662598px;line-height:125%;font-family:FreeSerif;-inkscape-font-specification:FreeSerif;letter-spacing:0px;word-spacing:0px;fill:#000000;fill-opacity:1;stroke:none"
       id="text3024" />
    <g
       id="g4302"
       transform="matrix(0.59803922,0,0,0.59803922,1027.7282,-374.20122)">
      <rect
         rx="66.638435"
         ry="66.638435"
         y="279.17563"
         x="884.81702"
         height="335.42435"
         width="338.74539"
         id="rect4282-8"
         style="opacity:1;fill:#ffcc00;fill-opacity:1;fill-rule:evenodd;stroke:none;stroke-width:2;stroke-linecap:square;stroke-linejoin:miter;stroke-miterlimit:4;stroke-dasharray:none;stroke-dashoffset:0;stroke-opacity:1" />
      <path
         id="path4219-2"
         d="m 989.05025,328.20115 c -42.6,24.6 -66.80078,66.60079 -66.80078,115.80079 l 93.60153,0 c 0,-1.4 0.099,-2.79961 0.1992,-4.09961 0.1,-1.3 0.3997,-2.7 0.5997,-4 0.3,-1.3 0.6,-2.60079 1,-3.80079 0.4,-1.29999 0.8003,-2.49921 1.4003,-3.69921 0.5,-1.2 1.0993,-2.4 1.6993,-3.5 0.6,-1.1 1.3,-2.20078 2,-3.30079 0.7,-1.09999 1.5007,-2.0996 2.3007,-3.0996 0.8,-1 1.6997,-1.90079 2.5997,-2.80079 0.9,-0.9 1.9003,-1.7996 2.9003,-2.59961 1,-0.79999 1.9997,-1.60078 3.0997,-2.30078 l 2.4003,-1.5 -46.99995,-81.09961 z m 133.69925,0 -46.7989,81.09961 c 0.8,0.5 1.6004,0.9 2.4004,1.5 1.1,0.7 2.0996,1.50078 3.0996,2.30078 1,0.80001 1.9004,1.69961 2.9004,2.59961 0.9,0.9 1.7996,1.90079 2.5996,2.80079 0.8,1 1.5989,1.9996 2.2989,3.0996 0.7,1.1 1.4,2.20079 2,3.30079 0.6,1.1 1.2011,2.3 1.7011,3.5 0.5,1.2 1.0004,2.39922 1.4004,3.69921 0.4,1.3 0.7,2.50079 1,3.80079 0.3,1.3 0.4996,2.6 0.5996,4 0.1,1.3 0.1993,2.69961 0.1993,4.09961 l 93.5996,0 c -0.2,-49.2 -24.4,-91.20079 -67,-115.80079 z m -66.8985,89.09961 a 26.700001,26.700001 0 0 0 -26.7011,26.70118 26.700001,26.700001 0 0 0 26.7011,26.69921 26.700001,26.700001 0 0 0 26.6992,-26.69921 26.700001,26.700001 0 0 0 -26.6992,-26.70118 z m -20,61.40039 -46.80075,81.09961 c 42.59995,24.6 91.09925,24.6 133.69925,0 l -46.7989,-81.09961 -0.9004,0.59961 c -1.1,0.6 -2.3,1.20118 -3.5,1.70118 -1.2,0.5 -2.3992,1.00039 -3.6992,1.40039 -1.3,0.4 -2.5008,0.7 -3.8008,1 -1.3,0.3 -2.6,0.49961 -4,0.59961 -1.3,0.1 -2.6996,0.19921 -4.0996,0.19921 -1.4,0 -2.6996,-0.0992 -4.0996,-0.19921 -1.3,-0.1 -2.7,-0.29961 -4,-0.59961 -1.3,-0.3 -2.6008,-0.6 -3.8008,-1 -1.3,-0.4 -2.4992,-0.80039 -3.6992,-1.40039 -1.2,-0.5 -2.4,-1.10118 -3.5,-1.70118 -0.4,-0.2 -0.7,-0.39961 -1,-0.59961 z"
         inkscape:connector-curvature="0" />
    </g>
    <path
       style="opacity:1;fill:#000000;fill-opacity:1;fill-rule:evenodd;stroke:none;stroke-width:2;stroke-linecap:square;stroke-linejoin:miter;stroke-miterlimit:4;stroke-dasharray:none;stroke-dashoffset:0;stroke-opacity:1"
       d="m 1597.8133,117.62156 c -6.4438,0 -11.6312,5.18741 -11.6312,11.63128 l 0,74.6359 c 0,6.44387 5.1874,11.63129 11.6312,11.63129 l 75.6051,0 c 6.4438,0 11.6312,-5.18742 11.6312,-11.63129 l 0,-74.6359 c 0,-6.44387 -5.1874,-11.63128 -11.6312,-11.63128 l -75.6051,0 z m 18.7906,14.30879 13.7176,23.67014 -0.7006,0.4378 c -0.321,0.2043 -0.6128,0.43802 -0.9046,0.67152 -0.2919,0.23349 -0.5839,0.49604 -0.8466,0.75873 -0.2626,0.26268 -0.5252,0.52558 -0.7587,0.81744 -0.2335,0.29187 -0.4672,0.58363 -0.6715,0.90468 -0.2043,0.32105 -0.4086,0.64233 -0.5838,0.96338 -0.1751,0.32105 -0.35,0.67129 -0.4959,1.02153 -0.1751,0.35024 -0.292,0.70024 -0.4087,1.07968 -0.1168,0.35023 -0.2043,0.72988 -0.2919,1.10931 -0.058,0.37942 -0.1458,0.78804 -0.175,1.16745 -0.029,0.37942 -0.058,0.78793 -0.058,1.19654 l -27.319,0 c 0,-14.35975 7.0634,-26.61831 19.4968,-33.7982 z m 39.0221,0 c 12.4334,7.17989 19.4966,19.43845 19.5549,33.7982 l -27.3184,0 c 0,-0.40861 -0.029,-0.81712 -0.058,-1.19654 -0.029,-0.40861 -0.087,-0.78803 -0.175,-1.16745 -0.088,-0.37943 -0.1751,-0.7299 -0.2919,-1.10931 -0.1167,-0.37944 -0.2628,-0.72944 -0.4087,-1.07968 -0.1459,-0.35024 -0.3214,-0.70048 -0.4965,-1.02153 -0.1751,-0.32105 -0.3794,-0.64233 -0.5837,-0.96338 -0.2044,-0.32105 -0.4375,-0.61281 -0.671,-0.90468 -0.2335,-0.26267 -0.496,-0.55476 -0.7587,-0.81744 -0.2919,-0.26269 -0.5547,-0.52524 -0.8465,-0.75873 -0.2919,-0.2335 -0.5837,-0.46722 -0.9047,-0.67152 -0.2335,-0.17513 -0.4671,-0.29187 -0.7006,-0.4378 l 13.6589,-23.67014 z m -19.5253,26.00506 a 7.7927958,7.7927958 0 0 1 7.7925,7.79314 7.7927958,7.7927958 0 0 1 -7.7925,7.79257 7.7927958,7.7927958 0 0 1 -7.7932,-7.79257 7.7927958,7.7927958 0 0 1 7.7932,-7.79314 z m -5.8373,17.92063 c 0.088,0.0584 0.1751,0.11663 0.2918,0.17501 0.3211,0.17511 0.6713,0.35057 1.0216,0.49651 0.3502,0.17511 0.7002,0.29197 1.0796,0.40872 0.3503,0.11674 0.7299,0.2043 1.1093,0.29187 0.3795,0.0876 0.7881,0.14581 1.1675,0.175 0.4086,0.0293 0.7879,0.0582 1.1965,0.0582 0.4087,0 0.8172,-0.0289 1.1966,-0.0582 0.4086,-0.0293 0.788,-0.0874 1.1674,-0.175 0.3795,-0.0876 0.7299,-0.17513 1.1093,-0.29187 0.3795,-0.11675 0.7295,-0.2628 1.0797,-0.40872 0.3503,-0.14594 0.7005,-0.3214 1.0216,-0.49651 l 0.2627,-0.17501 13.659,23.67013 c -12.4335,7.17988 -26.5887,7.17988 -39.0221,0 l 13.6595,-23.67013 z"
       id="rect4282-5"
       inkscape:connector-curvature="0" />
    <path
       style="fill:#000000"
       d="m 1336.8834,320.98919 c -0.1953,-34.50866 -0.1765,-35.01074 1.3079,-35.01904 1.4842,-0.009 1.5085,0.49347 1.7039,35.00201 0.1953,34.50869 0.1765,35.01076 -1.3077,35.01916 -1.4844,0.009 -1.5088,-0.49336 -1.7041,-35.00213 z m 60.814,33.93143 c -0.2525,-0.40345 1.4135,-5.7494 3.7025,-11.87972 2.2889,-6.13037 5.1053,-13.70232 6.2585,-16.82671 l 2.097,-5.68054 -6.4356,-16.7321 c -3.5397,-9.20271 -6.227,-17.07415 -5.9721,-17.49219 1.425,-2.33513 3.1085,0.65718 9.1232,16.21565 3.5142,9.09068 6.4066,17.2252 6.4278,18.07676 0.021,0.85153 -1.2461,4.92448 -2.8158,9.05116 -1.5697,4.12665 -4.4355,11.66254 -6.3685,16.74636 -3.2656,8.58905 -4.7054,10.62115 -6.017,8.52133 z m -33.5301,-2.47269 c -10e-4,-0.2704 0.6798,-3.22988 1.5143,-6.57653 1.5561,-6.24153 1.3461,-7.3141 -1.4348,-7.33138 -1.6768,-0.009 -6.5361,-2.7981 -7.4278,-4.26104 -1.9884,-3.26266 -1.9156,-5.93304 0.3601,-13.17811 2.5228,-8.0315 2.7751,-10.40689 1.105,-10.39742 -1.6478,0.009 -3.8316,2.48557 -4.9373,5.59868 -0.6219,1.74865 -1.4471,2.72016 -2.3197,2.72476 -2.6493,0.0141 -1.4625,-4.46928 2.2654,-8.55918 2.717,-2.98103 5.0029,-3.75887 8.1007,-2.75587 4.5567,1.47528 5.1689,5.07811 2.2183,13.05366 -2.4246,6.55413 -2.4128,10.48243 0.039,12.90648 4.026,3.9807 4.0996,3.82808 10.1291,-20.98562 5.0695,-20.86369 5.6831,-22.82911 7.1982,-23.05776 0.911,-0.1374 1.6574,-0.0485 1.6589,0.19766 0,0.24619 -2.4938,10.66145 -5.5451,23.14498 -3.0511,12.48361 -5.3715,22.87141 -5.1566,23.08389 0.2147,0.21243 1.8929,-0.19719 3.7289,-0.91029 5.7166,-2.22029 12.3763,-11.06644 12.3902,-16.45782 0,-1.10708 -0.8478,-3.01477 -1.8899,-4.23921 -2.291,-2.69167 -2.3889,-4.1583 -0.4112,-6.15846 1.9182,-1.94028 3.3558,-1.92274 5.3667,0.0654 1.3838,1.36831 1.5564,2.18919 1.2243,5.82837 -1.1034,12.09354 -8.5272,22.14344 -18.218,24.66251 l -3.5895,0.93301 -1.5269,6.33052 c -1.2938,5.36367 -1.7799,6.36866 -3.1833,6.58039 -0.9109,0.1374 -1.6573,0.0288 -1.6589,-0.2416 z"
       id="path4154-4"
       inkscape:connector-curvature="0" />
    <path
       style="color:#000000;font-style:normal;font-variant:normal;font-weight:normal;font-stretch:normal;font-size:medium;line-height:normal;font-family:sans-serif;text-indent:0;text-align:start;text-decoration:none;text-decoration-line:none;text-decoration-style:solid;text-decoration-color:#000000;letter-spacing:normal;word-spacing:normal;text-transform:none;direction:ltr;block-progression:tb;writing-mode:lr-tb;baseline-shift:baseline;text-anchor:start;white-space:normal;clip-rule:nonzero;display:inline;overflow:visible;visibility:visible;opacity:1;isolation:auto;mix-blend-mode:normal;color-interpolation:sRGB;color-interpolation-filters:linearRGB;solid-color:#000000;solid-opacity:1;fill:#000000;fill-opacity:1;fill-rule:evenodd;stroke:none;stroke-width:50;stroke-linecap:square;stroke-linejoin:miter;stroke-miterlimit:4;stroke-dasharray:none;stroke-dashoffset:0;stroke-opacity:1;color-rendering:auto;image-rendering:auto;shape-rendering:auto;text-rendering:auto;enable-background:accumulate"
       d="m 150.56591,-232.42094 0,59.61165 0,586.67915 894.58109,0 0,-646.2908 z m 56.2374,98.97783 782.10634,0 0,457.33312 -782.10634,0 z"
       id="rect4433"
       inkscape:connector-curvature="0"
       sodipodi:nodetypes="ccccccccccc" />
    <path
       style="fill:#000000"
       d="m 1252.0452,222.16093 c -0.115,-20.32067 -0.104,-20.61631 0.7701,-20.62121 0.874,-0.005 0.8883,0.2906 1.0034,20.61117 0.115,20.32068 0.104,20.61633 -0.77,20.62127 -0.8742,0.005 -0.8885,-0.29052 -1.0035,-20.61123 z m 35.8107,19.98074 c -0.1487,-0.23757 0.8324,-3.38557 2.1803,-6.99545 1.3478,-3.60991 3.0063,-8.0687 3.6853,-9.90851 l 1.2348,-3.34503 -3.7896,-9.85281 c -2.0844,-5.41909 -3.6668,-10.05424 -3.5167,-10.3004 0.8391,-1.37507 1.8305,0.38698 5.3723,9.54869 2.0693,5.35312 3.7725,10.14318 3.785,10.64463 0.013,0.50143 -0.7338,2.89981 -1.6582,5.32983 -0.9242,2.43002 -2.6118,6.86758 -3.75,9.86121 -1.923,5.05772 -2.7708,6.25433 -3.5432,5.01784 z m -19.7444,-1.45606 c 0,-0.15922 0.4003,-1.90193 0.8917,-3.87263 0.9163,-3.67536 0.7927,-4.30696 -0.8449,-4.31714 -0.9874,-0.005 -3.8488,-1.64767 -4.3739,-2.50913 -1.1709,-1.92123 -1.128,-3.49371 0.212,-7.76002 1.4856,-4.7294 1.6342,-6.12817 0.6507,-6.12259 -0.9703,0.005 -2.2562,1.46364 -2.9073,3.29681 -0.3662,1.02972 -0.8522,1.60179 -1.366,1.6045 -1.5601,0.009 -0.8612,-2.63176 1.334,-5.04012 1.5999,-1.75541 2.946,-2.21344 4.7701,-1.62282 2.6833,0.86872 3.0438,2.99028 1.3063,7.68674 -1.4277,3.85943 -1.4208,6.17264 0.023,7.60007 2.3707,2.34406 2.4141,2.25417 5.9646,-12.35753 2.9852,-12.28573 3.3465,-13.44307 4.2387,-13.57773 0.5365,-0.0809 0.976,-0.0285 0.9769,0.11635 0,0.14498 -1.4685,6.27808 -3.2653,13.62909 -1.7967,7.35105 -3.1631,13.46798 -3.0365,13.59311 0.1264,0.12508 1.1146,-0.1161 2.1958,-0.53604 3.3662,-1.30743 7.2878,-6.51655 7.296,-9.69129 0,-0.65191 -0.4992,-1.77527 -1.1129,-2.49629 -1.349,-1.58502 -1.4067,-2.44864 -0.2421,-3.62645 1.1296,-1.14255 1.9761,-1.13222 3.1602,0.0384 0.8149,0.80574 0.9165,1.28912 0.721,3.43207 -0.6498,7.12135 -5.0213,13.03931 -10.7278,14.52269 l -2.1137,0.5494 -0.8992,3.72777 c -0.7618,3.15843 -1.0481,3.75023 -1.8745,3.87491 -0.5364,0.0809 -0.9759,0.017 -0.9768,-0.14227 z"
       id="path4154-4-9"
       inkscape:connector-curvature="0" />
    <text
       xml:space="preserve"
       style="font-style:normal;font-variant:normal;font-weight:bold;font-stretch:normal;font-size:44.98992157px;line-height:125%;font-family:Arial;-inkscape-font-specification:'Arial, Bold';text-align:start;letter-spacing:0px;word-spacing:0px;writing-mode:lr-tb;text-anchor:start;fill:#ffffff;fill-opacity:1;stroke:none;stroke-width:1px;stroke-linecap:butt;stroke-linejoin:miter;stroke-opacity:1"
       x="576.4585"
       y="-169.22154"
       id="text4453-5"
       sodipodi:linespacing="125%"><tspan
         sodipodi:role="line"
         x="576.4585"
         y="-169.22154"
         id="tspan4475-6">NO QUANTUMXIE</tspan></text>
    <path
       style="opacity:1;fill:#000000;fill-opacity:1;fill-rule:evenodd;stroke:none;stroke-width:50;stroke-linecap:square;stroke-linejoin:miter;stroke-miterlimit:4;stroke-dasharray:none;stroke-dashoffset:0;stroke-opacity:1"
       d="m 1260.7817,-58.41861 c -0.7105,-0.0095 -1.4099,0.11071 -2.0563,0.345789 -0.996,0.386059 -1.7315,0.965607 -2.2278,1.582628 -1.2843,1.660012 -1.4193,3.338015 -1.3132,4.336941 0.1122,1.056409 0.485,1.623839 0.8085,1.633496 0.01,2.23e-4 0.015,-0.0032 0.022,-0.0034 -1.2161,0.518701 -2.7104,1.347094 -4.3589,2.690867 -1.9915,1.623971 -3.9325,3.799427 -5.7094,6.74146 -1.5871,2.623085 -2.922,5.60669 -4.0585,9.113403 -0.4137,1.274925 -0.7917,2.588849 -1.1369,3.94771 0.048,-0.301797 -0.01,-0.72816 -0.1382,-1.251128 -0.1759,-0.69966 -0.7043,-2.190406 -0.8619,-3.180115 -0.051,-0.354544 -0.093,-0.682345 -0.045,-0.927631 0,-0.0054 0,-0.01068 0,-0.01601 0.028,-0.175622 0.086,-0.344373 0.1689,-0.478391 0.1545,-0.363657 0.8354,-0.807052 1.4094,-1.270562 1.6076,-1.194231 2.464,-2.256398 2.0195,-2.695438 -0.3254,-0.321369 -1.736,-0.07918 -3.5577,0.629849 -0.1258,0.04365 -0.2627,0.09685 -0.4033,0.154892 -0.1306,-0.338904 -0.3092,-0.666353 -0.5314,-0.971068 -0.013,-0.01791 -0.026,-0.03559 -0.039,-0.05315 -0.6577,-0.921612 -1.4841,-1.492505 -2.0269,-1.794677 -0.5611,-0.312405 -1.1274,-0.51631 -1.5468,-0.379509 -0.4448,0.145071 -0.6616,0.65739 -0.5061,1.425451 0.1629,0.805076 0.6439,1.555245 1.1677,2.279923 0.01,0.0132 0.018,0.02634 0.027,0.03944 -0.2954,-0.435166 1.1582,1.629311 0.7584,1.044799 0.074,0.09395 0.1432,0.201804 0.2136,0.306925 -0.2361,0.361424 -0.4034,0.754155 -0.4946,1.16768 -0.035,-0.01042 -0.07,-0.02025 -0.1049,-0.02972 -1.0853,-0.325284 -1.9912,-0.277359 -2.5509,-0.188612 -0.5647,0.08953 -1.106,0.267617 -1.3286,0.591555 -0.2404,0.349959 -0.083,0.833901 0.5214,1.319142 0.6278,0.504269 1.4508,0.801954 2.2232,1.036797 0.026,0.009 0.053,0.0182 0.079,0.02686 0.4145,0.137349 0.8625,0.240119 1.1169,0.309781 0.1808,0.03539 0.3916,0.09402 0.6095,0.154891 0.5246,1.057521 1.2123,1.861711 1.7799,2.374228 0.7709,0.696094 1.4339,0.981287 1.7752,0.811605 0.1115,-0.05545 0.1833,-0.158043 0.2283,-0.293779 -0.545,2.164957 -1.0077,4.443885 -1.3953,6.871774 -0.3582,2.24335 -0.6442,4.543105 -0.8639,6.909497 -0.3134,-0.08234 -0.7344,-0.136672 -1.2631,-0.142888 -0.727,-0.0085 -1.7738,0.08485 -2.9188,0.448097 -0.1848,-0.559544 -0.5434,-1.155404 -1.0636,-1.699796 -0.013,-0.01326 -0.025,-0.02637 -0.038,-0.03944 -0.6674,-0.700225 -1.4211,-1.167369 -2.0343,-1.411734 -0.619,-0.246712 -1.1983,-0.310828 -1.5755,-0.08287 -0.3854,0.232899 -0.4881,0.730463 -0.2971,1.365437 0.1933,0.64269 0.6528,1.328196 1.2471,1.966713 0.011,0.01174 0.021,0.02373 0.032,0.03544 0.4148,0.451384 0.8657,0.831039 1.2832,1.121959 -0.3971,0.339858 -0.7583,0.763566 -1.0355,1.281419 -0.155,0.31975 -0.2608,0.648991 -0.3211,0.981356 -0.3398,-0.165795 -0.7882,-0.296734 -1.3719,-0.333788 -0.7873,0.01958 -1.5507,0.248942 -2.123,0.6778626 -0.018,0.013666 -0.036,0.027771 -0.053,0.041724 -0.528,0.4032069 -0.8031,0.7708089 -0.9573,1.0007876 -0.379,0.5759551 -0.8379,1.3164937 -0.6316,1.8169636 0.2077,0.5039318 1.2787,0.8550116 2.6605,0.1514619 0.5397,-0.2788751 0.8808,-0.5576682 1.169,-0.7601627 0,-0.00293 0.01,-0.00518 0.015,-0.00799 0.1501,-0.090641 0.1935,-0.1767338 0.2209,-0.2246206 0.1947,-0.1548682 0.6609,-0.2349652 1.0488,-0.3635051 0.071,-0.023498 0.1354,-0.050623 0.201,-0.077162 0.4493,1.3806597 1.3418,2.4216466 2.1497,3.1401089 2.3102,2.1748852 4.5355,2.9354719 5.122,2.7251615 -0.01,2.26966937 0.032,4.6080794 0.1228,7.0266644 0.2094,5.6374339 0.6922,11.5120039 1.4694,17.6266759 -0.4906,-0.330856 -1.6503,-0.691151 -3.4375,-0.565265 -0.7412,0.0322 -1.726,0.235348 -2.7039,0.905909 -0.2141,0.167993 -0.4032,0.357863 -0.5681,0.562406 -0.5818,-0.57141 -1.4365,-1.1288 -2.4889,-1.562623 -1.2085,-0.498178 -2.3922,-0.719141 -3.2733,-0.740732 -0.8868,-0.02174 -1.5257,0.153072 -1.7071,0.521827 -0.1837,0.373487 0.1284,0.881989 0.7885,1.404304 0.6703,0.530421 1.6312,1.027456 2.7272,1.463174 1.0388,0.413022 2.102,0.734757 2.8453,0.88362 0.1596,0.03195 0.3096,0.05328 0.4567,0.07202 0.03,0.63651 0.196,1.21895 0.4473,1.7198 0.039,0.08234 0.082,0.162767 0.1235,0.244052 -0.1423,-0.002 -0.2946,0.0041 -0.462,0.02514 -0.6087,0.09622 -1.1857,0.338827 -1.6016,0.676148 -0.011,0.0092 -0.023,0.01873 -0.034,0.02801 -0.6668,0.513051 -0.8538,1.017266 -0.9073,1.39516 -0.05,0.350495 -0.017,0.824789 0.1976,1.139675 0.2436,0.357471 0.7161,0.514824 1.3794,0.395514 0.665,-0.119632 1.2553,-0.464979 1.6336,-0.768166 0.01,-0.0046 0.013,-0.0091 0.02,-0.01372 0.2363,-0.165781 0.326,-0.315209 0.3959,-0.437811 -0.07,0.246773 0.2211,-0.285 0.4733,-0.744732 0.6616,0.837079 1.3984,1.538752 2.0696,2.107313 2.576,2.229286 4.8719,3.177215 5.3049,2.78003 0.032,-0.02981 0.056,-0.06522 0.072,-0.105164 1.3509,7.506656 3.1428,15.334517 5.5979,23.249606 1.0844,3.496134 2.3097,7.036959 3.7434,10.560001 1.1734,2.885918 2.498,5.797992 4.0944,8.640157 0.1452,0.25962 0.2937,0.518999 0.4447,0.779025 -0.224,0.08962 -0.4641,0.216749 -0.7177,0.39837 -0.1584,0.113469 -0.3118,0.24646 -0.462,0.388086 -0.044,-0.01592 -0.084,-0.03333 -0.1315,-0.04801 -0.8072,-0.251119 -1.9928,-0.271009 -3.1945,0.1949 -0.277,0.107351 -0.5356,0.2335 -0.7738,0.374368 -0.6195,0.37807 -1.0277,0.792397 -1.2832,1.146531 -0.234,0.290613 -0.3213,0.589736 -0.3645,0.808176 -0.044,0.223163 -0.064,0.476515 0.022,0.676718 0.092,0.214229 0.3038,0.370048 0.6683,0.426377 0.3712,0.05738 0.8069,-0.0018 1.2277,-0.108023 0.5203,-0.122066 0.9841,-0.306979 1.4548,-0.485247 0.1497,-0.05835 0.3062,-0.119286 0.4633,-0.181182 0.1281,-0.05049 0.2566,-0.104611 0.3865,-0.156606 0,0.01206 -0.01,0.02332 -0.01,0.03544 -0.021,0.0779 -0.041,0.156211 -0.06,0.234907 -0.3104,1.294133 -0.2698,2.495627 -0.1155,3.293856 0.1587,0.820211 0.4624,1.383794 0.9187,1.466033 0.4659,0.08396 1.0043,-0.346755 1.4687,-1.143678 0.4829,-0.828525 0.7911,-1.859779 1.0742,-3.024082 0.016,-0.06734 0.033,-0.133969 0.049,-0.200043 0.1526,-0.55377 0.405,-1.69084 0.5254,-2.233055 0.8181,1.254602 1.7305,2.48969 2.7879,3.662506 0.6774,0.752449 1.4455,1.491296 2.3407,2.162756 0.7154,0.543619 1.5634,1.043851 2.5583,1.412305 0.8546,0.316909 1.8285,0.480758 2.8554,0.428663 0.3926,-0.02847 0.7728,-0.08783 1.1376,-0.174322 0.6038,-0.143146 1.1639,-0.36021 1.6657,-0.634424 0.9797,-0.537207 1.7622,-1.201213 2.3861,-1.888981 0.8381,-0.909684 1.5029,-1.879134 2.0602,-2.8429 0.9256,-1.597172 1.5733,-3.240986 2.1317,-4.830188 0.7971,-2.249501 1.4401,-4.514205 2.0096,-6.749461 1.5606,-6.121589 2.6467,-12.257026 3.5229,-18.174795 1.1345,-7.654978 1.9037,-15.12236 2.4108,-22.28711 0.1482,-2.092819 0.2734,-4.156284 0.3765,-6.191629 0.7032,0.302643 2.4079,0.462293 4.5432,1.051656 0.8353,0.246607 1.7755,0.535399 2.2939,0.992217 0.2838,0.24075 0.5171,0.564536 0.5274,0.844184 0.082,0.334391 -0.059,0.785274 -0.2577,1.328857 -0.039,0.09876 -0.082,0.197037 -0.1275,0.295494 -0.6556,1.413383 -1.9952,2.805786 -3.0924,3.967716 -2.7131,2.804085 -4.9921,4.551407 -4.5892,5.053095 0.3378,0.420662 3.3548,-0.499344 6.8023,-3.258421 1.3937,-1.087016 3.033,-2.617522 4.0311,-4.655294 0.068,-0.138045 0.1322,-0.277479 0.193,-0.418377 0.3731,-0.826562 0.5286,-1.795379 0.3291,-2.814895 -0.01,-0.02013 -0.013,-0.03889 -0.018,-0.05887 0.078,0.01323 0.1546,0.02555 0.2297,0.03658 0.3418,0.05028 0.6225,0.08573 0.6803,0.23548 0.043,0.04021 0.1079,0.101498 0.2744,0.147459 0.058,0.01601 0.1251,0.02906 0.2009,0.03829 0.3355,0.06671 0.7323,0.167086 1.2031,0.195471 0.2811,0.02221 0.7085,0.04364 1.0742,-0.07201 0.3273,-0.103537 0.4586,-0.275996 0.4933,-0.484676 -0.01,-0.111866 0.015,-1.063406 0,-0.688149 0.01,-0.181691 0.06,-0.443783 -0.2096,-0.679577 -0.2162,-0.31062 -0.5991,-0.661653 -1.2518,-0.945918 -0.1565,-0.07378 -0.3316,-0.136511 -0.5254,-0.184612 -0.5572,-0.138232 -1.188,-0.13467 -1.7906,0.0012 -0.6341,0.201289 -1.0285,0.499419 -1.2558,0.795601 -0.2805,-0.311259 -0.6039,-0.580746 -0.9573,-0.800172 -1.311,-0.778661 -2.6687,-1.038465 -3.7246,-1.116815 -2.5626,-0.229656 -4.3127,0.16679 -5.0405,0.5224 0.2834,-5.856409 0.385,-11.484022 0.3111,-16.9088039 -0.086,-6.374326 -0.4045,-12.2434242 -0.9828,-17.8021421 0.6897,0.23397 1.7807,0.46265 3.0417,0.904198 0.6523,0.24121 1.3657,0.522098 1.7478,0.899623 0.2372,0.217548 0.4294,0.504728 0.4807,0.778453 0.067,0.21731 0.059,0.487784 0.015,0.8036043 -0.016,0.1118889 -0.036,0.2279361 -0.058,0.3463596 -0.2417,1.1845915 -1.0539,2.4831613 -1.675,3.5276217 -1.293,2.1164665 -2.3194,3.5703585 -1.8514,3.9459955 0.4082,0.327567 2.2532,-0.498705 4.2468,-2.5691254 0.9806,-0.9934746 2.1192,-2.4406707 2.621,-4.3095068 0.032,-0.1146689 0.058,-0.2332328 0.081,-0.3537896 0.1357,0.017587 0.2698,0.031268 0.3946,0.041724 0.4728,0.039637 1.0722,0.068409 1.7111,-0.035438 l 0,-5.853e-4 c 0.7598,-0.084323 1.5678,-0.2704647 2.1937,-0.6367089 0.6162,-0.3605348 0.8648,-0.7921041 0.7291,-1.1871141 -0.1279,-0.372287 -0.5769,-0.662815 -1.0909,-0.85104 -0.5158,-0.188873 -1.301,-0.34619 -2.2959,-0.224621 l -0.01,0.0012 c -0.7014,0.06403 -1.326,0.290472 -1.8132,0.594414 -0.1191,-0.307404 -0.2743,-0.592828 -0.46,-0.85504 0.2677,0.0094 0.5507,-0.01522 0.8392,-0.08173 1.1758,-0.271188 1.8821,-1.132954 1.6577,-1.901553 -0.2327,-0.796789 -1.4047,-1.192598 -2.5537,-0.923629 -0.9034,0.211476 -1.5808,0.813437 -1.6797,1.464886 -0.9166,-0.461049 -1.8276,-0.663236 -2.583,-0.736728 -1.7871,-0.196127 -3.0878,0.02525 -3.8087,0.306924 -0.1403,-1.265221 -0.2895,-2.52054 -0.458,-3.756243 -0.9353,-6.879621 -2.1909,-12.629113 -4.0859,-17.90445 0.6787,0.203692 1.8049,0.363742 3.1459,0.687578 0.7111,0.178478 1.5096,0.395625 2.0769,0.734446 0.3498,0.213942 0.6681,0.458556 0.7938,0.708723 0.1136,0.16627 0.1765,0.394232 0.2057,0.653858 0.01,0.06021 0.012,0.121625 0.015,0.183467 0.074,0.912073 -0.5257,2.024597 -1.0415,2.970357 -1.3181,2.260037 -2.8112,3.672585 -2.3613,4.146612 0.3371,0.3552 2.6866,-0.252468 4.9036,-2.772027 0.4068,-0.440208 0.8137,-0.982311 1.151,-1.60835 0.7673,0.407643 2.4568,0.392932 4.2721,-0.190897 2.238,-0.719785 3.7117,-1.943256 3.4168,-2.669149 -0.3238,-0.796912 -2.4225,-0.785809 -4.6252,-0.0703 -0.9645,0.313292 -1.7969,0.708495 -2.4008,1.092236 0.055,-0.294581 0.092,-0.600098 0.1009,-0.917911 0,-0.14452 -0.01,-0.290463 -0.021,-0.437811 -0.069,-0.635248 -0.3026,-1.263164 -0.6964,-1.840397 -0.013,-0.01788 -0.028,-0.03381 -0.041,-0.05144 0.1658,-0.05996 0.3208,-0.128876 0.478,-0.189185 0.2658,-0.102048 0.4553,-0.138279 0.5147,0.144602 -0.073,0.169287 -0.1215,0.331804 -0.055,0.265774 0,-0.0026 0.01,-0.0054 0.01,-0.0086 0.134,-0.05498 0.4154,-0.176971 0.7063,-0.389228 0.2831,-0.184641 0.5364,-0.480796 0.6189,-0.776167 0.085,-0.30273 -0.019,-0.537517 -0.225,-0.743591 -0.1015,-0.101412 -0.5452,-0.441919 -0.6202,-0.505251 -0.173,-0.146189 -0.3508,-0.326961 -0.5735,-0.376083 -0.2309,-0.07808 -0.5697,-0.103429 -1.0761,0.04115 -0.02,0.0039 -0.04,0.0082 -0.061,0.01314 -0.4821,0.117264 -0.9747,0.516234 -1.3172,1.044797 -0.014,0.03651 -0.021,0.06897 -0.033,0.104023 -0.1676,-0.08844 -0.337,-0.168546 -0.5074,-0.236622 -1.1937,-0.476971 -2.3411,-0.608417 -3.2593,-0.609848 -1.9185,-0.01721 -3.2241,0.358405 -3.8174,0.716156 0,-0.0026 0,-0.0054 0,-0.008 -1.0088,-2.678133 -2.1329,-5.025386 -3.4709,-7.143263 -1.3276,-2.107201 -2.7823,-3.817892 -4.4363,-5.182837 -1.1308,-0.934547 -2.3024,-1.630207 -3.4489,-2.125602 0.011,-0.125254 0.018,-0.257961 0.02,-0.400088 0.01,-1.038224 -0.2977,-2.622166 -1.4561,-4.228344 -0.7715,-1.123247 -2.1552,-2.283749 -4.2,-2.743452 -0.1384,-0.03111 -0.2786,-0.05895 -0.4206,-0.08287 -0.2378,-0.03251 -0.4755,-0.04999 -0.7123,-0.05315 z m 38.5434,83.372912 c 0,0.02391 0.01,0.023 0.011,-0.05258 0,0.01844 -0.01,0.03469 -0.011,0.05258 z m -38.6262,-80.453994 c 0.084,0.0035 0.1695,0.01115 0.2537,0.02285 0.058,0.0036 0.1169,0.0097 0.1756,0.01888 0.8391,0.130275 1.7237,0.832236 2.4361,1.48432 0.7507,0.734499 1.315,1.605415 1.7472,2.331933 -4.1866,-0.95338 -6.0986,0.415334 -6.1474,0.21662 0.1096,0.445873 2.1667,-0.651615 6.0786,0.57441 0.2234,0.06911 0.4487,0.148907 0.6756,0.234907 0.3849,0.629697 0.6935,1.026926 0.9988,1.000791 0.1451,-0.01244 0.2849,-0.140255 0.3992,-0.362938 0.9287,0.493804 1.8657,1.134876 2.78,1.960996 1.4729,1.332419 2.7395,2.981094 3.9322,5.039379 1.1961,2.070236 2.1832,4.354803 3.0797,6.991226 1.8523,5.450051 2.987,11.325792 3.8088,18.545731 0.7827,6.906193 1.1297,14.2187557 1.1162,22.4025655 -0.013,7.4554245 -0.3375,15.2819305 -1.0081,23.5862505 -0.5744,7.110666 -1.3956,14.515549 -2.5643,22.096783 -0.9051,5.866696 -2.0025,11.919188 -3.551,17.915881 -0.5659,2.190111 -1.1905,4.379599 -1.9555,6.522555 -0.5517,1.53284 -1.1325,3.025494 -1.9267,4.372946 -0.5006,0.847511 -1.0383,1.645509 -1.6797,2.329077 -0.487,0.508529 -0.9829,0.952161 -1.5229,1.227694 -0.2575,0.131902 -0.5227,0.239041 -0.7811,0.304065 -0.1561,0.03929 -0.3092,0.06317 -0.4566,0.06801 -0.3861,0.03509 -0.8365,-0.05468 -1.2838,-0.206902 -0.5522,-0.189018 -1.0952,-0.525071 -1.6417,-0.921343 -0.6756,-0.498491 -1.2923,-1.100403 -1.886,-1.74952 -1.5827,-1.733513 -2.8463,-3.728773 -4.0111,-5.778395 -1.5289,-2.703767 -2.8136,-5.512786 -3.9729,-8.329232 -1.4124,-3.434072 -2.6298,-6.903073 -3.7173,-10.342237 -2.661,-8.415917 -4.5879,-16.763292 -6.0399,-24.72764 -1.735,-9.522463 -2.7689,-18.461877 -3.222,-26.8892515 -0.5065,-9.4596192 -0.2848,-17.6290315 0.7251,-25.2163175 0.5264,-3.954761 1.2403,-7.495507 2.1898,-10.788623 0.997,-3.453243 2.1641,-6.365971 3.5824,-8.949939 1.5927,-2.896277 3.3011,-5.029957 5.0999,-6.678588 3.8088,-3.492845 6.8866,-3.901091 6.7543,-4.232345 0.015,0.03851 -1.1032,0.07438 -2.8888,0.795031 0.2541,-0.200274 0.5043,-0.66628 0.8058,-1.310001 0.374,-0.798638 0.9155,-2.117013 1.868,-2.888053 0.3242,-0.270676 0.6879,-0.509911 1.0368,-0.5927 0.2107,-0.0635 0.4595,-0.08945 0.713,-0.07887 z m 5.6354,28.673636 c -0.4434,0.03184 -1.0728,0.237696 -1.8226,0.578984 -1.3496,0.614249 -2.5012,1.348853 -4.2113,2.269635 -0.018,0.01004 -0.037,0.02028 -0.055,0.03029 -1.6356,0.887638 -2.9389,1.427259 -4.1639,1.978142 -1.1197,0.503522 -1.8971,0.907674 -1.8499,1.315715 0.045,0.389447 0.9308,0.727402 2.4207,0.692148 1.4971,-0.03542 3.4762,-0.460021 5.4218,-1.514042 0.023,-0.01238 0.045,-0.02467 0.068,-0.03715 1.8234,-1.012807 3.1746,-2.254477 3.957,-3.182975 0.8012,-0.950735 1.122,-1.694379 0.8185,-1.991289 -0.1174,-0.114859 -0.3168,-0.158561 -0.5828,-0.139461 z m -27.9758,13.834998 c -0.2558,3.0796802 -0.3976,6.2788925 -0.4293,9.6283699 -0.4306,-0.7710049 -1.529,-1.9609399 -2.6771,-3.4904688 -0.5837,-0.8303103 -1.2823,-1.7460465 -1.394,-2.5102593 -0.01,-0.037808 -0.01,-0.07583 -0.013,-0.1131677 -0.034,-0.2726479 -0.026,-0.5227628 0.053,-0.7030081 0.062,-0.22738 0.2979,-0.484668 0.5681,-0.733873 0.8437,-0.770867 2.3178,-1.333618 3.1585,-1.715229 0.2816,-0.12787 0.5251,-0.24787 0.733,-0.362364 z m 18.9249,9.2945848 c -1.3991,-0.018904 -2.6979,0.029205 -3.6178,0.1137384 -1.2905,0.1185961 -2.161,0.3324185 -2.2539,0.7293015 -0.092,0.3943429 0.6255,0.9017838 1.9348,1.3202858 1.3395,0.428178 3.1221,0.71158897 5.178,0.80245797 0.1441,0.0064 0.2869,0.01165 0.4286,0.01601 3.8489,0.124399 6.866,-0.50669697 6.9065,-1.23398297 0.046,-0.8288291 -2.9829,-1.4730587 -6.7316,-1.6832203 -0.14,-0.00805 -0.2808,-0.015685 -0.4226,-0.022299 -0.4782,-0.02227 -0.9557,-0.035997 -1.422,-0.042295 z m 12.9925,20.4604302 c -1.4912,0.03343 -4.167,0.538308 -7.209,1.015077 -0.2231,0.0344 -0.4489,0.0691 -0.6762,0.103449 -2.9523,0.446113 -3.9682,0.538735 -6.1267,0.807032 -1.5831,0.196761 -2.6566,0.37665 -2.7379,0.781314 -0.078,0.388031 0.8716,0.939802 2.6184,1.281418 1.7812,0.348373 4.1632,0.429381 6.8483,0.01428 0.2501,-0.03866 0.4963,-0.08074 0.7391,-0.125742 4.9438,-0.90488 8.0963,-2.910765 7.7657,-3.583062 -0.1115,-0.226675 -0.5439,-0.308972 -1.2217,-0.293776 z m -30.6816,6.012159 c 0.3812,2.93055 0.8232,5.910603 1.3465,8.955082 0.068,0.394849 0.1427,0.794939 0.213,1.191687 -0.3796,-0.805617 -1.5157,-2.132783 -2.8995,-3.777391 -0.6961,-0.842513 -1.5723,-1.841865 -2.1417,-2.761742 -0.1367,-0.22091 -0.2581,-0.439561 -0.3632,-0.657854 -0.1866,-0.426928 -0.3375,-0.736682 -0.3264,-0.967638 -0.019,-0.132921 0.01,-0.29703 0.073,-0.380083 0.1257,-0.239083 0.6387,-0.439877 1.131,-0.639568 1.3793,-0.498208 2.5313,-0.65096 2.9669,-0.962493 z m 58.8229,4.002009 c -0.7484,-0.005 -1.3964,0.134099 -1.882,0.316639 -0.4813,0.180901 -0.9276,0.451012 -1.0749,0.823606 -0.1519,0.384403 0.046,0.829138 0.6256,1.201404 0.5789,0.371547 1.4422,0.601862 2.3593,0.584699 l 0.01,0 c 0.8892,-0.0054 1.6197,-0.209573 2.1197,-0.469816 0.4998,-0.260073 0.852,-0.617538 0.8793,-1.014507 0.028,-0.407828 -0.2949,-0.784054 -0.8853,-1.053371 -0.5925,-0.270325 -1.3659,-0.395432 -2.143,-0.388654 l -0.01,0 z m -28.5633,8.840772 c -0.4623,0.02715 -1.1375,0.223913 -1.9541,0.548691 -1.2598,0.501046 -3.0798,1.402408 -4.8088,2.597134 -0.064,0.04357 -0.1274,0.08802 -0.191,0.132598 -1.8515,1.297602 -3.1872,2.669561 -3.9676,3.911705 -0.7596,1.209065 -0.8646,2.09274 -0.4727,2.30507 0.4024,0.217954 1.2196,-0.25142 2.3313,-0.991072 0.6453,-0.429336 3.0746,-2.103801 4.2862,-2.967498 0.059,-0.04211 0.1176,-0.08432 0.1762,-0.126313 1.6888,-1.199104 3.0681,-2.223006 4.0878,-3.236132 0.9691,-0.962827 1.3934,-1.721137 1.0996,-2.030724 -0.1089,-0.114731 -0.3095,-0.159747 -0.5869,-0.143459 z m 10.2452,43.293375 c -3.1729,0.028 -5.5866,0.965577 -5.4296,1.800959 0.075,0.399408 0.7408,0.670862 1.7084,0.85047 0.4543,0.08434 1.01,0.15248 1.6216,0.200616 0.074,0.08551 0.1544,0.17256 0.2404,0.26177 0.6433,0.667562 1.6796,1.510288 2.8801,2.298784 2.4651,1.619207 4.9358,2.497536 5.5305,1.818678 0.5357,-0.611501 -0.933,-2.49678 -3.4523,-4.143752 -0.1759,-0.115017 -0.3513,-0.224472 -0.5267,-0.329788 1.7166,-0.227579 2.9221,-0.671646 2.9221,-1.258558 0,-0.762831 -2.4089,-1.526415 -5.4945,-1.499179 z"
       id="path4236"
       inkscape:connector-curvature="0" />
    <path
       style="opacity:1;fill:#241f1c;fill-opacity:1;fill-rule:evenodd;stroke:none;stroke-width:50;stroke-linecap:square;stroke-linejoin:miter;stroke-miterlimit:4;stroke-dasharray:none;stroke-dashoffset:0;stroke-opacity:1"
       d="m 771.15786,-96.954482 c -7.81004,-0.704355 -14.52117,-0.703035 -20.26273,-0.277868 -10.84283,0.797003 -16.88755,3.151644 -16.7491,3.702619 0.13936,0.55454 6.36652,-0.658887 16.85558,-0.605044 5.64007,0.03246 12.07883,0.400042 19.69454,1.387037 11.5874,1.506025 24.87349,4.268607 38.59283,9.360719 0.99871,0.370569 1.98815,0.748974 2.96916,1.135923 6.68447,2.638615 12.76899,5.592137 18.29982,8.994665 5.68824,3.505932 10.43006,7.225122 14.30165,11.348569 4.30357,4.590818 7.1064,9.217994 8.75003,13.652242 3.76053,10.048862 1.31381,16.341015 2.50006,16.563796 -0.13614,-0.02622 3.70877,-6.128663 0.46845,-17.532234 -1.428,-4.974823 -4.1946,-10.294779 -8.65405,-15.441006 -3.9908,-4.612826 -8.94678,-8.787683 -14.85374,-12.581556 -5.74171,-3.694195 -12.07636,-6.869265 -18.98862,-9.612196 -1.01329,-0.402392 -2.03547,-0.795554 -3.06756,-1.178445 -14.184,-5.261974 -27.93892,-7.847008 -39.85632,-8.917221 z m -80.57244,-4.484358 c -5.32534,-0.42185 -11.5595,-0.54146 -18.59845,-0.046 -8.73646,0.60878 -19.18294,2.441925 -29.08091,7.342561 -7.06586,3.510863 -13.83659,8.766319 -19.06266,15.778121 -3.80777,5.136396 -6.70226,11.01492 -8.70176,17.33808 -0.47238,1.493927 -0.88925,2.995652 -1.25406,4.498298 -2.10461,8.654444 -2.62621,17.36833 -2.34198,25.518685 0.33468,9.746559 1.79882,18.982306 3.63954,27.2195741 7.349,32.9044749 19.89809,51.6766579 20.03583,51.6108549 1.47358,-0.704124 -9.52065,-20.157288 -15.84978,-52.4889715 -1.58371,-8.0955805 -2.84021,-17.1014775 -3.04234,-26.4757395 -0.16488,-7.841545 0.37633,-16.124525 2.37268,-24.204255 0.34626,-1.398875 0.73766,-2.794669 1.17613,-4.18021 1.85583,-5.86449 4.47467,-11.267877 7.90171,-15.930915 4.6495,-6.364343 10.78242,-11.245664 17.20634,-14.593255 9.02731,-4.721173 18.94409,-6.7264 27.33955,-7.650112 24.17779,-2.641326 39.2926,1.950759 39.57859,0.201807 -0.0309,0.190873 -7.70905,-2.860763 -21.31831,-3.938553 z m 34.4639,11.212281 c -0.56629,0.0028 -3.34269,2.011714 -7.14575,6.266991 -3.9869,4.460981 -9.26937,11.674346 -12.97614,21.396177 -3.44534,9.072301 -5.33909,19.866666 -4.61507,31.684391 0.002,0.04333 0.007,0.08694 0.009,0.130289 0.75571,11.99365 3.94859,22.8406989 7.71535,31.71720285 7.94942,18.74767215 17.71618,28.29566715 18.11968,27.99969715 1.05312,-0.772458 -7.2684,-11.280143 -14.11064,-29.5990234 -3.24619,-8.6989229 -6.07677,-19.1168806 -6.77346,-30.4263456 -0.002,-0.04103 -0.004,-0.08123 -0.007,-0.122272 -0.67191,-11.137816 0.87108,-21.267404 3.76181,-29.919084 3.07488,-9.246565 7.60721,-16.512092 10.89226,-21.27237 3.34669,-4.849532 5.59267,-7.455376 5.21404,-7.829844 -0.0186,-0.01899 -0.0458,-0.02712 -0.0833,-0.02456 z m 67.64922,20.154588 c -5.71146,-0.646912 -8.99215,1.294788 -8.89414,1.865895 0.17324,1.00869 4.58456,0.607742 10.2722,2.725036 2.80253,1.031549 5.61443,2.549212 8.72517,4.675655 0.0191,0.01325 0.0395,0.02658 0.059,0.03899 4.26587,2.91975 8.91039,7.077619 11.57155,9.255973 3.0331,2.482856 5.1147,3.850435 5.62608,3.366148 0.4779,-0.452582 -0.68418,-2.666222 -3.10612,-5.808535 -2.34068,-3.036866 -6.22323,-7.380139 -11.2737,-10.895109 -0.0217,-0.01635 -0.043,-0.02977 -0.0642,-0.04436 -3.42807,-2.372733 -6.92345,-3.943036 -10.32182,-4.73251 -0.91237,-0.209578 -1.77791,-0.35486 -2.59382,-0.447192 z m -187.01101,10.944262 c -2.47537,-0.170731 -6.90145,-0.12834 -12.92011,0.739978 -9.48344,1.36822 -23.27736,4.978805 -37.23273,14.01099 -12.71754,8.240645 -25.05949,20.64124 -33.64061,37.1092089 -0.22004,0.4221313 -0.43681,0.8444018 -0.64993,1.2684344 -8.49632,16.8908177 -11.20042,34.3987737 -9.9949,49.6412887 1.28371,16.057511 6.89317,28.691518 11.60392,36.615893 4.79484,8.065897 8.75314,11.717368 9.00336,11.524047 0.47174,-0.364452 -2.77068,-4.548908 -6.78167,-12.727985 -3.94641,-8.047428 -8.73598,-20.432081 -9.52437,-35.696651 -0.76352,-14.522895 2.0555,-31.090431 10.1244,-47.1271706 0.20275,-0.4028208 0.40828,-0.8048522 0.61734,-1.2060851 8.1493,-15.6396213 19.72833,-27.5970743 31.66009,-35.7697063 13.06209,-8.957901 26.17331,-13.058419 35.28063,-15.11176 9.23573,-2.082311 14.74485,-2.263669 14.72629,-2.86565 -0.003,-0.123747 -0.78645,-0.302447 -2.2717,-0.404947 z m 230.60328,21.500827 c -0.53731,-0.05789 -1.08297,-0.09039 -1.63426,-0.09419 -1.94484,-0.0039 -3.89694,0.363229 -5.73803,1.09151 -1.55965,0.636125 -3.00019,1.482653 -4.31255,2.492126 -1.78628,1.374033 -3.29174,3.016296 -4.51438,4.755072 -2.44036,3.420062 -4.0175,7.220745 -4.92219,10.965752 -0.99507,4.043162 -1.22481,8.094131 -0.67067,11.9233993 0.53734,3.8988897 2.03723,7.46666395 4.43532,10.2105015 1.3052,1.4658683 2.83901,2.5960402 4.44794,3.3841845 1.97736,0.9580913 4.00263,1.3999181 5.84452,1.5315317 4.9645,0.3273019 9.20462,-1.1470027 11.48877,-2.139161 2.49611,-1.0843022 3.67428,-1.9992451 3.57194,-2.2486753 -0.12807,-0.312315 -1.54202,0.040943 -4.10736,0.5737394 -2.28599,0.4748556 -6.51121,1.3321547 -10.58248,0.6166606 -1.50579,-0.2563739 -3.09641,-0.7366507 -4.50916,-1.5681502 -1.15139,-0.6690408 -2.23166,-1.5865003 -3.12279,-2.7157252 -1.70341,-2.10265358 -2.66638,-4.9658023 -3.05044,-8.2143637 -0.35529,-3.2243226 -0.0369,-6.6701636 0.88846,-10.1746936 0.87096,-3.233926 2.25091,-6.463013 4.29333,-9.254059 1.0341,-1.388039 2.22135,-2.689465 3.54836,-3.734614 0.97568,-0.76847 2.01104,-1.385926 3.10293,-1.804832 1.25853,-0.505047 2.60205,-0.772244 3.91719,-0.78166 1.49924,-0.02232 3.03171,0.304731 4.48285,0.834605 4.38899,1.556547 8.08619,5.150107 11.10495,8.520494 1.91482,2.198604 3.25724,4.571891 3.83967,6.990003 0.61218,2.398893 0.49352,4.919497 0.0961,7.1215556 -0.5072,2.79257 -1.5649,5.5109868 -2.40811,7.5417004 -2.056,4.9348314 -3.54175,7.6793744 -3.04036,7.9734201 0.27659,0.1623215 2.46835,-2.1166131 5.25261,-6.86674181 1.17046,-1.99121229 2.5817,-4.72235949 3.45925,-7.89160259 0.69647,-2.5117757 1.0453,-5.5219557 0.47589,-8.6923027 -0.60406,-3.171767 -2.09348,-6.264082 -4.32534,-8.994261 -3.01876,-3.806355 -7.15269,-7.955683 -12.72995,-10.211512 -1.42831,-0.56517 -2.97002,-0.967121 -4.58203,-1.139764 z m 24.19417,10.366133 c -0.0754,-0.0036 -0.12368,0.01252 -0.14164,0.04024 -0.20198,0.319883 1.49292,1.579332 4.24612,4.169051 2.57966,2.426541 6.7198,6.641243 9.43503,12.370314 2.28626,4.7646613 3.66073,10.81661864 3.13277,17.5625137 -0.45211,5.8750483 -2.27861,11.9576723 -5.3371,18.0715123 -2.86615,5.709744 -6.7189,11.19288 -11.44615,16.302243 -0.12072,0.130111 -0.24117,0.259666 -0.36226,0.388844 -4.95801,5.279706 -10.40727,9.662583 -16.08981,13.102517 -6.06907,3.664473 -12.13216,6.132636 -18.08277,7.364562 -3.16911,0.65874 -6.2131,0.952471 -9.10332,0.908459 -3.22532,-0.0485 -6.19626,-0.510808 -8.85592,-1.251305 -3.35957,-0.93313 -6.21331,-2.30667 -8.49176,-3.672441 -5.66799,-3.393865 -7.97665,-6.530965 -8.49175,-6.097611 -0.14586,0.122727 1.47337,3.847153 7.12243,8.119925 2.27676,1.720385 5.2414,3.478407 8.87202,4.765115 2.87169,1.015809 6.12679,1.728182 9.6887,1.958105 3.18796,0.205496 6.55556,0.03297 10.04497,-0.562827 6.53473,-1.120425 13.19748,-3.601605 19.73618,-7.423426 6.13364,-3.576282 11.99267,-8.198555 17.26664,-13.815903 0.12889,-0.137229 0.25837,-0.274666 0.3867,-0.413044 5.03542,-5.431277 9.1118,-11.35081 12.11206,-17.552757 3.22079,-6.636352 5.02967,-13.391975 5.33107,-19.9312698 0.34203,-7.57509739 -1.55917,-14.260083 -4.42311,-19.3900562 -3.47713,-6.164122 -8.22265,-10.138495 -11.27644,-12.251862 -2.8257,-1.955573 -4.74122,-2.747194 -5.27265,-2.760978 z m -18.59434,2.930036 c -0.66625,-0.0748 -1.33423,-0.06197 -1.98879,0.03662 -0.29677,0.04482 -0.58762,0.106386 -0.87168,0.184468 -1.63108,0.422415 -3.05915,1.303075 -4.14759,2.484932 -1.25187,1.370225 -1.92122,3.060555 -2.03872,4.745713 -0.0927,2.389289 0.74195,4.329283 1.70443,5.678034 3.02598,4.308537 6.34463,4.7024515 6.58474,4.3958802 0.69625,-0.889084 -1.74522,-2.5594054 -3.242,-6.2860232 -0.41074,-1.075078 -0.76378,-2.344627 -0.5148,-3.324346 0.12249,-0.665242 0.4934,-1.363279 1.02239,-1.866474 0.48614,-0.47447 1.1555,-0.846669 1.86501,-1.025615 0.1225,-0.02654 0.24583,-0.04893 0.36845,-0.06646 0.54148,-0.07763 1.04915,-0.05937 1.42574,0.09968 0.46629,0.12246 0.93613,0.59281 1.22055,1.09217 0.57561,0.915164 0.59894,2.42029 0.57888,3.765517 -0.19387,4.7205561 -1.76762,7.7871836 -0.72947,8.2970594 0.45219,0.2223611 3.42329,-2.0548577 4.75181,-7.7024524 0.4263,-1.662168 0.60183,-3.897366 -0.30676,-6.290773 -0.64462,-1.567242 -1.90318,-2.953272 -3.70445,-3.729512 -0.64643,-0.251268 -1.31042,-0.41357 -1.97668,-0.488341 z m -150.04818,-7.144996 c -1.24196,0.424255 2.48074,10.893018 5.15498,26.6393196 1.10448,6.5388269 2.03628,14.2363895 1.56572,22.0134394 -0.0356,0.580885 -0.0796,1.158882 -0.12907,1.733385 -0.69921,7.978775 -2.90742,14.909162 -6.14656,20.546522 -3.50085,6.16043 -8.18889,10.732124 -11.32137,13.579536 -3.25896,2.962424 -5.31328,4.524822 -5.04781,4.964865 0.20939,0.347107 2.72774,-0.45573 6.59302,-2.945204 3.7425,-2.410386 9.14351,-6.724963 13.46268,-13.343462 3.91277,-6.052791 6.63285,-13.671154 7.39857,-22.368899 0.0547,-0.621368 0.10167,-1.245052 0.13815,-1.871666 0.49451,-8.4275473 -0.67353,-16.4574951 -2.17754,-23.1620539 -3.59395,-16.0861021 -8.91596,-25.9816661 -9.48965,-25.7856871 z m 37.91371,67.398472 c -0.0355,-0.0015 -0.0677,0.0057 -0.0959,0.0207 -0.3454,0.181149 1.78287,9.820516 12.87816,19.403965 4.81444,4.14096 10.85884,7.720178 18.03831,10.291706 0.24674,0.08848 0.49333,0.175205 0.73993,0.260195 7.45071,2.569204 14.84989,3.73498 21.05052,4.282087 12.82108,1.136768 21.36634,0.02998 21.3908,-0.648875 0.0411,-1.139167 -8.48683,-1.634664 -20.86944,-3.595525 -5.94709,-0.944422 -13.02434,-2.305797 -19.94581,-4.72269 -0.2295,-0.08003 -0.45912,-0.161539 -0.68879,-0.244199 -6.69098,-2.409054 -12.30819,-5.488021 -16.95027,-9.027132 -5.15236,-3.909308 -8.8817,-8.242855 -11.3327,-11.259967 -2.3397,-2.880159 -3.68106,-4.735512 -4.21465,-4.759534 z M 510.16692,19.551559 c -0.7789,-0.0034 -3.83925,0.969105 -8.37726,3.722016 -2.76845,1.677181 -5.83915,3.834274 -9.41739,6.742182 -6.30868,5.126047 -12.9538,11.500441 -20.60873,20.042164 -6.88484,7.679077 -13.93234,16.414616 -21.13717,26.434068 -5.89318,8.194297 -11.74532,17.051518 -17.35421,26.544221 -0.70915,1.20015 -1.40789,2.3996 -2.0964,3.59811 -6.11923,10.64954 -11.29,20.97772 -15.55111,31.19025 -4.40628,10.54971 -7.53331,20.20449 -9.42176,29.58591 -0.95083,4.72439 -1.51761,9.13988 -1.70044,13.3565 -0.19267,4.3941 0.0585,8.33891 0.71431,11.93187 0.74605,4.09946 2.00356,7.42932 3.46209,10.07312 3.23494,5.85519 6.67832,7.35811 6.73557,7.29406 0.38563,-0.43135 -2.48939,-2.51385 -4.935,-8.18129 -1.11973,-2.58892 -2.02172,-5.72741 -2.48707,-9.60696 -0.40669,-3.40461 -0.4367,-7.10528 -0.0696,-11.28802 0.35477,-4.01186 1.06314,-8.20347 2.13069,-12.74081 2.12503,-9.03457 5.38049,-18.28247 9.8662,-28.59369 4.33755,-9.9603 9.49686,-20.04073 15.55317,-30.54823 0.68085,-1.18106 1.37014,-2.36311 2.06962,-3.54698 5.53328,-9.364898 11.25142,-18.139073 16.97309,-26.307711 7.00758,-10.003042 13.74973,-18.728274 20.32277,-26.518819 7.35661,-8.715013 13.4675,-15.114933 19.39267,-20.567025 3.3506,-3.082697 6.1046,-5.358173 8.65149,-7.275934 4.672,-3.512884 7.60852,-4.962491 7.47593,-5.2807 -0.0171,-0.03798 -0.0802,-0.05792 -0.19142,-0.0582 z m 341.5123,42.797798 c -0.0324,-0.0034 -0.0587,6.93e-4 -0.0824,0.01319 -0.41824,0.232815 0.49291,2.499141 1.80657,6.467684 1.3966,4.219313 2.9156,9.43381 4.24023,16.740004 1.37196,7.61778 2.24754,16.303028 2.08508,26.017908 0.003,0.097 -0.002,0.19305 -0.004,0.28937 -0.19175,9.80057 -1.37687,18.2669 -3.293,25.77709 -1.81368,7.05647 -3.90012,12.02882 -5.82677,15.90939 -1.82312,3.6724 -3.13984,5.68785 -2.76402,5.99697 0.30625,0.25178 2.28552,-1.24221 4.84153,-4.72591 2.62589,-3.57914 5.50228,-8.81138 7.79421,-16.01505 2.47015,-7.71934 4.01447,-16.68431 4.20691,-26.84676 -0.002,-0.10074 0.002,-0.20142 0.005,-0.30192 0.1714,-10.09107 -1.02018,-19.188961 -2.90976,-26.976761 -1.77751,-7.360413 -4.01807,-12.89248 -6.12148,-16.834082 -1.91648,-3.591538 -3.49165,-5.4571 -3.97772,-5.511187 z M 604.54279,41.571813 c -0.0346,-0.0088 -0.0661,-0.0052 -0.0938,0.0065 -0.48801,0.189139 0.0424,2.657907 1.05352,6.8112 0.93334,3.834194 2.58515,10.278051 3.29994,16.86317 0.53581,5.047314 0.62005,10.889811 -0.93911,16.38119 -0.0982,0.345426 -0.20214,0.688125 -0.31218,1.02718 -1.75791,5.598838 -5.2556,10.319509 -8.84394,13.899043 -4.38872,4.377674 -9.51684,7.777164 -12.59868,9.839424 -3.31462,2.21802 -5.25924,3.53321 -5.04212,3.99582 0.19018,0.40537 2.51944,-0.0838 6.28862,-1.68103 3.60737,-1.52853 9.14773,-4.36304 14.36224,-8.920162 4.2584,-3.725174 8.38738,-8.97469 10.55576,-15.618588 0.1265,-0.398959 0.24545,-0.800809 0.35765,-1.205112 1.7915,-6.465521 1.5511,-12.927797 0.63504,-18.336651 -1.19868,-7.163262 -3.49405,-13.303996 -5.1981,-17.123023 -1.66306,-3.727101 -3.0007,-5.830392 -3.5248,-5.93799 z m 45.82545,7.152337 c -0.60948,-0.014 -1.42351,0.142706 -2.38253,0.520102 -1.96139,0.771945 -4.15328,2.325821 -6.13183,4.623448 -0.0956,0.111125 -0.1896,0.223259 -0.28175,0.334535 -1.78745,2.128706 -3.04293,4.394545 -3.70789,5.958385 -0.69009,1.62298 -0.90233,2.829384 -0.39512,3.253726 0.51597,0.431675 1.67658,-0.01631 3.12199,-1.156508 1.53226,-1.208825 2.99573,-2.843785 4.74138,-4.827874 0.0869,-0.09709 0.17436,-0.19444 0.26161,-0.292522 0.75985,-0.85527 4.22077,-4.843882 4.36118,-5.008451 1.09731,-1.286347 1.85794,-2.278441 1.56874,-2.902646 -0.14119,-0.304811 -0.54621,-0.488485 -1.1557,-0.502189 z m 6.43957,9.791968 c -0.5281,-0.01943 -1.21573,0.120921 -2.01338,0.468272 -1.61772,0.704565 -3.38714,2.141964 -4.80573,4.22041 -0.0266,0.04029 -0.0545,0.07991 -0.0811,0.120491 -1.31157,1.920444 -2.11038,3.909758 -2.47909,5.263009 -0.38263,1.404344 -0.41132,2.480115 0.12614,2.880496 0.54817,0.408375 1.5863,0.03964 2.79435,-0.988345 1.26539,-1.076881 2.40771,-2.57626 3.63907,-4.336507 0.0231,-0.03335 0.0481,-0.06712 0.0718,-0.100725 0.98893,-1.383558 2.39699,-3.496027 2.92567,-4.340623 0.71442,-1.141312 1.2095,-2.091075 0.88137,-2.689606 -0.16198,-0.295564 -0.53088,-0.476849 -1.05891,-0.496773 z m 17.6643,7.974295 c -0.14017,-4.86e-4 -0.24903,0.02866 -0.31948,0.08516 -0.88317,0.705867 0.59923,3.158083 1.18586,6.663117 0.25593,1.426753 0.33405,3.009929 0.17207,4.751484 -0.003,0.03593 -0.007,0.07213 -0.0102,0.108032 -0.22237,2.593425 -1.19774,6.172357 -1.55023,8.047391 -0.42322,2.251723 -0.42324,3.775577 0.22155,4.042007 0.60554,0.250347 1.75619,-0.7653 3.03051,-2.725163 1.23091,-1.892973 2.78455,-5.033911 3.23198,-8.853466 0.005,-0.04879 0.0102,-0.09855 0.0149,-0.147622 0.2314,-2.382459 -0.13111,-4.616309 -0.87134,-6.498891 -1.6137,-3.987158 -4.12558,-5.466854 -5.1062,-5.472326 z m -8.5354,1.91234 c -0.0558,9.55e-4 -0.10741,0.0053 -0.15506,0.01764 -1.01565,0.284934 -1.01307,2.420638 -1.70281,4.763016 -0.27075,0.976629 -0.6607,1.982126 -1.20281,3.10242 -0.0178,0.03787 -0.0363,0.0754 -0.0544,0.112943 -1.26637,2.654717 -1.75505,2.940824 -2.77245,5.270785 -0.68523,1.569249 -0.84637,2.745173 -0.30206,3.168371 0.52131,0.404831 1.64262,0.02069 3.01552,-0.971197 1.32934,-0.960411 3.16757,-2.711989 4.48794,-5.237736 0.0277,-0.05353 0.0553,-0.107639 0.082,-0.162124 0.79098,-1.604521 1.15126,-3.274117 1.14828,-4.816657 -0.0492,-3.530889 -1.70899,-5.225916 -2.54472,-5.247673 z m -153.98693,4.211826 c -0.33132,-0.05169 -3.08055,6.316742 -1.42308,17.427624 0.71844,4.7856 2.2438,10.033547 4.83482,15.639897 2.11874,4.58687 4.74909,9.06767 7.86028,13.73018 1.67036,2.50558 3.39851,4.94856 5.20515,7.47237 1.16502,1.62746 2.24975,3.13183 3.37105,4.70921 2.74311,3.86764 5.14593,7.34668 7.14794,11.03934 1.91813,3.57031 3.27675,6.897 3.77912,10.24243 0.27073,1.74156 0.31088,3.43289 0.1435,5.02618 -0.19305,1.88004 -0.68045,3.65593 -1.2935,5.23781 -3.28244,8.57558 -8.68188,11.38752 -7.70453,12.48025 -0.13716,-0.15321 6.08446,-1.91168 10.75771,-11.11247 0.88217,-1.75433 1.62546,-3.79321 2.02954,-6.06026 0.33851,-1.92105 0.4263,-3.97206 0.21367,-6.09034 -0.42096,-4.02721 -1.78272,-7.97614 -3.78283,-11.89198 -2.04678,-4.04252 -4.51281,-7.79187 -7.25519,-11.71276 -1.10772,-1.5873 -2.22622,-3.15327 -3.37297,-4.75506 -1.81334,-2.53293 -3.51233,-4.89867 -5.17956,-7.32916 -3.09472,-4.51579 -5.70718,-8.68691 -7.88123,-12.94531 -2.64953,-5.192118 -4.36105,-9.938883 -5.40346,-14.34502 -2.40325,-10.109454 -1.07514,-16.615375 -2.0464,-16.762928 z m -21.84974,-0.412683 c -1.38765,-0.136971 -7.164,0.49293 -15.03391,4.584662 -3.52385,1.832583 -7.47254,4.466105 -11.06129,8.158297 -2.77003,2.856681 -5.2825,6.330183 -7.22405,10.368726 -1.75347,3.656567 -3.00278,7.657049 -3.72555,11.884769 -0.0102,0.0483 -0.014,0.0977 -0.0242,0.14596 -1.56712,9.40421 -0.53597,18.52806 1.03609,25.93624 3.47781,16.49695 9.37356,26.23232 9.86105,26.0462 1.25336,-0.47849 -3.0638,-10.82048 -5.57568,-26.83504 -1.11531,-7.17533 -1.88915,-15.81793 -0.43134,-24.32143 0.009,-0.0437 0.0133,-0.0887 0.023,-0.13215 0.66011,-3.82714 1.72808,-7.4141 3.21296,-10.675461 1.63274,-3.596744 3.7487,-6.753797 6.09032,-9.411339 3.02545,-3.442562 6.48101,-6.10366 9.58696,-8.111327 7.96988,-5.151997 13.8626,-6.580468 13.58495,-7.540211 -0.0113,-0.04292 -0.12103,-0.07794 -0.31931,-0.09763 z m 49.82638,21.331772 c -0.4912,-0.05969 -1.13736,0.02365 -1.90068,0.300035 -1.5641,0.565892 -3.20438,1.788584 -4.61636,3.489897 -0.0537,0.06174 -0.10697,0.124631 -0.16015,0.187545 -1.39697,1.657503 -2.36942,3.411515 -2.87319,4.667985 -0.51913,1.29473 -0.65909,2.33342 -0.17075,2.80531 0.4952,0.47852 1.54953,0.27955 2.83982,-0.53417 1.32843,-0.83779 2.66477,-2.15495 4.00043,-3.74527 0.0484,-0.0575 0.0969,-0.11507 0.14407,-0.17242 1.18989,-1.368027 2.32848,-3.061753 2.8792,-3.936178 0.63997,-1.016143 1.1081,-1.896936 0.82676,-2.49594 -0.14201,-0.302071 -0.47812,-0.506684 -0.9693,-0.566814 z m 6.8485,8.240172 c -1.36657,-0.17308 -3.85101,3.98626 -5.51508,9.54068 -1.6997,5.67324 -2.00077,10.58115 -0.74144,10.98378 1.3478,0.43093 3.79304,-3.88049 5.4935,-9.561 1.68164,-5.61751 2.1379,-10.49351 0.89171,-10.93289 -0.0416,-0.0152 -0.0845,-0.0247 -0.12853,-0.0313 z m 238.90631,21.49487 c -0.18539,-0.0171 -0.32712,0.0141 -0.42213,0.10269 -0.49488,0.46128 0.44808,2.43556 2.60241,5.12041 2.21726,2.76325 5.42577,5.93207 9.52597,9.25086 3.93619,3.18595 7.95313,5.91163 10.76464,7.58388 2.89757,1.72344 4.88901,2.56145 5.32274,2.03401 0.43527,-0.52923 -0.77453,-2.33347 -3.14079,-4.7856 -2.45062,-2.53956 -5.78191,-5.42772 -9.82597,-8.69227 -3.58175,-2.89129 -7.9204,-6.24066 -10.2263,-7.91771 -2.17748,-1.58366 -3.79769,-2.61769 -4.60057,-2.69627 z m -9.43092,3.20918 c -4.82978,-0.38349 -7.29677,0.89912 -7.26867,1.13758 0.073,0.62148 2.65915,0.22352 6.89128,1.2668 1.58722,0.39 3.4457,1.02637 5.21737,2.09493 1.37684,0.82524 2.73432,1.92716 3.95741,3.32152 1.1203,1.27323 2.10745,2.779 2.96788,4.50135 1.74553,3.4736 2.759,7.48765 3.3743,12.14167 0.61068,4.73345 0.67439,9.69515 0.36224,15.024 -0.027,0.44759 -0.0569,0.8959 -0.0869,1.34612 -0.36555,5.13003 -1.06719,10.08406 -1.93104,14.74565 -1.04635,5.63845 -2.30958,10.72997 -3.67794,15.33804 -1.56433,5.25654 -3.04083,9.24954 -4.59697,12.79959 -2.14179,4.8175 -4.00704,7.73682 -4.38513,8.64911 -0.15972,0.0547 -0.31129,0.11252 -0.44295,0.17475 -0.89347,0.42333 -1.32403,1.01917 -1.28553,1.5346 0.0411,0.54896 0.56908,0.99282 1.34519,1.3956 0.70284,0.36477 1.76637,0.73485 2.23677,1.20503 0.10595,0.10239 0.21939,0.31851 0.31403,0.5308 0.0195,0.0411 0.0354,0.0822 0.0517,0.12209 0.20086,0.4529 0.40222,1.58445 0.66736,2.43412 0.31186,1.09512 0.77872,2.00209 1.32812,2.58636 0.54264,0.57707 1.07958,0.74914 1.50588,0.58 0.70954,-0.2815 1.24704,-1.79577 1.43736,-3.57815 0.11758,-0.80637 0.19209,-2.02726 -0.22527,-3.53568 -0.0756,-0.24583 -0.16956,-0.48674 -0.2811,-0.72144 -0.59474,-1.25087 -1.62567,-2.1646 -2.82568,-2.66483 -0.96372,-0.30585 -1.82059,-0.37852 -2.54518,-0.32332 1.32299,-1.02426 3.4266,-3.32603 5.64674,-7.07396 2.04205,-3.41463 4.02062,-7.57231 5.93739,-12.827 1.70265,-4.6604 3.24427,-9.89631 4.47399,-15.69438 1.01981,-4.80223 1.81537,-9.94865 2.19961,-15.32348 0.035,-0.47116 0.0638,-0.94173 0.0905,-1.41094 0.32399,-5.57163 0.16099,-10.88656 -0.63748,-15.98321 -0.76907,-5.00334 -2.16913,-9.51542 -4.39869,-13.43379 -1.11956,-1.95952 -2.43811,-3.67799 -3.91509,-5.12174 -1.62586,-1.58586 -3.40396,-2.76632 -5.16751,-3.5872 -2.27849,-1.05411 -4.49702,-1.50355 -6.3331,-1.65045 z M 559.21396,110.04662 c -0.0622,-0.0113 -0.12461,-0.0164 -0.1877,-0.0102 -0.87736,0.0629 -1.69547,2.06359 -2.37446,4.79362 -0.29608,1.16633 -0.59382,2.55052 -0.8374,3.98476 -0.0766,0.45118 -0.14568,0.89654 -0.20748,1.33475 -0.25779,1.82816 -0.38142,3.50104 -0.33717,4.87002 0.0716,1.86891 0.40401,3.13633 1.15728,3.27078 0.65643,0.11707 1.57898,-0.81661 2.39167,-2.49916 0.60736,-1.23567 1.19127,-2.87983 1.61276,-4.75619 0.10136,-0.44958 0.19344,-0.9134 0.27443,-1.38926 0.26184,-1.54237 0.36993,-3.01142 0.33763,-4.34487 -0.0662,-3.02506 -0.89841,-5.06802 -1.82968,-5.25218 z m 9.62852,1.09921 c -0.29661,-0.0113 -0.5622,0.009 -0.78858,0.0446 -0.95229,0.15288 -1.45746,0.59724 -1.5164,1.03138 -0.0635,0.46801 0.32657,0.94358 0.91135,1.47589 0.53816,0.48984 1.35362,1.09063 1.49986,1.68806 0.19839,0.33701 0.1557,0.91317 0.23123,1.79654 0.004,0.18982 5e-5,0.38582 -0.007,0.58962 -0.11884,3.34893 -0.0946,-0.17908 -0.20809,3.25818 -0.12657,3.06214 0.41123,5.29428 1.48167,5.38651 0.91563,0.0789 2.0977,-1.79923 2.96592,-4.61619 0.33019,-1.02431 0.65257,-2.33848 0.70803,-3.84911 0.0116,-0.30213 0.0102,-0.60691 -0.001,-0.9132 -7.3e-4,-1.69579 -0.7481,-3.37685 -2.00322,-4.60299 -1.21628,-0.9502 -2.38397,-1.25706 -3.27387,-1.28957 z m 251.14573,39.81394 c -0.0558,8.4e-4 -0.10786,0.0113 -0.15341,0.0286 -0.9825,0.38102 -0.66666,2.74586 -1.17443,5.52618 -0.0113,0.0591 -0.0249,0.12012 -0.0357,0.17972 -4.8e-4,0.005 -2e-4,0.002 -0.008,0.0315 -0.20103,1.10264 -0.52448,2.2505 -1.00637,3.53066 -0.0299,0.0788 -0.0601,0.15794 -0.0904,0.23614 -1.68327,4.46659 -2.68509,7.10267 -3.2665,8.61129 -3.8e-4,0.44845 0.10437,0.77626 0.34413,0.93789 0.54309,0.36604 1.70133,-0.19122 3.1068,-1.4544 1.36002,-1.22242 3.20354,-3.35899 4.41743,-6.24832 0.0433,-0.10517 0.0854,-0.21166 0.12682,-0.31875 0.70457,-1.83882 0.95756,-3.69522 0.83782,-5.38891 -0.31508,-3.91625 -2.26018,-5.69664 -3.10041,-5.67188 z m -5.73246,18.14439 c 0.001,-0.0813 -0.003,-0.15967 0.004,-0.24968 -0.64319,1.8045 -0.88724,2.53856 -0.004,0.24968 z m 0.004,-0.24968 c 1.24856,-3.50283 4.11739,-11.34797 4.35829,-12.12879 9.8e-4,-0.0116 0.008,-0.0197 0.008,-0.0315 0.0206,-0.13383 -0.93498,2.35689 -3.78067,9.92836 -0.33232,0.8844 -0.53559,1.64453 -0.58425,2.23194 z m 17.20081,-14.99242 c -0.25316,-0.0274 -0.45487,0.0172 -0.59281,0.13087 -0.39232,0.32287 -0.30393,1.11656 -0.007,2.2253 0.26642,0.9945 0.82846,2.58302 0.85406,3.88935 0.058,0.93157 -0.16117,2.00504 -0.66224,3.01285 -0.007,0.0138 -0.0137,0.0249 -0.0178,0.0383 -0.55873,1.17286 -1.62457,2.46215 -2.48108,3.59322 -2.1778,2.80612 -3.61837,5.01343 -2.87612,5.78505 0.59569,0.61924 3.08717,-0.2889 6.0208,-2.68041 1.23923,-0.98553 2.69871,-2.42616 3.76273,-4.46297 0.0132,-0.022 0.0205,-0.0414 0.0313,-0.0624 1.0128,-2.03085 1.13911,-4.22364 0.63231,-6.10581 -0.71743,-2.32107 -2.04963,-3.80442 -3.03726,-4.56472 -0.64216,-0.49429 -1.2054,-0.75036 -1.62711,-0.79855 z m 17.89884,9.06612 c -1.20824,-0.11316 -2.2449,-0.009 -3.00305,0.16129 -1.25292,0.28092 -1.97502,0.77399 -2.01343,1.30362 -0.0366,0.55462 0.62082,1.08817 1.71111,1.61775 0.76965,0.37383 2.86279,1.16758 3.87942,1.74335 0.52448,0.35521 1.0616,0.71031 1.22112,0.99599 0.0302,0.0551 0.0492,0.1091 0.0549,0.16232 0.31368,0.47092 0.32761,1.57599 0.46656,2.6648 0.26061,3.09092 0.77162,5.37088 1.84696,5.41219 0.85548,0.0329 2.00249,-1.98348 2.57119,-5.17925 0.25677,-1.1482 0.39141,-2.84158 -0.32505,-4.8269 -0.14617,-0.3043 -0.30903,-0.59286 -0.48748,-0.86568 -0.98445,-1.50478 -2.32568,-2.36065 -3.585,-2.72344 -0.82531,-0.2545 -1.61227,-0.39881 -2.33746,-0.46594 z m -7.65054,7.52169 c -0.44139,-0.0525 -0.78529,0.0722 -0.99373,0.30333 -0.34188,0.37906 -0.34194,1.01242 -0.28186,1.71437 0.0602,0.70375 0.18617,1.52588 0.13711,2.3009 0.003,0.57177 -0.0614,1.15791 -0.15366,1.91411 -0.0358,0.28461 -0.0699,0.55011 -0.10303,0.84196 -0.14939,1.14416 -0.32911,2.1146 -0.35685,3.19769 -0.0314,0.70442 -0.0242,1.44696 0.22151,2.07868 0.2319,0.5971 0.58975,0.83436 0.9696,0.8216 0.34215,-0.0114 0.74006,-0.23895 1.07303,-0.44524 0.31473,-0.19508 0.86626,-0.5454 1.27811,-1.23474 0.58305,-0.78688 1.22119,-1.9392 1.61199,-3.41523 0.10832,-0.39216 0.19245,-0.8105 0.24395,-1.25094 0.13908,-1.18165 0.0256,-2.36441 -0.31382,-3.44411 -0.5589,-1.64307 -1.58624,-2.64349 -2.43813,-3.08752 -0.32726,-0.17044 -0.62772,-0.26412 -0.89263,-0.29479 z m -149.72605,8.1867 c -0.39253,-0.0395 -0.77858,-0.0694 -1.15713,-0.0906 -7.94351,-0.44554 -12.22045,2.01941 -12.15509,2.36762 0.18866,1.00461 4.73298,-0.0981 11.74113,1.19466 2.63834,0.48289 5.61259,1.37025 8.49932,2.94082 2.30445,1.2433 4.53027,2.90548 6.71803,4.9587 1.80438,1.69486 3.4985,3.59339 5.23255,5.68742 0.21964,0.26517 0.43795,0.53036 0.65484,0.79648 4.6742,5.75487 7.50942,9.91632 12.11804,14.45784 2.62561,2.58588 5.19265,4.53649 7.67717,5.97005 5.65757,3.25779 9.59722,3.16563 9.72031,2.73098 0.20532,-0.72507 -3.31199,-1.85948 -7.89031,-5.46037 -2.06231,-1.61792 -4.13809,-3.5898 -6.40603,-6.17556 -4.85058,-5.52583 -5.69565,-7.627 -11.36585,-14.64395 -0.22509,-0.27928 -0.4533,-0.55935 -0.68425,-0.83887 -1.82197,-2.20509 -3.71175,-4.25305 -5.77924,-6.10306 -2.5199,-2.25681 -5.20649,-4.0615 -8.00642,-5.36538 -3.09825,-1.43206 -6.1693,-2.15096 -8.91718,-2.42547 z M 461.3776,160.50014 c -0.7613,-0.0801 -1.65246,-0.0555 -2.67106,0.1335 -1.69038,0.33593 -3.39749,1.10238 -4.94556,2.27712 -0.0624,0.0473 -0.12438,0.0952 -0.1856,0.14336 -2.33682,1.83812 -3.93079,4.07609 -4.77816,5.5365 -0.89274,1.53875 -1.27139,2.7253 -0.83061,3.21811 0.45796,0.51203 1.69584,0.21275 3.31114,-0.77941 1.98231,-1.21755 3.05544,-2.35854 5.31736,-4.04117 0.0476,-0.0353 0.0952,-0.0709 0.14329,-0.10617 1.20309,-0.88819 2.2086,-1.54607 3.24692,-2.04231 2.28534,-1.15563 4.52033,-1.3639 4.69766,-2.36852 0.096,-0.5428 -1.02178,-1.7301 -3.30556,-1.97105 z m 5.32402,6.13776 c -0.84533,-0.0819 -1.93326,0.0961 -3.24685,0.80058 -1.51393,0.85341 -2.81593,2.18756 -3.74468,3.81298 -0.0866,0.14782 -0.17133,0.29699 -0.25357,0.44781 -1.33214,2.44134 -1.90264,4.92982 -2.09219,6.53915 -0.19764,1.67769 -0.0519,2.86946 0.55568,3.15477 0.62844,0.29491 1.63091,-0.40646 2.7026,-1.84227 1.20794,-1.6183 1.9556,-3.28391 3.17178,-5.45808 0.0664,-0.11944 0.13288,-0.23714 0.19965,-0.35332 0.76021,-1.2815 1.24679,-2.1427 1.9244,-2.87686 0.54872,-0.6833 1.29468,-1.20856 1.86235,-1.63845 0.5745,-0.43511 1.02737,-0.81631 1.0492,-1.2632 0.0171,-0.33325 -0.71933,-1.18752 -2.1284,-1.32311 z m 40.69502,3.5751 c -1.13874,-0.0837 -2.22907,-0.12199 -3.27877,-0.1154 -3.95148,0.0243 -6.3346,0.71524 -6.33512,1.38528 -3.1e-4,0.69658 2.34055,1.24837 5.95463,2.09331 -5.45505,-1.27534 17.70792,4.18132 14.27275,3.40143 0.0707,0.0176 0.1409,0.0325 0.21168,0.0483 5.90569,1.3628 10.68062,2.06062 14.86142,2.02074 3.91621,-0.0374 6.26497,-0.75089 6.259,-1.41616 -0.007,-0.69237 -2.32192,-1.21631 -5.88863,-2.0468 10.29758,2.39776 -22.3974,-5.27948 -14.12279,-3.39239 -0.071,-0.0177 -0.14149,-0.0325 -0.21246,-0.0494 -4.45798,-1.03131 -8.30527,-1.6801 -11.72159,-1.92912 z m -30.62585,-2.09372 c -0.0869,-0.0191 -0.17235,-0.0205 -0.25493,-0.0102 -0.67928,0.10573 -1.10856,1.16289 -1.55973,2.58349 0.13439,-0.42363 -1.57166,5.2005 -1.65231,5.46362 -0.0398,0.12492 -0.0758,0.2487 -0.11381,0.37233 -0.67738,2.1739 -1.24931,3.99068 -1.43242,5.7325 -0.17191,1.6345 0.0833,2.7338 0.71805,2.95188 0.62076,0.21342 1.49993,-0.4618 2.46219,-1.67039 0.92625,-1.16339 2.13893,-3.10285 2.9559,-5.45825 0.0515,-0.14651 0.10167,-0.29588 0.14907,-0.44612 0.83675,-2.63282 0.85829,-5.10394 0.40805,-6.92349 -0.38976,-1.57495 -1.07187,-2.46692 -1.68028,-2.5963 z m 7.91276,2.61602 c -0.70429,-0.0463 -1.15139,0.26751 -1.25408,0.53764 -0.22398,0.58863 0.32925,1.24533 0.53696,2.14183 0.10228,0.37654 0.15126,0.76276 0.18882,1.25027 0.119,1.01597 -0.0369,1.86979 -0.14173,3.50698 -0.0242,0.26793 -0.052,0.53745 -0.0795,0.8168 -0.14504,1.44716 -0.28803,2.7304 -0.33037,4.06929 -0.10198,3.03247 0.40651,5.20252 1.43346,5.29101 0.86838,0.0748 2.01706,-1.75112 2.90443,-4.53402 0.39129,-1.20549 0.76066,-2.69215 0.92551,-4.33018 0.0341,-0.32929 0.0578,-0.65774 0.0733,-0.98556 0.1251,-1.83154 -0.18345,-3.66214 -0.97854,-5.22066 -0.45697,-0.88149 -1.09955,-1.54908 -1.75177,-1.98105 -0.58897,-0.37634 -1.10338,-0.53404 -1.5259,-0.56227 z m 222.66838,27.49171 c -0.74201,-0.12366 -4.64113,1.77548 -9.22428,6.81426 -2.00008,2.202 -4.02648,4.93621 -5.86603,8.2414 -2.56829,4.63701 -4.30207,9.45869 -6.2207,15.09946 -0.15097,0.44445 -0.31241,0.91883 -0.46118,1.35667 -0.91737,2.67836 -1.77367,5.09922 -2.79102,7.427 -1.09724,2.50761 -2.28686,4.71399 -3.64722,6.66477 -1.70764,2.46029 -3.64005,4.45357 -5.4663,6.02953 -4.73275,4.09406 -8.50095,5.56157 -8.17008,6.39556 0.15637,0.39421 4.40402,0.14428 10.23607,-3.6153 2.26387,-1.46381 4.68622,-3.49023 6.87336,-6.18643 1.72329,-2.13232 3.22781,-4.5683 4.52868,-7.29088 1.19916,-2.50675 2.1811,-5.08936 3.12352,-7.80968 0.15855,-0.45453 0.31517,-0.91045 0.47189,-1.36835 1.98198,-5.79076 3.34269,-10.14387 5.49534,-14.64857 1.49527,-3.14624 3.09564,-5.8064 4.67089,-8.0721 3.82085,-5.5041 7.07662,-8.32979 6.55257,-8.98642 -0.021,-0.025 -0.056,-0.0425 -0.10551,-0.0509 z M 510.76892,185.62769 c -0.42239,-0.0387 -0.7252,0.0422 -0.88066,0.24405 -0.41683,0.5412 0.26691,1.82064 1.50226,3.5446 1.13079,1.57802 3.18882,4.15435 5.36528,6.41552 0.016,0.0159 0.0333,0.0347 0.05,0.0518 2.37426,2.48407 4.65186,4.36418 6.75132,5.54313 2.02459,1.13692 3.51552,1.39873 3.90923,0.84451 0.39797,-0.56014 -0.34474,-1.81551 -1.6302,-3.50411 -1.14867,-1.50894 -3.31727,-4.10821 -5.45422,-6.32013 -0.0161,-0.0159 -0.0323,-0.0346 -0.0491,-0.0517 -2.34819,-2.44877 -4.5398,-4.33852 -6.59278,-5.56543 -1.23215,-0.73633 -2.26739,-1.13657 -2.9712,-1.20218 z m 246.32457,29.17155 c -0.0882,0.004 -0.17163,0.0217 -0.24969,0.0532 -0.63195,0.25711 -0.84086,1.31973 -1.01751,2.6672 -0.11147,0.84975 -0.428,3.69976 -0.56096,5.26883 l -10e-4,0.0116 c -0.20782,2.17567 -0.35085,4.08437 -0.15468,5.74441 0.18641,1.58909 0.66363,2.60531 1.34759,2.69888 0.66993,0.0915 1.41858,-0.73062 2.10667,-2.10366 0.67084,-1.33863 1.38866,-3.43302 1.63599,-5.84912 l 0.002,-0.0143 c 0.2828,-2.55183 -0.15208,-4.83888 -0.95529,-6.44972 -0.69302,-1.38978 -1.53581,-2.05312 -2.15328,-2.02732 z M 602.43783,201.65323 c -2.68569,-0.19522 -5.3319,-0.0984 -7.97313,0.10437 -0.3698,0.0285 -0.73768,0.059 -1.10279,0.0906 -3.61238,0.30561 -7.2046,0.76669 -10.5593,1.20504 -4.04335,0.52742 -7.5438,1.00406 -11.25369,1.42041 -3.98193,0.44569 -7.55963,0.75637 -11.06571,0.86381 -3.74717,0.11067 -6.95451,9e-4 -9.98138,-0.44595 -3.36615,-0.50766 -5.9405,-1.3023 -8.09767,-2.44527 -4.59455,-2.41066 -5.66677,-5.39305 -6.30332,-5.07666 -0.0582,0.0289 -0.0193,3.62997 4.98387,7.19661 2.26444,1.6062 5.15535,2.88947 8.77127,3.71205 3.24492,0.74817 6.73134,1.11348 10.6433,1.1942 3.66544,0.0795 7.42515,-0.0838 11.49052,-0.41101 3.74127,-0.30018 7.42307,-0.71175 11.40726,-1.17085 3.34943,-0.3853 6.91612,-0.81431 10.3792,-1.10097 0.35511,-0.0286 0.70991,-0.0567 1.06421,-0.0832 2.53182,-0.18978 4.92911,-0.29974 7.25095,-0.14235 1.06626,0.0744 2.06456,0.18954 2.98284,0.41264 0.76412,0.19651 1.43173,0.41018 1.93663,0.72701 2.03384,1.22446 3.85573,2.59048 5.39198,4.14236 1.3058,1.31133 2.4156,2.76662 3.32588,4.28521 1.58123,2.59264 2.8403,6.26387 4.05656,9.06539 0.68291,1.59775 1.4541,3.10699 2.42008,4.50568 0.25001,0.35993 0.51253,0.70209 0.78234,1.03207 -0.81411,1.73322 -1.77479,3.82507 -3.03719,6.41294 -3.33097,6.82847 -7.76662,14.86614 -14.45255,24.07345 -0.28139,0.38742 -0.56317,0.77166 -0.84524,1.15336 -4.52106,6.10414 -8.86788,11.04993 -13.12834,15.26364 -7.71037,7.61052 -13.95862,11.41072 -13.59857,12.13276 0.18355,0.3679 2.0515,-0.0129 5.03723,-1.44559 3.05874,-1.46755 6.95072,-3.88535 11.3635,-7.61401 4.75331,-4.00897 9.61078,-9.08867 14.30522,-15.37904 0.29471,-0.39408 0.5875,-0.7917 0.87977,-1.19321 6.86025,-9.4239 11.17782,-18.37973 13.67862,-25.65417 0.75562,-2.19814 1.29836,-4.12237 1.69755,-5.78547 0.39306,0.34302 0.79434,0.66337 1.20322,0.95555 2.05733,1.45503 4.22004,2.30098 6.0198,2.81466 5.55563,1.59176 8.8286,0.95813 8.85871,0.73419 0.0916,-0.68429 -3.10279,-0.94375 -8.00518,-3.11221 -1.55304,-0.68977 -3.36988,-1.64249 -4.89634,-2.97648 -0.87955,-0.76042 -1.69509,-1.68955 -2.40446,-2.75691 0.0856,-1.05902 0.004,-1.67071 -0.20682,-1.73024 -0.14647,-0.0416 -0.33565,0.1165 -0.56642,0.43448 -0.53,-1.00183 -0.98361,-2.09963 -1.43078,-3.32454 -0.96821,-2.69755 -2.07473,-6.50386 -3.85878,-9.8146 -1.01812,-1.86224 -2.29589,-3.66244 -3.84044,-5.31072 -1.81426,-1.92707 -3.91806,-3.59814 -6.22357,-5.03183 -1.08732,-0.6585 -2.2084,-1.08161 -3.28683,-1.34223 -1.29022,-0.32356 -2.56769,-0.4965 -3.81199,-0.5852 z m 145.0556,14.76348 c -0.24021,-0.007 -0.43129,0.0482 -0.54964,0.14906 -0.78997,0.67321 -0.0366,2.78758 0.0574,5.11017 0.048,0.7768 0.0324,1.58464 -0.0281,2.52492 -0.0284,0.39409 -0.0569,0.79492 -0.0904,1.18436 -0.13096,1.45408 -0.29675,2.47779 -0.34535,3.77145 -0.0351,0.90444 -0.0341,1.69383 0.17625,2.37816 0.19775,0.64353 0.52753,0.9683 0.90559,1.00088 0.36629,0.0316 0.75457,-0.20963 1.14706,-0.5595 0.35952,-0.32053 0.91922,-0.9115 1.37356,-1.73215 0.59967,-1.0023 1.23,-2.40984 1.5762,-4.11751 0.10584,-0.51489 0.18006,-1.05708 0.21355,-1.62111 0.0787,-1.32322 -0.0761,-2.60133 -0.42841,-3.76226 -1.00201,-3.17777 -2.9682,-4.30445 -4.0089,-4.32654 z m 22.50097,3.63206 c -0.0875,-0.007 -0.17235,-4.1e-4 -0.2548,0.0217 -0.66104,0.16671 -1.03996,1.13154 -1.35598,2.39682 -0.28496,1.14165 -0.65649,3.13646 -0.85686,4.98957 -0.004,0.0366 -0.008,0.0741 -0.0113,0.11101 -0.23329,2.02449 -0.31184,3.85424 -0.0514,5.38081 0.25101,1.47854 0.78665,2.39188 1.46724,2.45053 0.66976,0.0577 1.35814,-0.72133 1.9802,-1.9677 0.60526,-1.2126 1.25591,-3.10402 1.52772,-5.27013 0.004,-0.0411 0.0127,-0.0814 0.0162,-0.12288 0.29104,-2.29792 0.0295,-4.38821 -0.59346,-5.92068 -0.53649,-1.31984 -1.25528,-2.02458 -1.8677,-2.06885 z M 470.11243,194.76264 c -0.51714,-0.0677 -1.09066,1.26443 -1.99692,3.43659 -0.86825,2.08104 -2.17711,5.26167 -4.26195,8.16764 -1.57708,2.23289 -3.6552,4.38098 -6.26609,6.29417 -0.36132,0.26474 -0.72583,0.51971 -1.09284,0.76543 -3.02819,2.03415 -6.45206,3.56165 -9.28197,4.7643 -5.94684,2.51666 -10.11472,4.05057 -9.83848,5.06052 0.19056,0.6968 4.68221,0.68368 11.2029,-1.0902 3.1773,-0.85948 6.99604,-2.25233 10.63575,-4.59706 0.44021,-0.28449 0.87616,-0.58392 1.30662,-0.89872 3.11134,-2.27536 5.49627,-5.02307 7.14275,-7.8912 4.49099,-7.94192 2.94488,-13.94621 2.45023,-14.01147 z m 6.92933,10.78911 c -0.0693,0.003 -0.12383,0.0215 -0.1644,0.0585 -0.59732,0.54319 2.53374,5.80849 10.39538,10.79606 4.01344,2.54921 8.75101,4.76798 14.3116,6.62931 0.32504,0.10888 0.65129,0.21576 0.9797,0.32172 8.1532,2.62888 16.20647,3.97736 21.64882,4.60595 5.60569,0.64737 9.1311,0.62872 9.2537,-0.0242 0.12966,-0.69122 -3.17529,-1.89771 -8.57472,-3.41994 -4.58517,-1.29266 -13.65922,-3.56501 -20.80292,-5.87981 -0.31466,-0.10228 -0.62758,-0.20446 -0.9391,-0.30748 -5.38398,-1.78205 -9.77797,-3.5579 -13.79103,-5.58381 -7.06614,-3.57109 -11.28007,-7.24061 -12.3169,-7.19645 z m -54.47705,7.36815 c -0.64188,-0.0785 -1.60834,0.0767 -2.78911,0.45393 -1.85538,0.59293 -4.41803,1.80551 -6.84236,3.76193 -0.0822,0.0664 -0.16388,0.13334 -0.2447,0.20055 -2.48035,2.04674 -3.99881,4.45911 -4.65449,6.50504 -0.64771,2.02095 -0.3776,3.35977 0.23754,3.57366 0.64197,0.22334 1.53901,-0.65194 2.74141,-1.84085 1.43246,-1.41639 2.62523,-2.5792 4.83839,-4.41889 0.0689,-0.0569 0.13848,-0.11437 0.20831,-0.17152 2.19874,-1.79974 3.99583,-3.12174 5.51168,-4.59229 1.39984,-1.358 2.12391,-2.47698 1.77425,-3.07554 -0.12752,-0.21814 -0.39563,-0.34881 -0.78077,-0.39594 z m -9.98849,0.0543 c -0.48366,-0.0648 -1.10325,-0.0215 -1.81507,0.11881 -1.39801,0.2758 -3.32677,0.97056 -5.23814,2.18576 -0.0356,0.023 -0.0715,0.0448 -0.1072,0.0679 -2.01108,1.29198 -3.45315,2.89832 -4.22032,4.36713 -0.75871,1.45262 -0.7613,2.5681 -0.21489,2.9678 0.55254,0.40415 1.54607,0.0616 2.7428,-0.54838 1.08453,-0.55288 2.84417,-1.60379 4.39606,-2.62594 0.0308,-0.0205 0.0604,-0.0393 0.0905,-0.0594 1.7056,-1.11726 3.18617,-2.19146 4.23984,-3.30747 1.02311,-1.08362 1.47186,-2.04883 1.12695,-2.63926 -0.16968,-0.29015 -0.51726,-0.4623 -1.00093,-0.52677 z m 14.95514,8.36902 c -1.31243,-0.0813 -3.48348,2.70875 -4.78567,6.69595 -1.3899,4.25566 -1.17295,7.99623 0.15288,8.33613 1.32264,0.33909 3.24879,-2.77612 4.5619,-6.79595 1.31409,-4.02283 1.59328,-7.67714 0.32098,-8.18152 -0.0795,-0.03 -0.16264,-0.0493 -0.24997,-0.0547 z m 11.19609,4.07757 c -0.66517,-0.18739 -1.53342,0.68041 -2.35941,2.28317 -1.0602,2.05712 -1.26703,3.30917 -2.34485,5.81524 -0.0144,0.0324 -0.0288,0.065 -0.0415,0.0979 -0.50065,1.17141 -1.0131,2.13815 -1.59404,2.98214 -1.39989,2.11913 -3.15377,3.47658 -2.70811,4.4673 0.31706,0.70488 2.90936,1.10338 5.92368,-1.40713 1.20581,-1.03481 2.25182,-2.43574 2.95217,-4.11759 0.0184,-0.0469 0.0381,-0.0933 0.0567,-0.13999 1.06224,-2.68771 1.23482,-5.3045 1.16573,-6.93697 -0.0725,-1.70731 -0.41308,-2.86445 -1.05048,-3.04375 z M 541.252,240.4135 c -0.0461,-0.013 -0.091,-0.0169 -0.1341,-0.0102 -0.65322,0.11181 -0.86678,2.92518 -0.39552,7.40009 0.46635,4.42918 1.64065,10.65687 4.07712,17.13143 0.0239,0.0605 0.0453,0.12067 0.0678,0.18084 2.50484,6.58082 5.79132,11.75457 8.74739,15.29542 2.90734,3.48243 5.22766,5.09443 5.72316,4.67756 0.54323,-0.45705 -0.80627,-2.8544 -2.83327,-6.63883 -2.13539,-3.98675 -4.61833,-8.81757 -7.00063,-15.09623 -0.0211,-0.0569 -0.0434,-0.11416 -0.0649,-0.17104 -2.24566,-5.93008 -4.00924,-12.08382 -5.28001,-16.09347 -1.24801,-3.93773 -2.21849,-6.47247 -2.90689,-6.67624 z m 103.75912,9.45716 c -0.50902,0.0102 -0.94719,0.53713 -1.37882,1.34176 -0.36515,0.68071 -0.89611,1.97124 -1.42695,2.74666 -0.38097,0.59268 -0.91341,1.17526 -1.56953,1.70453 -0.0126,0.0102 -0.025,0.021 -0.0374,0.0298 -0.67026,0.5527 -1.92096,1.31416 -2.75849,1.91525 -2.3638,1.65794 -3.64339,3.35114 -3.0972,4.20913 0.47989,0.75386 2.51394,0.5884 5.08221,-0.26315 1.07687,-0.34346 2.46353,-0.91474 3.83375,-1.95772 0.025,-0.021 0.051,-0.0394 0.0762,-0.0595 1.33659,-1.06502 2.22149,-2.45758 2.65649,-3.87954 0.50051,-1.83994 0.30477,-3.36876 -0.0314,-4.3183 -0.34457,-0.97607 -0.86149,-1.47857 -1.34856,-1.46889 z m 8.22217,5.841 c -1.02296,-0.0157 -1.66277,2.03678 -3.0835,4.02752 -0.61047,0.89165 -1.34615,1.74176 -2.30703,2.73594 -0.0331,0.0345 -0.0671,0.0678 -0.10034,0.10238 -1.80016,1.85764 -3.07796,2.83434 -4.40641,4.50668 -1.11765,1.40695 -1.54358,2.55159 -1.10058,3.07817 0.42652,0.50694 1.61358,0.33839 3.18918,-0.28918 1.5058,-0.59969 3.79887,-1.80607 5.82759,-3.79005 0.0457,-0.0448 0.091,-0.0904 0.13631,-0.1363 1.28966,-1.30389 2.21598,-2.80508 2.74703,-4.33167 1.23214,-3.68515 -0.13125,-5.89182 -0.90226,-5.90355 z m 14.43505,3.05271 c -0.73255,-0.0429 -1.21119,0.24221 -1.40746,0.63623 -0.2039,0.40941 -0.12286,0.91869 0.027,1.45899 0.14368,0.51791 0.37204,1.10879 0.32104,1.53299 0.0324,0.43802 -0.0557,0.71109 -0.0415,1.47352 -0.005,0.12529 -0.004,0.25254 -0.0102,0.3842 -0.0388,1.44815 -0.084,2.8293 0.24726,4.12687 0.31469,1.23269 0.89362,1.96148 1.58985,1.98657 0.66606,0.0241 1.33491,-0.60471 1.89408,-1.55503 0.54669,-0.92919 1.14767,-2.46194 1.21813,-4.39736 0.007,-0.1877 0.009,-0.37602 0.004,-0.56455 0.005,-1.25565 -0.42984,-2.5279 -1.17984,-3.55084 -0.92924,-1.10987 -1.95439,-1.49027 -2.66467,-1.53171 z m -7.81919,0.5864 c -0.0855,-0.0164 -0.17063,-0.0204 -0.2558,-0.0102 -0.68133,0.0705 -1.20425,0.92289 -1.60783,2.14861 -0.39258,1.19236 -0.73358,2.9415 -0.88774,4.80598 -0.31849,3.86349 0.3345,7.23158 1.77578,7.35578 1.27843,0.11022 2.86077,-2.90209 3.17296,-6.96139 0.15787,-2.06785 -0.07,-3.93602 -0.56826,-5.31075 -0.4318,-1.19162 -1.03053,-1.9125 -1.62916,-2.02689 z M 552.09141,282.6619 c -0.55055,-0.0358 -1.30308,0.16526 -2.17793,0.58342 -1.46544,0.70049 -2.92404,1.80901 -4.5548,3.10331 -0.025,0.021 -0.0525,0.0415 -0.0784,0.0623 -0.69088,0.54097 -3.63014,2.84464 -3.8434,3.0178 -0.99464,0.80758 -1.75278,1.51849 -1.65305,2.18844 0.098,0.65794 1.09457,1.18921 2.78433,1.09079 1.70145,-0.0991 3.83689,-0.84556 5.79226,-2.40933 0.031,-0.0235 0.0618,-0.0488 0.0929,-0.0737 1.82837,-1.4677 3.12531,-3.15685 3.83488,-4.39648 0.7292,-1.27391 0.99292,-2.3208 0.5577,-2.83808 -0.16689,-0.19835 -0.42421,-0.30657 -0.7545,-0.32865 z m 20.12103,3.01661 c -0.11012,-0.003 -0.21348,-0.004 -0.31071,0.005 -0.80668,0.0612 -1.27256,0.44853 -1.3984,0.8811 -0.13296,0.45687 0.0739,0.96825 0.36679,1.5097 0.2795,0.51666 0.66498,1.08261 0.60269,1.4921 0.0641,0.32855 -0.0405,0.67238 0.0197,1.45251 2.7e-4,0.0623 7.9e-4,0.1258 -0.002,0.19046 -0.005,0.89984 -0.0551,1.74469 0.0399,2.76414 0.18887,2.30731 1.12728,3.76387 2.12499,3.64203 0.82849,-0.10125 1.70145,-1.44786 2.24518,-3.19152 0.26291,-0.7915 0.52391,-1.86568 0.54602,-3.15221 0.003,-0.0996 0.003,-0.20024 -9e-5,-0.30146 0.0361,-1.32923 -0.45819,-2.73126 -1.36335,-3.85937 -1.03939,-1.06419 -2.10294,-1.40412 -2.87251,-1.43292 z m -12.5572,1.83122 c -0.56978,-0.0833 -1.38784,0.22403 -2.32287,0.88892 -1.36856,0.9732 -2.3815,2.19552 -3.71969,3.59052 -0.0286,0.0286 -0.055,0.057 -0.0821,0.0854 -0.68191,0.70092 -1.23071,1.23563 -1.81967,1.67328 -1.41281,1.13504 -3.09938,1.6723 -3.10727,2.73506 -0.005,0.75995 1.68741,2.17063 4.87134,1.29205 1.31195,-0.39796 2.59021,-1.16841 3.63487,-2.26753 0.0373,-0.0391 0.0744,-0.0776 0.11146,-0.11671 1.60842,-1.72882 2.49991,-3.62741 2.91264,-4.87754 0.42951,-1.30089 0.50238,-2.34304 0.003,-2.78858 -0.12964,-0.11605 -0.29236,-0.18686 -0.48232,-0.21453 z m 5.99872,1.71692 c -0.67775,-0.0845 -1.37445,0.55042 -2.01534,1.54069 -0.6285,0.97103 -1.29441,2.43304 -1.77188,4.08611 -0.4921,1.70378 -0.70013,3.33078 -0.57726,4.63437 0.12149,1.2897 0.56034,2.1456 1.22925,2.3007 0.66354,0.15393 1.4315,-0.40471 2.15935,-1.38339 0.72045,-0.96865 1.46735,-2.4442 1.96218,-4.18444 0.50577,-1.7786 0.64235,-3.47181 0.43324,-4.79171 -0.2081,-1.30849 -0.73804,-2.11799 -1.41857,-2.20225 z"
       id="path4496"
       inkscape:connector-curvature="0" />
    <path
       d="m 1410.0538,-115.80776 c 0,-8.4 5,-16.7 14.2,-21.5 0,-15.8 9,-24.8 20.8,-26 -7.2,2.6 -12,8.8 -12,16.5 0,9.1 7.4,16.5 16.5,16.5 9.1,0 16.5,-7.4 16.5,-16.5 0,-7.7 -4.8,-13.9 -12,-16.5 11.8,1.2 20.8,10.2 20.8,26 9.2,4.8 14.2,13.1 14.2,21.5 0,3.5 -0.9,6.9 -2.1,9.3 0.2,-0.9 0.3,-2.2 0.3,-3.6 0,-9.6 -7.6,-17.2 -16.9,-17.2 -9.1,0 -16.5,7.4 -16.5,16.5 0,9.1 7.5,16.499997 16.7,16.499997 4.9,0 8.9,-1.9 11.8,-4.4 -4,5.7 -10.3,9.4 -18.3,9.4 -5.8,0 -12,-2.8 -14.5,-4.5 -2.5,1.7 -8.7,4.5 -14.5,4.5 -8,0 -14.3,-3.7 -18.3,-9.4 2.9,2.5 6.9,4.4 11.8,4.4 9.2,0 16.7,-7.399997 16.7,-16.499997 0,-9.1 -7.4,-16.5 -16.5,-16.5 -9.3,0 -16.9,7.6 -16.9,17.2 0,1.4 0.1,2.7 0.3,3.6 -1.2,-2.4 -2.1,-5.8 -2.1,-9.3 z m 15.5,-8 6.5,0 c 0,9.6 5,14.2 9.7,16.7 l -3.3,5.6 c -7.7,-4.3 -12.9,-11.3 -12.9,-22.3 z m 11.1,-19.3 c 3.7,-2.4 8.2,-3.7 12.9,-3.7 4.7,0 9.2,1.3 12.9,3.7 l -3.2,5.7 c -2.8,-1.8 -6.1,-2.9 -9.7,-2.9 -3.6,0 -6.9,1.1 -9.7,2.9 z m 7.9,20.3 c 0,2.8 2.2,5 5,5 2.8,0 5,-2.2 5,-5 0,-2.8 -2.2,-5 -5,-5 -2.8,0 -5,2.2 -5,5 z m 12.8,15.7 c 4.7,-2.5 9.7,-7.1 9.7,-16.7 l 6.5,0 c 0,11 -5.2,18 -12.9,22.3 z"
       inkscape:connector-curvature="0"
       id="path20" />
    <rect
       style="opacity:1;fill:#ffcc00;fill-opacity:1;fill-rule:evenodd;stroke:none;stroke-width:2;stroke-linecap:square;stroke-linejoin:miter;stroke-miterlimit:4;stroke-dasharray:none;stroke-dashoffset:0;stroke-opacity:1"
       id="rect4282-8-5"
       width="202.58302"
       height="200.59691"
       x="1847.929"
       y="-2.2728848"
       ry="39.852398"
       rx="39.852398" />
    <path
       style="display:inline"
       d="m 1877.2543,117.15582 c 0,-15.3042 9.1097,-30.426211 25.8714,-39.171473 0,-28.786486 16.3975,-45.183854 37.8962,-47.370168 -13.1179,4.737017 -21.8632,16.03298 -21.8632,30.061838 0,16.579558 13.4824,30.061838 30.0619,30.061838 16.5794,0 30.0618,-13.48228 30.0618,-30.061838 0,-14.028858 -8.7454,-25.324821 -21.8633,-30.061838 21.4988,2.186314 37.8962,18.583682 37.8962,47.370168 16.7617,8.745262 25.8714,23.867273 25.8714,39.171473 0,6.37676 -1.6397,12.57132 -3.826,16.94395 0.3643,-1.63973 0.5466,-4.00824 0.5466,-6.55895 0,-17.49051 -13.8466,-31.337177 -30.7906,-31.337177 -16.5797,0 -30.0618,13.482277 -30.0618,30.061837 0,16.57955 13.6644,30.06182 30.4262,30.06182 8.9273,0 16.2151,-3.46166 21.4988,-8.01648 -7.2878,10.38499 -18.7659,17.12614 -33.3414,17.12614 -10.5672,0 -21.8632,-5.10141 -26.4179,-8.19868 -4.5548,3.09727 -15.8509,8.19868 -26.4181,8.19868 -14.5755,0 -26.0536,-6.74115 -33.3414,-17.12614 5.2838,4.55482 12.5715,8.01648 21.4989,8.01648 16.7617,0 30.4262,-13.48227 30.4262,-30.06182 0,-16.57956 -13.4822,-30.061837 -30.0618,-30.061837 -16.944,0 -30.7906,13.846667 -30.7906,31.337177 0,2.55071 0.1822,4.91922 0.5465,6.55895 -2.1863,-4.37263 -3.826,-10.56719 -3.826,-16.94395 z m 28.2399,-14.57543 11.8426,0 c 0,17.49053 9.1096,25.8714 17.6727,30.42622 l -6.0123,10.20281 c -14.029,-7.8343 -23.503,-20.5878 -23.503,-40.62903 z m 20.2234,-35.163234 c 6.7411,-4.372632 14.9398,-6.741139 23.503,-6.741139 8.5631,0 16.7617,2.368507 23.5028,6.741139 l -5.8302,10.384998 c -5.1014,-3.279474 -11.1138,-5.283595 -17.6726,-5.283595 -6.559,0 -12.5714,2.004121 -17.6727,5.283595 z m 14.3932,36.985164 c 0,5.1014 4.0083,9.10965 9.1098,9.10965 5.1013,0 9.1096,-4.00825 9.1096,-9.10965 0,-5.101402 -4.0083,-9.109642 -9.1096,-9.109642 -5.1015,0 -9.1098,4.00824 -9.1098,9.109642 z m 23.3208,28.60429 c 8.563,-4.55482 17.6727,-12.93569 17.6727,-30.42622 l 11.8425,0 c 0,20.04123 -9.474,32.79473 -23.5028,40.62903 z"
       inkscape:connector-curvature="0"
       id="path20-3" />
    <path
       style="display:inline;opacity:1;fill:#000000;fill-opacity:1;fill-rule:evenodd;stroke:none;stroke-width:2;stroke-linecap:square;stroke-linejoin:miter;stroke-miterlimit:4;stroke-dasharray:none;stroke-dashoffset:0;stroke-opacity:1"
       d="m 292.63582,138.09674 c -6.21546,-2.06677 -9.55561,-8.73485 -7.48884,-14.9503 l 11.31674,-34.033133 c 2.06677,-6.215471 8.73484,-9.555605 14.95028,-7.488835 l 34.59234,11.502673 c 6.21546,2.06676 9.55559,8.734835 7.48883,14.950295 l -11.31673,34.03314 c -2.06678,6.21545 -8.73483,9.55559 -14.9503,7.48882 l -34.59232,-11.50266 z m 18.06676,-4.27439 c -3.24951,-2.56154 -4.65401,-6.56043 -3.34076,-10.50984 1.55203,-4.66749 6.60936,-7.20123 11.27683,-5.64922 4.66743,1.55203 7.20102,6.60993 5.649,11.2774 -1.31325,3.94941 -4.83276,6.31096 -8.96915,6.41655 6.257,1.39703 12.40834,-1.6844 15.10309,-9.78836 5.53741,-0.89289 9.51752,-4.29742 10.95016,-8.60585 0.59694,-1.7952 0.7151,-3.69243 0.50895,-5.12807 -0.0509,0.49572 -0.22119,1.17948 -0.46,1.89757 -1.63731,4.92392 -6.83178,7.52602 -11.60187,5.93985 -4.66752,-1.55204 -7.20046,-6.60971 -5.64844,-11.27719 1.55203,-4.66747 6.66067,-7.18357 11.37945,-5.61447 2.51322,0.8357 4.24072,2.49214 5.30179,4.26903 -1.07951,-3.6058 -3.67981,-6.5783 -7.78311,-7.942746 -2.97487,-0.989197 -6.63255,-0.610338 -8.20473,-0.164776 -0.99233,-1.298302 -3.69478,-3.792041 -6.66967,-4.781257 -4.10329,-1.364431 -7.96527,-0.540768 -10.98908,1.700586 1.91388,-0.787655 4.28923,-1.079816 6.80247,-0.244103 4.71878,1.569096 7.30351,6.643376 5.75147,11.310856 -1.55203,4.66747 -6.60934,7.20122 -11.27684,5.64919 -4.77006,-1.58613 -7.372,-6.7807 -5.7347,-11.70463 0.23878,-0.71808 0.51183,-1.367678 0.7679,-1.795199 -1.0248,1.026319 -2.0663,2.616549 -2.66322,4.411739 -1.43265,4.30843 -0.28379,9.41844 3.61631,13.4495 -2.69474,8.10396 0.38651,14.25543 6.23415,16.88344 z m 5.12186,-7.69586 c 2.41071,0.80161 4.94072,0.90268 7.24779,0.30273 l -0.66896,-3.46982 c -1.74316,0.4457 -3.62383,0.44738 -5.4703,-0.1666 -1.84648,-0.614 -3.35111,-1.74138 -4.48025,-3.14217 l -2.61357,2.37832 c 1.48843,1.86204 3.57459,3.29595 5.98529,4.09754 z m 3.24057,-9.74542 c -1.43618,-0.47756 -2.18928,-1.98107 -1.71175,-3.41721 0.47757,-1.43615 1.98104,-2.18928 3.41722,-1.71172 1.43612,0.47753 2.18984,1.98123 1.71229,3.41738 -0.47755,1.43616 -1.98166,2.18908 -3.41776,1.71155 z m -11.62719,-6.14458 3.3337,1.10853 c 1.63731,-4.92393 4.98612,-6.43051 7.8232,-6.91118 l -0.73729,-3.43515 c -4.68283,0.89225 -8.54353,3.59579 -10.41961,9.2378 z m 21.28554,7.07789 3.33371,1.10853 c 1.87608,-5.64202 0.40306,-10.11913 -2.81296,-13.6379 l -2.64807,2.30944 c 1.98428,2.08386 3.76464,5.29599 2.12732,10.21993 z"
       id="rect4282-8-5-1"
       inkscape:connector-curvature="0" />
    <path
       style="opacity:1;fill:#000000;fill-opacity:1;fill-rule:evenodd;stroke:none;stroke-width:2;stroke-linecap:square;stroke-linejoin:miter;stroke-miterlimit:4;stroke-dasharray:none;stroke-dashoffset:0;stroke-opacity:1"
       d="m 295.1096,211.64269 c -3.7223,0.38354 -6.41008,3.6888 -6.02654,7.41111 l 4.44227,43.11354 c 0.38352,3.72233 3.68879,6.4101 7.41111,6.02657 l 43.67337,-4.49996 c 3.72231,-0.38353 6.41007,-3.6888 6.02654,-7.41111 l -4.44227,-43.11355 c -0.38355,-3.72232 -3.6888,-6.41008 -7.41112,-6.02655 l -43.67336,4.49995 z m 11.70604,7.1471 9.33283,12.85664 -0.37863,0.29457 c -0.17328,0.13716 -0.32791,0.2895 -0.48259,0.44176 -0.15473,0.15226 -0.30775,0.32129 -0.44386,0.48867 -0.1361,0.16739 -0.27211,0.33488 -0.38965,0.51736 -0.11749,0.18249 -0.23514,0.36494 -0.33405,0.56257 -0.0989,0.19759 -0.19781,0.39536 -0.27985,0.59124 -0.0821,0.19585 -0.16223,0.4086 -0.22568,0.61959 -0.0803,0.21276 -0.12699,0.42189 -0.17184,0.64801 -0.0466,0.20927 -0.0745,0.43378 -0.10258,0.65818 -0.0113,0.22263 -0.0374,0.46389 -0.0316,0.6848 0.005,0.2209 0.0133,0.45861 0.0376,0.69463 l -15.78088,1.62602 c -0.85468,-8.29494 2.49587,-15.79653 9.25073,-20.68402 z m 22.54118,-2.32257 c 7.60954,3.40745 12.4192,10.06823 13.30762,18.3597 l -15.78058,1.62597 c -0.0243,-0.23604 -0.0653,-0.47028 -0.10494,-0.68771 -0.0412,-0.23427 -0.0974,-0.45 -0.17029,-0.66403 -0.0732,-0.21396 -0.14466,-0.41118 -0.23459,-0.62345 -0.0902,-0.21216 -0.1952,-0.4057 -0.30037,-0.59934 -0.10517,-0.19363 -0.22735,-0.38551 -0.3476,-0.56053 -0.12029,-0.17503 -0.25742,-0.34847 -0.39455,-0.52174 -0.13716,-0.17331 -0.28917,-0.32797 -0.44141,-0.48268 -0.15051,-0.13783 -0.31957,-0.29093 -0.48693,-0.42702 -0.18424,-0.13439 -0.35168,-0.2704 -0.53416,-0.38791 -0.18251,-0.11753 -0.36493,-0.23517 -0.56256,-0.33407 -0.14531,-0.0873 -0.28719,-0.14079 -0.43075,-0.21118 l 6.48127,-14.48608 z m -9.73102,16.184 a 4.5253539,4.5253539 0 0 1 4.96522,4.03792 4.5253539,4.5253539 0 0 1 -4.03759,4.96519 4.5253539,4.5253539 0 0 1 -4.96551,-4.03754 4.5253539,4.5253539 0 0 1 4.03788,-4.96557 z m -2.3053,10.69931 c 0.054,0.0286 0.10808,0.0569 0.179,0.0837 0.19587,0.082 0.40863,0.16255 0.61964,0.226 0.21273,0.0803 0.42188,0.12698 0.64799,0.17185 0.20926,0.0466 0.4338,0.0745 0.65816,0.10257 0.2244,0.0282 0.46391,0.0374 0.68481,0.0316 0.2378,-0.007 0.45863,-0.0132 0.69465,-0.0376 0.23606,-0.0243 0.4703,-0.0654 0.68772,-0.10494 0.2343,-0.0413 0.45,-0.0974 0.66404,-0.17028 0.21397,-0.073 0.41119,-0.14459 0.62343,-0.23458 0.21218,-0.0902 0.40572,-0.19522 0.59935,-0.30039 0.19363,-0.10516 0.38548,-0.22733 0.56053,-0.34761 l 0.14139,-0.11673 9.29894,12.86013 c -6.75486,4.88751 -14.93167,5.73001 -22.54119,2.32255 l 6.48162,-14.48608 z"
       id="rect4282"
       inkscape:connector-curvature="0" />
    <g
       id="g4882"
       transform="matrix(1.1247481,0,0,1.1247481,-299.6301,-44.64402)">
      <text
         sodipodi:linespacing="125%"
         id="text4453"
         y="-109.56898"
         x="502.47662"
         style="font-style:normal;font-variant:normal;font-weight:bold;font-stretch:normal;font-size:40px;line-height:125%;font-family:Arial;-inkscape-font-specification:'Arial, Bold';text-align:start;letter-spacing:0px;word-spacing:0px;writing-mode:lr-tb;text-anchor:start;fill:#ffffff;fill-opacity:1;stroke:none;stroke-width:1px;stroke-linecap:butt;stroke-linejoin:miter;stroke-opacity:1"
         xml:space="preserve"><tspan
           id="tspan4475"
           y="-109.56898"
           x="502.47662"
           sodipodi:role="line">NO BUG</tspan></text>
      <path
         inkscape:connector-curvature="0"
         id="path4880"
         d="m 484.89852,-123.87769 c -0.17738,-31.45177 -0.16036,-31.90938 1.18783,-31.91694 1.34793,-0.008 1.37005,0.44976 1.54746,31.90142 0.17737,31.451812 0.16035,31.909412 -1.18769,31.917067 -1.34811,0.0082 -1.37027,-0.449654 -1.5476,-31.901547 z"
         style="fill:#ffffff" />
      <path
         inkscape:connector-curvature="0"
         id="path4878"
         d="m 740.13047,-92.645877 c -0.22926,-0.367717 1.28379,-5.240105 3.36272,-10.827393 2.07875,-5.58732 4.63664,-12.48852 5.68399,-15.33614 l 1.9045,-5.17735 -5.84484,-15.24991 c -3.21479,-8.3875 -5.6554,-15.56166 -5.4239,-15.94267 1.2942,-2.12828 2.82314,0.59896 8.28576,14.77921 3.19164,8.2854 5.81855,15.69933 5.8378,16.47546 0.0191,0.7761 -1.13171,4.48826 -2.55732,8.24938 -1.42565,3.7611 -4.02839,10.62944 -5.78396,15.26293 -2.96582,7.828199 -4.2735,9.680284 -5.46475,7.766483 z"
         style="fill:#ffffff" />
      <path
         inkscape:connector-curvature="0"
         id="path4154"
         d="m 693.01141,-95.365848 c 0,-0.246445 0.61737,-2.943771 1.37531,-5.993962 1.41321,-5.68864 1.22248,-6.6662 -1.30312,-6.68195 -1.52286,-0.008 -5.93613,-2.55023 -6.74602,-3.88359 -1.80589,-2.97364 -1.73981,-5.40746 0.32705,-12.01075 2.29125,-7.32005 2.5204,-9.48502 1.00357,-9.47638 -1.49654,0.008 -3.47991,2.26539 -4.48412,5.10273 -0.56479,1.59375 -1.31425,2.4792 -2.10683,2.4834 -2.40605,0.0128 -1.32818,-4.07338 2.05749,-7.80099 2.46764,-2.71696 4.54373,-3.4259 7.35721,-2.51175 4.13843,1.3446 4.69446,4.62828 2.01464,11.89733 -2.20199,5.97354 -2.19133,9.55387 0.0352,11.76318 3.65645,3.62808 3.72335,3.48898 9.1994,-19.12664 4.60421,-19.01552 5.16146,-20.80683 6.53749,-21.01523 0.82738,-0.12523 1.50526,-0.0443 1.50659,0.18015 0.004,0.22438 -2.26481,9.71703 -5.0361,21.09473 -2.77106,11.37776 -4.87847,20.84538 -4.68332,21.03903 0.19507,0.19361 1.71919,-0.17972 3.38664,-0.82964 5.19191,-2.02362 11.24037,-10.08614 11.25294,-14.99994 0.004,-1.00902 -0.76996,-2.74771 -1.71646,-3.86369 -2.08069,-2.45324 -2.16957,-3.78994 -0.37345,-5.61292 1.74217,-1.76841 3.04784,-1.75242 4.87412,0.0596 1.25686,1.2471 1.41355,1.99526 1.11196,5.31207 -1.0021,11.02226 -7.7445,20.18191 -16.54585,22.47783 l -3.26001,0.85036 -1.38672,5.76976 c -1.17509,4.888531 -1.61652,5.8045 -2.89108,5.997474 -0.82735,0.125226 -1.50527,0.02624 -1.50667,-0.220199 z"
         style="fill:#ffffff" />
    </g>
    <text
       xml:space="preserve"
       style="font-style:normal;font-variant:normal;font-weight:bold;font-stretch:normal;font-size:44.98992157px;line-height:125%;font-family:Arial;-inkscape-font-specification:'Arial, Bold';text-align:start;letter-spacing:0px;word-spacing:0px;writing-mode:lr-tb;text-anchor:start;display:inline;fill:#ffffff;fill-opacity:1;stroke:none;stroke-width:1px;stroke-linecap:butt;stroke-linejoin:miter;stroke-opacity:1"
       x="668.14417"
       y="388.49887"
       id="text4453-5-0"
       sodipodi:linespacing="125%"><tspan
         sodipodi:role="line"
         x="668.14417"
         y="388.49887"
         id="tspan4475-6-2">DLTDOJO 2018</tspan></text>
    <path
       style="display:inline;opacity:1;fill:#000000;fill-opacity:1;fill-rule:evenodd;stroke:none;stroke-width:2;stroke-linecap:square;stroke-linejoin:miter;stroke-miterlimit:4;stroke-dasharray:none;stroke-dashoffset:0;stroke-opacity:1"
       d="m 365.64302,-28.359656 c -2.61268,-2.720579 -6.90602,-2.807458 -9.6266,-0.194782 l -31.511,30.2611541 c -2.72058,2.6126775 -2.80746,6.9060171 -0.19478,9.6266069 l 30.65409,31.920161 c 2.61266,2.720576 6.90602,2.807444 9.62659,0.194769 L 396.10233,13.18709 c 2.72058,-2.612677 2.80745,-6.9060086 0.19477,-9.6265888 L 365.64302,-28.359656 Z m 1.57751,13.734796 -4.43163,15.3886099 -0.46887,-0.1182926 c -0.21645,-0.0526864 -0.4334,-0.0811183 -0.65032,-0.10966271 -0.21692,-0.0285649 -0.44616,-0.0453865 -0.66357,-0.0497583 -0.2174,-0.004402 -0.43485,-0.008703 -0.65276,0.0110267 -0.21787,0.01976 -0.43583,0.0393766 -0.65423,0.083299 -0.21835,0.0439122 -0.43685,0.0879063 -0.6434,0.1441546 -0.20654,0.0562187 -0.42533,0.12439976 -0.63237,0.204787 -0.21886,0.0680849 -0.41402,0.16065057 -0.62154,0.26520237 -0.19522,0.092688 -0.391,0.2096696 -0.58668,0.3265411 -0.18389,0.1291483 -0.39183,0.2579454 -0.56385,0.3994565 -0.17204,0.1415019 -0.35632,0.2948444 -0.52884,0.4605107 L 345.04596,-9.1529905 c 6.06265,-5.8221655 14.10202,-7.8102805 22.17448,-5.4720125 z m 15.82153,16.4749895 c 2.00982,8.1604445 -0.30194,16.1127135 -6.3409,21.9595425 L 365.62487,12.275905 c 0.1725,-0.165667 0.33322,-0.343535 0.48151,-0.509759 0.16063,-0.178025 0.29732,-0.356375 0.42194,-0.547228 0.1247,-0.190812 0.23714,-0.369901 0.35004,-0.572986 0.11272,-0.203211 0.20141,-0.406689 0.29011,-0.610328 0.0888,-0.2036305 0.16544,-0.4197053 0.22997,-0.6237981 0.0646,-0.2041144 0.11736,-0.4206365 0.17005,-0.6370512 0.0526,-0.2164577 0.0814,-0.4331621 0.10989,-0.6500774 0.0162,-0.2050788 0.0331,-0.434361 0.0375,-0.6517606 -0.008,-0.2297377 -0.003,-0.4471476 -0.0228,-0.6650304 -0.0198,-0.2179125 -0.0394,-0.4358445 -0.0832,-0.6542352 -0.0207,-0.1695723 -0.0661,-0.3155339 -0.0992,-0.4732758 l 15.53147,-3.8303237 z m -18.89579,2.3002498 a 4.5615482,4.5615482 0 0 1 -0.13075,6.4497207 4.5615482,4.5615482 0 0 1 -6.44948,-0.130492 4.5615482,4.5615482 0 0 1 0.13027,-6.4497244 4.5615482,4.5615482 0 0 1 6.44996,0.1304957 z m -9.93275,4.8014473 c 0.0113,0.06059 0.0217,0.1211736 0.0444,0.194178 0.0562,0.2065531 0.12417,0.425555 0.20454,0.6325955 0.0681,0.2188667 0.16065,0.4140189 0.26518,0.6215439 0.0928,0.195172 0.2097,0.390997 0.32656,0.586684 0.11683,0.195739 0.25795,0.391841 0.39947,0.563846 0.15327,0.18442 0.29484,0.35632 0.46051,0.528833 0.16567,0.172515 0.34354,0.333235 0.50976,0.481516 0.17805,0.160647 0.35636,0.297305 0.54724,0.421948 0.19074,0.124742 0.36987,0.237126 0.57297,0.350034 0.20322,0.112725 0.40669,0.201421 0.61033,0.290112 0.20362,0.08868 0.41969,0.16542 0.6238,0.229975 l 0.18043,0.03999 -4.45541,15.363808 c -8.07244,-2.338252 -13.8117,-8.314541 -15.8215,-16.474987 l 15.53169,-3.8300621 z"
       id="rect4282-3"
       inkscape:connector-curvature="0" />
    <path
       style="display:inline;opacity:1;fill:#000000;fill-opacity:1;fill-rule:evenodd;stroke:none;stroke-width:2;stroke-linecap:square;stroke-linejoin:miter;stroke-miterlimit:4;stroke-dasharray:none;stroke-dashoffset:0;stroke-opacity:1"
       d="m 451.84046,-31.560554 c -5.9084,3.178054 -13.22397,0.979836 -16.40203,-4.928567 l -17.40164,-32.351804 c -3.17805,-5.908403 -0.97982,-13.223967 4.92857,-16.402021 l 32.88338,-17.687564 c 5.90841,-3.17806 13.22396,-0.97985 16.40203,4.928556 l 17.40164,32.351827 c 3.17804,5.908403 0.97985,13.223956 -4.92856,16.40201 l -32.88339,17.687563 z m 9.51386,-16.464568 c -4.19238,0.620557 -8.15884,-1.143689 -10.17825,-4.897986 -2.38654,-4.436895 -0.71968,-9.985614 3.7172,-12.372161 4.43685,-2.386535 9.98592,-0.719153 12.37245,3.717731 2.0194,3.754308 1.30511,8.03628 -1.52351,11.192222 5.43861,-3.679738 7.46639,-10.428496 3.32271,-18.132097 3.2268,-4.753119 3.48778,-10.111317 1.28482,-14.206907 -0.91792,-1.706502 -2.24836,-3.128026 -3.46285,-3.983498 0.33351,0.386385 0.72325,0.993839 1.09042,1.676448 2.51767,4.680673 0.80533,10.379615 -3.7291,12.818619 -4.43693,2.386581 -9.98536,0.71886 -12.37192,-3.718023 -2.38654,-4.436896 -0.67043,-10.011429 3.8152,-12.424204 2.38908,-1.285058 4.83736,-1.407847 6.90698,-0.949479 -3.44515,-1.730099 -7.48742,-1.882052 -11.38802,0.216031 -2.8279,1.521087 -5.11649,4.512455 -5.88955,5.996954 -1.66473,-0.173222 -5.4221,0.0874 -8.25001,1.608525 -3.90058,2.098093 -6.00134,5.554309 -6.45679,9.382491 0.75836,-1.979511 2.21023,-3.954558 4.59932,-5.239617 4.48566,-2.412787 10.08283,-0.77197 12.46939,3.664925 2.38655,4.436894 0.71971,9.985614 -3.7172,12.372161 -4.53442,2.439016 -10.23331,0.726486 -12.751,-3.954187 -0.36716,-0.682598 -0.65922,-1.342601 -0.79775,-1.833856 0.0443,1.484869 0.4971,3.378495 1.415,5.085008 2.20296,4.095579 6.81758,6.831259 12.56205,6.758836 4.14368,7.703602 10.89238,9.731601 16.96041,7.222064 z m -2.13369,-9.225049 c 2.2916,-1.232634 4.14513,-3.046527 5.3197,-5.187057 l -3.05532,-1.940393 c -0.89311,1.611955 -2.21373,3.014325 -3.96895,3.958449 -1.75525,0.944125 -3.65274,1.272732 -5.48999,1.129417 l -0.0651,3.618797 c 2.43343,0.199824 4.96801,-0.346579 7.25962,-1.579213 z m -4.98298,-9.263977 c -1.36524,0.734326 -3.01472,0.238672 -3.74905,-1.126536 -0.7343,-1.365208 -0.23869,-3.014696 1.12653,-3.749032 1.36518,-0.734292 3.01524,-0.238954 3.74956,1.126243 0.73434,1.365208 0.23813,3.015 -1.12704,3.749325 z m -12.75019,4.343834 3.16903,-1.70459 c -2.5177,-4.680673 -1.28639,-8.23455 0.34956,-10.686096 l -3.0775,-1.865125 c -2.62662,4.115971 -3.32594,8.892518 -0.44109,14.255811 z m 20.23401,-10.883636 3.16901,-1.704567 c -2.88484,-5.363282 -7.25578,-7.412607 -12.13776,-7.489799 l -0.14062,3.596124 c 2.9472,-0.01361 6.59168,0.917569 9.10937,5.598242 z"
       id="rect4282-8-5-1-0"
       inkscape:connector-curvature="0" />
    <path
       style="display:inline;opacity:1;fill:#000000;fill-opacity:1;fill-rule:evenodd;stroke:none;stroke-width:2;stroke-linecap:square;stroke-linejoin:miter;stroke-miterlimit:4;stroke-dasharray:none;stroke-dashoffset:0;stroke-opacity:1"
       d="m 940.28334,210.1474 c -0.016,-3.77192 -3.06529,-6.7955 -6.83722,-6.77951 l -43.68806,0.1852 c -3.77192,0.016 -6.7955,3.06531 -6.7795,6.83724 l 0.18761,44.25534 c 0.016,3.77189 3.0653,6.79547 6.83721,6.77948 l 43.68807,-0.1852 c 3.77194,-0.016 6.7955,-3.06531 6.77951,-6.83722 l -0.18762,-44.25533 z m -8.329,11.03452 -13.82127,8.08834 -0.25798,-0.409 c -0.12045,-0.18737 -0.25795,-0.35759 -0.39534,-0.52787 -0.13739,-0.17027 -0.29177,-0.34056 -0.44627,-0.49359 -0.15434,-0.15318 -0.30871,-0.30638 -0.48047,-0.44199 -0.17144,-0.13592 -0.34278,-0.27205 -0.53128,-0.39079 -0.18838,-0.11883 -0.37702,-0.23756 -0.56535,-0.33931 -0.18835,-0.10167 -0.39381,-0.20319 -0.59918,-0.28777 -0.20543,-0.10167 -0.41061,-0.16916 -0.633,-0.23654 -0.20529,-0.0675 -0.42775,-0.1178 -0.65005,-0.16811 -0.22224,-0.0333 -0.46165,-0.0833 -0.6838,-0.0995 -0.22217,-0.0162 -0.46137,-0.0322 -0.70055,-0.0311 l -0.0678,-15.99117 c 8.40547,-0.0356 15.59853,4.06849 19.83213,11.32858 z m 0.0969,22.84156 c -4.17189,7.29571 -11.3299,11.46055 -19.73524,11.53036 l -0.0678,-15.99086 c 0.23918,-0.001 0.47822,-0.019 0.70025,-0.0371 0.23909,-0.0181 0.46106,-0.0531 0.68293,-0.10539 0.22188,-0.0522 0.42681,-0.10438 0.64863,-0.17356 0.22176,-0.0694 0.42631,-0.15563 0.63096,-0.24194 0.2047,-0.0863 0.40924,-0.18986 0.59672,-0.29317 0.18752,-0.10325 0.37506,-0.2237 0.56246,-0.34408 0.18739,-0.12045 0.35767,-0.25754 0.52786,-0.395 0.15315,-0.13735 0.32348,-0.29176 0.47659,-0.44618 0.15271,-0.17181 0.3059,-0.32614 0.44206,-0.49736 0.13593,-0.17146 0.27205,-0.34279 0.39088,-0.53119 0.10187,-0.13707 0.16969,-0.27411 0.25453,-0.41115 l 13.88919,7.9365 z m -15.2705,-11.3646 a 4.5615482,4.5615482 0 0 1 -4.54238,4.58071 4.5615482,4.5615482 0 0 1 -4.58071,-4.54204 4.5615482,4.5615482 0 0 1 4.54203,-4.58102 4.5615482,4.5615482 0 0 1 4.58106,4.54235 z m -10.50431,-3.37237 c -0.0337,0.0516 -0.0678,0.10269 -0.10177,0.17127 -0.10167,0.18835 -0.20354,0.3938 -0.28809,0.59917 -0.10167,0.20543 -0.16917,0.41061 -0.23658,0.63299 -0.0674,0.20533 -0.11776,0.42776 -0.16808,0.65006 -0.0504,0.22233 -0.0834,0.46166 -0.0995,0.68381 -0.0162,0.23925 -0.0322,0.46136 -0.0311,0.70055 0.001,0.23916 0.019,0.47822 0.0371,0.70024 0.0181,0.23911 0.0531,0.46105 0.10528,0.68294 0.0521,0.22187 0.10437,0.42679 0.17356,0.64861 0.0694,0.22177 0.15563,0.42633 0.24194,0.63098 0.0863,0.20468 0.18986,0.4092 0.29315,0.59671 l 0.10303,0.15343 -13.82138,8.05397 c -4.23358,-7.26006 -4.26871,-15.54581 -0.0969,-22.84153 l 13.88918,7.93685 z"
       id="rect4282-3-5"
       inkscape:connector-curvature="0" />
  </g>
</svg>
