<?xml version="1.0" encoding="UTF-8" standalone="no"?>
<!-- Created with Inkscape (http://www.inkscape.org/) -->

<svg
   xmlns:dc="http://purl.org/dc/elements/1.1/"
   xmlns:cc="http://creativecommons.org/ns#"
   xmlns:rdf="http://www.w3.org/1999/02/22-rdf-syntax-ns#"
   xmlns:svg="http://www.w3.org/2000/svg"
   xmlns="http://www.w3.org/2000/svg"
   xmlns:sodipodi="http://sodipodi.sourceforge.net/DTD/sodipodi-0.dtd"
   xmlns:inkscape="http://www.inkscape.org/namespaces/inkscape"
   width="900"
   height="900"
   id="svg2"
   version="1.1"
   inkscape:version="0.91 r13725"
   sodipodi:docname="quantum-state.svg"
   inkscape:export-xdpi="72"
   inkscape:export-ydpi="72"
   inkscape:export-filename="D:\book2018-quantumxie\svg\quantum-state.png">
  <title
     id="title2988">BITCOIN SIGN</title>
  <defs
     id="defs4" />
  <sodipodi:namedview
     id="base"
     pagecolor="#ffffff"
     bordercolor="#666666"
     borderopacity="1.0"
     inkscape:pageopacity="0.0"
     inkscape:pageshadow="2"
     inkscape:zoom="0.53879403"
     inkscape:cx="-811.57298"
     inkscape:cy="279.66555"
     inkscape:document-units="px"
     inkscape:current-layer="layer1"
     showgrid="false"
     inkscape:window-width="2560"
     inkscape:window-height="1027"
     inkscape:window-x="-8"
     inkscape:window-y="-8"
     inkscape:window-maximized="1"
     inkscape:showpageshadow="false"
     borderlayer="true"
     showguides="false"
     inkscape:guide-bbox="true"
     fit-margin-top="0"
     fit-margin-left="0"
     fit-margin-right="0"
     fit-margin-bottom="0">
    <inkscape:grid
       type="xygrid"
       id="grid2985"
       originx="-145.88716"
       originy="-462.66995" />
    <sodipodi:guide
       orientation="0,1"
       position="-73.839376,-276.75016"
       id="guide2987" />
    <sodipodi:guide
       orientation="1,0"
       position="204.92734,-1.205455"
       id="guide2989" />
  </sodipodi:namedview>
  <metadata
     id="metadata7">
    <rdf:RDF>
      <cc:Work
         rdf:about="">
        <dc:format>image/svg+xml</dc:format>
        <dc:type
           rdf:resource="http://purl.org/dc/dcmitype/StillImage" />
        <dc:title>BITCOIN SIGN</dc:title>
        <dc:date>2011-07-19</dc:date>
        <dc:creator>
          <cc:Agent>
            <dc:title>Pander</dc:title>
          </cc:Agent>
        </dc:creator>
        <dc:publisher>
          <cc:Agent>
            <dc:title>Bitcoin</dc:title>
          </cc:Agent>
        </dc:publisher>
        <dc:subject>
          <rdf:Bag>
            <rdf:li>unicode</rdf:li>
            <rdf:li>bitcoin</rdf:li>
            <rdf:li>sign</rdf:li>
            <rdf:li>symbol</rdf:li>
            <rdf:li>currency</rdf:li>
          </rdf:Bag>
        </dc:subject>
        <dc:description>Character shape for character code request at Unicode Consortium that is proposed for Currency Symbols range 20A0 - 20CF</dc:description>
        <cc:license
           rdf:resource="http://creativecommons.org/publicdomain/zero/1.0/" />
      </cc:Work>
      <cc:License
         rdf:about="http://creativecommons.org/publicdomain/zero/1.0/">
        <cc:permits
           rdf:resource="http://creativecommons.org/ns#Reproduction" />
        <cc:permits
           rdf:resource="http://creativecommons.org/ns#Distribution" />
        <cc:permits
           rdf:resource="http://creativecommons.org/ns#DerivativeWorks" />
      </cc:License>
    </rdf:RDF>
  </metadata>
  <g
     inkscape:label="Layer 1"
     inkscape:groupmode="layer"
     id="layer1"
     transform="translate(-145.88716,310.30776)">
    <g
       style="font-style:normal;font-variant:normal;font-weight:normal;font-stretch:normal;font-size:1041.66662598px;line-height:125%;font-family:FreeSerif;-inkscape-font-specification:FreeSerif;letter-spacing:0px;word-spacing:0px;fill:#000000;fill-opacity:1;stroke:none"
       id="text3024" />
    <path
       style="fill:#000000"
       d="m 201.73946,120.2402 c 0,-122.9944169 0.077,-124.7834369 5.36703,-124.7834369 5.29009,0 5.36703,1.78902 5.36703,124.7834369 0,122.99441 -0.077,124.78343 -5.36703,124.78343 -5.29009,0 -5.36703,-1.78902 -5.36703,-124.78343 z m 216.0597,122.15941 c -0.89195,-1.44319 5.15388,-20.4626 13.43518,-42.26536 8.2813,-21.80272 18.47157,-48.73292 22.64508,-59.84487 l 7.58815,-20.20351 -22.59968,-59.763997 C 426.43809,27.451693 417.0189,-0.6567269 417.9364,-2.1412469 c 5.12586,-8.2938301 11.06568,2.40504 32.18784,57.9770899 12.34159,32.47053 22.4867,61.520727 22.54472,64.556027 0.058,3.03529 -4.53994,17.52627 -10.21767,32.20218 -5.67773,14.6759 -16.04369,41.47635 -23.03548,59.55653 -11.81224,30.54561 -16.97146,37.7651 -21.61665,30.24903 z m -119.45317,-9.48893 c 0,-0.96368 2.48824,-11.49758 5.52941,-23.40868 5.67166,-22.21379 4.94529,-26.04045 -4.96544,-26.15812 -5.97595,-0.0709 -23.2386,-10.10405 -26.387,-15.33621 -7.02155,-11.66867 -6.70766,-21.18436 1.54908,-46.96022 9.15304,-28.573897 10.10059,-37.034697 4.14759,-37.034697 -5.87287,0 -13.70586,8.78148 -17.70986,19.854277 -2.24942,6.22071 -5.215,9.66438 -8.32262,9.66438 -9.44192,0 -5.12146,-15.957947 8.24665,-30.459607 9.74363,-10.56986 17.9071,-13.29564 28.92703,-9.65875 16.21071,5.35002 18.3203,18.20301 7.6434,46.568907 -8.77386,23.31 -8.811,37.31095 -0.12183,45.99995 14.26863,14.26865 14.53424,13.72621 36.52374,-74.589497 18.48901,-74.25696 20.71544,-81.24942 26.11985,-82.0338399 3.24939,-0.47162 5.908,-0.13981 5.908,0.7375999 0,0.87732 -9.10318,37.9475 -20.2293,82.37816 -11.12609,44.430677 -19.6061,81.406237 -18.84442,82.167897 0.76167,0.76169 6.75063,-0.66433 13.30879,-3.16891 20.41889,-7.79805 44.33274,-39.19195 44.49061,-58.40688 0.0325,-3.9456 -2.96003,-10.76162 -6.64986,-15.146727 -8.11103,-9.63942 -8.43058,-14.86868 -1.34176,-21.95751 6.87635,-6.87634 11.99982,-6.78478 19.12632,0.34172 4.90477,4.90477 5.50277,7.83372 4.24602,20.79724 -4.17635,43.079717 -30.83785,78.748277 -65.4275,87.530937 l -12.81168,3.25304 -5.56983,22.53132 c -4.7192,19.09039 -6.47204,22.66231 -11.47755,23.38887 -3.24936,0.47163 -5.90784,0.069 -5.90784,-0.89465 z"
       id="path4154"
       inkscape:connector-curvature="0" />
    <g
       id="g4233"
       transform="translate(9.279984,270.97553)">
      <g
         transform="matrix(0.10694208,0,0,0.10694208,710.52769,-235.93718)"
         id="g4157">
        <path
           inkscape:connector-curvature="0"
           d="m 1513.211,1139.773 c -26.153,-30.132 -56.498,-59.804 -65.177,-98.747 -8.427,-37.811 5.355,-76.49 14.693,-114.087 56.957,-229.308 -58.146,-353.746 -87.878,-496.049 -15.142,-72.474 -9.009,-147.862 -20.97,-220.928 C 1323.968,27.242 1182.372,-31.931 1033.762,77.531 886.123,186.277 910.604,258.98 550.293,330.521 461.298,270.576 360.556,228.145 255.491,206.354 143.854,183.201 82.799,223.554 92.207,365.15 c 8.583,129.177 37.822,256.961 86.269,377.017 30.527,75.648 16.839,87.913 -34.322,140.778 -179.303,185.275 -73.066,498.763 -60.49,575.342 2.287,13.924 0.269,32.532 19.737,46.026 1.759,1.219 13.887,5.396 14.184,6.197 -67.176,-181.3 -104.337,-548.525 79.79,-603.399 61.886,-18.444 131.216,8.857 183.264,41.542 257.679,161.818 123.45,419.309 -58.637,357.74 -55.016,-18.603 -98.227,-65.393 -118.658,-119.756 -5.287,-14.07 -20.984,-31.816 -30.857,-20.483 -15.51,17.803 35.984,153.011 163.002,172.846 49.186,7.681 101.076,-2.912 148.256,12.974 73.549,24.764 114.773,106.136 185.804,137.397 65.406,28.785 156.223,11.175 196.793,83.733 0,0 -3.499,11.757 -7.51,27.81 -2.093,8.377 -3.125,16.632 -6.25,24.668 -1.385,3.562 -2.051,7.989 0.434,10.893 2.477,2.896 19.459,9.475 23.947,4.731 5.93,-6.268 5.238,-12.255 13.439,-43.876 1.223,-4.715 10.797,-40.662 15.055,-47.799 31.31,-52.474 76.742,-96.59 130.649,-125.43 187.178,-100.14 320.956,47.778 305.221,172.81 11.295,8.527 28.921,1.05 35.493,-11.483 15.008,-28.622 -12.236,-137.591 -100.549,-203.312 127.017,-222.635 129.584,-237.639 158.193,-244.838 32.165,-8.094 60.481,28.138 60.919,61.302 0.438,33.164 -16.265,63.785 -25.557,95.624 -32.546,111.518 41.641,242.541 154.012,272.005 12.355,2.904 23.129,1.979 30.484,-7.232 3.591,-4.497 5.456,-10.145 5.553,-15.898 2.46,-146.255 -50.772,-292.823 -146.664,-403.306 z M 301.271,578.106 c -25.164,18.839 -47.112,34.551 -77.022,-14.31 -44.141,-72.11 -49.261,-113.471 -57.34,-148.242 -3.901,-16.789 -7.783,-34.537 -2.703,-51.013 14.845,-48.147 90.31,-29.854 120.538,-12.506 19.466,11.171 88.639,40.987 91.489,112.777 1.801,45.376 -41.495,88.24 -74.962,113.294 z m 1098.023,469.879 c -19.502,42.996 -30.047,171.926 -235.49,269.912 -156.119,74.461 -226.025,105.636 -332.438,100.921 -126.388,-5.599 -290.687,-92.215 -304.433,-101.02 -7.349,-4.707 -20.661,-10.044 -12.894,-19.74 3.404,-4.249 8.455,-6.629 12.158,-10.447 8.213,-8.468 13.685,-19.039 21.191,-28.17 28.47,-34.635 20.155,-89.273 7.088,-136.804 -11.924,-43.375 -23.141,-88.586 -54.138,-122.915 -9.541,-10.566 -16.87,-23.392 -27.281,-33.358 -26.542,-25.408 14.757,-17.001 90.736,-154.833 32.255,-58.514 58.742,-95.218 70.309,-228.881 3.474,-40.148 9.18,-86.882 -5.385,-125.401 -6.849,-18.113 -16.184,-42.308 -28.588,-57.26 -29.608,-35.689 50.27,-51.914 69.036,-57.111 80.125,-22.19 164.562,-32.996 184.459,-32.973 11.043,0.012 17.55,0.588 26.875,-7.09 22.926,-18.877 38.197,-53.313 57.781,-76.244 37.987,-44.482 79.245,-84.793 129.319,-115.42 31.885,-19.502 79.223,-48.738 118.753,-42.542 105.16,16.484 173.858,228.83 120.533,371.623 -4.096,10.969 -4.846,17.7 2.722,27.77 85.576,113.872 107.11,168.699 120.714,305.636 10.253,103.262 -12.126,232.675 -31.027,274.347 z"
           id="path4159" />
        <path
           inkscape:connector-curvature="0"
           d="m 456.336,1089.131 c 6.233,6.155 24.117,28.409 23.687,37.241 -0.521,10.725 -11.538,20.144 -22.183,16.639 -8.212,-2.704 -41.755,-30.055 -41.58,-59.534 0.082,-13.751 24.159,-10.062 40.076,5.654 z"
           id="path4161" />
        <path
           inkscape:connector-curvature="0"
           d="m 364.881,1178.201 c -7.345,-5.237 -8.654,-15.525 -11.611,-23.041 -9.543,-24.251 -25.954,-19.429 -21.943,-33.675 4.8,-17.047 16.421,-12.089 27.571,-2.876 8.766,7.243 17.658,14.623 24.019,24.048 3.625,5.372 16.063,35.604 2.387,36.536 -6.622,0.452 -14.567,3.183 -20.423,-0.992 z"
           id="path4163" />
        <path
           inkscape:connector-curvature="0"
           d="m 285.236,1224.975 c -16.857,-0.608 -3.845,-20.258 -30.489,-55.574 -2.322,-3.078 -2.948,-14.98 -0.513,-17.872 7.879,-9.36 24.751,6.89 32.378,16.205 22.237,27.159 17.683,57.928 -1.376,57.241 z"
           id="path4165" />
        <path
           inkscape:connector-curvature="0"
           d="m 1026.152,1178.3 c -4.4,-0.988 -7.848,-3.813 -12.337,-4.456 -18.762,-2.687 -33.961,22.843 -40.255,37.065 -18.956,42.84 -128.826,36.937 -153.958,-1.215 -10.923,-16.583 -3.617,-38.579 7.147,-41.85 8.716,-2.649 16.488,5.584 22.814,12.138 22.334,23.138 60.924,35.443 89.487,15.939 15.178,-10.364 19.441,-24.802 24.852,-41.253 8.683,-26.4 -3.987,-64.117 -3.675,-78.946 0.522,-24.79 -76.71,-7.925 -85.986,-47.513 -2.777,-11.85 3.329,-23.97 10.711,-33.647 47.18,-61.85 141.029,-54.294 153.57,-24.207 8.111,19.46 -13.151,46.409 -24.854,70.349 -10.421,21.317 -10.733,42.461 -6.508,65.432 8.24,44.795 104.281,48.515 114.044,10.036 3.174,-12.509 5.44,-25.328 4.856,-38.549 -0.809,-18.365 24.469,-18.029 36.445,-13.585 17.88,6.634 9.067,32.536 8.253,46.999 -1.489,26.459 -12.642,27.368 -34.465,47.374 -8.485,7.778 -15.621,16.287 -27.586,18.448 -18.371,3.318 -71.256,3.979 -82.555,1.441 z"
           id="path4167" />
        <path
           inkscape:connector-curvature="0"
           d="m 1165.789,397.884 c -21.478,-4.91 -35.042,-12.902 -108.763,-50.389 -26.837,-13.646 -80.673,-20.143 -36.401,-87.37 24.263,-36.844 56.284,-74.62 94.725,-97.025 25.309,-14.751 60.416,-26.014 88.841,-13.614 18.62,8.125 26.483,29.966 30.368,48.385 5.297,25.112 11.916,49.994 13.473,75.765 4.213,69.703 -13.356,139.997 -82.243,124.248 z m -4.224,-214.332 c -36.9,-4.21 -69.141,47.615 -88.59,71.948 -22.23,27.813 -6.561,34.109 19.008,54.253 32.491,25.596 84.395,46.491 96.385,48.285 13.16,1.969 12.985,-5.815 13.009,-17.403 0.066,-30.823 -3.791,-61.637 -11.22,-91.544 -3.912,-15.755 -11.138,-63.548 -28.592,-65.539 z"
           id="path4169" />
        <path
           inkscape:connector-curvature="0"
           d="m 1166.532,785.708 c -33.999,14.871 -29.684,37.645 -42.067,56.304 -16.539,24.921 -75.594,-27.122 6.865,-72.599 21.582,-11.903 35.962,-34.673 72.665,-21.82 51.524,18.043 50.424,51.761 27.029,56.366 -30.105,5.925 -31.815,-32.543 -64.492,-18.251 z"
           id="path4171" />
        <path
           inkscape:connector-curvature="0"
           d="m 633.279,970.612 c -2.789,4.104 -3.766,9.821 -7.137,13.623 -3.642,4.108 -13.067,7.727 -18.335,5.324 -14.615,-6.668 -18.012,-16.788 -10.953,-30.893 28.664,-57.276 61.815,-66.413 124.579,-52.86 11.553,2.495 22.771,8.339 27.733,21.337 4.857,12.725 -12.617,19.396 -22.681,18.288 -15.94,-1.756 -52.004,-35.434 -93.206,25.181 z"
           id="path4173" />
        <path
           inkscape:connector-curvature="0"
           d="m 637.908,1188.575 c -5.595,8.292 -19.762,13.507 -21.387,13.638 -9.983,0.808 -18.272,-13.722 -16.661,-22.27 5.828,-30.925 63.093,-51.854 83.183,-34.161 14.926,13.144 14.964,35.14 -16.662,34.828 -12.395,-0.122 -20.509,-3.84 -28.473,7.965 z"
           id="path4175" />
        <path
           inkscape:connector-curvature="0"
           d="m 717.365,1240.397 c -0.134,10.242 -9.212,14.252 -17.947,15.986 -10.358,2.056 -18.298,2.074 -24.009,12.648 -4.116,7.621 -13.043,13.583 -21.119,16.241 -19.047,6.269 -33.744,-8.64 -25.868,-23.381 2.274,-4.255 5.724,-7.743 9.124,-11.165 10.586,-10.651 25.384,-34.309 42.111,-31.688 10.141,1.589 20.158,2.509 29.361,7.443 7.688,4.12 8.458,5.321 8.347,13.916 z"
           id="path4177" />
        <path
           inkscape:connector-curvature="0"
           d="m 1275.09,912.52 c -10.904,4.013 -21.432,14.606 -33.884,12.73 -9.084,-1.369 -16.852,-14.026 -15.304,-22.983 1.555,-8.994 17.964,-13.307 25.038,-16.213 10.747,-4.414 53.436,-19.693 67.508,-18.453 12.137,1.07 10.386,14.942 7.799,27.098 -0.27,1.269 -1.226,2.85 -2.317,3.415 -7.241,3.752 -12.936,8.02 -21.154,9.666 -9.195,1.843 -18.782,1.463 -27.686,4.74 z"
           id="path4179" />
        <path
           inkscape:connector-curvature="0"
           d="m 668.031,1056.7 c 10.209,1.148 12.126,14.675 10.294,22.768 -2.564,11.323 -13.866,13.272 -23.274,17.568 -7.218,3.296 -47.912,21.818 -56.838,22.634 -21.661,1.98 -11,-16.295 -2.671,-24.855 19.584,-20.128 63.661,-39.108 72.489,-38.115 z"
           id="path4181" />
        <path
           inkscape:connector-curvature="0"
           d="m 1296.82,1072.472 c -11.681,2.792 -18.075,-1.341 -22.346,-12.816 -2.113,-5.675 1.276,-12.251 6.259,-15.122 14.762,-8.504 109.854,1.37 86.914,25.851 -31.474,33.587 -30.611,-7.523 -70.827,2.087 z"
           id="path4183" />
        <path
           inkscape:connector-curvature="0"
           d="m 1322.282,970.236 c -12.939,-2.531 -26.178,5.846 -40.296,10.184 -6.817,2.094 -12.979,0.065 -18.47,-2.172 -5.583,-2.276 -2.596,-11.062 -0.187,-14.872 3.723,-5.888 10.783,-8.09 17.196,-9.706 62.161,-15.659 62.235,-19.071 71.428,-14.475 7.399,6.185 9.197,14.436 6.721,23.097 -0.961,3.362 -5.687,4.732 -9.737,5.523 -7.9,1.543 -15.893,1.635 -26.655,2.421 z"
           id="path4185" />
      </g>
      <g
         transform="translate(-37.119936,-44.543923)"
         id="g4229">
        <path
           inkscape:connector-curvature="0"
           style="fill:#000000"
           d="m 715.70092,-100.75402 c 0,-122.99442 0.077,-124.78344 5.36703,-124.78344 5.29009,0 5.36703,1.78902 5.36703,124.78344 0,122.994412 -0.077,124.783432 -5.36703,124.783432 -5.29009,0 -5.36703,-1.78902 -5.36703,-124.783432 z"
           id="path4227" />
        <path
           inkscape:connector-curvature="0"
           style="fill:#000000"
           d="m 931.76062,21.405392 c -0.89195,-1.44319 5.15388,-20.46259994 13.43518,-42.26536 8.2813,-21.80272 18.47157,-48.732918 22.64508,-59.844868 l 7.58815,-20.203514 -22.59968,-59.764 c -12.4298,-32.87018 -21.84899,-60.9786 -20.93149,-62.46312 5.12586,-8.29383 11.06568,2.40504 32.18784,57.97709 12.34159,32.47053 22.4867,61.52073 22.54472,64.55603 0.058,3.035294 -4.53994,17.526274 -10.21767,32.202184 -5.67773,14.6759 -16.04369,41.476348 -23.03548,59.5565281 C 941.56503,21.701972 936.40581,28.921462 931.76062,21.405392 Z"
           id="path4225" />
      </g>
    </g>
  </g>
</svg>
