<?xml version="1.0" encoding="UTF-8" standalone="no"?>
<!-- Created with Inkscape (http://www.inkscape.org/) -->

<svg
   xmlns:dc="http://purl.org/dc/elements/1.1/"
   xmlns:cc="http://creativecommons.org/ns#"
   xmlns:rdf="http://www.w3.org/1999/02/22-rdf-syntax-ns#"
   xmlns:svg="http://www.w3.org/2000/svg"
   xmlns="http://www.w3.org/2000/svg"
   xmlns:sodipodi="http://sodipodi.sourceforge.net/DTD/sodipodi-0.dtd"
   xmlns:inkscape="http://www.inkscape.org/namespaces/inkscape"
   width="900"
   height="900"
   id="svg2"
   version="1.1"
   inkscape:version="0.91 r13725"
   sodipodi:docname="quantum-waterbear.svg"
   inkscape:export-xdpi="72"
   inkscape:export-ydpi="72"
   inkscape:export-filename="D:\book2018-quantumxie\svg\quantum-waterbear1.png">
  <title
     id="title2988">BITCOIN SIGN</title>
  <defs
     id="defs4" />
  <sodipodi:namedview
     id="base"
     pagecolor="#ffffff"
     bordercolor="#666666"
     borderopacity="1.0"
     inkscape:pageopacity="0"
     inkscape:pageshadow="2"
     inkscape:zoom="0.95111111"
     inkscape:cx="231.30841"
     inkscape:cy="450"
     inkscape:document-units="px"
     inkscape:current-layer="layer1"
     showgrid="false"
     inkscape:window-width="2560"
     inkscape:window-height="1027"
     inkscape:window-x="-8"
     inkscape:window-y="-8"
     inkscape:window-maximized="1"
     inkscape:showpageshadow="true"
     borderlayer="true"
     showguides="false"
     inkscape:guide-bbox="true"
     fit-margin-top="0"
     fit-margin-left="0"
     fit-margin-right="0"
     fit-margin-bottom="0">
    <inkscape:grid
       type="xygrid"
       id="grid2985"
       originx="-145.88716"
       originy="-462.66995" />
    <sodipodi:guide
       orientation="0,1"
       position="-73.839376,-276.75016"
       id="guide2987" />
    <sodipodi:guide
       orientation="1,0"
       position="204.92734,-1.205455"
       id="guide2989" />
  </sodipodi:namedview>
  <metadata
     id="metadata7">
    <rdf:RDF>
      <cc:Work
         rdf:about="">
        <dc:format>image/svg+xml</dc:format>
        <dc:type
           rdf:resource="http://purl.org/dc/dcmitype/StillImage" />
        <dc:title>BITCOIN SIGN</dc:title>
        <dc:date>2011-07-19</dc:date>
        <dc:creator>
          <cc:Agent>
            <dc:title>Pander</dc:title>
          </cc:Agent>
        </dc:creator>
        <dc:publisher>
          <cc:Agent>
            <dc:title>Bitcoin</dc:title>
          </cc:Agent>
        </dc:publisher>
        <dc:subject>
          <rdf:Bag>
            <rdf:li>unicode</rdf:li>
            <rdf:li>bitcoin</rdf:li>
            <rdf:li>sign</rdf:li>
            <rdf:li>symbol</rdf:li>
            <rdf:li>currency</rdf:li>
          </rdf:Bag>
        </dc:subject>
        <dc:description>Character shape for character code request at Unicode Consortium that is proposed for Currency Symbols range 20A0 - 20CF</dc:description>
        <cc:license
           rdf:resource="http://creativecommons.org/publicdomain/zero/1.0/" />
      </cc:Work>
      <cc:License
         rdf:about="http://creativecommons.org/publicdomain/zero/1.0/">
        <cc:permits
           rdf:resource="http://creativecommons.org/ns#Reproduction" />
        <cc:permits
           rdf:resource="http://creativecommons.org/ns#Distribution" />
        <cc:permits
           rdf:resource="http://creativecommons.org/ns#DerivativeWorks" />
      </cc:License>
    </rdf:RDF>
  </metadata>
  <g
     inkscape:label="Layer 1"
     inkscape:groupmode="layer"
     id="layer1"
     transform="translate(-145.88716,310.30776)"
     style="display:inline">
    <rect
       style="opacity:1;fill:#ff2a2a;fill-opacity:1;fill-rule:evenodd;stroke:none;stroke-width:50;stroke-linecap:square;stroke-linejoin:miter;stroke-miterlimit:4;stroke-dasharray:none;stroke-dashoffset:0;stroke-opacity:1"
       id="rect4516"
       width="816.31201"
       height="526.42847"
       x="183.32318"
       y="-170.19797" />
    <g
       style="font-style:normal;font-variant:normal;font-weight:normal;font-stretch:normal;font-size:1041.66662598px;line-height:125%;font-family:FreeSerif;-inkscape-font-specification:FreeSerif;letter-spacing:0px;word-spacing:0px;fill:#000000;fill-opacity:1;stroke:none"
       id="text3024" />
    <g
       id="g4302"
       transform="matrix(0.59803922,0,0,0.59803922,750.40861,-211.31462)">
      <rect
         rx="66.638435"
         ry="66.638435"
         y="279.17563"
         x="884.81702"
         height="335.42435"
         width="338.74539"
         id="rect4282-8"
         style="opacity:1;fill:#ffcc00;fill-opacity:1;fill-rule:evenodd;stroke:none;stroke-width:2;stroke-linecap:square;stroke-linejoin:miter;stroke-miterlimit:4;stroke-dasharray:none;stroke-dashoffset:0;stroke-opacity:1" />
      <path
         id="path4219-2"
         d="m 989.05025,328.20115 c -42.6,24.6 -66.80078,66.60079 -66.80078,115.80079 l 93.60153,0 c 0,-1.4 0.099,-2.79961 0.1992,-4.09961 0.1,-1.3 0.3997,-2.7 0.5997,-4 0.3,-1.3 0.6,-2.60079 1,-3.80079 0.4,-1.29999 0.8003,-2.49921 1.4003,-3.69921 0.5,-1.2 1.0993,-2.4 1.6993,-3.5 0.6,-1.1 1.3,-2.20078 2,-3.30079 0.7,-1.09999 1.5007,-2.0996 2.3007,-3.0996 0.8,-1 1.6997,-1.90079 2.5997,-2.80079 0.9,-0.9 1.9003,-1.7996 2.9003,-2.59961 1,-0.79999 1.9997,-1.60078 3.0997,-2.30078 l 2.4003,-1.5 -46.99995,-81.09961 z m 133.69925,0 -46.7989,81.09961 c 0.8,0.5 1.6004,0.9 2.4004,1.5 1.1,0.7 2.0996,1.50078 3.0996,2.30078 1,0.80001 1.9004,1.69961 2.9004,2.59961 0.9,0.9 1.7996,1.90079 2.5996,2.80079 0.8,1 1.5989,1.9996 2.2989,3.0996 0.7,1.1 1.4,2.20079 2,3.30079 0.6,1.1 1.2011,2.3 1.7011,3.5 0.5,1.2 1.0004,2.39922 1.4004,3.69921 0.4,1.3 0.7,2.50079 1,3.80079 0.3,1.3 0.4996,2.6 0.5996,4 0.1,1.3 0.1993,2.69961 0.1993,4.09961 l 93.5996,0 c -0.2,-49.2 -24.4,-91.20079 -67,-115.80079 z m -66.8985,89.09961 a 26.700001,26.700001 0 0 0 -26.7011,26.70118 26.700001,26.700001 0 0 0 26.7011,26.69921 26.700001,26.700001 0 0 0 26.6992,-26.69921 26.700001,26.700001 0 0 0 -26.6992,-26.70118 z m -20,61.40039 -46.80075,81.09961 c 42.59995,24.6 91.09925,24.6 133.69925,0 l -46.7989,-81.09961 -0.9004,0.59961 c -1.1,0.6 -2.3,1.20118 -3.5,1.70118 -1.2,0.5 -2.3992,1.00039 -3.6992,1.40039 -1.3,0.4 -2.5008,0.7 -3.8008,1 -1.3,0.3 -2.6,0.49961 -4,0.59961 -1.3,0.1 -2.6996,0.19921 -4.0996,0.19921 -1.4,0 -2.6996,-0.0992 -4.0996,-0.19921 -1.3,-0.1 -2.7,-0.29961 -4,-0.59961 -1.3,-0.3 -2.6008,-0.6 -3.8008,-1 -1.3,-0.4 -2.4992,-0.80039 -3.6992,-1.40039 -1.2,-0.5 -2.4,-1.10118 -3.5,-1.70118 -0.4,-0.2 -0.7,-0.39961 -1,-0.59961 z"
         inkscape:connector-curvature="0" />
    </g>
    <path
       style="opacity:1;fill:#000000;fill-opacity:1;fill-rule:evenodd;stroke:none;stroke-width:2;stroke-linecap:square;stroke-linejoin:miter;stroke-miterlimit:4;stroke-dasharray:none;stroke-dashoffset:0;stroke-opacity:1"
       d="m 1114.3081,298.03393 c -6.4438,0 -11.6312,5.18741 -11.6312,11.63128 l 0,74.6359 c 0,6.44387 5.1874,11.63129 11.6312,11.63129 l 75.6051,0 c 6.4438,0 11.6312,-5.18742 11.6312,-11.63129 l 0,-74.6359 c 0,-6.44387 -5.1874,-11.63128 -11.6312,-11.63128 l -75.6051,0 z m 18.7906,14.30879 13.7176,23.67014 -0.7006,0.4378 c -0.321,0.2043 -0.6128,0.43802 -0.9046,0.67152 -0.2919,0.23349 -0.5839,0.49604 -0.8466,0.75873 -0.2626,0.26268 -0.5252,0.52558 -0.7587,0.81744 -0.2335,0.29187 -0.4672,0.58363 -0.6715,0.90468 -0.2043,0.32105 -0.4086,0.64233 -0.5838,0.96338 -0.1751,0.32105 -0.35,0.67129 -0.4959,1.02153 -0.1751,0.35024 -0.292,0.70024 -0.4087,1.07968 -0.1168,0.35023 -0.2043,0.72988 -0.2919,1.10931 -0.058,0.37942 -0.1458,0.78804 -0.175,1.16745 -0.029,0.37942 -0.058,0.78793 -0.058,1.19654 l -27.319,0 c 0,-14.35975 7.0634,-26.61831 19.4968,-33.7982 z m 39.0221,0 c 12.4334,7.17989 19.4966,19.43845 19.5549,33.7982 l -27.3184,0 c 0,-0.40861 -0.029,-0.81712 -0.058,-1.19654 -0.029,-0.40861 -0.087,-0.78803 -0.175,-1.16745 -0.088,-0.37943 -0.1751,-0.7299 -0.2919,-1.10931 -0.1167,-0.37944 -0.2628,-0.72944 -0.4087,-1.07968 -0.1459,-0.35024 -0.3214,-0.70048 -0.4965,-1.02153 -0.1751,-0.32105 -0.3794,-0.64233 -0.5837,-0.96338 -0.2044,-0.32105 -0.4375,-0.61281 -0.671,-0.90468 -0.2335,-0.26267 -0.496,-0.55476 -0.7587,-0.81744 -0.2919,-0.26269 -0.5547,-0.52524 -0.8465,-0.75873 -0.2919,-0.2335 -0.5837,-0.46722 -0.9047,-0.67152 -0.2335,-0.17513 -0.4671,-0.29187 -0.7006,-0.4378 l 13.6589,-23.67014 z m -19.5253,26.00506 a 7.7927958,7.7927958 0 0 1 7.7925,7.79314 7.7927958,7.7927958 0 0 1 -7.7925,7.79257 7.7927958,7.7927958 0 0 1 -7.7932,-7.79257 7.7927958,7.7927958 0 0 1 7.7932,-7.79314 z m -5.8373,17.92063 c 0.088,0.0584 0.1751,0.11663 0.2918,0.17501 0.3211,0.17511 0.6713,0.35057 1.0216,0.49651 0.3502,0.17511 0.7002,0.29197 1.0796,0.40872 0.3503,0.11674 0.7299,0.2043 1.1093,0.29187 0.3795,0.0876 0.7881,0.14581 1.1675,0.175 0.4086,0.0293 0.7879,0.0582 1.1965,0.0582 0.4087,0 0.8172,-0.0289 1.1966,-0.0582 0.4086,-0.0293 0.788,-0.0874 1.1674,-0.175 0.3795,-0.0876 0.7299,-0.17513 1.1093,-0.29187 0.3795,-0.11675 0.7295,-0.2628 1.0797,-0.40872 0.3503,-0.14594 0.7005,-0.3214 1.0216,-0.49651 l 0.2627,-0.17501 13.659,23.67013 c -12.4335,7.17988 -26.5887,7.17988 -39.0221,0 l 13.6595,-23.67013 z"
       id="rect4282-5"
       inkscape:connector-curvature="0" />
    <path
       style="fill:#000000"
       d="m 1336.8834,320.98919 c -0.1953,-34.50866 -0.1765,-35.01074 1.3079,-35.01904 1.4842,-0.009 1.5085,0.49347 1.7039,35.00201 0.1953,34.50869 0.1765,35.01076 -1.3077,35.01916 -1.4844,0.009 -1.5088,-0.49336 -1.7041,-35.00213 z m 60.814,33.93143 c -0.2525,-0.40345 1.4135,-5.7494 3.7025,-11.87972 2.2889,-6.13037 5.1053,-13.70232 6.2585,-16.82671 l 2.097,-5.68054 -6.4356,-16.7321 c -3.5397,-9.20271 -6.227,-17.07415 -5.9721,-17.49219 1.425,-2.33513 3.1085,0.65718 9.1232,16.21565 3.5142,9.09068 6.4066,17.2252 6.4278,18.07676 0.021,0.85153 -1.2461,4.92448 -2.8158,9.05116 -1.5697,4.12665 -4.4355,11.66254 -6.3685,16.74636 -3.2656,8.58905 -4.7054,10.62115 -6.017,8.52133 z m -33.5301,-2.47269 c -10e-4,-0.2704 0.6798,-3.22988 1.5143,-6.57653 1.5561,-6.24153 1.3461,-7.3141 -1.4348,-7.33138 -1.6768,-0.009 -6.5361,-2.7981 -7.4278,-4.26104 -1.9884,-3.26266 -1.9156,-5.93304 0.3601,-13.17811 2.5228,-8.0315 2.7751,-10.40689 1.105,-10.39742 -1.6478,0.009 -3.8316,2.48557 -4.9373,5.59868 -0.6219,1.74865 -1.4471,2.72016 -2.3197,2.72476 -2.6493,0.0141 -1.4625,-4.46928 2.2654,-8.55918 2.717,-2.98103 5.0029,-3.75887 8.1007,-2.75587 4.5567,1.47528 5.1689,5.07811 2.2183,13.05366 -2.4246,6.55413 -2.4128,10.48243 0.039,12.90648 4.026,3.9807 4.0996,3.82808 10.1291,-20.98562 5.0695,-20.86369 5.6831,-22.82911 7.1982,-23.05776 0.911,-0.1374 1.6574,-0.0485 1.6589,0.19766 0,0.24619 -2.4938,10.66145 -5.5451,23.14498 -3.0511,12.48361 -5.3715,22.87141 -5.1566,23.08389 0.2147,0.21243 1.8929,-0.19719 3.7289,-0.91029 5.7166,-2.22029 12.3763,-11.06644 12.3902,-16.45782 0,-1.10708 -0.8478,-3.01477 -1.8899,-4.23921 -2.291,-2.69167 -2.3889,-4.1583 -0.4112,-6.15846 1.9182,-1.94028 3.3558,-1.92274 5.3667,0.0654 1.3838,1.36831 1.5564,2.18919 1.2243,5.82837 -1.1034,12.09354 -8.5272,22.14344 -18.218,24.66251 l -3.5895,0.93301 -1.5269,6.33052 c -1.2938,5.36367 -1.7799,6.36866 -3.1833,6.58039 -0.9109,0.1374 -1.6573,0.0288 -1.6589,-0.2416 z"
       id="path4154-4"
       inkscape:connector-curvature="0" />
    <path
       style="color:#000000;font-style:normal;font-variant:normal;font-weight:normal;font-stretch:normal;font-size:medium;line-height:normal;font-family:sans-serif;text-indent:0;text-align:start;text-decoration:none;text-decoration-line:none;text-decoration-style:solid;text-decoration-color:#000000;letter-spacing:normal;word-spacing:normal;text-transform:none;direction:ltr;block-progression:tb;writing-mode:lr-tb;baseline-shift:baseline;text-anchor:start;white-space:normal;clip-rule:nonzero;display:inline;overflow:visible;visibility:visible;opacity:1;isolation:auto;mix-blend-mode:normal;color-interpolation:sRGB;color-interpolation-filters:linearRGB;solid-color:#000000;solid-opacity:1;fill:#000000;fill-opacity:1;fill-rule:evenodd;stroke:none;stroke-width:50;stroke-linecap:square;stroke-linejoin:miter;stroke-miterlimit:4;stroke-dasharray:none;stroke-dashoffset:0;stroke-opacity:1;color-rendering:auto;image-rendering:auto;shape-rendering:auto;text-rendering:auto;enable-background:accumulate"
       d="m 150.56591,-232.42094 0,59.61165 0,586.67915 894.58109,0 0,-646.2908 z m 56.2374,98.97783 782.10634,0 0,457.33312 -782.10634,0 z"
       id="rect4433"
       inkscape:connector-curvature="0"
       sodipodi:nodetypes="ccccccccccc" />
    <path
       style="fill:#000000"
       d="m 1252.0452,222.16093 c -0.115,-20.32067 -0.104,-20.61631 0.7701,-20.62121 0.874,-0.005 0.8883,0.2906 1.0034,20.61117 0.115,20.32068 0.104,20.61633 -0.77,20.62127 -0.8742,0.005 -0.8885,-0.29052 -1.0035,-20.61123 z m 35.8107,19.98074 c -0.1487,-0.23757 0.8324,-3.38557 2.1803,-6.99545 1.3478,-3.60991 3.0063,-8.0687 3.6853,-9.90851 l 1.2348,-3.34503 -3.7896,-9.85281 c -2.0844,-5.41909 -3.6668,-10.05424 -3.5167,-10.3004 0.8391,-1.37507 1.8305,0.38698 5.3723,9.54869 2.0693,5.35312 3.7725,10.14318 3.785,10.64463 0.013,0.50143 -0.7338,2.89981 -1.6582,5.32983 -0.9242,2.43002 -2.6118,6.86758 -3.75,9.86121 -1.923,5.05772 -2.7708,6.25433 -3.5432,5.01784 z m -19.7444,-1.45606 c 0,-0.15922 0.4003,-1.90193 0.8917,-3.87263 0.9163,-3.67536 0.7927,-4.30696 -0.8449,-4.31714 -0.9874,-0.005 -3.8488,-1.64767 -4.3739,-2.50913 -1.1709,-1.92123 -1.128,-3.49371 0.212,-7.76002 1.4856,-4.7294 1.6342,-6.12817 0.6507,-6.12259 -0.9703,0.005 -2.2562,1.46364 -2.9073,3.29681 -0.3662,1.02972 -0.8522,1.60179 -1.366,1.6045 -1.5601,0.009 -0.8612,-2.63176 1.334,-5.04012 1.5999,-1.75541 2.946,-2.21344 4.7701,-1.62282 2.6833,0.86872 3.0438,2.99028 1.3063,7.68674 -1.4277,3.85943 -1.4208,6.17264 0.023,7.60007 2.3707,2.34406 2.4141,2.25417 5.9646,-12.35753 2.9852,-12.28573 3.3465,-13.44307 4.2387,-13.57773 0.5365,-0.0809 0.976,-0.0285 0.9769,0.11635 0,0.14498 -1.4685,6.27808 -3.2653,13.62909 -1.7967,7.35105 -3.1631,13.46798 -3.0365,13.59311 0.1264,0.12508 1.1146,-0.1161 2.1958,-0.53604 3.3662,-1.30743 7.2878,-6.51655 7.296,-9.69129 0,-0.65191 -0.4992,-1.77527 -1.1129,-2.49629 -1.349,-1.58502 -1.4067,-2.44864 -0.2421,-3.62645 1.1296,-1.14255 1.9761,-1.13222 3.1602,0.0384 0.8149,0.80574 0.9165,1.28912 0.721,3.43207 -0.6498,7.12135 -5.0213,13.03931 -10.7278,14.52269 l -2.1137,0.5494 -0.8992,3.72777 c -0.7618,3.15843 -1.0481,3.75023 -1.8745,3.87491 -0.5364,0.0809 -0.9759,0.017 -0.9768,-0.14227 z"
       id="path4154-4-9"
       inkscape:connector-curvature="0" />
    <text
       xml:space="preserve"
       style="font-style:normal;font-variant:normal;font-weight:bold;font-stretch:normal;font-size:44.98992157px;line-height:125%;font-family:Arial;-inkscape-font-specification:'Arial, Bold';text-align:start;letter-spacing:0px;word-spacing:0px;writing-mode:lr-tb;text-anchor:start;fill:#ffffff;fill-opacity:1;stroke:none;stroke-width:1px;stroke-linecap:butt;stroke-linejoin:miter;stroke-opacity:1"
       x="576.4585"
       y="-169.22154"
       id="text4453-5"
       sodipodi:linespacing="125%"><tspan
         sodipodi:role="line"
         x="576.4585"
         y="-169.22154"
         id="tspan4475-6">NO QUANTUMXIE</tspan></text>
    <path
       style="opacity:1;fill:#000000;fill-opacity:1;fill-rule:evenodd;stroke:none;stroke-width:50;stroke-linecap:square;stroke-linejoin:miter;stroke-miterlimit:4;stroke-dasharray:none;stroke-dashoffset:0;stroke-opacity:1"
       d="m 1185.524,-58.41861 c -0.7105,-0.0095 -1.4099,0.11071 -2.0563,0.345789 -0.996,0.386059 -1.7315,0.965607 -2.2278,1.582628 -1.2843,1.660012 -1.4193,3.338015 -1.3132,4.336941 0.1122,1.056409 0.485,1.623839 0.8085,1.633496 0.01,2.23e-4 0.015,-0.0032 0.022,-0.0034 -1.2161,0.518701 -2.7104,1.347094 -4.3589,2.690867 -1.9915,1.623971 -3.9325,3.799427 -5.7094,6.74146 -1.5871,2.623085 -2.922,5.60669 -4.0585,9.113403 -0.4137,1.274925 -0.7917,2.588849 -1.1369,3.94771 0.048,-0.301797 -0.01,-0.72816 -0.1382,-1.251128 -0.1759,-0.69966 -0.7043,-2.190406 -0.8619,-3.180115 -0.051,-0.354544 -0.093,-0.682345 -0.045,-0.927631 0,-0.0054 0,-0.01068 0,-0.01601 0.028,-0.175622 0.086,-0.344373 0.1689,-0.478391 0.1545,-0.363657 0.8354,-0.807052 1.4094,-1.270562 1.6076,-1.194231 2.464,-2.256398 2.0195,-2.695438 -0.3254,-0.321369 -1.736,-0.07918 -3.5577,0.629849 -0.1258,0.04365 -0.2627,0.09685 -0.4033,0.154892 -0.1306,-0.338904 -0.3092,-0.666353 -0.5314,-0.971068 -0.013,-0.01791 -0.026,-0.03559 -0.039,-0.05315 -0.6577,-0.921612 -1.4841,-1.492505 -2.0269,-1.794677 -0.5611,-0.312405 -1.1274,-0.51631 -1.5468,-0.379509 -0.4448,0.145071 -0.6616,0.65739 -0.5061,1.425451 0.1629,0.805076 0.6439,1.555245 1.1677,2.279923 0.01,0.0132 0.018,0.02634 0.027,0.03944 -0.2954,-0.435166 1.1582,1.629311 0.7584,1.044799 0.074,0.09395 0.1432,0.201804 0.2136,0.306925 -0.2361,0.361424 -0.4034,0.754155 -0.4946,1.16768 -0.035,-0.01042 -0.07,-0.02025 -0.1049,-0.02972 -1.0853,-0.325284 -1.9912,-0.277359 -2.5509,-0.188612 -0.5647,0.08953 -1.106,0.267617 -1.3286,0.591555 -0.2404,0.349959 -0.083,0.833901 0.5214,1.319142 0.6278,0.504269 1.4508,0.801954 2.2232,1.036797 0.026,0.009 0.053,0.0182 0.079,0.02686 0.4145,0.137349 0.8625,0.240119 1.1169,0.309781 0.1808,0.03539 0.3916,0.09402 0.6095,0.154891 0.5246,1.057521 1.2123,1.861711 1.7799,2.374228 0.7709,0.696094 1.4339,0.981287 1.7752,0.811605 0.1115,-0.05545 0.1833,-0.158043 0.2283,-0.293779 -0.545,2.164957 -1.0077,4.443885 -1.3953,6.871774 -0.3582,2.24335 -0.6442,4.543105 -0.8639,6.909497 -0.3134,-0.08234 -0.7344,-0.136672 -1.2631,-0.142888 -0.727,-0.0085 -1.7738,0.08485 -2.9188,0.448097 -0.1848,-0.559544 -0.5434,-1.155404 -1.0636,-1.699796 -0.013,-0.01326 -0.025,-0.02637 -0.038,-0.03944 -0.6674,-0.700225 -1.4211,-1.167369 -2.0343,-1.411734 -0.619,-0.246712 -1.1983,-0.310828 -1.5755,-0.08287 -0.3854,0.232899 -0.4881,0.730463 -0.2971,1.365437 0.1933,0.64269 0.6528,1.328196 1.2471,1.966713 0.011,0.01174 0.021,0.02373 0.032,0.03544 0.4148,0.451384 0.8657,0.831039 1.2832,1.121959 -0.3971,0.339858 -0.7583,0.763566 -1.0355,1.281419 -0.155,0.31975 -0.2608,0.648991 -0.3211,0.981356 -0.3398,-0.165795 -0.7882,-0.296734 -1.3719,-0.333788 -0.7873,0.01958 -1.5507,0.248942 -2.123,0.6778626 -0.018,0.013666 -0.036,0.027771 -0.053,0.041724 -0.528,0.4032069 -0.8031,0.7708089 -0.9573,1.0007876 -0.379,0.5759551 -0.8379,1.3164937 -0.6316,1.8169636 0.2077,0.5039318 1.2787,0.8550116 2.6605,0.1514619 0.5397,-0.2788751 0.8808,-0.5576682 1.169,-0.7601627 0,-0.00293 0.01,-0.00518 0.015,-0.00799 0.1501,-0.090641 0.1935,-0.1767338 0.2209,-0.2246206 0.1947,-0.1548682 0.6609,-0.2349652 1.0488,-0.3635051 0.071,-0.023498 0.1354,-0.050623 0.201,-0.077162 0.4493,1.3806597 1.3418,2.4216466 2.1497,3.1401089 2.3102,2.1748852 4.5355,2.9354719 5.122,2.7251615 -0.01,2.26966937 0.032,4.6080794 0.1228,7.0266644 0.2094,5.6374339 0.6922,11.5120039 1.4694,17.6266759 -0.4906,-0.330856 -1.6503,-0.691151 -3.4375,-0.565265 -0.7412,0.0322 -1.726,0.235348 -2.7039,0.905909 -0.2141,0.167993 -0.4032,0.357863 -0.5681,0.562406 -0.5818,-0.57141 -1.4365,-1.1288 -2.4889,-1.562623 -1.2085,-0.498178 -2.3922,-0.719141 -3.2733,-0.740732 -0.8868,-0.02174 -1.5257,0.153072 -1.7071,0.521827 -0.1837,0.373487 0.1284,0.881989 0.7885,1.404304 0.6703,0.530421 1.6312,1.027456 2.7272,1.463174 1.0388,0.413022 2.102,0.734757 2.8453,0.88362 0.1596,0.03195 0.3096,0.05328 0.4567,0.07202 0.03,0.63651 0.196,1.21895 0.4473,1.7198 0.039,0.08234 0.082,0.162767 0.1235,0.244052 -0.1423,-0.002 -0.2946,0.0041 -0.462,0.02514 -0.6087,0.09622 -1.1857,0.338827 -1.6016,0.676148 -0.011,0.0092 -0.023,0.01873 -0.034,0.02801 -0.6668,0.513051 -0.8538,1.017266 -0.9073,1.39516 -0.05,0.350495 -0.017,0.824789 0.1976,1.139675 0.2436,0.357471 0.7161,0.514824 1.3794,0.395514 0.665,-0.119632 1.2553,-0.464979 1.6336,-0.768166 0.01,-0.0046 0.013,-0.0091 0.02,-0.01372 0.2363,-0.165781 0.326,-0.315209 0.3959,-0.437811 -0.07,0.246773 0.2211,-0.285 0.4733,-0.744732 0.6616,0.837079 1.3984,1.538752 2.0696,2.107313 2.576,2.229286 4.8719,3.177215 5.3049,2.78003 0.032,-0.02981 0.056,-0.06522 0.072,-0.105164 1.3509,7.506656 3.1428,15.334517 5.5979,23.249606 1.0844,3.496134 2.3097,7.036959 3.7434,10.560001 1.1734,2.885918 2.498,5.797992 4.0944,8.640157 0.1452,0.25962 0.2937,0.518999 0.4447,0.779025 -0.224,0.08962 -0.4641,0.216749 -0.7177,0.39837 -0.1584,0.113469 -0.3118,0.24646 -0.462,0.388086 -0.044,-0.01592 -0.084,-0.03333 -0.1315,-0.04801 -0.8072,-0.251119 -1.9928,-0.271009 -3.1945,0.1949 -0.277,0.107351 -0.5356,0.2335 -0.7738,0.374368 -0.6195,0.37807 -1.0277,0.792397 -1.2832,1.146531 -0.234,0.290613 -0.3213,0.589736 -0.3645,0.808176 -0.044,0.223163 -0.064,0.476515 0.022,0.676718 0.092,0.214229 0.3038,0.370048 0.6683,0.426377 0.3712,0.05738 0.8069,-0.0018 1.2277,-0.108023 0.5203,-0.122066 0.9841,-0.306979 1.4548,-0.485247 0.1497,-0.05835 0.3062,-0.119286 0.4633,-0.181182 0.1281,-0.05049 0.2566,-0.104611 0.3865,-0.156606 0,0.01206 -0.01,0.02332 -0.01,0.03544 -0.021,0.0779 -0.041,0.156211 -0.06,0.234907 -0.3104,1.294133 -0.2698,2.495627 -0.1155,3.293856 0.1587,0.820211 0.4624,1.383794 0.9187,1.466033 0.4659,0.08396 1.0043,-0.346755 1.4687,-1.143678 0.4829,-0.828525 0.7911,-1.859779 1.0742,-3.024082 0.016,-0.06734 0.033,-0.133969 0.049,-0.200043 0.1526,-0.55377 0.405,-1.69084 0.5254,-2.233055 0.8181,1.254602 1.7305,2.48969 2.7879,3.662506 0.6774,0.752449 1.4455,1.491296 2.3407,2.162756 0.7154,0.543619 1.5634,1.043851 2.5583,1.412305 0.8546,0.316909 1.8285,0.480758 2.8554,0.428663 0.3926,-0.02847 0.7728,-0.08783 1.1376,-0.174322 0.6038,-0.143146 1.1639,-0.36021 1.6657,-0.634424 0.9797,-0.537207 1.7622,-1.201213 2.3861,-1.888981 0.8381,-0.909684 1.5029,-1.879134 2.0602,-2.8429 0.9256,-1.597172 1.5733,-3.240986 2.1317,-4.830188 0.7971,-2.249501 1.4401,-4.514205 2.0096,-6.749461 1.5606,-6.121589 2.6467,-12.257026 3.5229,-18.174795 1.1345,-7.654978 1.9037,-15.12236 2.4108,-22.28711 0.1482,-2.092819 0.2734,-4.156284 0.3765,-6.191629 0.7032,0.302643 2.4079,0.462293 4.5432,1.051656 0.8353,0.246607 1.7755,0.535399 2.2939,0.992217 0.2838,0.24075 0.5171,0.564536 0.5274,0.844184 0.082,0.334391 -0.059,0.785274 -0.2577,1.328857 -0.039,0.09876 -0.082,0.197037 -0.1275,0.295494 -0.6556,1.413383 -1.9952,2.805786 -3.0924,3.967716 -2.7131,2.804085 -4.9921,4.551407 -4.5892,5.053095 0.3378,0.420662 3.3548,-0.499344 6.8023,-3.258421 1.3937,-1.087016 3.033,-2.617522 4.0311,-4.655294 0.068,-0.138045 0.1322,-0.277479 0.193,-0.418377 0.3731,-0.826562 0.5286,-1.795379 0.3291,-2.814895 -0.01,-0.02013 -0.013,-0.03889 -0.018,-0.05887 0.078,0.01323 0.1546,0.02555 0.2297,0.03658 0.3418,0.05028 0.6225,0.08573 0.6803,0.23548 0.043,0.04021 0.1079,0.101498 0.2744,0.147459 0.058,0.01601 0.1251,0.02906 0.2009,0.03829 0.3355,0.06671 0.7323,0.167086 1.2031,0.195471 0.2811,0.02221 0.7085,0.04364 1.0742,-0.07201 0.3273,-0.103537 0.4586,-0.275996 0.4933,-0.484676 -0.01,-0.111866 0.015,-1.063406 0,-0.688149 0.01,-0.181691 0.06,-0.443783 -0.2096,-0.679577 -0.2162,-0.31062 -0.5991,-0.661653 -1.2518,-0.945918 -0.1565,-0.07378 -0.3316,-0.136511 -0.5254,-0.184612 -0.5572,-0.138232 -1.188,-0.13467 -1.7906,0.0012 -0.6341,0.201289 -1.0285,0.499419 -1.2558,0.795601 -0.2805,-0.311259 -0.6039,-0.580746 -0.9573,-0.800172 -1.311,-0.778661 -2.6687,-1.038465 -3.7246,-1.116815 -2.5626,-0.229656 -4.3127,0.16679 -5.0405,0.5224 0.2834,-5.856409 0.385,-11.484022 0.3111,-16.9088039 -0.086,-6.374326 -0.4045,-12.2434242 -0.9828,-17.8021421 0.6897,0.23397 1.7807,0.46265 3.0417,0.904198 0.6523,0.24121 1.3657,0.522098 1.7478,0.899623 0.2372,0.217548 0.4294,0.504728 0.4807,0.778453 0.067,0.21731 0.059,0.487784 0.015,0.8036043 -0.016,0.1118889 -0.036,0.2279361 -0.058,0.3463596 -0.2417,1.1845915 -1.0539,2.4831613 -1.675,3.5276217 -1.293,2.1164665 -2.3194,3.5703585 -1.8514,3.9459955 0.4082,0.327567 2.2532,-0.498705 4.2468,-2.5691254 0.9806,-0.9934746 2.1192,-2.4406707 2.621,-4.3095068 0.032,-0.1146689 0.058,-0.2332328 0.081,-0.3537896 0.1357,0.017587 0.2698,0.031268 0.3946,0.041724 0.4728,0.039637 1.0722,0.068409 1.7111,-0.035438 l 0,-5.853e-4 c 0.7598,-0.084323 1.5678,-0.2704647 2.1937,-0.6367089 0.6162,-0.3605348 0.8648,-0.7921041 0.7291,-1.1871141 -0.1279,-0.372287 -0.5769,-0.662815 -1.0909,-0.85104 -0.5158,-0.188873 -1.301,-0.34619 -2.2959,-0.224621 l -0.01,0.0012 c -0.7014,0.06403 -1.326,0.290472 -1.8132,0.594414 -0.1191,-0.307404 -0.2743,-0.592828 -0.46,-0.85504 0.2677,0.0094 0.5507,-0.01522 0.8392,-0.08173 1.1758,-0.271188 1.8821,-1.132954 1.6577,-1.901553 -0.2327,-0.796789 -1.4047,-1.192598 -2.5537,-0.923629 -0.9034,0.211476 -1.5808,0.813437 -1.6797,1.464886 -0.9166,-0.461049 -1.8276,-0.663236 -2.583,-0.736728 -1.7871,-0.196127 -3.0878,0.02525 -3.8087,0.306924 -0.1403,-1.265221 -0.2895,-2.52054 -0.458,-3.756243 -0.9353,-6.879621 -2.1909,-12.629113 -4.0859,-17.90445 0.6787,0.203692 1.8049,0.363742 3.1459,0.687578 0.7111,0.178478 1.5096,0.395625 2.0769,0.734446 0.3498,0.213942 0.6681,0.458556 0.7938,0.708723 0.1136,0.16627 0.1765,0.394232 0.2057,0.653858 0.01,0.06021 0.012,0.121625 0.015,0.183467 0.074,0.912073 -0.5257,2.024597 -1.0415,2.970357 -1.3181,2.260037 -2.8112,3.672585 -2.3613,4.146612 0.3371,0.3552 2.6866,-0.252468 4.9036,-2.772027 0.4068,-0.440208 0.8137,-0.982311 1.151,-1.60835 0.7673,0.407643 2.4568,0.392932 4.2721,-0.190897 2.238,-0.719785 3.7117,-1.943256 3.4168,-2.669149 -0.3238,-0.796912 -2.4225,-0.785809 -4.6252,-0.0703 -0.9645,0.313292 -1.7969,0.708495 -2.4008,1.092236 0.055,-0.294581 0.092,-0.600098 0.1009,-0.917911 0,-0.14452 -0.01,-0.290463 -0.021,-0.437811 -0.069,-0.635248 -0.3026,-1.263164 -0.6964,-1.840397 -0.013,-0.01788 -0.028,-0.03381 -0.041,-0.05144 0.1658,-0.05996 0.3208,-0.128876 0.478,-0.189185 0.2658,-0.102048 0.4553,-0.138279 0.5147,0.144602 -0.073,0.169287 -0.1215,0.331804 -0.055,0.265774 0,-0.0026 0.01,-0.0054 0.01,-0.0086 0.134,-0.05498 0.4154,-0.176971 0.7063,-0.389228 0.2831,-0.184641 0.5364,-0.480796 0.6189,-0.776167 0.085,-0.30273 -0.019,-0.537517 -0.225,-0.743591 -0.1015,-0.101412 -0.5452,-0.441919 -0.6202,-0.505251 -0.173,-0.146189 -0.3508,-0.326961 -0.5735,-0.376083 -0.2309,-0.07808 -0.5697,-0.103429 -1.0761,0.04115 -0.02,0.0039 -0.04,0.0082 -0.061,0.01314 -0.4821,0.117264 -0.9747,0.516234 -1.3172,1.044797 -0.014,0.03651 -0.021,0.06897 -0.033,0.104023 -0.1676,-0.08844 -0.337,-0.168546 -0.5074,-0.236622 -1.1937,-0.476971 -2.3411,-0.608417 -3.2593,-0.609848 -1.9185,-0.01721 -3.2241,0.358405 -3.8174,0.716156 0,-0.0026 0,-0.0054 0,-0.008 -1.0088,-2.678133 -2.1329,-5.025386 -3.4709,-7.143263 -1.3276,-2.107201 -2.7823,-3.817892 -4.4363,-5.182837 -1.1308,-0.934547 -2.3024,-1.630207 -3.4489,-2.125602 0.011,-0.125254 0.018,-0.257961 0.02,-0.400088 0.01,-1.038224 -0.2977,-2.622166 -1.4561,-4.228344 -0.7715,-1.123247 -2.1552,-2.283749 -4.2,-2.743452 -0.1384,-0.03111 -0.2786,-0.05895 -0.4206,-0.08287 -0.2378,-0.03251 -0.4755,-0.04999 -0.7123,-0.05315 z m 38.5434,83.372912 c 0,0.02391 0.01,0.023 0.011,-0.05258 0,0.01844 -0.01,0.03469 -0.011,0.05258 z m -38.6262,-80.453994 c 0.084,0.0035 0.1695,0.01115 0.2537,0.02285 0.058,0.0036 0.1169,0.0097 0.1756,0.01888 0.8391,0.130275 1.7237,0.832236 2.4361,1.48432 0.7507,0.734499 1.315,1.605415 1.7472,2.331933 -4.1866,-0.95338 -6.0986,0.415334 -6.1474,0.21662 0.1096,0.445873 2.1667,-0.651615 6.0786,0.57441 0.2234,0.06911 0.4487,0.148907 0.6756,0.234907 0.3849,0.629697 0.6935,1.026926 0.9988,1.000791 0.1451,-0.01244 0.2849,-0.140255 0.3992,-0.362938 0.9287,0.493804 1.8657,1.134876 2.78,1.960996 1.4729,1.332419 2.7395,2.981094 3.9322,5.039379 1.1961,2.070236 2.1832,4.354803 3.0797,6.991226 1.8523,5.450051 2.987,11.325792 3.8088,18.545731 0.7827,6.906193 1.1297,14.2187557 1.1162,22.4025655 -0.013,7.4554245 -0.3375,15.2819305 -1.0081,23.5862505 -0.5744,7.110666 -1.3956,14.515549 -2.5643,22.096783 -0.9051,5.866696 -2.0025,11.919188 -3.551,17.915881 -0.5659,2.190111 -1.1905,4.379599 -1.9555,6.522555 -0.5517,1.53284 -1.1325,3.025494 -1.9267,4.372946 -0.5006,0.847511 -1.0383,1.645509 -1.6797,2.329077 -0.487,0.508529 -0.9829,0.952161 -1.5229,1.227694 -0.2575,0.131902 -0.5227,0.239041 -0.7811,0.304065 -0.1561,0.03929 -0.3092,0.06317 -0.4566,0.06801 -0.3861,0.03509 -0.8365,-0.05468 -1.2838,-0.206902 -0.5522,-0.189018 -1.0952,-0.525071 -1.6417,-0.921343 -0.6756,-0.498491 -1.2923,-1.100403 -1.886,-1.74952 -1.5827,-1.733513 -2.8463,-3.728773 -4.0111,-5.778395 -1.5289,-2.703767 -2.8136,-5.512786 -3.9729,-8.329232 -1.4124,-3.434072 -2.6298,-6.903073 -3.7173,-10.342237 -2.661,-8.415917 -4.5879,-16.763292 -6.0399,-24.72764 -1.735,-9.522463 -2.7689,-18.461877 -3.222,-26.8892515 -0.5065,-9.4596192 -0.2848,-17.6290315 0.7251,-25.2163175 0.5264,-3.954761 1.2403,-7.495507 2.1898,-10.788623 0.997,-3.453243 2.1641,-6.365971 3.5824,-8.949939 1.5927,-2.896277 3.3011,-5.029957 5.0999,-6.678588 3.8088,-3.492845 6.8866,-3.901091 6.7543,-4.232345 0.015,0.03851 -1.1032,0.07438 -2.8888,0.795031 0.2541,-0.200274 0.5043,-0.66628 0.8058,-1.310001 0.374,-0.798638 0.9155,-2.117013 1.868,-2.888053 0.3242,-0.270676 0.6879,-0.509911 1.0368,-0.5927 0.2107,-0.0635 0.4595,-0.08945 0.713,-0.07887 z m 5.6354,28.673636 c -0.4434,0.03184 -1.0728,0.237696 -1.8226,0.578984 -1.3496,0.614249 -2.5012,1.348853 -4.2113,2.269635 -0.018,0.01004 -0.037,0.02028 -0.055,0.03029 -1.6356,0.887638 -2.9389,1.427259 -4.1639,1.978142 -1.1197,0.503522 -1.8971,0.907674 -1.8499,1.315715 0.045,0.389447 0.9308,0.727402 2.4207,0.692148 1.4971,-0.03542 3.4762,-0.460021 5.4218,-1.514042 0.023,-0.01238 0.045,-0.02467 0.068,-0.03715 1.8234,-1.012807 3.1746,-2.254477 3.957,-3.182975 0.8012,-0.950735 1.122,-1.694379 0.8185,-1.991289 -0.1174,-0.114859 -0.3168,-0.158561 -0.5828,-0.139461 z m -27.9758,13.834998 c -0.2558,3.0796802 -0.3976,6.2788925 -0.4293,9.6283699 -0.4306,-0.7710049 -1.529,-1.9609399 -2.6771,-3.4904688 -0.5837,-0.8303103 -1.2823,-1.7460465 -1.394,-2.5102593 -0.01,-0.037808 -0.01,-0.07583 -0.013,-0.1131677 -0.034,-0.2726479 -0.026,-0.5227628 0.053,-0.7030081 0.062,-0.22738 0.2979,-0.484668 0.5681,-0.733873 0.8437,-0.770867 2.3178,-1.333618 3.1585,-1.715229 0.2816,-0.12787 0.5251,-0.24787 0.733,-0.362364 z m 18.9249,9.2945848 c -1.3991,-0.018904 -2.6979,0.029205 -3.6178,0.1137384 -1.2905,0.1185961 -2.161,0.3324185 -2.2539,0.7293015 -0.092,0.3943429 0.6255,0.9017838 1.9348,1.3202858 1.3395,0.428178 3.1221,0.71158897 5.178,0.80245797 0.1441,0.0064 0.2869,0.01165 0.4286,0.01601 3.8489,0.124399 6.866,-0.50669697 6.9065,-1.23398297 0.046,-0.8288291 -2.9829,-1.4730587 -6.7316,-1.6832203 -0.14,-0.00805 -0.2808,-0.015685 -0.4226,-0.022299 -0.4782,-0.02227 -0.9557,-0.035997 -1.422,-0.042295 z m 12.9925,20.4604302 c -1.4912,0.03343 -4.167,0.538308 -7.209,1.015077 -0.2231,0.0344 -0.4489,0.0691 -0.6762,0.103449 -2.9523,0.446113 -3.9682,0.538735 -6.1267,0.807032 -1.5831,0.196761 -2.6566,0.37665 -2.7379,0.781314 -0.078,0.388031 0.8716,0.939802 2.6184,1.281418 1.7812,0.348373 4.1632,0.429381 6.8483,0.01428 0.2501,-0.03866 0.4963,-0.08074 0.7391,-0.125742 4.9438,-0.90488 8.0963,-2.910765 7.7657,-3.583062 -0.1115,-0.226675 -0.5439,-0.308972 -1.2217,-0.293776 z m -30.6816,6.012159 c 0.3812,2.93055 0.8232,5.910603 1.3465,8.955082 0.068,0.394849 0.1427,0.794939 0.213,1.191687 -0.3796,-0.805617 -1.5157,-2.132783 -2.8995,-3.777391 -0.6961,-0.842513 -1.5723,-1.841865 -2.1417,-2.761742 -0.1367,-0.22091 -0.2581,-0.439561 -0.3632,-0.657854 -0.1866,-0.426928 -0.3375,-0.736682 -0.3264,-0.967638 -0.019,-0.132921 0.01,-0.29703 0.073,-0.380083 0.1257,-0.239083 0.6387,-0.439877 1.131,-0.639568 1.3793,-0.498208 2.5313,-0.65096 2.9669,-0.962493 z m 58.8229,4.002009 c -0.7484,-0.005 -1.3964,0.134099 -1.882,0.316639 -0.4813,0.180901 -0.9276,0.451012 -1.0749,0.823606 -0.1519,0.384403 0.046,0.829138 0.6256,1.201404 0.5789,0.371547 1.4422,0.601862 2.3593,0.584699 l 0.01,0 c 0.8892,-0.0054 1.6197,-0.209573 2.1197,-0.469816 0.4998,-0.260073 0.852,-0.617538 0.8793,-1.014507 0.028,-0.407828 -0.2949,-0.784054 -0.8853,-1.053371 -0.5925,-0.270325 -1.3659,-0.395432 -2.143,-0.388654 l -0.01,0 z m -28.5633,8.840772 c -0.4623,0.02715 -1.1375,0.223913 -1.9541,0.548691 -1.2598,0.501046 -3.0798,1.402408 -4.8088,2.597134 -0.064,0.04357 -0.1274,0.08802 -0.191,0.132598 -1.8515,1.297602 -3.1872,2.669561 -3.9676,3.911705 -0.7596,1.209065 -0.8646,2.09274 -0.4727,2.30507 0.4024,0.217954 1.2196,-0.25142 2.3313,-0.991072 0.6453,-0.429336 3.0746,-2.103801 4.2862,-2.967498 0.059,-0.04211 0.1176,-0.08432 0.1762,-0.126313 1.6888,-1.199104 3.0681,-2.223006 4.0878,-3.236132 0.9691,-0.962827 1.3934,-1.721137 1.0996,-2.030724 -0.1089,-0.114731 -0.3095,-0.159747 -0.5869,-0.143459 z m 10.2452,43.293375 c -3.1729,0.028 -5.5866,0.965577 -5.4296,1.800959 0.075,0.399408 0.7408,0.670862 1.7084,0.85047 0.4543,0.08434 1.01,0.15248 1.6216,0.200616 0.074,0.08551 0.1544,0.17256 0.2404,0.26177 0.6433,0.667562 1.6796,1.510288 2.8801,2.298784 2.4651,1.619207 4.9358,2.497536 5.5305,1.818678 0.5357,-0.611501 -0.933,-2.49678 -3.4523,-4.143752 -0.1759,-0.115017 -0.3513,-0.224472 -0.5267,-0.329788 1.7166,-0.227579 2.9221,-0.671646 2.9221,-1.258558 0,-0.762831 -2.4089,-1.526415 -5.4945,-1.499179 z"
       id="path4236"
       inkscape:connector-curvature="0" />
    <path
       style="opacity:1;fill:#241f1c;fill-opacity:1;fill-rule:evenodd;stroke:none;stroke-width:50;stroke-linecap:square;stroke-linejoin:miter;stroke-miterlimit:4;stroke-dasharray:none;stroke-dashoffset:0;stroke-opacity:1"
       d="m 783.95215,-67.280022 c -7.17183,-0.554306 -13.33455,-0.553266 -18.60693,-0.218673 -9.9568,0.627211 -15.50757,2.480229 -15.38043,2.913829 0.12803,0.436404 5.84626,-0.518521 15.4782,-0.476143 5.17919,0.02557 11.09181,0.314817 18.08519,1.091543 10.64052,1.185191 22.84093,3.359245 35.43918,7.366554 0.91709,0.291625 1.82568,0.589421 2.72653,0.893928 6.13823,2.076502 11.72556,4.400816 16.80443,7.078487 5.22341,2.759042 9.57775,5.685914 13.13299,8.930923 3.95189,3.612812 6.52568,7.25423 8.03501,10.743827 3.45323,7.908093 1.20645,12.859798 2.29576,13.035124 -0.12508,-0.02066 3.4057,-4.823039 0.43016,-13.797251 -1.31131,-3.915007 -3.85183,-8.101628 -7.94686,-12.151519 -3.6647,-3.630134 -8.2157,-6.9156 -13.63997,-9.901243 -5.27251,-2.907195 -11.08951,-5.405862 -17.43694,-7.56446 -0.93048,-0.316665 -1.86914,-0.626069 -2.8169,-0.92739 -13.02493,-4.140983 -25.65585,-6.175318 -36.59942,-7.017536 z m -73.98839,-3.52903 c -4.89015,-0.331983 -10.61489,-0.426111 -17.07865,-0.03621 -8.02257,0.479087 -17.61538,1.921712 -26.70454,5.778334 -6.48847,2.762923 -12.70593,6.898782 -17.50493,12.41682 -3.49662,4.042166 -6.15458,8.668353 -7.99069,13.644453 -0.43378,1.17567 -0.81657,2.357473 -1.15158,3.540005 -1.93264,6.810735 -2.41161,13.668257 -2.15062,20.082298 0.30734,7.6702024 1.65185,14.9383979 3.34215,21.4208447 6.74847,25.8946443 18.27209,40.6676883 18.39857,40.6159073 1.35317,-0.554122 -8.74266,-15.863077 -14.55459,-41.3069603 -1.45429,-6.3709265 -2.60812,-13.4582496 -2.79374,-20.8354587 -0.15136,-6.17103 0.34558,-12.689437 2.17881,-19.047895 0.31796,-1.10087 0.67737,-2.199307 1.08,-3.289679 1.7042,-4.615144 4.10903,-8.867421 7.25602,-12.537068 4.26956,-5.00851 9.90134,-8.849935 15.80031,-11.484369 8.28963,-3.715394 17.39606,-5.293438 25.10547,-6.020367 22.20207,-2.078632 36.08178,1.53518 36.3444,0.158811 -0.0283,0.150215 -7.07911,-2.251317 -19.57627,-3.0995 z m 31.64766,8.823664 c -0.52001,0.0023 -3.06954,1.583152 -6.56183,4.931901 -3.6611,3.510632 -8.51191,9.187298 -11.91578,16.838034 -3.16381,7.139578 -4.9028,15.634357 -4.23795,24.934489 0.002,0.03413 0.006,0.06839 0.008,0.102522 0.69396,9.4385831 3.62592,17.9748179 7.08488,24.960313 7.29983,14.753752 16.26849,22.267693 16.63901,22.034773 0.96707,-0.607903 -6.67446,-8.877075 -12.95758,-23.2933868 -2.98092,-6.8457379 -5.5802,-15.0443053 -6.21994,-23.9444442 -0.002,-0.03226 -0.003,-0.06399 -0.006,-0.09626 -0.61702,-8.765075 0.79988,-16.736703 3.4544,-23.545269 2.8236,-7.276714 6.98557,-12.994428 10.00218,-16.740599 3.07322,-3.816409 5.13566,-5.867112 4.78797,-6.161807 -0.0171,-0.01495 -0.042,-0.02132 -0.0765,-0.01936 z m 62.1212,15.860948 c -5.24475,-0.509095 -8.25735,1.018954 -8.16735,1.46839 0.15909,0.793803 4.20993,0.478277 9.4328,2.144509 2.57352,0.811794 5.15564,2.006138 8.01219,3.679577 0.0176,0.0104 0.0362,0.02093 0.0541,0.03069 3.91729,2.297741 8.18227,5.56983 10.62597,7.284122 2.78526,1.953914 4.69675,3.030155 5.16634,2.649041 0.43885,-0.356173 -0.62826,-2.098229 -2.85229,-4.571115 -2.14942,-2.389901 -5.7147,-5.807911 -10.35247,-8.574065 -0.0199,-0.01293 -0.0395,-0.02345 -0.059,-0.03494 -3.14793,-1.867251 -6.35769,-3.103022 -9.47836,-3.724315 -0.83781,-0.164932 -1.63262,-0.279262 -2.38186,-0.351922 z m -171.72924,8.612745 c -2.27309,-0.134361 -6.33749,-0.101002 -11.86432,0.582337 -8.70849,1.076741 -21.37521,3.91814 -34.1902,11.026149 -11.67831,6.485099 -23.01174,16.2439255 -30.89163,29.203633 -0.20207,0.3322014 -0.40113,0.6645095 -0.59683,0.9982174 -7.80203,13.2924686 -10.28518,27.0706146 -9.17817,39.0659276 1.17882,12.636688 6.3299,22.579199 10.65571,28.815408 4.40303,6.347582 8.03787,9.221155 8.26764,9.069026 0.4332,-0.28682 -2.54427,-3.579837 -6.22751,-10.016476 -3.62392,-6.333051 -8.0221,-16.079332 -8.74608,-28.091999 -0.70111,-11.429005 1.88754,-24.467064 9.29709,-37.0874105 0.18618,-0.3170031 0.37491,-0.633393 0.56689,-0.9491563 7.48337,-12.3078233 18.11621,-21.7179162 29.07296,-28.1494762 11.9947,-7.049559 24.03451,-10.276523 32.39762,-11.89243 8.48103,-1.638703 13.53996,-1.781426 13.52292,-2.255165 -0.002,-0.09737 -0.72218,-0.238008 -2.08607,-0.318672 z m 211.75933,16.920388 c -0.49341,-0.04559 -0.99448,-0.07106 -1.50072,-0.07412 -1.78592,-0.0027 -3.57849,0.285846 -5.26913,0.85898 -1.43222,0.500608 -2.75503,1.166798 -3.96016,1.961212 -1.64032,1.081314 -3.02276,2.373724 -4.14548,3.742072 -2.24095,2.691474 -3.68921,5.682473 -4.51997,8.6296638 -0.91375,3.181817 -1.12473,6.36979326 -0.61586,9.3832831 0.49342,3.0682968 1.87075,5.8760106 4.07289,8.0353061 1.19853,1.153586 2.60701,2.04299 4.08447,2.663237 1.81578,0.75398 3.67553,1.101686 5.36692,1.20526 4.55882,0.257571 8.45245,-0.902655 10.54996,-1.683444 2.29213,-0.853301 3.37404,-1.573337 3.28004,-1.769621 -0.1176,-0.245785 -1.41599,0.03226 -3.7717,0.451508 -2.09919,0.373689 -5.97915,1.048358 -9.71774,0.48529 -1.38273,-0.201763 -2.84339,-0.579719 -4.14068,-1.234083 -1.0573,-0.526513 -2.0493,-1.248522 -2.86762,-2.1371788 -1.56421,-1.6547144 -2.44849,-3.9079059 -2.80117,-6.4644089 -0.32625,-2.53742515 -0.0339,-5.2491767 0.81586,-8.007123 0.79979,-2.5449842 2.06697,-5.086169 3.9425,-7.2826203 0.9496,-1.09234 2.03984,-2.116514 3.25841,-2.939005 0.89594,-0.604757 1.8467,-1.090674 2.84936,-1.420342 1.15569,-0.397447 2.38944,-0.607729 3.5971,-0.615142 1.37673,-0.0176 2.78398,0.239826 4.11653,0.656817 4.03035,1.224938 7.42541,4.052943 10.19749,6.7053144 1.75836,1.7302257 2.99109,3.5979287 3.52592,5.5008942 0.56216,1.887834 0.45319,3.87147018 0.0882,5.6044022 -0.46576,2.1976513 -1.43702,4.3369494 -2.21133,5.935057 -1.88799,3.8835352 -3.25234,6.0433912 -2.79191,6.2747912 0.25397,0.127718 2.26665,-1.665687 4.82338,-5.403879 1.07482,-1.567018 2.37074,-3.7163282 3.17658,-6.2104118 0.63955,-1.97667697 0.95987,-4.3455751 0.43699,-6.8405252 -0.55469,-2.4960699 -1.9224,-4.9296138 -3.97188,-7.078164 -2.77208,-2.995479 -6.56821,-6.260846 -11.68972,-8.036106 -1.31159,-0.444762 -2.72732,-0.761085 -4.20761,-0.89695 z m 22.21713,8.157786 c -0.0692,-0.0027 -0.11356,0.0093 -0.13005,0.03173 -0.18548,0.25173 1.37092,1.242868 3.89914,3.280885 2.36886,1.9096048 6.17068,5.2264327 8.66403,9.73500218 2.09944,3.74961762 3.36159,8.51229092 2.87678,13.82107382 -0.41517,4.62345 -2.09242,9.410267 -4.90098,14.221641 -2.63195,4.493371 -6.16986,8.808403 -10.51082,12.829283 -0.11076,0.102388 -0.22146,0.204349 -0.33266,0.306004 -4.55285,4.154944 -9.55683,7.604117 -14.77502,10.311212 -5.57312,2.883811 -11.14076,4.826172 -16.60511,5.795659 -2.91015,0.518407 -5.70539,0.749553 -8.35943,0.714917 -2.96177,-0.03813 -5.68993,-0.40198 -8.13225,-0.984725 -3.08504,-0.734342 -5.70559,-1.815269 -7.79785,-2.890078 -5.20483,-2.670863 -7.32483,-5.139639 -7.79784,-4.798611 -0.13394,0.09652 1.35296,3.027577 6.54041,6.390093 2.09071,1.353883 4.8131,2.737389 8.14703,3.749978 2.63704,0.7994 5.62615,1.360015 8.89698,1.540954 2.92746,0.161728 6.01988,0.026 9.22413,-0.442922 6.00075,-0.881737 12.11904,-2.834337 18.12342,-5.841974 5.63243,-2.814407 11.01268,-6.451967 15.85568,-10.872627 0.11839,-0.107987 0.23727,-0.216148 0.35511,-0.325042 4.62395,-4.274223 8.36722,-8.932682 11.12231,-13.813395 2.9576,-5.22258 4.61867,-10.539015 4.89544,-15.685204 0.31408,-5.9613339 -1.43177,-11.222176 -4.06168,-15.25929355 -3.19299,-4.85094305 -7.55072,-7.97863295 -10.35497,-9.64177345 -2.59478,-1.538967 -4.35378,-2.161948 -4.84179,-2.172787 z m -17.07491,2.305825 c -0.6118,-0.05879 -1.22519,-0.04879 -1.82626,0.0288 -0.27252,0.03533 -0.5396,0.08372 -0.80046,0.1451697 -1.49778,0.3324281 -2.80916,1.0254809 -3.80866,1.9555595 -1.14958,1.0783147 -1.76423,2.4085468 -1.87213,3.7346994 -0.0851,1.8802882 0.68133,3.40699078 1.56515,4.46841412 2.77871,3.39067268 5.82618,3.70066338 6.04667,3.45939808 0.63935,-0.6996654 -1.60261,-2.0141527 -2.97707,-4.9468652 -0.37718,-0.8460484 -0.70138,-1.8451457 -0.47273,-2.6161494 0.11247,-0.5235258 0.45307,-1.0728487 0.93883,-1.4688427 0.44641,-0.3733966 1.06107,-0.6663092 1.71261,-0.8071329 0.11247,-0.020931 0.22575,-0.038529 0.33834,-0.052261 0.49724,-0.06106 0.96342,-0.046661 1.30924,0.078391 0.42819,0.096389 0.85963,0.4665325 1.12081,0.8595002 0.52858,0.7202096 0.55,1.9046853 0.53158,2.9633357 -0.17803,3.7149016 -1.62317,6.1282346 -0.66986,6.5294813 0.41523,0.174993 3.14355,-1.6170921 4.3635,-6.061549 0.39148,-1.3080747 0.55266,-3.0670837 -0.28168,-4.9506115 -0.59195,-1.2333633 -1.74767,-2.3241299 -3.40174,-2.9349923 -0.59362,-0.1977504 -1.20334,-0.3254693 -1.81516,-0.3843153 z m -137.78685,-5.622853 c -1.14046,0.333868 2.27804,8.5724172 4.73374,20.9641907 1.01424,5.1458293 1.86989,11.2035383 1.43778,17.3238003 -0.0327,0.457134 -0.0731,0.912001 -0.11854,1.364122 -0.64208,6.279003 -2.66983,11.73297 -5.64428,16.169374 -3.21479,4.848037 -7.51974,8.445806 -10.39625,10.686612 -2.99264,2.331325 -4.87909,3.560875 -4.63532,3.907169 0.19229,0.273168 2.50485,-0.358639 6.05427,-2.317771 3.43668,-1.896882 8.39634,-5.292301 12.36256,-10.500829 3.59304,-4.763327 6.09085,-10.75871 6.79398,-17.603528 0.0503,-0.488997 0.0933,-0.979806 0.12694,-1.472936 C 722.28707,16.137479 721.21449,9.8182001 719.83337,4.5419465 716.5331,-8.1172493 711.646,-15.904704 711.11918,-15.750469 Z m 34.81557,53.04021 c -0.0327,-0.0012 -0.0621,0.004 -0.088,0.01626 -0.31718,0.142557 1.63718,7.728396 11.8258,15.270222 4.42102,3.258795 9.97151,6.075507 16.5643,8.099206 0.22658,0.06959 0.45301,0.137877 0.67945,0.204762 6.84188,2.021872 13.63644,2.939299 19.33037,3.369849 11.77339,0.894603 19.62037,0.0236 19.64284,-0.510634 0.0378,-0.896483 -7.79333,-1.286424 -19.16409,-2.829551 -5.46112,-0.743234 -11.96004,-1.814576 -18.31592,-3.716595 -0.21074,-0.06293 -0.42161,-0.127185 -0.6325,-0.192178 -6.14422,-1.895833 -11.30241,-4.318871 -15.56517,-7.104024 -4.73132,-3.076482 -8.15591,-6.486833 -10.40663,-8.861197 -2.1485,-2.266576 -3.38026,-3.726673 -3.87024,-3.745578 z M 544.28834,24.406105 c -0.71525,-0.0027 -3.52552,0.762645 -7.6927,2.929086 -2.54222,1.319887 -5.36199,3.017436 -8.64784,5.305864 -5.79317,4.034011 -11.89528,9.050428 -18.92467,15.772474 -6.32225,6.043147 -12.79385,12.917708 -19.40993,20.802672 -5.4116,6.448611 -10.78554,13.418934 -15.93609,20.88936 -0.65121,0.944477 -1.29285,1.888394 -1.92509,2.831577 -5.61919,8.380812 -10.36742,16.508722 -14.28035,24.545632 -4.04621,8.30224 -6.91771,15.90022 -8.65183,23.28306 -0.87314,3.71793 -1.39361,7.19277 -1.5615,10.51109 -0.17692,3.458 0.0538,6.56242 0.65594,9.38996 0.68509,3.22612 1.83984,5.84662 3.17919,7.92719 2.97058,4.60782 6.13258,5.79058 6.18516,5.74017 0.35412,-0.33947 -2.28597,-1.97832 -4.53173,-6.43838 -1.02823,-2.03741 -1.85652,-4.50728 -2.28384,-7.56034 -0.37344,-2.67931 -0.40103,-5.59162 -0.0639,-8.88329 0.32578,-3.15718 0.97626,-6.45582 1.95658,-10.02655 1.95138,-7.1099 4.94081,-14.38766 9.05997,-22.50223 3.9831,-7.83839 8.72082,-15.77134 14.28223,-24.040364 0.62521,-0.929452 1.25817,-1.859691 1.9005,-2.791356 5.08112,-7.369837 10.33201,-14.274808 15.58612,-20.703235 6.43495,-7.872045 12.62616,-14.738487 18.66208,-20.869371 6.75544,-6.858403 12.36698,-11.894911 17.80798,-16.185519 3.0768,-2.425972 5.60576,-4.216697 7.94452,-5.725895 4.29021,-2.764519 6.98678,-3.905306 6.86504,-4.15573 -0.0157,-0.02986 -0.0737,-0.04559 -0.17579,-0.04586 z m 313.60529,33.680336 c -0.0297,-0.0027 -0.0538,5.47e-4 -0.0758,0.01066 -0.38406,0.183219 0.45263,1.966732 1.65896,5.089836 1.28247,3.320454 2.67734,7.424084 3.89373,13.173789 1.25985,5.99493 2.06387,12.829909 1.9147,20.475168 0.003,0.07626 -0.002,0.151929 -0.003,0.22772 -0.17609,7.712701 -1.26435,14.375411 -3.02391,20.285671 -1.66547,5.55319 -3.58144,9.46626 -5.35064,12.52012 -1.67413,2.89006 -2.88326,4.47614 -2.53816,4.71941 0.28123,0.19814 2.09877,-0.97758 4.44591,-3.71913 2.41131,-2.81665 5.05265,-6.93425 7.1573,-12.60327 2.2683,-6.07485 3.68642,-13.12997 3.86313,-21.12745 -0.003,-0.07932 0.002,-0.158515 0.005,-0.237599 0.15744,-7.941331 -0.93678,-15.101045 -2.67195,-21.229773 -1.63225,-5.792381 -3.68973,-10.145928 -5.62125,-13.247834 -1.75987,-2.826405 -3.20632,-4.294541 -3.65269,-4.33711 z M 630.95219,41.735252 c -0.0317,-0.0067 -0.0607,-0.004 -0.086,0.0053 -0.44813,0.14885 0.039,2.091691 0.96742,5.360177 0.85707,3.01737 2.37392,8.088457 3.03029,13.270708 0.49203,3.972058 0.56938,8.569911 -0.86237,12.891422 -0.0901,0.271835 -0.18562,0.541537 -0.28667,0.808359 -1.61425,4.406088 -4.82614,8.121083 -8.12124,10.938049 -4.0301,3.44508 -8.73917,6.120356 -11.56917,7.743287 -3.04376,1.745504 -4.82948,2.780504 -4.63011,3.144568 0.17464,0.319003 2.31357,-0.06599 5.77474,-1.322913 3.31258,-1.202913 8.40022,-3.433561 13.18862,-7.019851 3.91042,-2.931579 7.70199,-7.062766 9.6932,-12.291278 0.11621,-0.313964 0.22538,-0.630207 0.32841,-0.948383 1.64511,-5.088129 1.42435,-10.173725 0.58315,-14.430297 -1.10073,-5.637225 -3.20853,-10.469766 -4.77334,-13.475204 -1.52716,-2.933099 -2.75549,-4.588306 -3.23676,-4.67299 z m 42.08079,5.628639 c -0.55968,-0.01067 -1.3072,0.112254 -2.18785,0.409299 -1.8011,0.607503 -3.81389,1.830347 -5.63076,3.638493 -0.0877,0.08746 -0.17411,0.1757 -0.25872,0.263263 -1.64139,1.675219 -2.79428,3.458358 -3.4049,4.689042 -0.6337,1.277225 -0.82859,2.226621 -0.36284,2.560569 0.47381,0.339707 1.53958,-0.01333 2.86689,-0.910134 1.40703,-0.951303 2.75092,-2.237967 4.35392,-3.799372 0.0798,-0.07639 0.16012,-0.153009 0.24023,-0.2302 0.69776,-0.673069 3.87587,-3.811967 4.00481,-3.941471 1.00763,-1.012309 1.7061,-1.793045 1.44055,-2.284282 -0.12958,-0.239865 -0.50158,-0.384422 -1.06127,-0.395207 z m 5.91334,7.705927 c -0.48494,-0.01533 -1.11638,0.09519 -1.84885,0.368517 -1.48553,0.554469 -3.11036,1.685645 -4.41302,3.321308 -0.0244,0.03173 -0.0501,0.06293 -0.0745,0.09479 -1.20439,1.511331 -1.93794,3.076842 -2.27653,4.141799 -0.35135,1.105178 -0.37769,1.951773 0.1159,2.266856 0.50338,0.321376 1.45669,0.0312 2.56602,-0.777789 1.16199,-0.847475 2.21096,-2.027432 3.34171,-3.412684 0.0212,-0.02626 0.0442,-0.05279 0.0658,-0.07919 0.90813,-1.088807 2.20111,-2.75124 2.6866,-3.41591 0.65605,-0.898175 1.11067,-1.645608 0.80934,-2.116634 -0.14872,-0.232599 -0.48751,-0.375263 -0.97239,-0.390941 z m 16.22085,6.275484 c -0.1288,-3.73e-4 -0.22868,0.02253 -0.29337,0.06706 -0.81101,0.555496 0.55026,2.485298 1.08896,5.243644 0.23501,1.122803 0.30676,2.368712 0.15801,3.739246 -0.002,0.02826 -0.006,0.05679 -0.009,0.08506 -0.20419,2.040936 -1.09987,4.857422 -1.42355,6.33301 -0.38863,1.772021 -0.38866,2.971242 0.20345,3.180911 0.55605,0.197017 1.61267,-0.602264 2.78287,-2.144604 1.13032,-1.489694 2.557,-3.9615 2.96786,-6.967364 0.005,-0.0384 0.009,-0.07759 0.014,-0.11612 0.2125,-1.874902 -0.12041,-3.632871 -0.80013,-5.114392 -1.48183,-3.137756 -3.78844,-4.30222 -4.68894,-4.306527 z m -7.83792,1.504945 c -0.0512,7.6e-4 -0.0986,0.004 -0.14234,0.01387 -0.93266,0.22424 -0.93029,1.904965 -1.56367,3.748324 -0.24863,0.768577 -0.60672,1.559872 -1.10453,2.441503 -0.0163,0.02986 -0.0333,0.05933 -0.0499,0.08892 -1.16288,2.089171 -1.61162,2.314331 -2.54588,4.147918 -0.62924,1.23495 -0.77721,2.160362 -0.27738,2.493404 0.4787,0.318589 1.5084,0.01626 2.76911,-0.764298 1.22069,-0.755806 2.90872,-2.134246 4.12119,-4.121921 0.0254,-0.04213 0.0507,-0.08466 0.0753,-0.127585 0.72636,-1.262694 1.05718,-2.576608 1.05446,-3.790533 -0.0451,-2.778677 -1.56935,-4.112616 -2.33678,-4.129734 z m -141.40373,3.314562 c -0.30424,-0.04066 -2.82883,4.971062 -1.30679,13.714926 0.65972,3.766096 2.06045,7.896043 4.43975,12.30805 1.94559,3.609701 4.36101,7.135931 7.21797,10.805155 1.53386,1.9718 3.12079,3.89434 4.77981,5.88049 1.06981,1.28076 2.06589,2.46464 3.09557,3.70599 2.51895,3.0437 4.72543,5.78158 6.56385,8.68756 1.76138,2.80971 3.00898,5.4277 3.4703,8.06044 0.24861,1.37054 0.28548,2.70156 0.13177,3.95542 -0.17729,1.47953 -0.62486,2.87709 -1.18782,4.12197 -3.0142,6.74868 -7.97242,8.96157 -7.07494,9.82151 -0.12601,-0.12052 5.58725,-1.50442 9.87863,-8.74511 0.81009,-1.3806 1.49263,-2.98512 1.8637,-4.76921 0.31085,-1.51181 0.39146,-3.12588 0.19619,-4.79288 -0.38654,-3.16927 -1.63703,-6.27694 -3.47369,-9.35857 -1.87954,-3.18132 -4.14404,-6.13193 -6.66234,-9.21753 -1.01718,-1.24915 -2.0443,-2.48151 -3.09735,-3.74207 -1.66516,-1.99331 -3.22531,-3.85507 -4.7563,-5.76778 -2.84183,-3.553776 -5.24081,-6.836288 -7.2372,-10.187512 -2.43302,-4.086005 -4.00467,-7.821545 -4.96192,-11.289008 -2.20686,-7.955783 -0.98728,-13.075721 -1.87917,-13.191841 z m -20.06427,-0.324762 c -1.27426,-0.107721 -6.57859,0.387915 -13.80541,3.607967 -3.23589,1.442179 -6.86191,3.514659 -10.15741,6.420294 -2.54366,2.248099 -4.85083,4.981621 -6.63373,8.159812 -1.61018,2.877586 -2.75741,6.02582 -3.42111,9.3529 -0.009,0.038 -0.0124,0.07692 -0.0222,0.11492 -1.43907,7.40078 -0.49218,14.58092 0.95143,20.4109 3.19363,12.98251 8.60759,20.6439 9.05525,20.49744 1.15094,-0.37656 -2.81345,-8.51534 -5.12006,-21.11823 -1.02418,-5.64674 -1.73478,-12.44816 -0.39609,-19.140105 0.008,-0.0344 0.0125,-0.06986 0.0212,-0.103988 0.60616,-3.011824 1.58687,-5.834629 2.9504,-8.401211 1.49933,-2.830511 3.44238,-5.314996 5.59265,-7.406393 2.77823,-2.709165 5.95141,-4.803362 8.80356,-6.383325 7.31861,-4.054435 12.7298,-5.178598 12.47483,-5.933884 -0.0109,-0.03373 -0.11122,-0.06133 -0.2932,-0.07679 z m 45.75478,16.787343 c -0.45106,-0.04693 -1.04441,0.01866 -1.74536,0.236119 -1.43629,0.445335 -2.94253,1.407556 -4.23913,2.746427 -0.0493,0.04853 -0.0982,0.09812 -0.147,0.147597 -1.28282,1.304395 -2.17581,2.684741 -2.63841,3.673533 -0.47671,1.018908 -0.60522,1.83632 -0.15679,2.207676 0.45473,0.376583 1.4229,0.220002 2.60776,-0.420364 1.21987,-0.659323 2.44701,-1.69587 3.67352,-2.947404 0.0443,-0.04519 0.089,-0.09052 0.13223,-0.135678 1.09267,-1.076595 2.13822,-2.409493 2.64393,-3.09764 0.58768,-0.799667 1.01756,-1.492813 0.7592,-1.964212 -0.13036,-0.237719 -0.43905,-0.39874 -0.89009,-0.446068 z m 6.28888,6.484726 c -1.25491,-0.136211 -3.53633,3.137049 -5.06442,7.508181 -1.56081,4.464643 -1.83728,8.326983 -0.68086,8.643853 1.23767,0.33912 3.4831,-3.05382 5.0446,-7.524183 1.54422,-4.42078 1.9632,-8.258014 0.81884,-8.603787 -0.0383,-0.012 -0.0776,-0.01946 -0.11807,-0.02466 z m 219.38383,16.915704 c -0.17024,-0.0135 -0.30038,0.0107 -0.38764,0.0808 -0.45443,0.36302 0.41147,1.91671 2.38975,4.0296 2.03607,2.17457 4.9824,4.66832 8.74755,7.28008 3.61454,2.50725 7.30324,4.65226 9.885,5.96826 2.66079,1.35628 4.4895,2.01576 4.88779,1.60069 0.39969,-0.41648 -0.71124,-1.83636 -2.88415,-3.76609 -2.25036,-1.99856 -5.30943,-4.27143 -9.02303,-6.84053 -3.28905,-2.27534 -7.27316,-4.91116 -9.39064,-6.23094 -1.99955,-1.24628 -3.48735,-2.06003 -4.22463,-2.12188 z m -8.66027,2.5255 c -4.43511,-0.30179 -6.7005,0.70759 -6.6747,0.89525 0.067,0.48907 2.44185,0.1759 6.32815,0.99692 1.45752,0.30691 3.16413,0.80771 4.79104,1.64864 1.26431,0.64944 2.51087,1.51659 3.63401,2.61392 1.02876,1.00199 1.93525,2.18697 2.72536,3.5424 1.60289,2.7336 2.53356,5.89252 3.09857,9.55506 0.56078,3.72506 0.61928,7.62974 0.33264,11.82336 -0.0247,0.35223 -0.0523,0.70504 -0.0798,1.05935 -0.33568,4.03715 -0.97998,7.93579 -1.77325,11.6043 -0.96084,4.43726 -2.12084,8.4441 -3.3774,12.07049 -1.43649,4.13672 -2.79233,7.27906 -4.22131,10.07283 -1.96677,3.7912 -3.6796,6.0886 -4.0268,6.80654 -0.1467,0.0431 -0.28585,0.0887 -0.40676,0.13752 -0.82046,0.33315 -1.21583,0.80206 -1.18048,1.20767 0.0378,0.43202 0.52258,0.78133 1.23527,1.0983 0.64541,0.28706 1.62202,0.5783 2.054,0.94831 0.0972,0.0805 0.20145,0.25066 0.28837,0.41772 0.0179,0.0324 0.0325,0.0647 0.0474,0.096 0.18444,0.35641 0.36934,1.24691 0.61282,1.91556 0.28638,0.86182 0.71508,1.57558 1.21959,2.03538 0.4983,0.45414 0.99137,0.58955 1.38283,0.45643 0.65156,-0.22152 1.14514,-1.4132 1.3199,-2.81587 0.10796,-0.63458 0.17639,-1.59538 -0.20685,-2.78245 -0.0694,-0.19346 -0.15571,-0.38305 -0.25813,-0.56775 -0.54614,-0.98439 -1.49283,-1.70346 -2.59479,-2.09713 -0.88497,-0.24069 -1.67181,-0.29787 -2.33719,-0.25444 1.21488,-0.80605 3.1466,-2.61747 5.18531,-5.56696 1.87518,-2.68719 3.69208,-5.95913 5.45221,-10.09439 1.56351,-3.66758 2.97917,-7.78804 4.10839,-12.35093 0.93648,-3.77917 1.66703,-7.82922 2.01987,-12.05902 0.0322,-0.37079 0.0586,-0.74112 0.0831,-1.11037 0.29751,-4.38467 0.14778,-8.56733 -0.58539,-12.57822 -0.70622,-3.93744 -1.99188,-7.4883 -4.03925,-10.57191 -1.02807,-1.54208 -2.23886,-2.89445 -3.59515,-4.03063 -1.49302,-1.24801 -3.1258,-2.177 -4.74524,-2.823 -2.09231,-0.82955 -4.12955,-1.18324 -5.81559,-1.29885 z m -199.301,-12.930814 c -0.0572,-0.0093 -0.1145,-0.01333 -0.17237,-0.008 -0.80566,0.04946 -1.55692,1.623972 -2.18042,3.772402 -0.27188,0.917851 -0.54528,2.007171 -0.76897,3.135861 -0.0705,0.35507 -0.13378,0.70556 -0.19052,1.05041 -0.23674,1.43869 -0.35027,2.75519 -0.30962,3.83253 0.0658,1.47076 0.37099,2.46818 1.06271,2.57398 0.6028,0.0923 1.44995,-0.64263 2.19623,-1.96674 0.55774,-0.97242 1.09392,-2.26633 1.48097,-3.74296 0.0932,-0.35379 0.17764,-0.7188 0.25201,-1.09329 0.24044,-1.2138 0.33971,-2.36989 0.31004,-3.419261 -0.0608,-2.380617 -0.825,-3.98835 -1.68017,-4.13328 z m 8.84172,0.865033 c -0.27238,-0.0093 -0.51626,0.0067 -0.72414,0.03506 -0.87447,0.120252 -1.33837,0.470012 -1.39249,0.811665 -0.0583,0.368304 0.29989,0.742567 0.83688,1.161479 0.49418,0.385475 1.243,0.858273 1.3773,1.328445 0.18217,0.265209 0.14297,0.718619 0.21233,1.413809 0.003,0.14937 5e-5,0.30362 -0.006,0.464 -0.10921,2.63549 -0.087,-0.14093 -0.19108,2.56408 -0.11621,2.4098 0.37762,4.16642 1.36058,4.23898 0.84081,0.0621 1.92629,-1.41593 2.72356,-3.63278 0.3032,-0.80609 0.59923,-1.84029 0.65017,-3.0291 0.0109,-0.23777 0.009,-0.47761 -9.2e-4,-0.71866 -6.7e-4,-1.334525 -0.68696,-2.657464 -1.83952,-3.622379 -1.11689,-0.74778 -2.18915,-0.989272 -3.00633,-1.014855 z M 828.7923,127.8197 c -0.0512,6.7e-4 -0.0991,0.009 -0.14095,0.0225 -0.90222,0.29986 -0.61217,2.16091 -1.07845,4.34892 -0.0109,0.0465 -0.0229,0.0945 -0.0328,0.14142 -4.5e-4,0.004 -2e-4,0.001 -0.006,0.0248 -0.18461,0.86773 -0.48163,1.77106 -0.92413,2.77851 -0.0275,0.062 -0.0552,0.12425 -0.0831,0.18583 -1.54574,3.51504 -2.46568,5.58955 -2.9996,6.77678 -3.4e-4,0.35291 0.0958,0.61089 0.31602,0.73808 0.49871,0.28807 1.5623,-0.15048 2.85292,-1.14456 1.24887,-0.962 2.94176,-2.6434 4.05645,-4.91721 0.0398,-0.0828 0.0784,-0.16656 0.11652,-0.25083 0.64701,-1.44709 0.87931,-2.90802 0.76938,-4.24088 -0.28934,-3.08195 -2.0755,-4.48307 -2.84708,-4.46358 z m -5.26404,14.27899 c 9.2e-4,-0.064 -0.003,-0.12558 0.003,-0.19648 -0.59063,1.42007 -0.81473,1.99775 -0.003,0.19648 z m 0.003,-0.19648 c 1.14653,-2.75661 3.78093,-8.93046 4.00215,-9.54493 9e-4,-0.009 0.006,-0.0155 0.006,-0.0248 0.0188,-0.10532 -0.85858,1.85479 -3.47173,7.81325 -0.30516,0.696 -0.49182,1.2942 -0.5365,1.75648 z M 839.3266,130.1037 c -0.23247,-0.0216 -0.4177,0.0136 -0.54436,0.10305 -0.36028,0.25408 -0.2791,0.87869 -0.006,1.75123 0.24464,0.78264 0.76076,2.03273 0.78427,3.06078 0.0532,0.73311 -0.14795,1.57789 -0.60812,2.371 -0.006,0.0107 -0.0125,0.0196 -0.0163,0.0301 -0.51308,0.923 -1.49181,1.93763 -2.27833,2.82774 -1.99984,2.20831 -3.3227,3.94539 -2.64111,4.55263 0.54703,0.48732 2.83491,-0.22736 5.52881,-2.10938 1.13797,-0.77559 2.47818,-1.90931 3.45525,-3.51221 0.0124,-0.0173 0.0188,-0.0325 0.0288,-0.0491 0.93004,-1.5982 1.04603,-3.32385 0.58065,-4.80505 -0.6588,-1.82661 -1.88215,-2.99395 -2.78907,-3.59228 -0.58968,-0.38899 -1.1069,-0.5905 -1.49415,-0.62842 z m 16.43622,7.13472 c -1.1095,-0.0891 -2.06146,-0.007 -2.75764,0.12692 -1.15054,0.22108 -1.81364,0.6091 -1.84892,1.0259 -0.0336,0.43646 0.5701,0.85634 1.5713,1.27311 0.70676,0.29419 2.62885,0.91884 3.5624,1.37196 0.48163,0.27953 0.97485,0.55899 1.12134,0.7838 0.0277,0.0433 0.0451,0.0859 0.0504,0.12772 0.28804,0.37061 0.30083,1.24026 0.42842,2.09712 0.23932,2.43243 0.70858,4.22668 1.69604,4.2592 0.78557,0.0259 1.83885,-1.56093 2.36108,-4.07589 0.23579,-0.90359 0.35943,-2.23622 -0.29848,-3.7986 -0.13425,-0.23947 -0.28378,-0.46656 -0.44765,-0.68125 -0.904,-1.18423 -2.13564,-1.85776 -3.29204,-2.14326 -0.75788,-0.20029 -1.48052,-0.31386 -2.14646,-0.36668 z m -7.02537,5.9193 c -0.40532,-0.0413 -0.72111,0.0568 -0.91252,0.23872 -0.31395,0.29831 -0.31401,0.79673 -0.25883,1.34915 0.0552,0.55382 0.17095,1.2008 0.12585,1.81072 0.002,0.44996 -0.0563,0.91123 -0.14109,1.50633 -0.0328,0.22397 -0.0642,0.43291 -0.0946,0.66259 -0.13721,0.90041 -0.30221,1.66413 -0.32769,2.51647 -0.0288,0.55436 -0.0223,1.13872 0.2034,1.63585 0.21296,0.4699 0.54156,0.65661 0.89039,0.64658 0.31417,-0.009 0.67958,-0.18805 0.98534,-0.35039 0.28901,-0.15353 0.79546,-0.42922 1.17366,-0.9717 0.5354,-0.61925 1.1214,-1.52609 1.48027,-2.68766 0.0994,-0.30863 0.17672,-0.63785 0.22401,-0.98445 0.12772,-0.92992 0.0235,-1.86071 -0.28817,-2.7104 -0.51323,-1.29304 -1.45662,-2.08032 -2.23889,-2.42976 -0.30052,-0.13413 -0.57643,-0.20786 -0.81969,-0.23199 z m -137.49071,6.44265 c -0.36044,-0.0311 -0.71495,-0.0547 -1.06258,-0.0713 -7.29438,-0.35062 -11.22182,1.5892 -11.1618,1.86324 0.17323,0.7906 4.3462,-0.0772 10.78168,0.94016 2.42274,0.38001 5.15396,1.07834 7.80479,2.31433 2.11614,0.97842 4.16007,2.28649 6.16906,3.9023 1.65693,1.33381 3.21261,2.82788 4.80496,4.4758 0.20169,0.20869 0.40217,0.41738 0.60134,0.62681 4.29224,4.52888 6.89578,7.8038 11.1278,11.3778 2.41106,2.035 4.76833,3.57006 7.04982,4.69823 5.19526,2.56377 8.81297,2.49124 8.926,2.14919 0.18855,-0.57062 -3.04134,-1.46335 -7.24553,-4.29713 -1.8938,-1.27325 -3.79994,-2.82504 -5.88256,-4.85996 -4.45421,-4.34861 -5.23023,-6.00216 -10.43708,-11.52426 -0.2067,-0.21978 -0.41626,-0.44018 -0.62834,-0.66016 -1.67308,-1.73532 -3.40843,-3.347 -5.30699,-4.80288 -2.31397,-1.77604 -4.78103,-3.19627 -7.35217,-4.22238 -2.84507,-1.12697 -5.66516,-1.69272 -8.1885,-1.90875 z m -211.7608,-14.27273 c -0.69909,-0.0631 -1.51742,-0.0437 -2.45278,0.10505 -1.55225,0.26437 -3.11988,0.86754 -4.54144,1.79202 -0.0573,0.0372 -0.11418,0.0749 -0.17044,0.11279 -2.14585,1.44654 -3.60957,3.20773 -4.3877,4.35703 -0.81978,1.21095 -1.1675,2.14472 -0.76274,2.53254 0.42054,0.40294 1.55727,0.16742 3.04057,-0.61337 1.82032,-0.95817 2.80576,-1.85609 4.88284,-3.18025 0.0437,-0.0277 0.0874,-0.0557 0.13161,-0.0836 1.10477,-0.69899 2.02812,-1.2167 2.98159,-1.60723 2.0986,-0.90944 4.15094,-1.07334 4.31379,-1.86394 0.0882,-0.42717 -0.93829,-1.36153 -3.03544,-1.55114 z m 4.88897,4.8302 c -0.77627,-0.0645 -1.77528,0.0756 -2.98153,0.63003 -1.39022,0.6716 -2.58582,1.72152 -3.43869,3.00068 -0.0795,0.11639 -0.15732,0.23372 -0.23285,0.3524 -1.22328,1.92126 -1.74716,3.8796 -1.92122,5.14608 -0.18148,1.32029 -0.0478,2.25817 0.51027,2.4827 0.57708,0.23208 1.49763,-0.31987 2.48176,-1.44981 1.10922,-1.27354 1.79579,-2.58431 2.91259,-4.29531 0.061,-0.094 0.12196,-0.18662 0.18333,-0.27805 0.6981,-1.00849 1.14491,-1.68623 1.76715,-2.26399 0.50387,-0.53774 1.18889,-0.9511 1.71017,-1.28941 0.52756,-0.34241 0.94342,-0.6424 0.96347,-0.99408 0.0157,-0.26227 -0.66056,-0.93453 -1.95448,-1.04124 z m 37.36958,2.81347 c -1.04568,-0.0659 -2.04693,-0.096 -3.01084,-0.0908 -3.62858,0.0191 -5.81697,0.56286 -5.81744,1.09016 -2.8e-4,0.54818 2.14928,0.98241 5.46805,1.64736 -5.00929,-1.00364 16.26092,3.29055 13.10645,2.67681 0.065,0.0139 0.12943,0.0256 0.19438,0.038 5.4231,1.07247 9.80785,1.62164 13.64701,1.59025 3.59618,-0.0295 5.75302,-0.59093 5.74754,-1.11447 -0.006,-0.54487 -2.13218,-0.95718 -5.40743,-1.61076 9.45609,1.88696 -20.5672,-4.15477 -12.96873,-2.66969 -0.0652,-0.014 -0.1299,-0.0256 -0.19511,-0.0389 -4.09368,-0.8116 -7.62661,-1.32218 -10.76377,-1.51815 z m -28.12322,-1.64769 c -0.0798,-0.0149 -0.15827,-0.0161 -0.23409,-0.008 -0.62379,0.0832 -1.01799,0.91516 -1.43229,2.03313 0.12337,-0.33339 -1.44323,4.0926 -1.51729,4.29967 -0.0366,0.0983 -0.0695,0.19573 -0.10454,0.29302 -0.62203,1.71078 -1.14723,3.14052 -1.31536,4.51126 -0.15787,1.28629 0.0765,2.15141 0.65936,2.32303 0.57005,0.16795 1.37737,-0.36343 2.261,-1.31454 0.85055,-0.91554 1.96414,-2.44183 2.71435,-4.29545 0.0473,-0.11532 0.0933,-0.23284 0.1369,-0.35108 0.76836,-2.07193 0.78813,-4.01661 0.37471,-5.44854 -0.35793,-1.23943 -0.98429,-1.94138 -1.54298,-2.0432 z m 7.26615,2.05872 c -0.64673,-0.0364 -1.0573,0.21053 -1.1516,0.4231 -0.20567,0.46324 0.30236,0.98005 0.49308,1.68555 0.094,0.29633 0.13892,0.60027 0.17339,0.98393 0.10921,0.79952 -0.0339,1.47144 -0.13021,2.75986 -0.0222,0.21086 -0.0478,0.42295 -0.073,0.6428 -0.13316,1.13885 -0.26449,2.14872 -0.30338,3.20238 -0.0937,2.38645 0.37329,4.09419 1.31634,4.16384 0.79742,0.0589 1.85223,-1.37807 2.66709,-3.56812 0.35931,-0.94868 0.6985,-2.11863 0.84988,-3.4077 0.0313,-0.25914 0.053,-0.51762 0.0674,-0.7756 0.11496,-1.44135 -0.16846,-2.88197 -0.89857,-4.10847 -0.41964,-0.69369 -1.00971,-1.21907 -1.60863,-1.55902 -0.54084,-0.29616 -1.01322,-0.42027 -1.40122,-0.44248 z m 204.47282,21.63501 c -0.68138,-0.0973 -4.26188,1.39724 -8.47051,5.36258 -1.83664,1.73289 -3.69745,3.88461 -5.38668,6.48568 -2.35842,3.64917 -3.95052,7.44366 -5.71237,11.88274 -0.13861,0.34976 -0.28688,0.72309 -0.42349,1.06765 -0.84241,2.10778 -1.62873,4.01292 -2.56294,5.84479 -1.00759,1.9734 -2.1,3.70974 -3.34919,5.24494 -1.56811,1.93616 -3.34261,3.5048 -5.01963,4.74503 -4.346,3.22188 -7.80628,4.37676 -7.50245,5.03307 0.14359,0.31023 4.04415,0.11359 9.39962,-2.84511 2.07887,-1.15196 4.30328,-2.74669 6.3117,-4.8685 1.58248,-1.67806 2.96404,-3.59509 4.15861,-5.73767 1.10118,-1.97271 2.00287,-4.00514 2.86829,-6.14594 0.14561,-0.35769 0.28942,-0.71649 0.43333,-1.07683 1.82001,-4.55712 3.06953,-7.98287 5.04627,-11.52791 1.37309,-2.47598 2.84269,-4.56943 4.28921,-6.35245 3.50861,-4.33154 6.49836,-6.55525 6.01712,-7.07201 -0.0193,-0.0196 -0.0515,-0.0333 -0.0969,-0.0401 z M 544.8412,155.10213 c -0.38788,-0.0305 -0.66594,0.0332 -0.8087,0.19206 -0.38276,0.42589 0.24511,1.43278 1.37952,2.78947 1.03839,1.24184 2.92825,3.26933 4.92686,5.04879 0.014,0.012 0.0307,0.0273 0.0459,0.0408 2.18025,1.95488 4.27174,3.43446 6.19963,4.36224 1.85915,0.89473 3.22824,1.10076 3.58979,0.66461 0.36545,-0.44082 -0.31657,-1.42874 -1.497,-2.75762 -1.0548,-1.18747 -3.04618,-3.23301 -5.00852,-4.97371 -0.0156,-0.012 -0.0297,-0.0272 -0.0451,-0.0407 -2.15629,-1.9271 -4.16881,-3.41427 -6.05404,-4.3798 -1.13146,-0.57947 -2.0821,-0.89444 -2.72841,-0.94608 z m 226.19592,22.95697 c -0.0811,0.003 -0.1576,0.0171 -0.22929,0.0419 -0.5803,0.20233 -0.77214,1.03858 -0.93435,2.09899 -0.10236,0.66872 -0.39303,2.91158 -0.51512,4.14638 l -9.3e-4,0.009 c -0.19083,1.71218 -0.32217,3.21426 -0.14203,4.52065 0.17118,1.25056 0.60941,2.05028 1.23748,2.12393 0.61518,0.072 1.30265,-0.57498 1.93452,-1.6555 0.61602,-1.05347 1.27518,-2.70168 1.50231,-4.60306 l 0.002,-0.0107 c 0.25968,-2.00819 -0.1397,-3.80802 -0.87723,-5.0757 -0.6364,-1.0937 -1.41031,-1.61574 -1.97733,-1.59543 z M 629.01924,167.71366 c -2.46623,-0.15363 -4.8962,-0.0774 -7.32159,0.0821 -0.33958,0.0225 -0.67741,0.0464 -1.01268,0.0712 -3.31719,0.2405 -6.61586,0.60336 -9.69644,0.94833 -3.71293,0.41506 -6.92736,0.79016 -10.33406,1.11782 -3.65654,0.35073 -6.94189,0.59522 -10.16147,0.67977 -3.44097,0.0872 -6.38621,7.1e-4 -9.16574,-0.35095 -3.09108,-0.39951 -5.45507,-1.02486 -7.43596,-1.92433 -4.21911,-1.8971 -5.20371,-4.24415 -5.78824,-3.99515 -0.0534,0.0228 -0.0177,2.85665 4.57661,5.66347 2.0794,1.26402 4.73409,2.27391 8.05452,2.92126 2.97975,0.58878 6.18128,0.87626 9.77358,0.93979 3.36591,0.0625 6.81838,-0.066 10.55156,-0.32346 3.43553,-0.23622 6.81645,-0.56012 10.47508,-0.92141 3.07572,-0.30322 6.35096,-0.64083 9.53106,-0.86642 0.32609,-0.0225 0.65189,-0.0447 0.97725,-0.0655 2.32491,-0.14934 4.5263,-0.23588 6.65842,-0.11199 0.97914,0.0585 1.89586,0.14916 2.7391,0.32474 0.70167,0.15464 1.31474,0.32279 1.77837,0.57212 1.86764,0.96361 3.54066,2.03863 4.95136,3.25989 1.19911,1.03198 2.21821,2.17724 3.05412,3.37233 1.45202,2.04029 2.60819,4.92944 3.72507,7.13413 0.62711,1.25737 1.33527,2.44509 2.22233,3.54581 0.22958,0.28325 0.47064,0.55252 0.71839,0.8122 -0.74756,1.36399 -1.62975,3.01018 -2.789,5.04675 -3.05877,5.37377 -7.13196,11.69913 -13.27153,18.94496 -0.2584,0.30488 -0.51715,0.60727 -0.77618,0.90765 -4.15161,4.80374 -8.14324,8.69591 -12.05554,12.01195 -7.08032,5.9892 -12.81798,8.97983 -12.48736,9.54804 0.16855,0.28953 1.88387,-0.0107 4.62561,-1.13763 2.8088,-1.1549 6.38275,-3.05763 10.43492,-5.99196 4.3649,-3.15491 8.82543,-7.15244 13.13626,-12.10275 0.27062,-0.31012 0.53948,-0.62303 0.80788,-0.93901 6.29966,-7.41629 10.26442,-14.4642 12.56086,-20.18893 0.69386,-1.72986 1.19226,-3.24415 1.55883,-4.55296 0.36093,0.26996 0.72943,0.52206 1.1049,0.75198 1.8892,1.14507 3.87518,1.81081 5.52788,2.21505 5.10164,1.25266 8.10716,0.75401 8.13481,0.57778 0.084,-0.53851 -2.84924,-0.74269 -7.35103,-2.4492 -1.42613,-0.54283 -3.0945,-1.29258 -4.49623,-2.34238 -0.80767,-0.59842 -1.55657,-1.32962 -2.20798,-2.1696 0.0786,-0.83341 0.003,-1.31478 -0.18992,-1.36163 -0.13456,-0.0328 -0.30822,0.0917 -0.52013,0.34192 -0.4867,-0.7884 -0.90324,-1.65234 -1.31386,-2.6163 -0.88908,-2.12288 -1.90518,-5.11829 -3.54345,-7.72374 -0.93492,-1.46551 -2.10828,-2.88221 -3.52661,-4.17935 -1.66602,-1.51653 -3.59789,-2.83161 -5.71502,-3.95986 -0.99846,-0.51822 -2.02793,-0.8512 -3.01823,-1.05629 -1.18479,-0.25464 -2.35787,-0.39074 -3.50049,-0.46054 z m 133.20225,11.61833 c -0.22057,-0.005 -0.39605,0.038 -0.50473,0.11732 -0.72541,0.52979 -0.0336,2.19373 0.0527,4.02154 0.044,0.6113 0.0297,1.24704 -0.0258,1.98702 -0.0261,0.31012 -0.0523,0.62557 -0.0831,0.93204 -0.12025,1.1443 -0.2725,1.94993 -0.31713,2.968 -0.0322,0.71176 -0.0313,1.33298 0.16185,1.87151 0.18159,0.50645 0.48443,0.76202 0.8316,0.78767 0.33634,0.0249 0.6929,-0.16496 1.05332,-0.44031 0.33014,-0.25225 0.8441,-0.71731 1.26132,-1.36314 0.55067,-0.78877 1.12949,-1.89646 1.4474,-3.24033 0.0972,-0.40521 0.16534,-0.83189 0.19609,-1.27576 0.0723,-1.04134 -0.0698,-2.04715 -0.39339,-2.96077 -0.92013,-2.50079 -2.72566,-3.38744 -3.68132,-3.40483 z m 20.66228,2.85831 c -0.0803,-0.005 -0.15827,-3.3e-4 -0.23399,0.0171 -0.60701,0.13118 -0.95497,0.89048 -1.24516,1.88622 -0.26168,0.89844 -0.60285,2.46827 -0.78685,3.92661 -0.003,0.0288 -0.008,0.0583 -0.0109,0.0873 -0.21423,1.5932 -0.28635,3.03314 -0.0473,4.23451 0.2305,1.16356 0.72238,1.88231 1.34734,1.92848 0.61504,0.0455 1.24716,-0.56767 1.8184,-1.54851 0.5558,-0.95428 1.15327,-2.44276 1.40288,-4.14741 0.003,-0.0323 0.0124,-0.0641 0.0156,-0.0968 0.26726,-1.80839 0.0271,-3.45337 -0.54496,-4.65938 -0.49265,-1.03867 -1.15271,-1.59327 -1.71508,-1.62811 z M 507.50694,162.29101 c -0.47488,-0.0533 -1.00154,0.99506 -1.83374,2.70448 -0.79731,1.6377 -1.9992,4.14074 -3.91368,6.42764 -1.4482,1.7572 -3.35652,3.44767 -5.75405,4.95329 -0.3318,0.20833 -0.66652,0.40899 -1.00353,0.60235 -2.78075,1.60082 -5.92484,2.8029 -8.52348,3.74934 -5.4609,1.98053 -9.28821,3.18766 -9.03453,3.98246 0.17498,0.54836 4.2996,0.53803 10.28744,-0.85796 2.91766,-0.67637 6.42436,-1.7725 9.76665,-3.61772 0.40423,-0.22387 0.80454,-0.45952 1.19985,-0.70727 2.85709,-1.79061 5.04713,-3.95296 6.55906,-6.21009 4.12401,-6.24999 2.70424,-10.97516 2.25001,-11.02652 z m 6.36309,8.49064 c -0.0636,0.001 -0.11372,0.0169 -0.1509,0.0461 -0.5485,0.42747 2.32669,4.57108 9.54592,8.49611 3.68547,2.00615 8.03591,3.75224 13.14211,5.21704 0.29848,0.0857 0.59806,0.1698 0.89964,0.25318 7.48696,2.06883 14.88216,3.13004 19.87978,3.62472 5.14762,0.50946 8.38495,0.49478 8.49753,-0.0191 0.11901,-0.54397 -2.91582,-1.49343 -7.87403,-2.69137 -4.21049,-1.01728 -12.54306,-2.80553 -19.10301,-4.62721 -0.28895,-0.0804 -0.57629,-0.16089 -0.86236,-0.24197 -4.94402,-1.40241 -8.97896,-2.79994 -12.66407,-4.39426 -6.48873,-2.81032 -10.35832,-5.6981 -11.31042,-5.66335 z m -50.02541,5.79848 c -0.58942,-0.0617 -1.4769,0.0604 -2.56118,0.35722 -1.70378,0.46663 -4.05701,1.42088 -6.28323,2.96051 -0.0754,0.0523 -0.15043,0.10492 -0.22472,0.15782 -2.27766,1.61072 -3.67203,3.50917 -4.27414,5.11925 -0.59477,1.59041 -0.34674,2.64401 0.21813,2.81234 0.58951,0.17576 1.41326,-0.51306 2.51739,-1.44869 1.3154,-1.11465 2.41072,-2.02973 4.44301,-3.4775 0.0633,-0.0448 0.1271,-0.0901 0.1913,-0.13498 2.01907,-1.41633 3.66931,-2.45671 5.06129,-3.61397 1.28544,-1.0687 1.95035,-1.94929 1.62927,-2.42035 -0.11714,-0.17167 -0.36331,-0.2745 -0.71697,-0.31159 z m -9.17226,0.0427 c -0.44414,-0.0511 -1.0131,-0.0169 -1.66675,0.0936 -1.28377,0.21704 -3.05493,0.76379 -4.8101,1.7201 -0.0327,0.0181 -0.0657,0.0352 -0.0985,0.0535 -1.84674,1.01675 -3.17098,2.28089 -3.87545,3.43678 -0.69671,1.14317 -0.69909,2.02102 -0.19734,2.33555 0.50741,0.31806 1.41975,0.0485 2.51867,-0.43155 0.99592,-0.43509 2.61177,-1.26213 4.03685,-2.06653 0.0281,-0.0161 0.0555,-0.0309 0.0831,-0.0468 1.56622,-0.87925 2.92582,-1.7246 3.89339,-2.60286 0.9395,-0.85278 1.35157,-1.61236 1.03486,-2.077 -0.15583,-0.22835 -0.475,-0.36382 -0.91914,-0.41455 z m 13.73306,6.58613 c -1.20519,-0.064 -3.19882,2.13168 -4.39461,5.26946 -1.27632,3.34907 -1.07708,6.29277 0.14047,6.56025 1.21456,0.26685 2.98331,-2.18471 4.18912,-5.34817 1.20671,-3.16582 1.46308,-6.04164 0.29476,-6.43858 -0.073,-0.0236 -0.14934,-0.0388 -0.22955,-0.0431 z m 10.28119,3.20889 c -0.61082,-0.14746 -1.40811,0.53546 -2.16661,1.79678 -0.97356,1.61888 -1.16348,2.6042 -2.15323,4.57639 -0.0124,0.0255 -0.0264,0.0512 -0.0381,0.0771 -0.45974,0.92187 -0.9303,1.68266 -1.46378,2.34684 -1.28551,1.66768 -2.89605,2.73596 -2.48681,3.51562 0.29114,0.5547 2.67162,0.86831 5.43961,-1.10737 1.10729,-0.81436 2.06782,-1.91684 2.71094,-3.2404 0.0168,-0.0369 0.035,-0.0735 0.0521,-0.11012 0.97545,-2.11514 1.13393,-4.17446 1.07049,-5.45915 -0.0666,-1.34359 -0.37933,-2.25422 -0.96464,-2.39533 z m 94.14668,11.79874 c -0.0423,-0.0107 -0.0835,-0.0133 -0.12321,-0.008 -0.59984,0.088 -0.79594,2.30201 -0.36319,5.8236 0.42825,3.48561 1.50657,8.38659 3.74395,13.48183 0.0219,0.0476 0.0415,0.0949 0.0622,0.14232 2.30016,5.17888 5.31808,9.25043 8.03259,12.03695 2.66976,2.74055 4.80048,4.00913 5.25547,3.68108 0.49885,-0.35968 -0.74036,-2.24632 -2.60173,-5.22453 -1.96091,-3.13743 -4.24095,-6.93911 -6.42856,-11.88019 -0.0193,-0.0448 -0.0398,-0.0899 -0.0596,-0.1346 -2.06215,-4.66676 -3.68162,-9.50955 -4.84855,-12.66499 -1.14603,-3.09886 -2.03721,-5.09361 -2.66935,-5.25397 z m 95.28032,7.44245 c -0.46742,0.008 -0.86979,0.4227 -1.26615,1.05592 -0.33531,0.5357 -0.82288,1.55128 -1.31034,2.16152 -0.34985,0.46643 -0.83877,0.92488 -1.44127,1.3414 -0.0109,0.008 -0.0229,0.0165 -0.0344,0.0235 -0.61549,0.43496 -1.76398,1.03421 -2.53307,1.50724 -2.17065,1.30474 -3.34568,2.63722 -2.84412,3.31244 0.44068,0.59325 2.30851,0.46304 4.66691,-0.2071 0.98888,-0.27029 2.26222,-0.71986 3.52047,-1.54066 0.0229,-0.0165 0.0468,-0.0309 0.07,-0.0468 1.22737,-0.83813 2.03996,-1.93403 2.4394,-3.05305 0.45962,-1.44798 0.27988,-2.6511 -0.0288,-3.39836 -0.3164,-0.76813 -0.79107,-1.16357 -1.23835,-1.15596 z m 7.55029,4.59667 c -0.93936,-0.012 -1.5269,1.60286 -2.83154,3.1695 -0.56058,0.7017 -1.23613,1.3707 -2.11851,2.15309 -0.0303,0.0271 -0.0616,0.0533 -0.0921,0.0805 -1.65304,1.46189 -2.82643,2.23051 -4.04632,3.54658 -1.02634,1.10722 -1.41746,2.00802 -1.01066,2.42242 0.39168,0.39895 1.48172,0.2663 2.92858,-0.22758 1.38275,-0.47193 3.48844,-1.4213 5.35138,-2.98264 0.0418,-0.0352 0.0837,-0.0712 0.12523,-0.10732 1.18428,-1.02612 2.03491,-2.2075 2.52256,-3.40887 1.13145,-2.90008 -0.12057,-4.63666 -0.82852,-4.64589 z m 13.25548,2.40236 c -0.67269,-0.0337 -1.11222,0.19062 -1.29244,0.50069 -0.18726,0.3222 -0.11294,0.72298 0.0247,1.14818 0.13192,0.40757 0.34164,0.87258 0.29481,1.2064 0.0297,0.34472 -0.0512,0.55961 -0.0381,1.15962 -0.005,0.0985 -0.003,0.19874 -0.009,0.30234 -0.0356,1.13964 -0.0772,2.22655 0.22705,3.2477 0.28898,0.97009 0.8206,1.54362 1.45994,1.56337 0.61163,0.0189 1.22582,-0.47589 1.7393,-1.22377 0.50201,-0.73123 1.05389,-1.93745 1.11859,-3.46056 0.006,-0.14771 0.008,-0.29591 0.003,-0.44428 0.005,-0.98815 -0.39471,-1.98937 -1.08343,-2.79438 -0.8533,-0.87343 -1.79468,-1.17278 -2.44693,-1.20539 z m -7.18024,0.46148 c -0.0786,-0.0133 -0.15669,-0.0161 -0.23491,-0.008 -0.62564,0.0555 -1.10583,0.72629 -1.47644,1.69088 -0.36049,0.93835 -0.67363,2.31485 -0.81519,3.78214 -0.29246,3.04043 0.30716,5.691 1.63067,5.78874 1.17395,0.0868 2.627,-2.28384 2.91368,-5.47838 0.14498,-1.62732 -0.0643,-3.09751 -0.52183,-4.17937 -0.3965,-0.93776 -0.94631,-1.50506 -1.49603,-1.59509 z m -98.95219,18.34504 c -0.50557,-0.0281 -1.1966,0.12998 -1.99997,0.45912 -1.34567,0.55127 -2.68508,1.42363 -4.18259,2.4422 -0.0229,0.0165 -0.0482,0.0327 -0.072,0.0491 -0.63442,0.42572 -3.33351,2.23863 -3.52934,2.37491 -0.91336,0.63552 -1.60954,1.19499 -1.51796,1.72221 0.0899,0.51778 1.00512,0.93588 2.55681,0.85842 1.56241,-0.078 3.52334,-0.66543 5.31893,-1.89606 0.0285,-0.0185 0.0568,-0.0384 0.0852,-0.058 1.67896,-1.15503 2.86993,-2.48433 3.52151,-3.45988 0.66961,-1.00252 0.91178,-1.82639 0.51212,-2.23346 -0.15323,-0.1561 -0.38953,-0.24127 -0.69284,-0.25865 z m 18.47682,2.37395 c -0.10112,-0.001 -0.19603,-0.003 -0.28532,0.004 -0.74077,0.0481 -1.16857,0.35297 -1.28414,0.69339 -0.12212,0.35954 0.0678,0.76197 0.33683,1.18807 0.25665,0.40659 0.61064,0.85198 0.55343,1.17424 0.0588,0.25855 -0.0372,0.52914 0.0181,1.14306 2.5e-4,0.0489 7.3e-4,0.0991 -0.002,0.14989 -0.005,0.70815 -0.0505,1.37302 0.0366,2.17528 0.17344,1.81578 1.03517,2.96205 1.95135,2.86615 0.76078,-0.0797 1.5624,-1.13941 2.0617,-2.51161 0.24142,-0.62288 0.4811,-1.46822 0.5014,-2.48067 0.002,-0.0784 0.002,-0.15759 -8e-5,-0.23724 0.0331,-1.04607 -0.42075,-2.14941 -1.25193,-3.0372 -0.95447,-0.83747 -1.93109,-1.10499 -2.63779,-1.12764 z m -11.53107,1.44111 c -0.52323,-0.0656 -1.27445,0.1763 -2.13305,0.69955 -1.25673,0.76587 -2.18691,1.7278 -3.41575,2.8256 -0.0263,0.0225 -0.0506,0.0448 -0.0753,0.0672 -0.62619,0.5516 -1.13014,0.97239 -1.67096,1.3168 -1.29736,0.89325 -2.84613,1.31605 -2.85337,2.15241 -0.005,0.59805 1.54952,1.7082 4.47327,1.01678 1.20474,-0.31317 2.37855,-0.91949 3.33786,-1.78446 0.0342,-0.0308 0.0683,-0.0611 0.10236,-0.0918 1.47699,-1.36052 2.29563,-2.85464 2.67463,-3.83845 0.39442,-1.02375 0.46133,-1.84389 0.002,-2.1945 -0.11901,-0.0913 -0.26848,-0.14707 -0.4429,-0.16884 z m 5.50852,1.35115 c -0.62237,-0.0665 -1.26214,0.43317 -1.85066,1.21247 -0.57714,0.76417 -1.18863,1.91473 -1.62708,3.21563 -0.4519,1.34082 -0.64291,2.6212 -0.53008,3.64708 0.11154,1.01495 0.51454,1.68851 1.12879,1.81057 0.60931,0.12118 1.31452,-0.31849 1.9829,-1.08868 0.66158,-0.76229 1.34744,-1.92349 1.80182,-3.293 0.46446,-1.39969 0.58987,-2.7322 0.39786,-3.77091 -0.19111,-1.02973 -0.67773,-1.66679 -1.30267,-1.73309 z"
       id="path4496"
       inkscape:connector-curvature="0" />
    <path
       d="m 1161.6002,-140.55003 c 0,-8.4 5,-16.7 14.2,-21.5 0,-15.8 9,-24.8 20.8,-26 -7.2,2.6 -12,8.8 -12,16.5 0,9.1 7.4,16.5 16.5,16.5 9.1,0 16.5,-7.4 16.5,-16.5 0,-7.7 -4.8,-13.9 -12,-16.5 11.8,1.2 20.8,10.2 20.8,26 9.2,4.8 14.2,13.1 14.2,21.5 0,3.5 -0.9,6.9 -2.1,9.3 0.2,-0.9 0.3,-2.2 0.3,-3.6 0,-9.6 -7.6,-17.2 -16.9,-17.2 -9.1,0 -16.5,7.4 -16.5,16.5 0,9.1 7.5,16.5 16.7,16.5 4.9,0 8.9,-1.9 11.8,-4.4 -4,5.7 -10.3,9.4 -18.3,9.4 -5.8,0 -12,-2.8 -14.5,-4.5 -2.5,1.7 -8.7,4.5 -14.5,4.5 -8,0 -14.3,-3.7 -18.3,-9.4 2.9,2.5 6.9,4.4 11.8,4.4 9.2,0 16.7,-7.4 16.7,-16.5 0,-9.1 -7.4,-16.5 -16.5,-16.5 -9.3,0 -16.9,7.6 -16.9,17.2 0,1.4 0.1,2.7 0.3,3.6 -1.2,-2.4 -2.1,-5.8 -2.1,-9.3 z m 15.5,-8 6.5,0 c 0,9.6 5,14.2 9.7,16.7 l -3.3,5.6 c -7.7,-4.3 -12.9,-11.3 -12.9,-22.3 z m 11.1,-19.3 c 3.7,-2.4 8.2,-3.7 12.9,-3.7 4.7,0 9.2,1.3 12.9,3.7 l -3.2,5.7 c -2.8,-1.8 -6.1,-2.9 -9.7,-2.9 -3.6,0 -6.9,1.1 -9.7,2.9 z m 7.9,20.3 c 0,2.8 2.2,5 5,5 2.8,0 5,-2.2 5,-5 0,-2.8 -2.2,-5 -5,-5 -2.8,0 -5,2.2 -5,5 z m 12.8,15.7 c 4.7,-2.5 9.7,-7.1 9.7,-16.7 l 6.5,0 c 0,11 -5.2,18 -12.9,22.3 z"
       inkscape:connector-curvature="0"
       id="path20" />
    <rect
       style="opacity:1;fill:#ffcc00;fill-opacity:1;fill-rule:evenodd;stroke:none;stroke-width:2;stroke-linecap:square;stroke-linejoin:miter;stroke-miterlimit:4;stroke-dasharray:none;stroke-dashoffset:0;stroke-opacity:1"
       id="rect4282-8-5"
       width="202.58302"
       height="200.59691"
       x="1847.929"
       y="-2.2728848"
       ry="39.852398"
       rx="39.852398" />
    <path
       style="display:inline"
       d="m 1877.2543,117.15582 c 0,-15.3042 9.1097,-30.426211 25.8714,-39.171473 0,-28.786486 16.3975,-45.183854 37.8962,-47.370168 -13.1179,4.737017 -21.8632,16.03298 -21.8632,30.061838 0,16.579558 13.4824,30.061838 30.0619,30.061838 16.5794,0 30.0618,-13.48228 30.0618,-30.061838 0,-14.028858 -8.7454,-25.324821 -21.8633,-30.061838 21.4988,2.186314 37.8962,18.583682 37.8962,47.370168 16.7617,8.745262 25.8714,23.867273 25.8714,39.171473 0,6.37676 -1.6397,12.57132 -3.826,16.94395 0.3643,-1.63973 0.5466,-4.00824 0.5466,-6.55895 0,-17.49051 -13.8466,-31.337177 -30.7906,-31.337177 -16.5797,0 -30.0618,13.482277 -30.0618,30.061837 0,16.57955 13.6644,30.06182 30.4262,30.06182 8.9273,0 16.2151,-3.46166 21.4988,-8.01648 -7.2878,10.38499 -18.7659,17.12614 -33.3414,17.12614 -10.5672,0 -21.8632,-5.10141 -26.4179,-8.19868 -4.5548,3.09727 -15.8509,8.19868 -26.4181,8.19868 -14.5755,0 -26.0536,-6.74115 -33.3414,-17.12614 5.2838,4.55482 12.5715,8.01648 21.4989,8.01648 16.7617,0 30.4262,-13.48227 30.4262,-30.06182 0,-16.57956 -13.4822,-30.061837 -30.0618,-30.061837 -16.944,0 -30.7906,13.846667 -30.7906,31.337177 0,2.55071 0.1822,4.91922 0.5465,6.55895 -2.1863,-4.37263 -3.826,-10.56719 -3.826,-16.94395 z m 28.2399,-14.57543 11.8426,0 c 0,17.49053 9.1096,25.8714 17.6727,30.42622 l -6.0123,10.20281 c -14.029,-7.8343 -23.503,-20.5878 -23.503,-40.62903 z m 20.2234,-35.163234 c 6.7411,-4.372632 14.9398,-6.741139 23.503,-6.741139 8.5631,0 16.7617,2.368507 23.5028,6.741139 l -5.8302,10.384998 c -5.1014,-3.279474 -11.1138,-5.283595 -17.6726,-5.283595 -6.559,0 -12.5714,2.004121 -17.6727,5.283595 z m 14.3932,36.985164 c 0,5.1014 4.0083,9.10965 9.1098,9.10965 5.1013,0 9.1096,-4.00825 9.1096,-9.10965 0,-5.101402 -4.0083,-9.109642 -9.1096,-9.109642 -5.1015,0 -9.1098,4.00824 -9.1098,9.109642 z m 23.3208,28.60429 c 8.563,-4.55482 17.6727,-12.93569 17.6727,-30.42622 l 11.8425,0 c 0,20.04123 -9.474,32.79473 -23.5028,40.62903 z"
       inkscape:connector-curvature="0"
       id="path20-3" />
    <path
       style="display:inline;opacity:1;fill:#000000;fill-opacity:1;fill-rule:evenodd;stroke:none;stroke-width:2;stroke-linecap:square;stroke-linejoin:miter;stroke-miterlimit:4;stroke-dasharray:none;stroke-dashoffset:0;stroke-opacity:1"
       d="m 292.63582,138.09674 c -6.21546,-2.06677 -9.55561,-8.73485 -7.48884,-14.9503 l 11.31674,-34.033133 c 2.06677,-6.215471 8.73484,-9.555605 14.95028,-7.488835 l 34.59234,11.502673 c 6.21546,2.06676 9.55559,8.734835 7.48883,14.950295 l -11.31673,34.03314 c -2.06678,6.21545 -8.73483,9.55559 -14.9503,7.48882 l -34.59232,-11.50266 z m 18.06676,-4.27439 c -3.24951,-2.56154 -4.65401,-6.56043 -3.34076,-10.50984 1.55203,-4.66749 6.60936,-7.20123 11.27683,-5.64922 4.66743,1.55203 7.20102,6.60993 5.649,11.2774 -1.31325,3.94941 -4.83276,6.31096 -8.96915,6.41655 6.257,1.39703 12.40834,-1.6844 15.10309,-9.78836 5.53741,-0.89289 9.51752,-4.29742 10.95016,-8.60585 0.59694,-1.7952 0.7151,-3.69243 0.50895,-5.12807 -0.0509,0.49572 -0.22119,1.17948 -0.46,1.89757 -1.63731,4.92392 -6.83178,7.52602 -11.60187,5.93985 -4.66752,-1.55204 -7.20046,-6.60971 -5.64844,-11.27719 1.55203,-4.66747 6.66067,-7.18357 11.37945,-5.61447 2.51322,0.8357 4.24072,2.49214 5.30179,4.26903 -1.07951,-3.6058 -3.67981,-6.5783 -7.78311,-7.942746 -2.97487,-0.989197 -6.63255,-0.610338 -8.20473,-0.164776 -0.99233,-1.298302 -3.69478,-3.792041 -6.66967,-4.781257 -4.10329,-1.364431 -7.96527,-0.540768 -10.98908,1.700586 1.91388,-0.787655 4.28923,-1.079816 6.80247,-0.244103 4.71878,1.569096 7.30351,6.643376 5.75147,11.310856 -1.55203,4.66747 -6.60934,7.20122 -11.27684,5.64919 -4.77006,-1.58613 -7.372,-6.7807 -5.7347,-11.70463 0.23878,-0.71808 0.51183,-1.367678 0.7679,-1.795199 -1.0248,1.026319 -2.0663,2.616549 -2.66322,4.411739 -1.43265,4.30843 -0.28379,9.41844 3.61631,13.4495 -2.69474,8.10396 0.38651,14.25543 6.23415,16.88344 z m 5.12186,-7.69586 c 2.41071,0.80161 4.94072,0.90268 7.24779,0.30273 l -0.66896,-3.46982 c -1.74316,0.4457 -3.62383,0.44738 -5.4703,-0.1666 -1.84648,-0.614 -3.35111,-1.74138 -4.48025,-3.14217 l -2.61357,2.37832 c 1.48843,1.86204 3.57459,3.29595 5.98529,4.09754 z m 3.24057,-9.74542 c -1.43618,-0.47756 -2.18928,-1.98107 -1.71175,-3.41721 0.47757,-1.43615 1.98104,-2.18928 3.41722,-1.71172 1.43612,0.47753 2.18984,1.98123 1.71229,3.41738 -0.47755,1.43616 -1.98166,2.18908 -3.41776,1.71155 z m -11.62719,-6.14458 3.3337,1.10853 c 1.63731,-4.92393 4.98612,-6.43051 7.8232,-6.91118 l -0.73729,-3.43515 c -4.68283,0.89225 -8.54353,3.59579 -10.41961,9.2378 z m 21.28554,7.07789 3.33371,1.10853 c 1.87608,-5.64202 0.40306,-10.11913 -2.81296,-13.6379 l -2.64807,2.30944 c 1.98428,2.08386 3.76464,5.29599 2.12732,10.21993 z"
       id="rect4282-8-5-1"
       inkscape:connector-curvature="0" />
    <path
       style="opacity:1;fill:#000000;fill-opacity:1;fill-rule:evenodd;stroke:none;stroke-width:2;stroke-linecap:square;stroke-linejoin:miter;stroke-miterlimit:4;stroke-dasharray:none;stroke-dashoffset:0;stroke-opacity:1"
       d="m 295.1096,211.64269 c -3.7223,0.38354 -6.41008,3.6888 -6.02654,7.41111 l 4.44227,43.11354 c 0.38352,3.72233 3.68879,6.4101 7.41111,6.02657 l 43.67337,-4.49996 c 3.72231,-0.38353 6.41007,-3.6888 6.02654,-7.41111 l -4.44227,-43.11355 c -0.38355,-3.72232 -3.6888,-6.41008 -7.41112,-6.02655 l -43.67336,4.49995 z m 11.70604,7.1471 9.33283,12.85664 -0.37863,0.29457 c -0.17328,0.13716 -0.32791,0.2895 -0.48259,0.44176 -0.15473,0.15226 -0.30775,0.32129 -0.44386,0.48867 -0.1361,0.16739 -0.27211,0.33488 -0.38965,0.51736 -0.11749,0.18249 -0.23514,0.36494 -0.33405,0.56257 -0.0989,0.19759 -0.19781,0.39536 -0.27985,0.59124 -0.0821,0.19585 -0.16223,0.4086 -0.22568,0.61959 -0.0803,0.21276 -0.12699,0.42189 -0.17184,0.64801 -0.0466,0.20927 -0.0745,0.43378 -0.10258,0.65818 -0.0113,0.22263 -0.0374,0.46389 -0.0316,0.6848 0.005,0.2209 0.0133,0.45861 0.0376,0.69463 l -15.78088,1.62602 c -0.85468,-8.29494 2.49587,-15.79653 9.25073,-20.68402 z m 22.54118,-2.32257 c 7.60954,3.40745 12.4192,10.06823 13.30762,18.3597 l -15.78058,1.62597 c -0.0243,-0.23604 -0.0653,-0.47028 -0.10494,-0.68771 -0.0412,-0.23427 -0.0974,-0.45 -0.17029,-0.66403 -0.0732,-0.21396 -0.14466,-0.41118 -0.23459,-0.62345 -0.0902,-0.21216 -0.1952,-0.4057 -0.30037,-0.59934 -0.10517,-0.19363 -0.22735,-0.38551 -0.3476,-0.56053 -0.12029,-0.17503 -0.25742,-0.34847 -0.39455,-0.52174 -0.13716,-0.17331 -0.28917,-0.32797 -0.44141,-0.48268 -0.15051,-0.13783 -0.31957,-0.29093 -0.48693,-0.42702 -0.18424,-0.13439 -0.35168,-0.2704 -0.53416,-0.38791 -0.18251,-0.11753 -0.36493,-0.23517 -0.56256,-0.33407 -0.14531,-0.0873 -0.28719,-0.14079 -0.43075,-0.21118 l 6.48127,-14.48608 z m -9.73102,16.184 a 4.5253539,4.5253539 0 0 1 4.96522,4.03792 4.5253539,4.5253539 0 0 1 -4.03759,4.96519 4.5253539,4.5253539 0 0 1 -4.96551,-4.03754 4.5253539,4.5253539 0 0 1 4.03788,-4.96557 z m -2.3053,10.69931 c 0.054,0.0286 0.10808,0.0569 0.179,0.0837 0.19587,0.082 0.40863,0.16255 0.61964,0.226 0.21273,0.0803 0.42188,0.12698 0.64799,0.17185 0.20926,0.0466 0.4338,0.0745 0.65816,0.10257 0.2244,0.0282 0.46391,0.0374 0.68481,0.0316 0.2378,-0.007 0.45863,-0.0132 0.69465,-0.0376 0.23606,-0.0243 0.4703,-0.0654 0.68772,-0.10494 0.2343,-0.0413 0.45,-0.0974 0.66404,-0.17028 0.21397,-0.073 0.41119,-0.14459 0.62343,-0.23458 0.21218,-0.0902 0.40572,-0.19522 0.59935,-0.30039 0.19363,-0.10516 0.38548,-0.22733 0.56053,-0.34761 l 0.14139,-0.11673 9.29894,12.86013 c -6.75486,4.88751 -14.93167,5.73001 -22.54119,2.32255 l 6.48162,-14.48608 z"
       id="rect4282"
       inkscape:connector-curvature="0" />
    <g
       id="g4882"
       transform="matrix(1.1247481,0,0,1.1247481,-299.6301,-44.64402)">
      <text
         sodipodi:linespacing="125%"
         id="text4453"
         y="-109.56898"
         x="502.47662"
         style="font-style:normal;font-variant:normal;font-weight:bold;font-stretch:normal;font-size:40px;line-height:125%;font-family:Arial;-inkscape-font-specification:'Arial, Bold';text-align:start;letter-spacing:0px;word-spacing:0px;writing-mode:lr-tb;text-anchor:start;fill:#ffffff;fill-opacity:1;stroke:none;stroke-width:1px;stroke-linecap:butt;stroke-linejoin:miter;stroke-opacity:1"
         xml:space="preserve"><tspan
           id="tspan4475"
           y="-109.56898"
           x="502.47662"
           sodipodi:role="line">NO BUG</tspan></text>
      <path
         inkscape:connector-curvature="0"
         id="path4880"
         d="m 484.89852,-123.87769 c -0.17738,-31.45177 -0.16036,-31.90938 1.18783,-31.91694 1.34793,-0.008 1.37005,0.44976 1.54746,31.90142 0.17737,31.451812 0.16035,31.909412 -1.18769,31.917067 -1.34811,0.0082 -1.37027,-0.449654 -1.5476,-31.901547 z"
         style="fill:#ffffff" />
      <path
         inkscape:connector-curvature="0"
         id="path4878"
         d="m 740.13047,-92.645877 c -0.22926,-0.367717 1.28379,-5.240105 3.36272,-10.827393 2.07875,-5.58732 4.63664,-12.48852 5.68399,-15.33614 l 1.9045,-5.17735 -5.84484,-15.24991 c -3.21479,-8.3875 -5.6554,-15.56166 -5.4239,-15.94267 1.2942,-2.12828 2.82314,0.59896 8.28576,14.77921 3.19164,8.2854 5.81855,15.69933 5.8378,16.47546 0.0191,0.7761 -1.13171,4.48826 -2.55732,8.24938 -1.42565,3.7611 -4.02839,10.62944 -5.78396,15.26293 -2.96582,7.828199 -4.2735,9.680284 -5.46475,7.766483 z"
         style="fill:#ffffff" />
      <path
         inkscape:connector-curvature="0"
         id="path4154"
         d="m 693.01141,-95.365848 c 0,-0.246445 0.61737,-2.943771 1.37531,-5.993962 1.41321,-5.68864 1.22248,-6.6662 -1.30312,-6.68195 -1.52286,-0.008 -5.93613,-2.55023 -6.74602,-3.88359 -1.80589,-2.97364 -1.73981,-5.40746 0.32705,-12.01075 2.29125,-7.32005 2.5204,-9.48502 1.00357,-9.47638 -1.49654,0.008 -3.47991,2.26539 -4.48412,5.10273 -0.56479,1.59375 -1.31425,2.4792 -2.10683,2.4834 -2.40605,0.0128 -1.32818,-4.07338 2.05749,-7.80099 2.46764,-2.71696 4.54373,-3.4259 7.35721,-2.51175 4.13843,1.3446 4.69446,4.62828 2.01464,11.89733 -2.20199,5.97354 -2.19133,9.55387 0.0352,11.76318 3.65645,3.62808 3.72335,3.48898 9.1994,-19.12664 4.60421,-19.01552 5.16146,-20.80683 6.53749,-21.01523 0.82738,-0.12523 1.50526,-0.0443 1.50659,0.18015 0.004,0.22438 -2.26481,9.71703 -5.0361,21.09473 -2.77106,11.37776 -4.87847,20.84538 -4.68332,21.03903 0.19507,0.19361 1.71919,-0.17972 3.38664,-0.82964 5.19191,-2.02362 11.24037,-10.08614 11.25294,-14.99994 0.004,-1.00902 -0.76996,-2.74771 -1.71646,-3.86369 -2.08069,-2.45324 -2.16957,-3.78994 -0.37345,-5.61292 1.74217,-1.76841 3.04784,-1.75242 4.87412,0.0596 1.25686,1.2471 1.41355,1.99526 1.11196,5.31207 -1.0021,11.02226 -7.7445,20.18191 -16.54585,22.47783 l -3.26001,0.85036 -1.38672,5.76976 c -1.17509,4.888531 -1.61652,5.8045 -2.89108,5.997474 -0.82735,0.125226 -1.50527,0.02624 -1.50667,-0.220199 z"
         style="fill:#ffffff" />
    </g>
    <text
       xml:space="preserve"
       style="font-style:normal;font-variant:normal;font-weight:bold;font-stretch:normal;font-size:44.98992157px;line-height:125%;font-family:Arial;-inkscape-font-specification:'Arial, Bold';text-align:start;letter-spacing:0px;word-spacing:0px;writing-mode:lr-tb;text-anchor:start;display:inline;fill:#ffffff;fill-opacity:1;stroke:none;stroke-width:1px;stroke-linecap:butt;stroke-linejoin:miter;stroke-opacity:1"
       x="668.14417"
       y="388.49887"
       id="text4453-5-0"
       sodipodi:linespacing="125%"><tspan
         sodipodi:role="line"
         x="668.14417"
         y="388.49887"
         id="tspan4475-6-2">DLTDOJO 2018</tspan></text>
    <path
       style="display:inline;opacity:1;fill:#000000;fill-opacity:1;fill-rule:evenodd;stroke:none;stroke-width:2;stroke-linecap:square;stroke-linejoin:miter;stroke-miterlimit:4;stroke-dasharray:none;stroke-dashoffset:0;stroke-opacity:1"
       d="m 365.64302,-28.359656 c -2.61268,-2.720579 -6.90602,-2.807458 -9.6266,-0.194782 l -31.511,30.2611541 c -2.72058,2.6126775 -2.80746,6.9060171 -0.19478,9.6266069 l 30.65409,31.920161 c 2.61266,2.720576 6.90602,2.807444 9.62659,0.194769 L 396.10233,13.18709 c 2.72058,-2.612677 2.80745,-6.9060086 0.19477,-9.6265888 L 365.64302,-28.359656 Z m 1.57751,13.734796 -4.43163,15.3886099 -0.46887,-0.1182926 c -0.21645,-0.0526864 -0.4334,-0.0811183 -0.65032,-0.10966271 -0.21692,-0.0285649 -0.44616,-0.0453865 -0.66357,-0.0497583 -0.2174,-0.004402 -0.43485,-0.008703 -0.65276,0.0110267 -0.21787,0.01976 -0.43583,0.0393766 -0.65423,0.083299 -0.21835,0.0439122 -0.43685,0.0879063 -0.6434,0.1441546 -0.20654,0.0562187 -0.42533,0.12439976 -0.63237,0.204787 -0.21886,0.0680849 -0.41402,0.16065057 -0.62154,0.26520237 -0.19522,0.092688 -0.391,0.2096696 -0.58668,0.3265411 -0.18389,0.1291483 -0.39183,0.2579454 -0.56385,0.3994565 -0.17204,0.1415019 -0.35632,0.2948444 -0.52884,0.4605107 L 345.04596,-9.1529905 c 6.06265,-5.8221655 14.10202,-7.8102805 22.17448,-5.4720125 z m 15.82153,16.4749895 c 2.00982,8.1604445 -0.30194,16.1127135 -6.3409,21.9595425 L 365.62487,12.275905 c 0.1725,-0.165667 0.33322,-0.343535 0.48151,-0.509759 0.16063,-0.178025 0.29732,-0.356375 0.42194,-0.547228 0.1247,-0.190812 0.23714,-0.369901 0.35004,-0.572986 0.11272,-0.203211 0.20141,-0.406689 0.29011,-0.610328 0.0888,-0.2036305 0.16544,-0.4197053 0.22997,-0.6237981 0.0646,-0.2041144 0.11736,-0.4206365 0.17005,-0.6370512 0.0526,-0.2164577 0.0814,-0.4331621 0.10989,-0.6500774 0.0162,-0.2050788 0.0331,-0.434361 0.0375,-0.6517606 -0.008,-0.2297377 -0.003,-0.4471476 -0.0228,-0.6650304 -0.0198,-0.2179125 -0.0394,-0.4358445 -0.0832,-0.6542352 -0.0207,-0.1695723 -0.0661,-0.3155339 -0.0992,-0.4732758 l 15.53147,-3.8303237 z m -18.89579,2.3002498 a 4.5615482,4.5615482 0 0 1 -0.13075,6.4497207 4.5615482,4.5615482 0 0 1 -6.44948,-0.130492 4.5615482,4.5615482 0 0 1 0.13027,-6.4497244 4.5615482,4.5615482 0 0 1 6.44996,0.1304957 z m -9.93275,4.8014473 c 0.0113,0.06059 0.0217,0.1211736 0.0444,0.194178 0.0562,0.2065531 0.12417,0.425555 0.20454,0.6325955 0.0681,0.2188667 0.16065,0.4140189 0.26518,0.6215439 0.0928,0.195172 0.2097,0.390997 0.32656,0.586684 0.11683,0.195739 0.25795,0.391841 0.39947,0.563846 0.15327,0.18442 0.29484,0.35632 0.46051,0.528833 0.16567,0.172515 0.34354,0.333235 0.50976,0.481516 0.17805,0.160647 0.35636,0.297305 0.54724,0.421948 0.19074,0.124742 0.36987,0.237126 0.57297,0.350034 0.20322,0.112725 0.40669,0.201421 0.61033,0.290112 0.20362,0.08868 0.41969,0.16542 0.6238,0.229975 l 0.18043,0.03999 -4.45541,15.363808 c -8.07244,-2.338252 -13.8117,-8.314541 -15.8215,-16.474987 l 15.53169,-3.8300621 z"
       id="rect4282-3"
       inkscape:connector-curvature="0" />
    <path
       style="display:inline;opacity:1;fill:#000000;fill-opacity:1;fill-rule:evenodd;stroke:none;stroke-width:2;stroke-linecap:square;stroke-linejoin:miter;stroke-miterlimit:4;stroke-dasharray:none;stroke-dashoffset:0;stroke-opacity:1"
       d="m 451.84046,-31.560554 c -5.9084,3.178054 -13.22397,0.979836 -16.40203,-4.928567 l -17.40164,-32.351804 c -3.17805,-5.908403 -0.97982,-13.223967 4.92857,-16.402021 l 32.88338,-17.687564 c 5.90841,-3.17806 13.22396,-0.97985 16.40203,4.928556 l 17.40164,32.351827 c 3.17804,5.908403 0.97985,13.223956 -4.92856,16.40201 l -32.88339,17.687563 z m 9.51386,-16.464568 c -4.19238,0.620557 -8.15884,-1.143689 -10.17825,-4.897986 -2.38654,-4.436895 -0.71968,-9.985614 3.7172,-12.372161 4.43685,-2.386535 9.98592,-0.719153 12.37245,3.717731 2.0194,3.754308 1.30511,8.03628 -1.52351,11.192222 5.43861,-3.679738 7.46639,-10.428496 3.32271,-18.132097 3.2268,-4.753119 3.48778,-10.111317 1.28482,-14.206907 -0.91792,-1.706502 -2.24836,-3.128026 -3.46285,-3.983498 0.33351,0.386385 0.72325,0.993839 1.09042,1.676448 2.51767,4.680673 0.80533,10.379615 -3.7291,12.818619 -4.43693,2.386581 -9.98536,0.71886 -12.37192,-3.718023 -2.38654,-4.436896 -0.67043,-10.011429 3.8152,-12.424204 2.38908,-1.285058 4.83736,-1.407847 6.90698,-0.949479 -3.44515,-1.730099 -7.48742,-1.882052 -11.38802,0.216031 -2.8279,1.521087 -5.11649,4.512455 -5.88955,5.996954 -1.66473,-0.173222 -5.4221,0.0874 -8.25001,1.608525 -3.90058,2.098093 -6.00134,5.554309 -6.45679,9.382491 0.75836,-1.979511 2.21023,-3.954558 4.59932,-5.239617 4.48566,-2.412787 10.08283,-0.77197 12.46939,3.664925 2.38655,4.436894 0.71971,9.985614 -3.7172,12.372161 -4.53442,2.439016 -10.23331,0.726486 -12.751,-3.954187 -0.36716,-0.682598 -0.65922,-1.342601 -0.79775,-1.833856 0.0443,1.484869 0.4971,3.378495 1.415,5.085008 2.20296,4.095579 6.81758,6.831259 12.56205,6.758836 4.14368,7.703602 10.89238,9.731601 16.96041,7.222064 z m -2.13369,-9.225049 c 2.2916,-1.232634 4.14513,-3.046527 5.3197,-5.187057 l -3.05532,-1.940393 c -0.89311,1.611955 -2.21373,3.014325 -3.96895,3.958449 -1.75525,0.944125 -3.65274,1.272732 -5.48999,1.129417 l -0.0651,3.618797 c 2.43343,0.199824 4.96801,-0.346579 7.25962,-1.579213 z m -4.98298,-9.263977 c -1.36524,0.734326 -3.01472,0.238672 -3.74905,-1.126536 -0.7343,-1.365208 -0.23869,-3.014696 1.12653,-3.749032 1.36518,-0.734292 3.01524,-0.238954 3.74956,1.126243 0.73434,1.365208 0.23813,3.015 -1.12704,3.749325 z m -12.75019,4.343834 3.16903,-1.70459 c -2.5177,-4.680673 -1.28639,-8.23455 0.34956,-10.686096 l -3.0775,-1.865125 c -2.62662,4.115971 -3.32594,8.892518 -0.44109,14.255811 z m 20.23401,-10.883636 3.16901,-1.704567 c -2.88484,-5.363282 -7.25578,-7.412607 -12.13776,-7.489799 l -0.14062,3.596124 c 2.9472,-0.01361 6.59168,0.917569 9.10937,5.598242 z"
       id="rect4282-8-5-1-0"
       inkscape:connector-curvature="0" />
    <path
       style="display:inline;opacity:1;fill:#000000;fill-opacity:1;fill-rule:evenodd;stroke:none;stroke-width:2;stroke-linecap:square;stroke-linejoin:miter;stroke-miterlimit:4;stroke-dasharray:none;stroke-dashoffset:0;stroke-opacity:1"
       d="m 940.28334,210.1474 c -0.016,-3.77192 -3.06529,-6.7955 -6.83722,-6.77951 l -43.68806,0.1852 c -3.77192,0.016 -6.7955,3.06531 -6.7795,6.83724 l 0.18761,44.25534 c 0.016,3.77189 3.0653,6.79547 6.83721,6.77948 l 43.68807,-0.1852 c 3.77194,-0.016 6.7955,-3.06531 6.77951,-6.83722 l -0.18762,-44.25533 z m -8.329,11.03452 -13.82127,8.08834 -0.25798,-0.409 c -0.12045,-0.18737 -0.25795,-0.35759 -0.39534,-0.52787 -0.13739,-0.17027 -0.29177,-0.34056 -0.44627,-0.49359 -0.15434,-0.15318 -0.30871,-0.30638 -0.48047,-0.44199 -0.17144,-0.13592 -0.34278,-0.27205 -0.53128,-0.39079 -0.18838,-0.11883 -0.37702,-0.23756 -0.56535,-0.33931 -0.18835,-0.10167 -0.39381,-0.20319 -0.59918,-0.28777 -0.20543,-0.10167 -0.41061,-0.16916 -0.633,-0.23654 -0.20529,-0.0675 -0.42775,-0.1178 -0.65005,-0.16811 -0.22224,-0.0333 -0.46165,-0.0833 -0.6838,-0.0995 -0.22217,-0.0162 -0.46137,-0.0322 -0.70055,-0.0311 l -0.0678,-15.99117 c 8.40547,-0.0356 15.59853,4.06849 19.83213,11.32858 z m 0.0969,22.84156 c -4.17189,7.29571 -11.3299,11.46055 -19.73524,11.53036 l -0.0678,-15.99086 c 0.23918,-0.001 0.47822,-0.019 0.70025,-0.0371 0.23909,-0.0181 0.46106,-0.0531 0.68293,-0.10539 0.22188,-0.0522 0.42681,-0.10438 0.64863,-0.17356 0.22176,-0.0694 0.42631,-0.15563 0.63096,-0.24194 0.2047,-0.0863 0.40924,-0.18986 0.59672,-0.29317 0.18752,-0.10325 0.37506,-0.2237 0.56246,-0.34408 0.18739,-0.12045 0.35767,-0.25754 0.52786,-0.395 0.15315,-0.13735 0.32348,-0.29176 0.47659,-0.44618 0.15271,-0.17181 0.3059,-0.32614 0.44206,-0.49736 0.13593,-0.17146 0.27205,-0.34279 0.39088,-0.53119 0.10187,-0.13707 0.16969,-0.27411 0.25453,-0.41115 l 13.88919,7.9365 z m -15.2705,-11.3646 a 4.5615482,4.5615482 0 0 1 -4.54238,4.58071 4.5615482,4.5615482 0 0 1 -4.58071,-4.54204 4.5615482,4.5615482 0 0 1 4.54203,-4.58102 4.5615482,4.5615482 0 0 1 4.58106,4.54235 z m -10.50431,-3.37237 c -0.0337,0.0516 -0.0678,0.10269 -0.10177,0.17127 -0.10167,0.18835 -0.20354,0.3938 -0.28809,0.59917 -0.10167,0.20543 -0.16917,0.41061 -0.23658,0.63299 -0.0674,0.20533 -0.11776,0.42776 -0.16808,0.65006 -0.0504,0.22233 -0.0834,0.46166 -0.0995,0.68381 -0.0162,0.23925 -0.0322,0.46136 -0.0311,0.70055 0.001,0.23916 0.019,0.47822 0.0371,0.70024 0.0181,0.23911 0.0531,0.46105 0.10528,0.68294 0.0521,0.22187 0.10437,0.42679 0.17356,0.64861 0.0694,0.22177 0.15563,0.42633 0.24194,0.63098 0.0863,0.20468 0.18986,0.4092 0.29315,0.59671 l 0.10303,0.15343 -13.82138,8.05397 c -4.23358,-7.26006 -4.26871,-15.54581 -0.0969,-22.84153 l 13.88918,7.93685 z"
       id="rect4282-3-5"
       inkscape:connector-curvature="0" />
  </g>
</svg>
