<!DOCTYPE svg PUBLIC "-//W3C//DTD SVG 20010904//EN" "http://www.w3.org/TR/2001/REC-SVG-20010904/DTD/svg10.dtd">
<svg version="1.0" xmlns="http://www.w3.org/2000/svg" width="460px" height="245px" viewBox="0 0 4600 2450" preserveAspectRatio="xMidYMid meet">
<g id="layer1" fill="#000000" stroke="none">
 <path d="M3404 2293 c-17 -54 79 -50 -1497 -69 l-498 -6 -32 -67 -32 -66 -333 -9 c-351 -9 -362 -8 -362 36 0 19 5 19 127 12 197 -12 474 -10 505 3 30 13 44 67 30 118 -8 28 -11 30 -67 33 l-58 3 6 -40 c5 -43 -6 -61 -39 -61 -18 0 -23 7 -28 45 l-7 45 -48 0 c-46 0 -49 -2 -57 -32 -9 -29 -14 -33 -44 -33 -32 0 -36 3 -48 43 l-14 42 -53 0 c-51 0 -54 -1 -57 -27 -3 -25 -7 -28 -43 -28 -36 0 -40 3 -49 34 l-10 34 -265 -8 c-146 -4 -267 -8 -269 -10 -2 -2 99 -206 223 -455 l226 -452 1117 3 1117 4 -3 -140 c-3 -123 -6 -142 -22 -156 -11 -10 -28 -52 -41 -102 -19 -79 -20 -96 -11 -204 6 -65 7 -121 3 -126 -15 -15 -160 -35 -170 -23 -11 14 -41 73 -41 81 0 3 30 5 66 5 l66 0 -7 37 c-10 52 -10 53 -65 53 -39 0 -52 4 -60 19 -22 41 -14 48 65 56 82 7 82 8 69 74 -6 31 -7 31 -69 31 -48 0 -66 4 -79 19 -16 17 -15 19 21 25 21 3 56 6 79 6 23 0 62 3 88 6 46 7 46 7 46 45 l0 39 -83 0 c-251 0 -568 -14 -564 -25 3 -6 90 -128 195 -271 116 -158 261 -340 373 -468 l182 -208 261 6 c295 8 417 20 457 43 22 13 43 52 100 187 116 274 119 281 263 505 76 117 140 219 142 226 4 9 -34 14 -147 18 -210 10 -279 9 -279 -3 0 -5 14 -41 31 -80 59 -130 9 -94 -97 72 l-55 87 7 78 c7 90 32 143 109 240 l50 62 10 183 10 183 270 6 c299 7 340 11 379 43 23 19 27 32 37 120 5 54 8 100 5 103 -2 3 -27 2 -54 -2 l-50 -7 -8 -76 c-9 -73 -10 -76 -39 -84 -16 -4 -33 -4 -37 0 -5 5 -13 46 -18 92 -5 45 -12 85 -14 88 -15 14 -34 -13 -45 -62 -10 -44 -20 -62 -45 -81 l-33 -25 -323 0 c-259 0 -322 3 -312 13 10 9 87 13 290 17 194 4 283 9 299 17 22 13 27 29 39 116 7 52 6 53 -68 41 -36 -6 -38 -8 -38 -45 0 -41 -1 -43 -44 -53 l-29 -7 7 55 c7 62 7 62 -66 50 -34 -6 -37 -10 -40 -42 -3 -30 -8 -37 -32 -43 -39 -11 -46 -5 -46 42 l0 39 -46 0 c-45 0 -45 0 -42 -32 3 -35 -12 -48 -74 -63 -25 -6 -27 -4 -33 32 -17 101 -11 93 -71 93 -43 0 -56 -4 -60 -17z m-174 -1212 c0 -9 -22 -14 -114 -27 -27 -4 -57 -15 -67 -25 -11 -11 -19 -15 -19 -11 0 22 47 47 108 58 86 15 92 16 92 5z m120 -100 c0 -20 -53 -151 -60 -151 -26 0 -44 19 -71 72 -17 33 -29 62 -27 64 3 3 105 19 146 23 6 0 12 -3 12 -8z m-192 -266 c16 -13 32 -38 35 -54 6 -28 -8 -99 -22 -113 -9 -10 -154 -37 -165 -31 -12 8 -36 69 -36 93 0 18 6 20 55 20 l55 0 0 45 c0 31 5 47 18 54 24 15 27 14 60 -14z m373 -35 c14 -37 14 -51 5 -85 -11 -37 -16 -41 -60 -52 -45 -11 -52 -10 -98 13 -45 23 -49 28 -46 57 3 31 4 32 56 35 28 2 52 6 52 10 0 4 9 22 20 40 27 44 50 38 71 -18z"/>
 </g>

</svg>