<?xml version="1.0" encoding="UTF-8" standalone="no"?>
<!-- Created with Inkscape (http://www.inkscape.org/) -->

<svg
   xmlns:dc="http://purl.org/dc/elements/1.1/"
   xmlns:cc="http://creativecommons.org/ns#"
   xmlns:rdf="http://www.w3.org/1999/02/22-rdf-syntax-ns#"
   xmlns:svg="http://www.w3.org/2000/svg"
   xmlns="http://www.w3.org/2000/svg"
   xmlns:sodipodi="http://sodipodi.sourceforge.net/DTD/sodipodi-0.dtd"
   xmlns:inkscape="http://www.inkscape.org/namespaces/inkscape"
   width="300"
   height="300"
   id="svg3098"
   version="1.1"
   inkscape:version="0.92.3 (2405546, 2018-03-11)"
   sodipodi:docname="crypto-coin.svg"
   inkscape:export-filename="D:\book2018-quantumxie\projects\cryptoasset\crypto-coin-v1.png"
   inkscape:export-xdpi="96"
   inkscape:export-ydpi="96">
  <defs
     id="defs3100" />
  <sodipodi:namedview
     id="base"
     pagecolor="#ffffff"
     bordercolor="#666666"
     borderopacity="1.0"
     inkscape:pageopacity="0.0"
     inkscape:pageshadow="2"
     inkscape:zoom="2.03"
     inkscape:cx="104.48882"
     inkscape:cy="125.64689"
     inkscape:document-units="px"
     inkscape:current-layer="layer1"
     showgrid="false"
     inkscape:window-width="1920"
     inkscape:window-height="1027"
     inkscape:window-x="-8"
     inkscape:window-y="-8"
     inkscape:window-maximized="1"
     fit-margin-top="0"
     fit-margin-left="0"
     fit-margin-right="0"
     fit-margin-bottom="0" />
  <metadata
     id="metadata3103">
    <rdf:RDF>
      <cc:Work
         rdf:about="">
        <dc:format>image/svg+xml</dc:format>
        <dc:type
           rdf:resource="http://purl.org/dc/dcmitype/StillImage" />
        <dc:title></dc:title>
      </cc:Work>
    </rdf:RDF>
  </metadata>
  <g
     inkscape:label="Layer 1"
     inkscape:groupmode="layer"
     id="layer1"
     transform="translate(-84.635046,-269.01143)">
    <rect
       style="opacity:1;fill:#ffff00;fill-opacity:1;fill-rule:evenodd;stroke:none;stroke-width:2;stroke-linecap:square;stroke-linejoin:miter;stroke-miterlimit:4;stroke-dasharray:none;stroke-dashoffset:0;stroke-opacity:1"
       id="rect5571"
       width="294.58127"
       height="291.62561"
       x="87.590714"
       y="272.95233"
       rx="6.88483"
       ry="6.8848376" />
    <path
       style="display:none;fill:#00ff00;stroke:none"
       inkscape:connector-curvature="0"
       display="none"
       d="m -51.9274,1211.4308 c 0,0 -19.0836,-0.022 -0.6989,-132.6935 C -34.2417,946.066 -24.045,899.1052 -5.3234,791.0001 1.7346,774.8563 -73.7096,698.777 -134.2387,593.2597 -195.9902,485.6117 -277.9101,357.4473 -322.9681,312.8139 c 0,0 174.6051,-335.4541 237.819,-349.6864 0,0 301.3812,108.86 337.0663,144.5451 0,0 -1.6885,91.6752 -28.6427,104.2204 -26.9543,12.5452 -108.8787,44.596 -154.5442,34.6042 0,0 -66.5129,-72.4035 -90.3392,-83.5027 0,0 -6.2708,4.3005 1.4514,23.8679 7.7223,19.5674 -10.4012,69.4088 -39.2782,89.5321 0,0 -21.8448,3.1385 -20.069,6.7997 1.7759,3.6612 5.1862,8.7151 30.2112,12.0414 25.0249,3.3263 41.4226,16.8926 51.1404,21.7706 9.7179,4.8781 39.9987,16.8593 64.2749,23.7075 0,0 237.1202,313.2578 237.1202,342.053 0,0 -71.9669,66.2099 -101.9054,69.0026 0,0 -4.9395,0.036 0,4.9752 4.9395,4.9394 64.5757,-0.9453 70.8878,5.3668 6.3121,6.3121 2.0121,22.6842 6.6121,38.0059 4.6,15.3218 22.4229,131.2911 18.4923,150.0347 0,0 -2.1134,15.7976 3.9779,28.4371 2.6931,15.3368 7.0638,82.1619 5.3597,88.0372 -1.7042,5.8755 3.834,11.4138 3.834,11.4138 0,0 6.1136,-2.9048 6.1136,-14.1914 0,-11.2867 -14.7137,-261.0466 -3.911,-270.7197 0,0 10.1158,-12.895 18.9054,-12.895 8.7897,0 24.7629,-16.0286 32.1096,-20.0052 0,0 4.1583,-5.0769 -6.9741,-10.9508 -11.1323,-5.8739 -31.7252,-18.7007 -41.3689,-59.7083 -11.6437,-20.0076 -24.2794,-66.0872 -42.3224,-107.9173 -18.043,-41.8301 -13.7299,-36.4236 -13.7299,-36.4236 0,0 -95.3713,-114.5455 -124.6481,-153.1061 0,0 -16.1036,-21.2645 0,-20.3709 16.1036,0.8935 144.0354,21.6741 160.3262,34.7954 0,0 53.0165,4.6835 81.2068,39.6826 32.7279,29.0347 57.3043,56.3031 68.4141,60.4844 0,0 8.8715,5.9367 12.4072,14.309 3.5357,8.3723 10.1061,8.5808 13.7668,3.4523 3.6608,-5.1286 12.3208,-17.4926 16.6698,-17.4926 4.3491,0 116.9965,-105.4218 123.0477,-105.4218 6.0514,0 12.3269,-9.6339 14.3142,6.1003 1.9872,15.7341 -14.4666,140.5987 -25.387,151.5191 -1.9001,9.1588 -23.234,109.7161 -34.1799,133.0906 -10.9459,23.3745 -15.9235,16.6872 -38.3097,46.5308 0,0 -18.4618,35.0239 -29.6478,46.21 -11.186,11.1861 -20.6222,22.6746 -22.309,29.0284 -1.6869,6.3539 -13.3855,144.1783 -8.6575,181.5168 0,39.3384 0.7406,137.007 -2.4326,150.9333 -3.1732,13.9263 -6.3809,32.405 -6.3809,48.0717 0,0 1.8606,13.4637 -7.7947,14.3201 -9.6553,0.8564 -501.6557,2.5487 -501.6557,2.5487 z"
       id="path3" />
    <path
       style="display:none;fill:#ff0000"
       d="m -51.9274,1211.4308 c 0,0 -19.0836,-0.022 -0.6989,-132.6935 C -34.2417,946.066 -24.045,899.1052 -5.3234,791.0001 1.7346,774.8563 -73.7096,698.777 -134.2387,593.2597 -195.9902,485.6117 -277.9101,357.4473 -322.9681,312.8139 c 0,0 174.6051,-335.4541 237.819,-349.6864 0,0 301.3812,108.86 337.0663,144.5451 0,0 -1.6885,91.6752 -28.6427,104.2204 -26.9543,12.5452 -108.8787,44.596 -154.5442,34.6042 0,0 -66.5129,-72.4035 -90.3392,-83.5027 0,0 -6.2708,4.3005 1.4514,23.8679 7.7223,19.5674 -10.4012,69.4088 -39.2782,89.5321 0,0 -21.8448,3.1385 -20.069,6.7997 1.7759,3.6612 5.1862,8.7151 30.2112,12.0414 25.0249,3.3263 41.4226,16.8926 51.1404,21.7706 9.7179,4.8781 39.9987,16.8593 64.2749,23.7075 0,0 237.1202,313.2578 237.1202,342.053 0,0 -71.9669,66.2099 -101.9054,69.0026 0,0 -4.9395,0.036 0,4.9752 4.9395,4.9394 64.5757,-0.9453 70.8878,5.3668 6.3121,6.3121 2.0121,22.6842 6.6121,38.0059 4.6,15.3218 22.4229,131.2911 18.4923,150.0347 0,0 -2.1134,15.7976 3.9779,28.4371 2.6931,15.3368 7.0638,82.1619 5.3597,88.0372 -1.7042,5.8755 3.834,11.4138 3.834,11.4138 0,0 6.1136,-2.9048 6.1136,-14.1914 0,-11.2867 -14.7137,-261.0466 -3.911,-270.7197 0,0 10.1158,-12.895 18.9054,-12.895 8.7897,0 24.7629,-16.0286 32.1096,-20.0052 0,0 4.1583,-5.0769 -6.9741,-10.9508 -11.1323,-5.8739 -31.7252,-18.7007 -41.3689,-59.7083 -11.6437,-20.0076 -24.2794,-66.0872 -42.3224,-107.9173 -18.043,-41.8301 -13.7299,-36.4236 -13.7299,-36.4236 0,0 -95.3713,-114.5455 -124.6481,-153.1061 0,0 -16.1036,-21.2645 0,-20.3709 16.1036,0.8935 144.0354,21.6741 160.3262,34.7954 0,0 53.0165,4.6835 81.2068,39.6826 32.7279,29.0347 57.3043,56.3031 68.4141,60.4844 0,0 8.8715,5.9367 12.4072,14.309 3.5357,8.3723 10.1061,8.5808 13.7668,3.4523 3.6608,-5.1286 12.3208,-17.4926 16.6698,-17.4926 4.3491,0 116.9965,-105.4218 123.0477,-105.4218 6.0514,0 12.3269,-9.6339 14.3142,6.1003 1.9872,15.7341 -14.4666,140.5987 -25.387,151.5191 -1.9001,9.1588 -23.234,109.7161 -34.1799,133.0906 -10.9459,23.3745 -15.9235,16.6872 -38.3097,46.5308 0,0 -18.4618,35.0239 -29.6478,46.21 -11.186,11.1861 -20.6222,22.6746 -22.309,29.0284 -1.6869,6.3539 -13.3855,144.1783 -8.6575,181.5168 0,39.3384 0.7406,137.007 -2.4326,150.9333 -3.1732,13.9263 -6.3809,32.405 -6.3809,48.0717 0,0 1.8606,13.4637 -7.7947,14.3201 -9.6553,0.8564 -501.6557,2.5487 -501.6557,2.5487 z"
       id="path3451"
       inkscape:connector-curvature="0" />
    <g
       transform="translate(-1277.9807,-322.38862)"
       id="g3462">
      <path
         style="display:none;fill:#ff0000"
         inkscape:connector-curvature="0"
         display="none"
         d="m 1044.0077,1522.5356 c 0,0 -19.0836,-0.022 -0.6989,-132.6935 18.3846,-132.6713 28.5813,-179.6321 47.3029,-287.7372 7.058,-16.1438 -68.3862,-92.2231 -128.9153,-197.7404 C 899.9449,796.7165 818.025,668.5521 772.967,623.9187 c 0,0 174.6051,-335.4541 237.819,-349.6864 0,0 301.3812,108.86 337.0663,144.5451 0,0 -1.6885,91.6752 -28.6427,104.2204 -26.9543,12.5452 -108.8787,44.596 -154.5442,34.6042 0,0 -66.5129,-72.4035 -90.3392,-83.5027 0,0 -6.2708,4.3005 1.4514,23.8679 7.7223,19.5674 -10.4012,69.4088 -39.2782,89.5321 0,0 -21.8448,3.1385 -20.069,6.7997 1.7759,3.6612 5.1862,8.7151 30.2112,12.0414 25.0249,3.3263 41.4226,16.8926 51.1404,21.7706 9.7179,4.8781 39.9987,16.8593 64.2749,23.7075 0,0 237.1202,313.2578 237.1202,342.053 0,0 -71.9669,66.2099 -101.9054,69.0026 0,0 -4.9395,0.036 0,4.9752 4.9395,4.9394 64.5757,-0.9453 70.8878,5.3668 6.3121,6.3121 2.0121,22.6842 6.6121,38.0059 4.6,15.3218 22.4229,131.2911 18.4923,150.0347 0,0 -2.1134,15.7976 3.9779,28.4371 2.6931,15.3368 7.0638,82.1619 5.3597,88.0372 -1.7042,5.8755 3.834,11.4138 3.834,11.4138 0,0 6.1136,-2.9048 6.1136,-14.1914 0,-11.2867 -14.7137,-261.0466 -3.911,-270.7197 0,0 10.1158,-12.895 18.9054,-12.895 8.7897,0 24.7629,-16.0286 32.1096,-20.0052 0,0 4.1583,-5.0769 -6.9741,-10.9508 -11.1323,-5.8739 -31.7252,-18.7007 -41.3689,-59.7083 -11.6437,-20.0076 -24.2794,-66.0872 -42.3224,-107.9173 -18.043,-41.8301 -13.7299,-36.4236 -13.7299,-36.4236 0,0 -95.3713,-114.5455 -124.6481,-153.1061 0,0 -16.1036,-21.2645 0,-20.3709 16.1036,0.8935 144.0354,21.6741 160.3262,34.7954 0,0 53.0165,4.6835 81.2068,39.6826 32.7279,29.0347 57.3043,56.3031 68.4141,60.4844 0,0 8.8715,5.9367 12.4072,14.309 3.5357,8.3723 10.1061,8.5808 13.7668,3.4523 3.6608,-5.1286 12.3208,-17.4926 16.6698,-17.4926 4.3491,0 116.9965,-105.4218 123.0477,-105.4218 6.0514,0 12.3269,-9.6339 14.3142,6.1003 1.9872,15.7341 -14.4666,140.5987 -25.387,151.5191 -1.9001,9.1588 -23.234,109.7161 -34.1799,133.0906 -10.9459,23.3745 -15.9235,16.6872 -38.3097,46.5308 0,0 -18.4618,35.0239 -29.6478,46.21 -11.186,11.1861 -20.6222,22.6746 -22.309,29.0284 -1.6869,6.3539 -13.3855,144.1783 -8.6575,181.5168 0,39.3384 0.7406,137.007 -2.4326,150.9333 -3.1732,13.9263 -6.3809,32.405 -6.3809,48.0717 0,0 1.8606,13.4637 -7.7947,14.3201 -9.6553,0.8564 -501.6557,2.5487 -501.6557,2.5487 z"
         id="path3464" />
      <g
         id="g3466"
         style="fill:#00ff00;stroke:none" />
    </g>
    <path
       style="opacity:1;fill:#000000;fill-opacity:1;fill-rule:evenodd;stroke:none;stroke-width:2;stroke-linecap:square;stroke-linejoin:miter;stroke-miterlimit:4;stroke-dasharray:none;stroke-dashoffset:0;stroke-opacity:1"
       d="M 236.60754,281.51954 A 140.14806,139.31217 0 0 0 96.458547,420.83338 140.14806,139.31217 0 0 0 236.60754,560.1428 140.14806,139.31217 0 0 0 376.75213,420.83338 140.14806,139.31217 0 0 0 236.60754,281.51954 Z m -19.38529,8.26095 h 8.12398 v 16.84889 h 14.80078 v 3.5704 c 0,5.15006 -0.0664,10.41646 -0.19664,15.79944 l -0.54572,16.57714 c -0.20828,5.69353 -0.46969,9.31528 -0.78213,10.86805 -0.31241,1.55278 -0.91105,2.9651 -1.79624,4.23321 -0.8852,1.29398 -1.95174,2.25112 -3.20143,2.87222 -1.22363,0.62112 -2.64334,0.93017 -4.25752,0.93017 h -2.06799 c -2.68161,0 -4.94765,-0.10226 -6.79612,-0.30932 l -2.10998,-8.73378 c 2.65556,0.56937 5.14403,0.85284 7.46114,0.85284 h 0.62307 c 0.96329,0 1.88761,-0.41353 2.77279,-1.24169 0.88519,-0.85401 1.3943,-1.87617 1.52448,-3.06664 l 0.62306,-10.44384 c 0.28637,-5.77115 0.43083,-12.00638 0.43083,-18.70923 v -5.08604 h -6.63926 c -1.06742,19.28037 -7.2257,35.20964 -18.4728,47.78716 l -6.48238,-5.31803 c 10.2057,-11.46469 15.80433,-25.62146 16.79366,-42.46913 h -13.35584 v -8.11293 h 13.55026 z m 27.65067,10.01743 h 26.5548 v 60.40284 h -8.16153 v -6.75635 h -10.23174 v 6.75635 h -8.16153 z m 8.16153,8.11293 v 37.42063 h 10.23174 v -37.42063 z m -58.326,66.5052 h 79.65115 c 3.20501,0 5.78201,3.30004 5.78201,7.39929 v 75.05559 c 0,4.09925 -2.577,7.39929 -5.78201,7.39929 h -79.65115 c -3.20501,0 -5.78642,-3.30004 -5.78642,-7.39929 v -75.05559 c 0,-4.09925 2.58141,-7.39929 5.78642,-7.39929 z m -54.422,5.06837 h 8.70506 v 4.10948 h 30.09205 v 11.49774 h -6.8381 v 1.54216 h -7.79035 v 2.33091 h 13.43537 v 4.86069 h -13.43537 v 3.39807 h 3.57702 v -2.0172 h 7.55394 v 6.79834 h -30.37044 v -6.79834 h 7.59372 v 2.0172 h 3.89517 v -3.39807 h -13.83306 v -4.86069 h 4.25309 l -4.17356,-2.80593 c 2.43806,-1.68594 4.53009,-4.00485 6.27912,-6.9552 h -29.97053 v 2.80594 h 21.58365 v 5.17663 h -9.85835 v 2.37068 h 8.38689 v 5.01756 h -8.38689 v 2.33313 l 11.48889,-1.06714 v 5.01755 c -8.8512,1.10638 -19.10788,2.10692 -30.76813,3.00257 l -1.71008,-5.64944 c 4.5051,-0.15805 8.91914,-0.40874 13.23873,-0.75119 v -2.88548 h -9.6595 v -5.01756 h 9.6595 v -2.37068 h -5.84386 v -2.01498 h -6.51995 V 383.5939 h 29.41597 z m 159.21614,0.517 c 4.94382,2.48388 8.74714,5.76976 11.40715,9.85614 l -6.77182,5.72898 c -1.74645,-3.49879 -5.54757,-6.82386 -11.40493,-9.97545 z m 11.8888,1.0826 h 45.98648 v 7.37057 c -3.38544,2.1901 -8.209,4.92945 -14.46936,8.21456 h 15.8392 v 34.21259 c 0,5.95595 -2.57856,8.93482 -7.73732,8.93482 h -6.04493 l -2.45906,-8.0135 c 2.63311,0.21366 4.78338,0.32036 6.44924,0.32036 1.15534,0 1.73217,-0.73381 1.73217,-2.20277 v -2.88548 h -10.68025 v 11.65901 h -8.0599 v -11.65901 h -10.31791 v 12.78139 h -8.18141 v -43.14741 h 15.27359 c -2.28384,-1.282 -4.95709,-2.45787 -8.02012,-3.52621 l 5.11918,-4.68835 h -14.4296 z m 16.84669,7.37057 c 3.73474,1.84289 6.28749,3.21909 7.65778,4.12717 3.30485,-1.92301 5.45512,-3.29921 6.44925,-4.12717 z m -170.54153,0.74899 c -0.74201,1.26444 -1.31036,2.12172 -1.70788,2.56953 h 14.8273 v -2.56953 z m 139.14592,6.38296 c 5.05131,2.53728 8.90846,5.8493 11.56843,9.93568 l -6.77182,5.76875 c -1.93452,-3.79259 -5.72275,-7.2374 -11.36516,-10.33558 z m -143.63765,1.04726 c -0.4505,0.68489 -1.07192,1.4616 -1.86694,2.33091 h 5.36664 v -2.33091 z m 168.42493,7.40591 v 4.28625 h 10.31791 v -4.28625 z m 18.37781,0 v 4.28625 h 10.68025 v -4.28625 z m -50.66158,9.85614 h 17.73486 v 21.83331 c 3.22423,4.86092 8.26082,7.29103 15.11232,7.29103 h 41.59198 l -3.62562,7.81245 h -36.39328 c -5.07816,0 -9.12252,-0.55961 -12.13182,-1.68136 -2.9824,-1.12175 -5.73752,-3.05978 -8.26316,-5.81073 -3.19737,3.76587 -6.24514,7.05179 -9.14692,9.85615 l -5.28048,-5.80853 c 4.43331,-4.11307 7.87286,-8.02608 10.31791,-11.73855 V 421.7083 h -9.91579 z m -170.40456,0.43968 h 51.87455 v 27.54019 h -11.17074 c 8.18868,1.34348 15.38472,3.09609 21.58587,5.25617 l -4.0167,6.16423 c -9.1692,-3.10842 -18.39093,-5.13638 -27.66613,-6.08469 l 3.34062,-5.33571 H 134.5619 l 4.33263,4.78115 c -7.31416,3.05573 -16.32357,5.2023 -27.02982,6.4404 l -3.7361,-6.71658 c 9.69921,-0.50052 17.72897,-2.00243 24.08911,-4.50497 h -13.2763 z m 202.68833,1.20192 v 4.28623 h 10.31791 v -4.28623 z m 18.37781,0 v 4.28623 h 10.68025 v -4.28623 z m -212.52017,4.33042 v 2.48779 h 34.74285 v -2.48779 z m 0,7.11206 v 2.33093 h 34.74285 v -2.33093 z m 0,6.95299 v 2.45023 h 34.74285 v -2.45023 z M 234.787,471.55903 h 8.97018 v 6.67682 h 30.35497 v 16.41144 h -8.80668 v -8.67412 h -28.34883 c 3.68685,2.74187 6.78685,5.55128 9.29937,8.42887 l -6.43158,5.57874 c -2.4579,-3.52912 -5.65174,-6.5834 -9.58438,-9.16239 l 5.61189,-4.84522 h -22.65522 v 8.67412 h -8.80667 V 478.23585 H 234.787 Z m 22.653,16.08445 6.18633,5.3335 c -7.97453,8.11698 -17.42485,14.98542 -28.34884,20.60488 h 10.56977 c 1.82979,0 3.12609,-0.52983 3.89077,-1.58856 0.76469,-1.08589 1.31165,-3.33801 1.63937,-6.75856 l 7.98699,3.01363 c -0.8193,8.90424 -5.18847,13.35583 -13.10838,13.35583 h -14.33682 c -3.63223,0 -6.14567,-0.94982 -7.53847,-2.85012 -5.1616,2.09032 -11.21128,4.28975 -18.14803,6.59727 l -4.66846,-7.1673 c 6.69094,-1.52024 13.76345,-3.85474 21.21909,-7.00381 v -17.26648 h 8.56143 v 13.47957 c 10.29587,-5.40228 18.99463,-11.98576 26.09525,-19.74985 z m -41.9477,6.35204 6.6768,4.80544 c -3.52298,5.83663 -7.76898,10.92565 -12.73941,15.26918 l -6.34982,-5.82177 c 4.8885,-3.71918 9.02598,-8.47052 12.41243,-14.25285 z m 48.82998,4.39671 c 5.46202,4.69646 9.76228,9.7602 12.90291,15.18963 l -6.88228,4.92697 c -3.2499,-5.94522 -7.41451,-11.00676 -12.49417,-15.18743 z m -29.37178,25.37056 h 8.56143 v 11.68552 h 16.7539 v -9.12041 h 8.56143 v 20.60488 h -8.56143 v -3.5019 h -42.11121 v 3.5019 h -8.56143 V 526.3279 h 8.56143 v 9.12041 h 16.79588 z"
       id="path5397"
       inkscape:connector-curvature="0" />
    <g
       id="g5376"
       transform="matrix(0.24544297,0,0,0.2332925,175.35757,326.97231)"
       style="stroke-width:4.17901897">
      <path
         sodipodi:nodetypes="sccscccccccscccccccccccccccccsccsscscscsccccccscccccssccccccscscscccccccccsscsccsscccccccsccccccccsccccccccccccccccccscc"
         inkscape:connector-curvature="0"
         id="path3627"
         transform="translate(112.14773,323.45871)"
         d="m 111.06445,46.208984 c -2.0787,0.0519 -4.1118,1.09646 -5.3125,2.96875 l -10.218747,15.9375 c -1.0304,1.6068 -4.44415,4.53504 -3.96875,6.25 0.4109,1.48232 3.82995,3.20313 5.21875,4.09375 l 13.156247,5.65625 c 2.9956,1.92099 5.67275,1.05814 7.59375,-1.9375 l 10.1875,-15.90625 c 0.8565,-1.33574 2.1964,-3.22073 2,-4.6875 -0.2439,-1.82275 -2.2776,-3.18557 -3.9375,-4.25 l -11.09375,-7.125 c -1.1234,-0.72038 -2.3777,-1.03114 -3.625,-1 z m 25.5,12.65625 c -2.1871,0.017 -4.3004,1.12128 -5.5,3.125 l -9.5625,15.96875 c -0.9707,1.62133 -3.2588,4.25091 -2.75,5.9375 0.4494,1.48963 3.53685,2.0802 4.96875,2.9375 2.2629,1.16813 10.73195,3.43797 10.84375,6.46875 0.1263,3.42537 -3.22415,9.716466 -0.84375,13.374996 1.1972,0.71679 4.88305,-4.12156 7.28125,-7.656246 1.0313,-1.52008 2.20755,-2.45598 2.59375,-2.9375 0.9123,-1.13739 1.91575,-1.94007 2.71875,-3.28125 l 9.5625,-15.9375 c 1.828,-3.0533 0.83455,-7.04701 -2.21875,-8.875 l -13.71875,-8.21875 c -1.0496,-0.62837 -2.2293,-0.91514 -3.375,-0.90625 z m -50.749997,14.875 c -0.15143,0.008 -0.31393,0.0089 -0.46875,0.03125 -1.47272,0.45237 -2.77554,1.15068 -3.96875,2 -0.0769,0.0649 -0.17221,0.11987 -0.25,0.1875 -1.79848,1.56356 -3.8325,3.82714 -5.96875,6.5625 -2.00209,2.87071 -3.80381,5.92382 -5.9375,8.375 -8.31476,12.535886 -16.25,27.823556 -16.25,30.937496 0,5.51882 17.46765,23.80544 25.96875,38.625 8.3328,14.5262 18.7216,24.99629 17.75,27.21875 -2.5774,14.88246 -3.969,21.32937 -6.5,39.59375 -2.5309,18.26444 0.09375,18.28125 0.09375,18.28125 0,0 67.733197,-0.22585 69.062497,-0.34375 1.3292,-0.1179 1.0625,-2 1.0625,-2 0,-2.15679 0.4382,-4.67657 0.875,-6.59375 0.4368,-1.9172 0.34375,-15.36566 0.34375,-20.78125 -0.6509,-5.14025 0.9553,-24.12528 1.1875,-25 0.2323,-0.87472 1.55385,-2.46006 3.09375,-4 1.54,-1.53993 4.0625,-6.34375 4.0625,-6.34375 3.0818,-4.10847 3.77435,-3.18836 5.28125,-6.40625 1.03581,-2.21206 2.5306,-9.35086 3.59375,-14.0625 -2.304,-1.43065 -3.61017,-7.32567 -5.90411,-8.78091 -2.92845,-1.85775 -6.84629,0.72826 -9.81464,-1.03159 l -0.875,0.78125 c -0.504,0.70604 -1.41945,0.6526 -1.90625,-0.5 -0.4867,-1.1526 -1.71875,-1.96875 -1.71875,-1.96875 -1.5294,-0.57564 -4.90075,-4.3154 -9.40625,-8.3125 -3.8809,-4.8182 -8.6393,-4.45753 -11.1875,-5.46875 -2.5482,-1.0112 -19.8456,-4.65823 -22.0625,-4.78125 -2.2169,-0.123 0,2.78125 0,2.78125 4.0212,5.29636 17.09645,20.99068 17.15625,21.0625 -0.08,-0.0637 -0.26715,-0.007 1.90625,5.03125 2.4839,5.7586 4.2096,12.12062 5.8125,14.875 1.3276,5.64538 4.1549,7.41013 5.6875,8.21875 1.5325,0.80864 0.96875,1.5 0.96875,1.5 -1.0114,0.54748 -3.19625,2.75 -4.40625,2.75 -1.21,0 -2.625,1.78125 -2.625,1.78125 -1.4872,1.33167 0.5625,35.72744 0.5625,37.28125 0,1.55378 -0.84375,1.9375 -0.84375,1.9375 0,0 -0.76585,-0.75364 -0.53125,-1.5625 0.2346,-0.80886 -0.3793,-10.01365 -0.75,-12.125 -0.83855,-1.74005 -0.53125,-3.90625 -0.53125,-3.90625 0.5411,-2.58034 -1.9293,-18.54695 -2.5625,-20.65625 -0.6333,-2.10929 -0.0375,-4.38104 -0.90625,-5.25 -0.8689,-0.86897 -9.07,-0.0388 -9.75,-0.71875 -0.68,-0.67998 0,-0.6875 0,-0.6875 4.1216,-0.38445 13.4681,-7.32396 13.5,-9.40625 0.032,-2.08229 -29.3869,-45.57974 -32.125,-47.1875 -2.738,-1.60777 -7.505847,-2.57846 -8.843747,-3.25 -1.3378,-0.67155 -3.58615,-2.54209 -7.03125,-3 -3.4451,-0.45792 -3.91175,-1.15223 -4.15625,-1.65625 -0.2445,-0.50403 2.75,-0.9375 2.75,-0.9375 3.9754,-2.7703 6.46935,-9.64998 5.40625,-12.34375 -1.0631,-2.69378 -0.1875,-3.28125 -0.1875,-3.28125 3.2801,1.52799 12.437497,11.5 12.437497,11.5 6.2866,1.37555 17.5393,-3.05419 21.25,-4.78125 3.7107,-1.72705 4.60115,-12.179666 3.96875,-14.343746 -0.2631,-0.90034 -7.27809,-4.33557 -15.75,-8.09375 -0.31133,-0.0678 -0.6368,-0.17917 -0.90625,-0.375 -7.51051,-3.31047 -15.932497,-6.77709 -22.124997,-9.03125 0.21098,0.42886 0.45237,0.84528 0.65625,1.25 -1.50185,-0.64224 -2.91647,-1.74478 -4.40625,-2.5625 -0.046,-0.015 -0.0796,-0.01645 -0.125,-0.03125 -1.5937,-0.51796 -2.8393,-0.86507 -3.65625,-1 z m 73.062497,7.5 c -1.8667,0.0408 -3.6965,0.86681 -4.9375,2.4375 l -24.5625,35.156246 c -2.2062,2.79234 -1.7299,6.88761 1.0625,9.09375 l 11.5625,5.53125 c 2.7923,2.20612 6.88755,1.72983 9.09375,-1.0625 l 23.75,-30.0625 c 2.2061,-2.792338 1.7299,-6.887626 -1.0625,-9.093746 l -10.75,-10.625 c -1.2216,-0.96519 -2.70425,-1.40673 -4.15625,-1.375 z m -42.21875,1.78125 c -0.96483,0.14458 0.28385,0.90069 0,0 z m 63.28125,19.281246 c -0.5524,0.0164 -1.0914,0.19935 -1.5,0.59375 l -26.4375,31.6875 c -1.6343,1.57759 -1.82955,4.08796 -0.40625,5.5625 l 7.21875,7.46875 c 1.4234,1.47456 3.9282,1.39009 5.5625,-0.1875 l 28.9375,-27.9375 c 1.6343,-1.5776 1.7983,-4.08795 0.375,-5.5625 l -8.96875,-9.1875 c -1.0675,-1.10591 -3.12385,-2.48675 -4.78125,-2.4375 z m -49.125,8.125 -15.375,4.25 c -2.5468,0.68833 -7.98245,2.3625 -9.53125,-0.21875 -1.5487,-2.58125 -1.58855,-3.29107 -3.53125,-3.1875 -3.196891,0.63065 -2.3702,3.38197 -1.625,4.25 1.5067,1.75494 11.74525,8.63801 17.15625,10.53125 0.6636,0.23216 1.2347,-0.17317 2.25,-1.6875 1.0153,-1.51433 9.92715,-11.50013 10.71875,-12.6875 0.6195,-1.22179 -0.0625,-1.25 -0.0625,-1.25 z"
         style="fill:#000000;stroke:none;stroke-width:4.17901897" />
      <g
         transform="translate(232.51232,61.576355)"
         id="g4357"
         style="stroke-width:4.17901897">
        <path
           style="font-style:normal;font-variant:normal;font-weight:normal;font-stretch:normal;font-size:medium;line-height:125%;font-family:Aparajita;-inkscape-font-specification:'Aparajita, Normal';text-align:start;letter-spacing:0px;word-spacing:0px;writing-mode:lr-tb;text-anchor:start;fill:#000000;fill-opacity:1;stroke:none;stroke-width:4.17901897px;stroke-linecap:butt;stroke-linejoin:miter;stroke-opacity:1"
           d="m -68.555114,328.5004 -0.871723,-0.63779 0.491387,-0.67163 c 0.319217,-0.43629 0.436226,-1.00283 0.35115,-1.69967 -0.06122,-0.48549 -0.252117,-0.91601 -0.572403,-1.29138 -0.4391,-0.49754 -1.462718,-1.33445 -3.070804,-2.51101 l -2.231469,-1.64769 1.944552,-2.66081 2.239557,1.63857 c 1.918091,1.40335 3.203233,2.16762 3.855596,2.29238 1.035392,0.21107 1.830373,-0.0623 2.38484,-0.81993 l 0.503985,-0.68884 0.871723,0.6378 -5.896893,8.05978 z m 7.817003,-11.12405 -0.871733,-0.6378 0.491392,-0.67161 c 0.31921,-0.43629 0.436229,-1.00283 0.351153,-1.69967 -0.06122,-0.4855 -0.252117,-0.91602 -0.572404,-1.29138 -0.439105,-0.49753 -1.46273,-1.33447 -3.070806,-2.51101 l -2.336995,-1.70985 1.652617,-2.85929 2.637586,1.89952 c 1.928541,1.38895 3.203233,2.16763 3.855596,2.29239 1.035392,0.21107 1.830377,-0.0623 2.384849,-0.81994 l 0.503976,-0.68883 0.871733,0.6378 -5.896906,8.05978 z m -21.984302,12.10547 -1.059235,-0.77499 1.059019,-1.44744 c 1.067508,-1.45905 1.45322,-2.87497 1.157005,-4.24787 -0.215847,-0.98892 -1.523843,-2.36125 -3.924217,-4.11747 l -24.886339,-18.20796 c -2.16503,-1.58404 -3.73199,-2.40537 -4.70084,-2.46387 -1.52846,-0.0344 -2.88661,0.76028 -4.07464,2.38406 l -1.05901,1.44745 -1.05892,-0.77475 13.32666,-18.21468 c 3.16808,-4.33007 5.91831,-7.24993 8.25083,-8.75896 2.349737,-1.53256 4.834316,-2.26168 7.453875,-2.18775 2.660309,0.0676 4.955397,0.80729 6.885095,2.21914 2.518036,1.84231 3.976156,4.31841 4.374601,7.42811 0.283059,2.23041 -0.265732,4.88188 -1.646559,7.95434 2.399654,-1.74895 4.794952,-2.65223 7.185492,-2.70973 2.390533,-0.0575 4.550481,0.61957 6.48019,2.03143 2.259183,1.65291 3.696681,3.86092 4.312667,6.62395 0.656716,2.75671 0.284684,5.80865 -1.116219,9.15547 -0.906764,2.227 -2.49642,4.89367 -4.76917,8.00004 z m 9.922288,-17.562 c 2.565459,-3.50643 3.719646,-6.76285 3.462389,-9.76926 -0.240028,-3.02992 -1.477739,-5.3629 -3.713383,-6.9986 -1.459044,-1.0675 -3.087808,-1.68104 -4.886029,-1.84054 -1.757469,-0.1658 -3.458616,0.23374 -5.103538,1.19807 -1.604185,0.95799 -3.413524,2.81371 -5.428012,5.56708 -0.792024,1.08252 -1.488551,2.10825 -2.089434,3.07768 -0.583682,0.94591 -1.054375,1.81175 -1.412496,2.59751 l 14.790469,10.82138 c 1.52554,-1.1962 2.985389,-2.74714 4.380034,-4.65332 z m -17.868154,-12.9108 c 1.980051,-2.70631 3.241326,-5.26997 3.784195,-7.69096 0.542866,-2.42098 0.421449,-4.5512 -0.364383,-6.39071 -0.762296,-1.82229 -1.8965,-3.28468 -3.402617,-4.38663 -2.282706,-1.67013 -4.863607,-2.16728 -7.742554,-1.4916 -2.838212,0.66935 -5.514102,2.7222 -8.027902,6.15803 -1.56682,2.1415 -2.892,4.49564 -3.97554,7.063 l 15.778998,11.54462 c 0.455707,-0.42532 1.008377,-1.03258 1.658063,-1.82181 0.666886,-0.81276 1.430847,-1.80729 2.29174,-2.98394 z m -14.434071,-20.8263 -2.08756,2.54107 -2.28254,-1.63983 c -1.60807,-1.17654 -2.71557,-1.89882 -3.32268,-2.16674 -0.45469,-0.19166 -0.9228,-0.24327 -1.40406,-0.15468 -0.6899,0.12982 -1.19445,0.41277 -1.51366,0.84912 l -0.49137,0.67162 -0.87173,-0.6378 5.8969,-8.05978 0.87172,0.63779 -0.50398,0.68884 c -0.55443,0.75777 -0.57436,1.59821 -0.0598,2.52115 0.31636,0.58402 1.43375,1.57754 3.35183,2.9809 l 2.41692,1.76833 z m -8.12325,10.73055 -1.94498,2.6152 -2.24773,-1.58419 c -1.60809,-1.17654 -2.71557,-1.89883 -3.32268,-2.16675 -0.4547,-0.19165 -0.9228,-0.24326 -1.40405,-0.15468 -0.68992,0.12982 -1.19446,0.41278 -1.51366,0.84912 l -0.49139,0.67162 -0.87173,-0.63778 5.8969,-8.05979 0.87172,0.63779 -0.50398,0.68884 c -0.55442,0.75777 -0.57435,1.59821 -0.0598,2.52114 0.31636,0.58401 1.43375,1.57755 3.35183,2.9809 l 2.23956,1.63857 z"
           id="path4197"
           inkscape:connector-curvature="0" />
        <path
           style="fill:#000000;stroke-width:4.17901897"
           d="m -118.79865,340.37527 c 3.49638,2.44151 8.30526,1.5876 10.74707,-1.90921 0.4895,-0.70098 0.8141,-1.4636 1.0424,-2.24053 13.425591,6.21312 29.040736,4.69472 40.927238,-3.53884 l 7.002703,4.88998 3.4141,-4.88916 5.176964,3.61507 2.410432,-3.45187 0.952384,0.66505 4.991968,-6.7731 -1.133706,-0.79167 2.410436,-3.45187 -5.176964,-3.61506 3.414683,-4.89001 -7.127474,-4.9771 c 3.619839,-13.97321 -0.202816,-29.10369 -10.649992,-39.55393 0.650763,-0.48193 1.2555,-1.05017 1.744996,-1.75115 2.441815,-3.4968 1.586596,-8.30472 -1.909783,-10.74623 -3.496809,-2.44182 -8.303844,-1.58786 -10.745659,1.90895 -0.489496,0.70098 -0.815081,1.46415 -1.043808,2.24079 -15.9865,-7.39956 -35.046788,-3.80108 -47.246738,9.00752 -0.46489,-0.59895 -0.99386,-1.16297 -1.6497,-1.62094 -3.4968,-2.44181 -8.30441,-1.58702 -10.74624,1.90979 -2.43,3.49809 -1.57595,8.3072 1.92043,10.74872 l -0.002,-0.006 c 0.74612,0.52102 1.56269,0.86445 2.39401,1.09018 -6.70919,15.48597 -3.25659,33.65528 8.7173,45.63347 -0.65034,0.48222 -1.25492,1.04934 -1.74442,1.75031 -2.44141,3.49645 -1.58749,8.30532 1.90931,10.74714 z m 9.13841,-12.71987 c -16.08535,-11.2326 -20.01948,-33.37809 -8.78716,-49.46364 11.2326,-16.08536 33.37809,-20.01948 49.463641,-8.78716 16.085358,11.2326 20.019488,33.37809 8.787162,49.46364 -11.232596,16.08536 -33.378084,20.01948 -49.463643,8.78716 z"
           id="path4136"
           inkscape:connector-curvature="0" />
        <path
           inkscape:connector-curvature="0"
           id="path4156"
           style="font-style:normal;font-variant:normal;font-weight:bold;font-stretch:normal;font-size:medium;line-height:125%;font-family:'DejaVu Sans';-inkscape-font-specification:'DejaVu Sans, Bold';text-align:start;letter-spacing:0px;word-spacing:0px;writing-mode:lr-tb;text-anchor:start;fill:#000000;fill-opacity:1;stroke:none;stroke-width:4.17901897px;stroke-linecap:butt;stroke-linejoin:miter;stroke-opacity:1"
           d="m 155.60865,468.74471 -1.49097,-1.04114 -2.955,4.23172 1.75091,0.75296 -0.80229,1.14892 -1.74214,-0.74684 -1.60498,-1.12076 3.75729,-5.38064 -1.49096,-1.04114 0.81453,-1.16646 4.57815,3.19692 z" />
        <path
           inkscape:connector-curvature="0"
           id="path4158"
           style="font-style:normal;font-variant:normal;font-weight:bold;font-stretch:normal;font-size:medium;line-height:125%;font-family:'DejaVu Sans';-inkscape-font-specification:'DejaVu Sans, Bold';text-align:start;letter-spacing:0px;word-spacing:0px;writing-mode:lr-tb;text-anchor:start;fill:#000000;fill-opacity:1;stroke:none;stroke-width:4.17901897px;stroke-linecap:butt;stroke-linejoin:miter;stroke-opacity:1"
           d="m 147.77726,463.38695 -2.88108,-2.01185 0.86659,-1.24101 4.75794,3.32246 -0.86659,1.24101 -3.86284,0.44039 q -0.52223,0.0659 -0.86862,0.23498 -0.3464,0.16909 -0.55463,0.46729 -0.32153,0.46044 -0.20616,0.95851 0.11098,0.49501 0.62405,0.85328 0.39467,0.2756 0.98331,0.43223 0.58558,0.16101 1.3533,0.20132 l -1.00439,1.43835 q -0.70176,-0.20952 -1.32604,-0.50194 -0.62735,-0.28804 -1.16235,-0.66163 -1.17523,-0.82066 -1.4629,-1.79132 -0.29206,-0.97372 0.35406,-1.89899 0.37359,-0.535 0.97444,-0.80691 0.5978,-0.26753 2.02562,-0.42515 z" />
        <path
           inkscape:connector-curvature="0"
           id="path4160"
           style="font-style:normal;font-variant:normal;font-weight:bold;font-stretch:normal;font-size:medium;line-height:125%;font-family:'DejaVu Sans';-inkscape-font-specification:'DejaVu Sans, Bold';text-align:start;letter-spacing:0px;word-spacing:0px;writing-mode:lr-tb;text-anchor:start;fill:#000000;fill-opacity:1;stroke:none;stroke-width:4.17901897px;stroke-linecap:butt;stroke-linejoin:miter;stroke-opacity:1"
           d="m 136.94127,461.05205 0.89416,-1.28047 q 0.16701,0.4428 0.41802,0.77464 0.24663,0.32879 0.59306,0.5707 0.65778,0.45933 1.29561,0.33065 0.63038,-0.12735 1.11114,-0.81583 0.48077,-0.68847 0.38627,-1.32853 -0.10195,-0.63874 -0.75973,-1.09807 -0.36836,-0.25722 -0.7738,-0.37725 -0.40983,-0.1231 -0.84053,-0.1042 l 0.89722,-1.28486 q 0.46328,0.12128 0.89073,0.32191 0.42612,0.19318 0.80763,0.45959 1.32871,0.92784 1.60395,2.13118 0.27216,1.20773 -0.57606,2.42243 -0.84822,1.2147 -2.07273,1.37077 -1.22757,0.16046 -2.55628,-0.76738 -0.3859,-0.26948 -0.70965,-0.59992 -0.33119,-0.32913 -0.60901,-0.72536 z" />
        <path
           inkscape:connector-curvature="0"
           id="path4162"
           style="font-style:normal;font-variant:normal;font-weight:bold;font-stretch:normal;font-size:medium;line-height:125%;font-family:'DejaVu Sans';-inkscape-font-specification:'DejaVu Sans, Bold';text-align:start;letter-spacing:0px;word-spacing:0px;writing-mode:lr-tb;text-anchor:start;fill:#000000;fill-opacity:1;stroke:none;stroke-width:4.17901897px;stroke-linecap:butt;stroke-linejoin:miter;stroke-opacity:1"
           d="m 134.14794,456.83129 q 0.4429,0.30928 0.86865,0.17603 0.4183,-0.13193 0.81945,-0.7064 0.40115,-0.57445 0.38399,-1.01699 -0.0246,-0.4412 -0.46751,-0.75048 -0.44729,-0.31235 -0.86559,-0.18042 -0.42575,0.13325 -0.82689,0.70771 -0.40115,0.57447 -0.37655,1.01567 0.0172,0.44254 0.46445,0.75488 z m -4.28294,1.68659 0.84516,-1.21032 q 0.2788,0.48824 0.58285,0.83756 0.30099,0.35369 0.65181,0.59867 0.75425,0.52669 1.4692,0.39968 0.71188,-0.12262 1.35774,-0.89804 -0.43947,0.0128 -0.85063,-0.11778 -0.41421,-0.12615 -0.81326,-0.40481 -1.00421,-0.70124 -1.20781,-1.71756 -0.20798,-1.01939 0.45651,-1.97098 0.73492,-1.05244 1.86742,-1.20753 1.12943,-0.15071 2.28712,0.65771 1.27609,0.89109 1.37754,2.24054 0.094,1.35077 -1.01145,2.93383 -1.13301,1.62252 -2.59478,1.97823 -1.46921,0.35703 -2.8944,-0.63818 -0.45168,-0.3154 -0.82805,-0.68259 -0.37636,-0.3672 -0.69497,-0.79843 z" />
        <path
           inkscape:connector-curvature="0"
           id="path4164"
           style="font-style:normal;font-variant:normal;font-weight:bold;font-stretch:normal;font-size:medium;line-height:125%;font-family:'DejaVu Sans';-inkscape-font-specification:'DejaVu Sans, Bold';text-align:start;letter-spacing:0px;word-spacing:0px;writing-mode:lr-tb;text-anchor:start;fill:#000000;fill-opacity:1;stroke:none;stroke-width:4.17901897px;stroke-linecap:butt;stroke-linejoin:miter;stroke-opacity:1"
           d="m 127.21622,455.02431 2.78964,-3.99492 -0.60516,-0.42258 q -1.0349,-0.72267 -1.93694,-0.58932 -0.90642,0.1303 -1.58929,1.1082 -0.6798,0.97351 -0.49125,1.86191 0.18855,0.88839 1.22784,1.61413 z m 0.7972,2.45503 -1.78039,-1.24325 q -1.49096,-1.04114 -2.06886,-1.76433 -0.58534,-0.72188 -0.75197,-1.59496 -0.15116,-0.76443 0.0294,-1.49945 0.18056,-0.73502 0.69195,-1.46735 0.51751,-0.7411 1.14842,-1.16815 0.62785,-0.42268 1.39758,-0.54405 0.88144,-0.14123 1.76819,0.15835 0.8837,0.30395 2.35713,1.33285 l 1.78039,1.24324 z" />
        <path
           inkscape:connector-curvature="0"
           id="path4166"
           style="font-style:normal;font-variant:normal;font-weight:bold;font-stretch:normal;font-size:medium;line-height:125%;font-family:'DejaVu Sans';-inkscape-font-specification:'DejaVu Sans, Bold';text-align:start;letter-spacing:0px;word-spacing:0px;writing-mode:lr-tb;text-anchor:start;fill:#000000;fill-opacity:1;stroke:none;stroke-width:4.17901897px;stroke-linecap:butt;stroke-linejoin:miter;stroke-opacity:1"
           d="m 116.14629,448.88593 0.96765,-1.38573 q 0.37096,0.61784 0.79829,1.0989 0.42732,0.48106 0.88338,0.79952 0.60516,0.42258 1.01095,0.45805 0.40578,0.0355 0.65076,-0.31535 0.18373,-0.26311 0.0949,-0.54694 -0.0963,-0.28251 -0.53585,-0.74603 l -0.61813,-0.64691 q -0.9388,-0.98174 -1.0869,-1.75056 -0.14811,-0.76882 0.42758,-1.59324 0.75636,-1.08314 1.77151,-1.16361 1.0077,-0.0791 2.32764,0.84257 0.6227,0.43483 1.16711,0.99112 0.5444,0.55629 1.00919,1.2266 l -0.99521,1.42519 q -0.39436,-0.77117 -0.85816,-1.34946 -0.47126,-0.57697 -1.01502,-0.95668 -0.55254,-0.38583 -0.97496,-0.40682 -0.42242,-0.021 -0.66127,0.32106 -0.21435,0.30696 -0.12899,0.61446 0.081,0.30443 0.58549,0.85244 l 0.55234,0.60098 q 0.8353,0.89642 0.96983,1.67533 0.13015,0.77585 -0.41492,1.55642 -0.68287,0.9779 -1.68179,1.06317 -0.99893,0.0853 -2.18294,-0.74152 -0.53938,-0.37665 -1.05127,-0.85805 -0.51496,-0.47702 -1.0112,-1.06491 z" />
        <path
           inkscape:connector-curvature="0"
           id="path4168"
           style="font-style:normal;font-variant:normal;font-weight:bold;font-stretch:normal;font-size:medium;line-height:125%;font-family:'DejaVu Sans';-inkscape-font-specification:'DejaVu Sans, Bold';text-align:start;letter-spacing:0px;word-spacing:0px;writing-mode:lr-tb;text-anchor:start;fill:#000000;fill-opacity:1;stroke:none;stroke-width:4.17901897px;stroke-linecap:butt;stroke-linejoin:miter;stroke-opacity:1"
           d="m 115.29839,446.16717 -1.5699,-1.09626 3.42964,-4.91142 1.5699,1.09626 z m -1.33511,1.91195 -1.5699,-1.09626 0.89416,-1.28048 1.5699,1.09626 z" />
        <path
           inkscape:connector-curvature="0"
           id="path4170"
           style="font-style:normal;font-variant:normal;font-weight:bold;font-stretch:normal;font-size:medium;line-height:125%;font-family:'DejaVu Sans';-inkscape-font-specification:'DejaVu Sans, Bold';text-align:start;letter-spacing:0px;word-spacing:0px;writing-mode:lr-tb;text-anchor:start;fill:#000000;fill-opacity:1;stroke:none;stroke-width:4.17901897px;stroke-linecap:butt;stroke-linejoin:miter;stroke-opacity:1"
           d="m 110.99886,445.59808 -1.6883,-1.17894 2.74065,-3.92475 q 0.5665,-0.81126 0.54836,-1.34581 -0.0256,-0.53322 -0.62636,-0.95274 -0.60515,-0.42258 -1.11018,-0.25988 -0.51247,0.16402 -1.07897,0.97529 l -2.74065,3.92475 -1.6883,-1.17894 2.74065,-3.92475 q 0.97071,-1.39011 2.14259,-1.58293 1.17189,-0.19282 2.60146,0.80545 1.42519,0.99521 1.6478,2.1618 0.22261,1.16659 -0.7481,2.5567 z" />
        <path
           inkscape:connector-curvature="0"
           id="path4172"
           style="font-style:normal;font-variant:normal;font-weight:bold;font-stretch:normal;font-size:medium;line-height:125%;font-family:'DejaVu Sans';-inkscape-font-specification:'DejaVu Sans, Bold';text-align:start;letter-spacing:0px;word-spacing:0px;writing-mode:lr-tb;text-anchor:start;fill:#000000;fill-opacity:1;stroke:none;stroke-width:4.17901897px;stroke-linecap:butt;stroke-linejoin:miter;stroke-opacity:1"
           d="m 102.19058,437.37932 3.76441,-1.44851 -1.85055,-1.29224 z m -0.69006,1.58608 -1.876865,-1.31061 2.884575,-4.13086 -0.93405,-0.65224 0.85435,-1.22347 0.93405,0.65224 0.83291,-1.19277 1.59621,1.11464 -0.83291,1.19277 2.903,2.02716 -1.01052,1.44711 z" />
        <path
           inkscape:connector-curvature="0"
           id="path4174"
           style="font-style:normal;font-variant:normal;font-weight:bold;font-stretch:normal;font-size:medium;line-height:125%;font-family:'DejaVu Sans';-inkscape-font-specification:'DejaVu Sans, Bold';text-align:start;letter-spacing:0px;word-spacing:0px;writing-mode:lr-tb;text-anchor:start;fill:#000000;fill-opacity:1;stroke:none;stroke-width:4.17901897px;stroke-linecap:butt;stroke-linejoin:miter;stroke-opacity:1"
           d="m 97.085825,431.56406 q -0.530607,-0.37052 -0.896436,-0.33242 -0.370218,0.035 -0.685623,0.48671 -0.31234,0.44729 -0.214658,0.80254 0.0933,0.35218 0.623903,0.7227 l 0.7104,0.49607 1.172815,-1.67953 z m 1.524939,-0.67039 1.730126,-2.47764 1.68831,1.17894 -4.571835,6.5471 -2.578496,-1.80056 q -1.293633,-0.90334 -1.591248,-1.75699 -0.302003,-0.85672 0.353302,-1.79515 0.453204,-0.64901 1.059844,-0.84513 0.60226,-0.19918 1.371523,0.0444 -0.291311,-0.32084 -0.367215,-0.79135 -0.08335,-0.46919 0.03102,-1.23085 l 0.381855,-2.49932 1.79793,1.25549 -0.337956,2.18422 q -0.101783,0.65956 0.02262,1.0139 0.120022,0.35128 0.53223,0.63912 l 0.477986,0.33378 z" />
        <path
           inkscape:connector-curvature="0"
           id="path4176"
           style="font-style:normal;font-variant:normal;font-weight:bold;font-stretch:normal;font-size:medium;line-height:125%;font-family:'DejaVu Sans';-inkscape-font-specification:'DejaVu Sans, Bold';text-align:start;letter-spacing:0px;word-spacing:0px;writing-mode:lr-tb;text-anchor:start;fill:#000000;fill-opacity:1;stroke:none;stroke-width:4.17901897px;stroke-linecap:butt;stroke-linejoin:miter;stroke-opacity:1"
           d="m 90.165526,427.09694 q 0.499912,0.34909 1.024628,0.16752 0.520336,-0.18462 1.010285,-0.88625 0.489949,-0.70164 0.484061,-1.25373 -0.01027,-0.55514 -0.510184,-0.90423 -0.504301,-0.35216 -1.024632,-0.16753 -0.524724,0.18157 -1.014673,0.8832 -0.489949,0.70163 -0.479673,1.25678 0.0059,0.55208 0.510188,0.90424 z m 1.185171,-3.90195 q 0.627658,-0.20753 1.158806,-0.13671 0.531142,0.0708 1.044207,0.42908 0.907736,0.63388 0.98877,1.76032 0.07797,1.13083 -0.715132,2.26659 -0.793104,1.13577 -1.87547,1.44328 -1.085431,0.31191 -1.993167,-0.32196 -0.513065,-0.35828 -0.762486,-0.83253 -0.249426,-0.47426 -0.270774,-1.13499 l -0.508321,0.72794 -1.578673,-1.10238 4.734129,-6.77952 1.578674,1.10239 z" />
        <path
           inkscape:connector-curvature="0"
           id="path4178"
           style="font-style:normal;font-variant:normal;font-weight:bold;font-stretch:normal;font-size:medium;line-height:125%;font-family:'DejaVu Sans';-inkscape-font-specification:'DejaVu Sans, Bold';text-align:start;letter-spacing:0px;word-spacing:0px;writing-mode:lr-tb;text-anchor:start;fill:#000000;fill-opacity:1;stroke:none;stroke-width:4.17901897px;stroke-linecap:butt;stroke-linejoin:miter;stroke-opacity:1"
           d="m 82.856546,421.45815 q -0.542741,-0.6334 -0.587754,-1.29762 -0.05246,-0.66289 0.403803,-1.31628 0.679805,-0.97352 1.780499,-0.96163 1.097634,0.0163 2.527208,1.01454 0.504302,0.35215 0.9548,0.79068 0.449179,0.43109 0.831407,0.93936 l -0.909469,1.30241 q -0.308243,-0.56752 -0.687332,-1.01489 -0.386539,-0.44605 -0.838215,-0.76146 -0.670937,-0.46851 -1.18843,-0.48413 -0.521881,-0.0187 -0.825037,0.41544 -0.312343,0.4473 -0.103221,0.93255 0.201677,0.48657 0.916467,0.98571 l 0.675321,0.47158 -0.759421,1.08753 -0.710405,-0.49608 q -0.635854,-0.44402 -1.085003,-0.4641 -0.452206,-0.0157 -0.736989,0.39214 -0.263345,0.37712 -0.10469,0.79451 0.158651,0.4174 0.711189,0.80324 0.407824,0.28478 0.888725,0.48359 0.480897,0.19882 1.018659,0.30687 l -0.863536,1.23663 q -0.597901,-0.20876 -1.13804,-0.48156 -0.540138,-0.27281 -1.01374,-0.60352 -1.276091,-0.8911 -1.613593,-1.75303 -0.344945,-0.86061 0.242993,-1.70257 0.401145,-0.57446 0.960949,-0.73152 0.556738,-0.15268 1.252855,0.11161 z" />
        <path
           inkscape:connector-curvature="0"
           id="path4180"
           style="font-style:normal;font-variant:normal;font-weight:bold;font-stretch:normal;font-size:medium;line-height:125%;font-family:'DejaVu Sans';-inkscape-font-specification:'DejaVu Sans, Bold';text-align:start;letter-spacing:0px;word-spacing:0px;writing-mode:lr-tb;text-anchor:start;fill:#000000;fill-opacity:1;stroke:none;stroke-width:4.17901897px;stroke-linecap:butt;stroke-linejoin:miter;stroke-opacity:1"
           d="m 77.864302,422.46025 -2.802144,-1.95673 q -1.249781,-0.87272 -1.527434,-1.89509 -0.2851,-1.02105 0.431449,-2.04719 0.719611,-1.03052 1.779446,-1.11892 1.052382,-0.0871 2.302163,0.78563 l 1.113839,0.7778 1.586209,-2.27153 1.688304,1.17894 z m -0.833956,-2.40241 1.276927,-1.82862 -0.934046,-0.65225 q -0.491139,-0.34296 -0.923993,-0.29295 -0.43592,0.0544 -0.742136,0.49291 -0.306217,0.43852 -0.204079,0.86211 0.102142,0.4236 0.593281,0.76656 z" />
        <path
           inkscape:connector-curvature="0"
           id="path4182"
           style="font-style:normal;font-variant:normal;font-weight:bold;font-stretch:normal;font-size:medium;line-height:125%;font-family:'DejaVu Sans';-inkscape-font-specification:'DejaVu Sans, Bold';text-align:start;letter-spacing:0px;word-spacing:0px;writing-mode:lr-tb;text-anchor:start;fill:#000000;fill-opacity:1;stroke:none;stroke-width:4.17901897px;stroke-linecap:butt;stroke-linejoin:miter;stroke-opacity:1"
           d="m 69.77519,414.74368 3.764419,-1.44851 -1.850556,-1.29224 z m -0.690054,1.58609 -1.876866,-1.31061 2.884573,-4.13086 -0.934046,-0.65224 0.854348,-1.22347 0.934046,0.65224 0.832911,-1.19277 1.59621,1.11463 -0.832911,1.19277 2.903002,2.02717 -1.01052,1.44711 z" />
        <path
           inkscape:connector-curvature="0"
           id="path4184"
           style="font-style:normal;font-variant:normal;font-weight:bold;font-stretch:normal;font-size:medium;line-height:125%;font-family:'DejaVu Sans';-inkscape-font-specification:'DejaVu Sans, Bold';text-align:start;letter-spacing:0px;word-spacing:0px;writing-mode:lr-tb;text-anchor:start;fill:#000000;fill-opacity:1;stroke:none;stroke-width:4.17901897px;stroke-linecap:butt;stroke-linejoin:miter;stroke-opacity:1"
           d="m 65.362104,413.72998 -5.50342,-3.84303 0.713487,-1.02175 6.47979,-1.79646 -3.613401,-2.52323 0.891093,-1.27609 5.705145,3.98389 -0.713488,1.02176 -6.479795,1.79644 3.411682,2.38238 z" />
        <path
           inkscape:connector-curvature="0"
           id="path4186"
           style="font-style:normal;font-variant:normal;font-weight:bold;font-stretch:normal;font-size:medium;line-height:125%;font-family:'DejaVu Sans';-inkscape-font-specification:'DejaVu Sans, Bold';text-align:start;letter-spacing:0px;word-spacing:0px;writing-mode:lr-tb;text-anchor:start;fill:#000000;fill-opacity:1;stroke:none;stroke-width:4.17901897px;stroke-linecap:butt;stroke-linejoin:miter;stroke-opacity:1"
           d="m 60.180707,404.11018 0.09661,3.63583 -1.661988,-1.16057 0.01243,-2.15712 -2.03401,0.74546 -1.661989,-1.16057 3.440506,-1.15281 -0.09857,-3.81985 1.661989,1.16056 0.02106,2.32403 2.175923,-0.78987 1.661989,1.16056 z" />
        <path
           inkscape:connector-curvature="0"
           id="path4222"
           style="font-style:normal;font-variant:normal;font-weight:bold;font-stretch:normal;font-size:medium;line-height:125%;font-family:'DejaVu Sans';-inkscape-font-specification:'DejaVu Sans, Bold';text-align:start;letter-spacing:0px;word-spacing:0px;writing-mode:lr-tb;text-anchor:start;fill:#000000;fill-opacity:1;stroke:none;stroke-width:4.17901897px;stroke-linecap:butt;stroke-linejoin:miter;stroke-opacity:1"
           d="m -42.770484,333.45241 0.06185,-4.92773 1.758462,1.22793 -0.03127,3.30515 3.078989,-1.17693 1.767235,1.23406 -4.604917,1.75531 -0.05462,4.73054 -1.762851,-1.231 0.03895,-3.11061 -2.902483,1.11101 -1.771619,-1.23712 4.422279,-1.68061 z" />
        <path
           inkscape:connector-curvature="0"
           id="path4200-8"
           style="font-style:normal;font-variant:normal;font-weight:bold;font-stretch:normal;font-size:medium;line-height:125%;font-family:'DejaVu Sans';-inkscape-font-specification:'DejaVu Sans, Bold';text-align:start;letter-spacing:0px;word-spacing:0px;writing-mode:lr-tb;text-anchor:start;fill:#000000;fill-opacity:1;stroke:none;stroke-width:4.17901897px;stroke-linecap:butt;stroke-linejoin:miter;stroke-opacity:1"
           d="m 134.36839,449.22499 -1.6883,-1.17894 3.68074,-5.271 -2.9644,-2.07004 0.8911,-1.27609 4.65269,3.24897 z" />
        <path
           inkscape:connector-curvature="0"
           id="path4202-4"
           style="font-style:normal;font-variant:normal;font-weight:bold;font-stretch:normal;font-size:medium;line-height:125%;font-family:'DejaVu Sans';-inkscape-font-specification:'DejaVu Sans, Bold';text-align:start;letter-spacing:0px;word-spacing:0px;writing-mode:lr-tb;text-anchor:start;fill:#000000;fill-opacity:1;stroke:none;stroke-width:4.17901897px;stroke-linecap:butt;stroke-linejoin:miter;stroke-opacity:1"
           d="m 128.52292,445.14311 -4.19663,-2.93051 0.8666,-1.24101 2.85038,1.99042 0.70736,-1.01298 q -0.22969,-0.0821 -0.44102,-0.19054 -0.21878,-0.10709 -0.42926,-0.25407 -1.19716,-0.83598 -1.44419,-1.9022 -0.25009,-1.06184 0.49708,-2.13183 0.74105,-1.06122 1.88851,-1.15367 1.14307,-0.0955 2.43232,0.80477 0.55692,0.3889 1.02851,0.8813 0.47028,0.48495 0.85655,1.08086 l -0.92784,1.32872 q -0.32065,-0.68055 -0.69145,-1.16781 -0.3752,-0.49032 -0.80057,-0.78735 -0.61392,-0.42871 -1.17297,-0.37549 -0.56649,0.0545 -0.92476,0.56761 -0.36134,0.51746 -0.21437,1.06369 0.14259,0.54316 0.75652,0.97187 0.36397,0.25416 0.84354,0.44553 0.47652,0.19575 1.08792,0.32913 l -2.57223,3.68357 z" />
        <path
           inkscape:connector-curvature="0"
           id="path4204-7"
           style="font-style:normal;font-variant:normal;font-weight:bold;font-stretch:normal;font-size:medium;line-height:125%;font-family:'DejaVu Sans';-inkscape-font-specification:'DejaVu Sans, Bold';text-align:start;letter-spacing:0px;word-spacing:0px;writing-mode:lr-tb;text-anchor:start;fill:#000000;fill-opacity:1;stroke:none;stroke-width:4.17901897px;stroke-linecap:butt;stroke-linejoin:miter;stroke-opacity:1"
           d="m 122.40559,440.87138 -1.68831,-1.17894 3.68074,-5.27101 -2.96439,-2.07003 0.89109,-1.27609 4.6527,3.24897 z" />
        <path
           inkscape:connector-curvature="0"
           id="path4206-8"
           style="font-style:normal;font-variant:normal;font-weight:bold;font-stretch:normal;font-size:medium;line-height:125%;font-family:'DejaVu Sans';-inkscape-font-specification:'DejaVu Sans, Bold';text-align:start;letter-spacing:0px;word-spacing:0px;writing-mode:lr-tb;text-anchor:start;fill:#000000;fill-opacity:1;stroke:none;stroke-width:4.17901897px;stroke-linecap:butt;stroke-linejoin:miter;stroke-opacity:1"
           d="m 113.91736,431.29741 q -0.61666,0.24784 -1.18984,0.19986 -0.58062,-0.0467 -1.07177,-0.38963 -0.84634,-0.591 -0.92485,-1.42212 -0.0785,-0.83112 0.61661,-1.82656 l 2.08841,-2.9907 1.57867,1.10239 -1.78831,2.56095 q -0.0442,0.0539 -0.0871,0.11533 -0.0473,0.0583 -0.12688,0.17234 -0.3644,0.52184 -0.37321,0.86143 -0.0119,0.34398 0.33016,0.58283 0.4473,0.31234 0.95009,0.11547 0.49841,-0.19994 0.99407,-0.89106 l 1.68419,-2.41186 1.57867,1.10238 -1.78831,2.56095 q -0.56956,0.81565 -0.59153,1.14606 -0.025,0.33479 0.33456,0.58589 0.45167,0.3154 0.95752,0.11414 0.5028,-0.19687 0.98356,-0.88535 l 1.68726,-2.41624 1.57867,1.10239 -3.42964,4.91141 -1.57867,-1.10238 0.5022,-0.71918 q -0.58033,0.2145 -1.10006,0.1647 -0.52411,-0.0529 -0.97578,-0.36826 -0.50869,-0.35522 -0.72749,-0.87332 -0.2188,-0.5181 -0.11124,-1.10187 z" />
        <path
           inkscape:connector-curvature="0"
           id="path4208-7"
           style="font-style:normal;font-variant:normal;font-weight:bold;font-stretch:normal;font-size:medium;line-height:125%;font-family:'DejaVu Sans';-inkscape-font-specification:'DejaVu Sans, Bold';text-align:start;letter-spacing:0px;word-spacing:0px;writing-mode:lr-tb;text-anchor:start;fill:#000000;fill-opacity:1;stroke:none;stroke-width:4.17901897px;stroke-linecap:butt;stroke-linejoin:miter;stroke-opacity:1"
           d="m 107.3205,430.33748 -2.14875,-1.50047 0.95572,-4.54491 -3.94642,2.4565 -2.14436,-1.4974 4.57183,-6.5471 1.59621,1.11463 -3.3439,4.78864 3.97357,-2.4767 1.06998,0.74717 -0.95655,4.58348 3.3439,-4.78864 1.6006,1.1177 z" />
        <path
           inkscape:connector-curvature="0"
           id="path4210-1"
           style="font-style:normal;font-variant:normal;font-weight:bold;font-stretch:normal;font-size:medium;line-height:125%;font-family:'DejaVu Sans';-inkscape-font-specification:'DejaVu Sans, Bold';text-align:start;letter-spacing:0px;word-spacing:0px;writing-mode:lr-tb;text-anchor:start;fill:#000000;fill-opacity:1;stroke:none;stroke-width:4.17901897px;stroke-linecap:butt;stroke-linejoin:miter;stroke-opacity:1"
           d="m 97.522286,419.7248 q -0.39905,-0.27866 -0.727642,-0.24717 -0.328592,0.0315 -0.567442,0.37353 -0.235788,0.33766 -0.152172,0.65699 0.08055,0.32372 0.479604,0.60238 l 0.934046,0.65224 0.967652,-1.38573 z m 1.942597,-2.90334 q -0.508686,-0.35522 -0.913075,-0.31794 -0.408769,0.0342 -0.711925,0.46833 -0.297032,0.42537 -0.189675,0.81346 0.104292,0.39249 0.617362,0.75076 l 0.991051,0.69205 1.197309,-1.71461 z m -3.214291,1.25859 q -0.433526,-0.53758 -0.434691,-1.17117 -0.0012,-0.63359 0.430606,-1.25191 0.661428,-0.9472 1.626263,-0.96495 0.964828,-0.0178 2.27161,0.89478 l 2.80215,1.95673 -4.571835,6.5471 -2.534645,-1.76994 q -1.363796,-0.95234 -1.685495,-1.79019 -0.326083,-0.84091 0.307788,-1.74865 0.333777,-0.47799 0.793211,-0.65947 0.456373,-0.17711 0.995038,-0.0423 z" />
        <path
           inkscape:connector-curvature="0"
           id="path4212-2"
           style="font-style:normal;font-variant:normal;font-weight:bold;font-stretch:normal;font-size:medium;line-height:125%;font-family:'DejaVu Sans';-inkscape-font-specification:'DejaVu Sans, Bold';text-align:start;letter-spacing:0px;word-spacing:0px;writing-mode:lr-tb;text-anchor:start;fill:#000000;fill-opacity:1;stroke:none;stroke-width:4.17901897px;stroke-linecap:butt;stroke-linejoin:miter;stroke-opacity:1"
           d="m 90.031625,413.84173 q 0.138736,0.24039 0.314218,0.42817 0.168036,0.18909 0.37414,0.33302 0.605159,0.42258 1.20658,0.26196 0.593979,-0.1593 1.099239,-0.88285 l 1.580082,-2.26276 1.5699,1.09626 -3.429639,4.91142 -1.5699,-1.09626 0.563443,-0.80688 q -0.639424,0.27108 -1.182813,0.21781 -0.550837,-0.052 -1.098986,-0.43473 -0.07894,-0.0551 -0.164888,-0.12821 -0.08902,-0.0687 -0.249123,-0.21311 l 0.987754,-1.42387 z" />
        <path
           inkscape:connector-curvature="0"
           id="path4214-5"
           style="font-style:normal;font-variant:normal;font-weight:bold;font-stretch:normal;font-size:medium;line-height:125%;font-family:'DejaVu Sans';-inkscape-font-specification:'DejaVu Sans, Bold';text-align:start;letter-spacing:0px;word-spacing:0px;writing-mode:lr-tb;text-anchor:start;fill:#000000;fill-opacity:1;stroke:none;stroke-width:4.17901897px;stroke-linecap:butt;stroke-linejoin:miter;stroke-opacity:1"
           d="m 88.549506,414.79644 -4.284334,-2.99175 0.765544,-1.0963 4.467445,-0.88582 -2.587266,-1.80669 0.783916,-1.12261 4.393965,3.0683 -0.765544,1.0963 -4.467446,0.88583 2.477636,1.73013 z" />
        <path
           inkscape:connector-curvature="0"
           id="path4216-0"
           style="font-style:normal;font-variant:normal;font-weight:bold;font-stretch:normal;font-size:medium;line-height:125%;font-family:'DejaVu Sans';-inkscape-font-specification:'DejaVu Sans, Bold';text-align:start;letter-spacing:0px;word-spacing:0px;writing-mode:lr-tb;text-anchor:start;fill:#000000;fill-opacity:1;stroke:none;stroke-width:4.17901897px;stroke-linecap:butt;stroke-linejoin:miter;stroke-opacity:1"
           d="m 83.081174,410.97791 -1.569904,-1.09627 3.368398,-4.82372 q 0.688989,-0.98666 1.523929,-1.1734 0.838001,-0.19112 1.736968,0.43662 l 0.776179,0.54201 -0.719614,1.03052 -0.271882,-0.18985 q -0.447292,-0.31234 -0.754785,-0.22699 -0.307496,0.0854 -0.72089,0.67736 z m -1.335109,1.91194 -1.569905,-1.09626 0.894155,-1.28048 1.569905,1.09627 z" />
        <path
           inkscape:connector-curvature="0"
           id="path4218-2"
           style="font-style:normal;font-variant:normal;font-weight:bold;font-stretch:normal;font-size:medium;line-height:125%;font-family:'DejaVu Sans';-inkscape-font-specification:'DejaVu Sans, Bold';text-align:start;letter-spacing:0px;word-spacing:0px;writing-mode:lr-tb;text-anchor:start;fill:#000000;fill-opacity:1;stroke:none;stroke-width:4.17901897px;stroke-linecap:butt;stroke-linejoin:miter;stroke-opacity:1"
           d="m 77.27946,404.9369 q 0.138742,0.2404 0.314224,0.42818 0.168036,0.18909 0.37414,0.33302 0.605154,0.42257 1.206579,0.26196 0.593975,-0.1593 1.099235,-0.88286 l 1.580082,-2.26276 1.5699,1.09626 -3.429639,4.91142 -1.5699,-1.09626 0.563443,-0.80688 q -0.63942,0.27109 -1.182808,0.21781 -0.550842,-0.052 -1.098991,-0.43472 -0.07893,-0.0551 -0.164889,-0.12821 -0.08902,-0.0687 -0.249117,-0.21311 l 0.987754,-1.42387 z" />
        <path
           inkscape:connector-curvature="0"
           id="path4220-1"
           style="font-style:normal;font-variant:normal;font-weight:bold;font-stretch:normal;font-size:medium;line-height:125%;font-family:'DejaVu Sans';-inkscape-font-specification:'DejaVu Sans, Bold';text-align:start;letter-spacing:0px;word-spacing:0px;writing-mode:lr-tb;text-anchor:start;fill:#000000;fill-opacity:1;stroke:none;stroke-width:4.17901897px;stroke-linecap:butt;stroke-linejoin:miter;stroke-opacity:1"
           d="m 74.343818,407.30989 -1.688299,-1.17894 4.127816,-5.91124 q 0.854349,-1.22347 1.943479,-1.36318 1.084745,-0.14277 2.431004,0.79732 l 0.342045,0.23885 -0.891096,1.2761 -0.263114,-0.18374 q -0.526223,-0.36746 -0.998887,-0.26044 -0.477045,0.10395 -0.875132,0.67403 z" />
        <path
           inkscape:connector-curvature="0"
           id="path4222-0"
           style="font-style:normal;font-variant:normal;font-weight:bold;font-stretch:normal;font-size:medium;line-height:125%;font-family:'DejaVu Sans';-inkscape-font-specification:'DejaVu Sans, Bold';text-align:start;letter-spacing:0px;word-spacing:0px;writing-mode:lr-tb;text-anchor:start;fill:#000000;fill-opacity:1;stroke:none;stroke-width:4.17901897px;stroke-linecap:butt;stroke-linejoin:miter;stroke-opacity:1"
           d="m 100.37862,381.19362 0.0618,-4.92773 1.75847,1.22793 -0.0313,3.30515 3.07899,-1.17693 1.76724,1.23406 -4.60492,1.75531 -0.0546,4.73054 -1.76285,-1.231 0.0389,-3.11061 -2.902484,1.11101 -1.771619,-1.23712 4.422283,-1.68061 z" />
        <path
           inkscape:connector-curvature="0"
           id="path4160-0"
           style="font-style:normal;font-variant:normal;font-weight:bold;font-stretch:normal;font-size:medium;line-height:125%;font-family:'DejaVu Sans';-inkscape-font-specification:'DejaVu Sans, Bold';text-align:start;letter-spacing:0px;word-spacing:0px;writing-mode:lr-tb;text-anchor:start;fill:#000000;fill-opacity:1;stroke:none;stroke-width:4.17901897px;stroke-linecap:butt;stroke-linejoin:miter;stroke-opacity:1"
           d="m 121.8238,424.02074 0.89416,-1.28047 q 0.16701,0.4428 0.41803,0.77464 0.24662,0.32879 0.59305,0.5707 0.65778,0.45933 1.29561,0.33065 0.63038,-0.12735 1.11114,-0.81583 0.48076,-0.68847 0.38627,-1.32853 -0.10195,-0.63874 -0.75973,-1.09806 -0.36835,-0.25723 -0.7738,-0.37726 -0.40983,-0.12309 -0.84053,-0.1042 l 0.89722,-1.28486 q 0.46328,0.12128 0.89073,0.32191 0.42612,0.19319 0.80763,0.4596 1.32871,0.92783 1.60394,2.13117 0.27217,1.20773 -0.57605,2.42243 -0.84822,1.21469 -2.07273,1.37077 -1.22757,0.16046 -2.55628,-0.76738 -0.3859,-0.26947 -0.70965,-0.59992 -0.33119,-0.32913 -0.60901,-0.72536 z" />
        <path
           inkscape:connector-curvature="0"
           id="path4162-5"
           style="font-style:normal;font-variant:normal;font-weight:bold;font-stretch:normal;font-size:medium;line-height:125%;font-family:'DejaVu Sans';-inkscape-font-specification:'DejaVu Sans, Bold';text-align:start;letter-spacing:0px;word-spacing:0px;writing-mode:lr-tb;text-anchor:start;fill:#000000;fill-opacity:1;stroke:none;stroke-width:4.17901897px;stroke-linecap:butt;stroke-linejoin:miter;stroke-opacity:1"
           d="m 119.03047,419.79998 q 0.44291,0.30928 0.86866,0.17603 0.41829,-0.13193 0.81944,-0.7064 0.40115,-0.57445 0.38399,-1.01699 -0.0246,-0.4412 -0.46751,-0.75048 -0.44729,-0.31235 -0.86559,-0.18042 -0.42575,0.13325 -0.82689,0.70771 -0.40115,0.57447 -0.37654,1.01567 0.0172,0.44254 0.46444,0.75488 z m -4.28294,1.68659 0.84517,-1.21032 q 0.27879,0.48824 0.58284,0.83756 0.30099,0.35369 0.65181,0.59867 0.75425,0.52669 1.4692,0.39968 0.71189,-0.12262 1.35774,-0.89804 -0.43947,0.0128 -0.85063,-0.11778 -0.41421,-0.12615 -0.81326,-0.40481 -1.00421,-0.70124 -1.20781,-1.71756 -0.20798,-1.01939 0.45651,-1.97098 0.73492,-1.05244 1.86742,-1.20753 1.12943,-0.15071 2.28712,0.65771 1.27609,0.89109 1.37754,2.24054 0.094,1.35077 -1.01145,2.93383 -1.13301,1.62252 -2.59478,1.97823 -1.46921,0.35703 -2.8944,-0.63817 -0.45167,-0.31541 -0.82804,-0.6826 -0.37637,-0.3672 -0.69498,-0.79843 z" />
        <path
           inkscape:connector-curvature="0"
           id="path4164-5"
           style="font-style:normal;font-variant:normal;font-weight:bold;font-stretch:normal;font-size:medium;line-height:125%;font-family:'DejaVu Sans';-inkscape-font-specification:'DejaVu Sans, Bold';text-align:start;letter-spacing:0px;word-spacing:0px;writing-mode:lr-tb;text-anchor:start;fill:#000000;fill-opacity:1;stroke:none;stroke-width:4.17901897px;stroke-linecap:butt;stroke-linejoin:miter;stroke-opacity:1"
           d="m 112.09875,417.993 2.78964,-3.99492 -0.60515,-0.42257 q -1.03491,-0.72268 -1.93695,-0.58933 -0.90642,0.1303 -1.58929,1.1082 -0.6798,0.97352 -0.49125,1.86191 0.18855,0.88839 1.22784,1.61413 z m 0.79721,2.45503 -1.7804,-1.24325 q -1.49096,-1.04113 -2.06886,-1.76433 -0.58534,-0.72188 -0.75197,-1.59496 -0.15116,-0.76443 0.0294,-1.49945 0.18056,-0.73502 0.69195,-1.46735 0.51751,-0.7411 1.14842,-1.16815 0.62785,-0.42268 1.39758,-0.54405 0.88144,-0.14122 1.76819,0.15835 0.8837,0.30396 2.35713,1.33285 l 1.78039,1.24324 z" />
        <path
           inkscape:connector-curvature="0"
           id="path4166-3"
           style="font-style:normal;font-variant:normal;font-weight:bold;font-stretch:normal;font-size:medium;line-height:125%;font-family:'DejaVu Sans';-inkscape-font-specification:'DejaVu Sans, Bold';text-align:start;letter-spacing:0px;word-spacing:0px;writing-mode:lr-tb;text-anchor:start;fill:#000000;fill-opacity:1;stroke:none;stroke-width:4.17901897px;stroke-linecap:butt;stroke-linejoin:miter;stroke-opacity:1"
           d="m 101.02882,411.85462 0.96765,-1.38573 q 0.37096,0.61784 0.79829,1.0989 0.42732,0.48106 0.88339,0.79953 0.60515,0.42257 1.01094,0.45804 0.40578,0.0355 0.65076,-0.31535 0.18373,-0.26311 0.0949,-0.54694 -0.0963,-0.28251 -0.53585,-0.74603 l -0.61813,-0.64691 q -0.9388,-0.98174 -1.0869,-1.75056 -0.14811,-0.76882 0.42759,-1.59324 0.75635,-1.08314 1.7715,-1.16361 1.0077,-0.0791 2.32764,0.84257 0.6227,0.43483 1.16711,0.99112 0.5444,0.55629 1.00919,1.2266 l -0.99521,1.42519 q -0.39436,-0.77116 -0.85816,-1.34946 -0.47126,-0.57697 -1.01502,-0.95668 -0.55254,-0.38583 -0.97496,-0.40682 -0.42242,-0.021 -0.66127,0.32106 -0.21435,0.30696 -0.12899,0.61446 0.081,0.30443 0.58549,0.85245 l 0.55234,0.60098 q 0.8353,0.89641 0.96983,1.67532 0.13015,0.77585 -0.41492,1.55642 -0.68286,0.9779 -1.68179,1.06317 -0.99893,0.0853 -2.18294,-0.74152 -0.53938,-0.37665 -1.05127,-0.85805 -0.51496,-0.47702 -1.0112,-1.06491 z" />
        <path
           inkscape:connector-curvature="0"
           id="path4168-4"
           style="font-style:normal;font-variant:normal;font-weight:bold;font-stretch:normal;font-size:medium;line-height:125%;font-family:'DejaVu Sans';-inkscape-font-specification:'DejaVu Sans, Bold';text-align:start;letter-spacing:0px;word-spacing:0px;writing-mode:lr-tb;text-anchor:start;fill:#000000;fill-opacity:1;stroke:none;stroke-width:4.17901897px;stroke-linecap:butt;stroke-linejoin:miter;stroke-opacity:1"
           d="m 100.18092,409.13586 -1.569896,-1.09625 3.429636,-4.91142 1.5699,1.09626 z m -1.335105,1.91195 -1.5699,-1.09626 0.894155,-1.28048 1.5699,1.09626 z" />
        <path
           inkscape:connector-curvature="0"
           id="path4170-6"
           style="font-style:normal;font-variant:normal;font-weight:bold;font-stretch:normal;font-size:medium;line-height:125%;font-family:'DejaVu Sans';-inkscape-font-specification:'DejaVu Sans, Bold';text-align:start;letter-spacing:0px;word-spacing:0px;writing-mode:lr-tb;text-anchor:start;fill:#000000;fill-opacity:1;stroke:none;stroke-width:4.17901897px;stroke-linecap:butt;stroke-linejoin:miter;stroke-opacity:1"
           d="m 95.88139,408.56677 -1.688299,-1.17893 2.74065,-3.92476 q 0.566504,-0.81126 0.548363,-1.3458 -0.02559,-0.53323 -0.626356,-0.95274 -0.605159,-0.42259 -1.110184,-0.25989 -0.512466,0.16402 -1.07897,0.97529 l -2.740651,3.92475 -1.688304,-1.17894 2.740651,-3.92475 q 0.97071,-1.39011 2.142596,-1.58293 1.171885,-0.19282 2.60146,0.80545 1.425185,0.99521 1.647795,2.1618 0.222609,1.1666 -0.7481,2.5567 z" />
        <path
           inkscape:connector-curvature="0"
           id="path4180-3"
           style="font-style:normal;font-variant:normal;font-weight:bold;font-stretch:normal;font-size:medium;line-height:125%;font-family:'DejaVu Sans';-inkscape-font-specification:'DejaVu Sans, Bold';text-align:start;letter-spacing:0px;word-spacing:0px;writing-mode:lr-tb;text-anchor:start;fill:#000000;fill-opacity:1;stroke:none;stroke-width:4.17901897px;stroke-linecap:butt;stroke-linejoin:miter;stroke-opacity:1"
           d="m 139.10614,425.61728 -2.80215,-1.95674 q -1.24978,-0.87272 -1.52744,-1.89509 -0.2851,-1.02105 0.43145,-2.04718 0.71961,-1.03052 1.77945,-1.11893 1.05238,-0.0871 2.30216,0.78564 l 1.11384,0.77779 1.58621,-2.27153 1.68831,1.17894 z m -0.83396,-2.40241 1.27693,-1.82863 -0.93405,-0.65224 q -0.49114,-0.34297 -0.924,-0.29296 -0.43592,0.0544 -0.74213,0.49291 -0.30622,0.43852 -0.20408,0.86212 0.10214,0.42359 0.59328,0.76655 z" />
        <path
           inkscape:connector-curvature="0"
           id="path4182-5"
           style="font-style:normal;font-variant:normal;font-weight:bold;font-stretch:normal;font-size:medium;line-height:125%;font-family:'DejaVu Sans';-inkscape-font-specification:'DejaVu Sans, Bold';text-align:start;letter-spacing:0px;word-spacing:0px;writing-mode:lr-tb;text-anchor:start;fill:#000000;fill-opacity:1;stroke:none;stroke-width:4.17901897px;stroke-linecap:butt;stroke-linejoin:miter;stroke-opacity:1"
           d="m 131.62462,418.57849 3.76442,-1.44851 -1.85056,-1.29224 z m -0.69005,1.58609 -1.87687,-1.31062 2.88457,-4.13085 -0.93404,-0.65225 0.85434,-1.22347 0.93405,0.65225 0.83291,-1.19277 1.59621,1.11463 -0.83291,1.19277 2.903,2.02716 -1.01052,1.44712 z" />
        <path
           inkscape:connector-curvature="0"
           id="path4184-8"
           style="font-style:normal;font-variant:normal;font-weight:bold;font-stretch:normal;font-size:medium;line-height:125%;font-family:'DejaVu Sans';-inkscape-font-specification:'DejaVu Sans, Bold';text-align:start;letter-spacing:0px;word-spacing:0px;writing-mode:lr-tb;text-anchor:start;fill:#000000;fill-opacity:1;stroke:none;stroke-width:4.17901897px;stroke-linecap:butt;stroke-linejoin:miter;stroke-opacity:1"
           d="m 126.90878,416.90925 -5.50342,-3.84304 0.71349,-1.02175 6.47979,-1.79645 -3.6134,-2.52323 0.89109,-1.27609 5.70514,3.98389 -0.71348,1.02175 -6.4798,1.79645 3.41168,2.38238 z" />
        <path
           inkscape:connector-curvature="0"
           id="path4192-1"
           style="font-style:normal;font-variant:normal;font-weight:bold;font-stretch:normal;font-size:medium;line-height:125%;font-family:'DejaVu Sans';-inkscape-font-specification:'DejaVu Sans, Bold';text-align:start;letter-spacing:0px;word-spacing:0px;writing-mode:lr-tb;text-anchor:start;fill:#000000;fill-opacity:1;stroke:none;stroke-width:4.17901897px;stroke-linecap:butt;stroke-linejoin:miter;stroke-opacity:1"
           d="m 108.58201,404.11168 -1.6883,-1.17894 1.66889,-2.38993 -4.10267,0.69042 -1.96019,-1.36879 5.31792,-0.89863 -1.07059,-5.87507 2.11366,1.47597 0.80425,4.39743 1.80056,-2.57849 1.6883,1.17893 z" />
        <path
           inkscape:connector-curvature="0"
           id="path4194-3"
           style="font-style:normal;font-variant:normal;font-weight:bold;font-stretch:normal;font-size:medium;line-height:125%;font-family:'DejaVu Sans';-inkscape-font-specification:'DejaVu Sans, Bold';text-align:start;letter-spacing:0px;word-spacing:0px;writing-mode:lr-tb;text-anchor:start;fill:#000000;fill-opacity:1;stroke:none;stroke-width:4.17901897px;stroke-linecap:butt;stroke-linejoin:miter;stroke-opacity:1"
           d="m 103.26468,394.39696 0.0966,3.63582 -1.66199,-1.16056 0.0124,-2.15713 -2.034012,0.74546 -1.661989,-1.16056 3.440501,-1.15281 -0.0986,-3.81986 1.66199,1.16057 0.0211,2.32403 2.17593,-0.78988 1.66199,1.16057 -3.61395,1.21435 z" />
        <path
           inkscape:connector-curvature="0"
           id="path4196-1"
           style="font-style:normal;font-variant:normal;font-weight:bold;font-stretch:normal;font-size:medium;line-height:125%;font-family:'DejaVu Sans';-inkscape-font-specification:'DejaVu Sans, Bold';text-align:start;letter-spacing:0px;word-spacing:0px;writing-mode:lr-tb;text-anchor:start;fill:#000000;fill-opacity:1;stroke:none;stroke-width:4.17901897px;stroke-linecap:butt;stroke-linejoin:miter;stroke-opacity:1"
           d="m 97.283397,393.7886 -4.284338,-2.99175 0.765543,-1.0963 4.467446,-0.88582 -2.587266,-1.80669 0.783916,-1.12261 4.393972,3.06831 -0.76555,1.09629 -4.467442,0.88583 2.477636,1.73013 z" />
        <path
           inkscape:connector-curvature="0"
           id="path4200-6"
           style="font-style:normal;font-variant:normal;font-weight:bold;font-stretch:normal;font-size:medium;line-height:125%;font-family:'DejaVu Sans';-inkscape-font-specification:'DejaVu Sans, Bold';text-align:start;letter-spacing:0px;word-spacing:0px;writing-mode:lr-tb;text-anchor:start;fill:#000000;fill-opacity:1;stroke:none;stroke-width:4.17901897px;stroke-linecap:butt;stroke-linejoin:miter;stroke-opacity:1"
           d="m 143.92181,417.68616 -1.6883,-1.17894 3.68074,-5.27101 -2.96439,-2.07003 0.89109,-1.27609 4.65269,3.24897 z" />
        <path
           inkscape:connector-curvature="0"
           id="path4164-3"
           style="font-style:normal;font-variant:normal;font-weight:bold;font-stretch:normal;font-size:medium;line-height:125%;font-family:'DejaVu Sans';-inkscape-font-specification:'DejaVu Sans, Bold';text-align:start;letter-spacing:0px;word-spacing:0px;writing-mode:lr-tb;text-anchor:start;fill:#000000;fill-opacity:1;stroke:none;stroke-width:4.17901897px;stroke-linecap:butt;stroke-linejoin:miter;stroke-opacity:1"
           d="m 149.66449,407.76891 2.78965,-3.99492 -0.60516,-0.42258 q -1.03491,-0.72267 -1.93694,-0.58932 -0.90643,0.1303 -1.58929,1.1082 -0.67981,0.97351 -0.49126,1.8619 0.18855,0.8884 1.22784,1.61413 z m 0.79721,2.45502 -1.78039,-1.24324 q -1.49097,-1.04114 -2.06887,-1.76433 -0.58534,-0.72188 -0.75196,-1.59496 -0.15117,-0.76444 0.0294,-1.49945 0.18057,-0.73502 0.69195,-1.46735 0.51751,-0.7411 1.14842,-1.16815 0.62786,-0.42268 1.39758,-0.54406 0.88144,-0.14122 1.7682,0.15836 0.88369,0.30395 2.35712,1.33284 l 1.78039,1.24325 -4.57183,6.54709 z" />
        <path
           inkscape:connector-curvature="0"
           id="path4166-8"
           style="font-style:normal;font-variant:normal;font-weight:bold;font-stretch:normal;font-size:medium;line-height:125%;font-family:'DejaVu Sans';-inkscape-font-specification:'DejaVu Sans, Bold';text-align:start;letter-spacing:0px;word-spacing:0px;writing-mode:lr-tb;text-anchor:start;fill:#000000;fill-opacity:1;stroke:none;stroke-width:4.17901897px;stroke-linecap:butt;stroke-linejoin:miter;stroke-opacity:1"
           d="m 138.59456,401.63052 0.96765,-1.38572 q 0.37096,0.61784 0.79829,1.09889 0.42733,0.48106 0.88339,0.79953 0.60516,0.42258 1.01094,0.45805 0.40578,0.0355 0.65076,-0.31535 0.18373,-0.26311 0.0949,-0.54694 -0.0963,-0.28251 -0.53586,-0.74604 l -0.61812,-0.6469 q -0.93881,-0.98175 -1.08691,-1.75057 -0.1481,-0.76881 0.42759,-1.59323 0.75635,-1.08314 1.7715,-1.16362 1.0077,-0.0791 2.32765,0.84258 0.62269,0.43483 1.1671,0.99112 0.54441,0.55629 1.00919,1.2266 l -0.99521,1.42518 q -0.39435,-0.77116 -0.85816,-1.34945 -0.47125,-0.57697 -1.01502,-0.95668 -0.55254,-0.38584 -0.97496,-0.40683 -0.42241,-0.021 -0.66126,0.32106 -0.21436,0.30697 -0.129,0.61446 0.081,0.30444 0.58549,0.85245 l 0.55234,0.60098 q 0.83531,0.89642 0.96984,1.67533 0.13015,0.77585 -0.41492,1.55642 -0.68287,0.97789 -1.6818,1.06316 -0.99893,0.0853 -2.18293,-0.74152 -0.53938,-0.37665 -1.05128,-0.85804 -0.51495,-0.47702 -1.0112,-1.06492 z" />
        <path
           inkscape:connector-curvature="0"
           id="path4168-1"
           style="font-style:normal;font-variant:normal;font-weight:bold;font-stretch:normal;font-size:medium;line-height:125%;font-family:'DejaVu Sans';-inkscape-font-specification:'DejaVu Sans, Bold';text-align:start;letter-spacing:0px;word-spacing:0px;writing-mode:lr-tb;text-anchor:start;fill:#000000;fill-opacity:1;stroke:none;stroke-width:4.17901897px;stroke-linecap:butt;stroke-linejoin:miter;stroke-opacity:1"
           d="m 137.74666,398.91177 -1.5699,-1.09626 3.42964,-4.91142 1.5699,1.09626 z m -1.33511,1.91194 -1.5699,-1.09626 0.89416,-1.28047 1.5699,1.09626 z" />
        <path
           inkscape:connector-curvature="0"
           id="path4170-5"
           style="font-style:normal;font-variant:normal;font-weight:bold;font-stretch:normal;font-size:medium;line-height:125%;font-family:'DejaVu Sans';-inkscape-font-specification:'DejaVu Sans, Bold';text-align:start;letter-spacing:0px;word-spacing:0px;writing-mode:lr-tb;text-anchor:start;fill:#000000;fill-opacity:1;stroke:none;stroke-width:4.17901897px;stroke-linecap:butt;stroke-linejoin:miter;stroke-opacity:1"
           d="m 133.44713,398.34268 -1.6883,-1.17894 2.74065,-3.92475 q 0.56651,-0.81126 0.54836,-1.34581 -0.0256,-0.53322 -0.62635,-0.95274 -0.60516,-0.42258 -1.11018,-0.25988 -0.51247,0.16402 -1.07898,0.97528 l -2.74065,3.92475 -1.6883,-1.17893 2.74066,-3.92476 q 0.97071,-1.3901 2.14259,-1.58292 1.17188,-0.19282 2.60146,0.80545 1.42519,0.99521 1.6478,2.1618 0.2226,1.16659 -0.74811,2.5567 z" />
        <path
           inkscape:connector-curvature="0"
           id="path4174-5"
           style="font-style:normal;font-variant:normal;font-weight:bold;font-stretch:normal;font-size:medium;line-height:125%;font-family:'DejaVu Sans';-inkscape-font-specification:'DejaVu Sans, Bold';text-align:start;letter-spacing:0px;word-spacing:0px;writing-mode:lr-tb;text-anchor:start;fill:#000000;fill-opacity:1;stroke:none;stroke-width:4.17901897px;stroke-linecap:butt;stroke-linejoin:miter;stroke-opacity:1"
           d="m 119.5341,384.30865 q -0.53061,-0.37052 -0.89644,-0.33242 -0.37022,0.035 -0.68562,0.48672 -0.31234,0.44728 -0.21466,0.80253 0.0933,0.35218 0.6239,0.7227 l 0.7104,0.49608 1.17282,-1.67953 z m 1.52494,-0.67038 1.73013,-2.47764 1.6883,1.17894 -4.57183,6.5471 -2.5785,-1.80056 q -1.29363,-0.90335 -1.59125,-1.757 -0.302,-0.85671 0.35331,-1.79514 0.4532,-0.64902 1.05984,-0.84513 0.60226,-0.19918 1.37152,0.0444 -0.29131,-0.32084 -0.36721,-0.79134 -0.0834,-0.46919 0.031,-1.23086 l 0.38185,-2.49932 1.79793,1.25549 -0.33795,2.18423 q -0.10179,0.65956 0.0226,1.0139 0.12002,0.35127 0.53223,0.63912 l 0.47799,0.33378 z" />
        <path
           inkscape:connector-curvature="0"
           id="path4176-0"
           style="font-style:normal;font-variant:normal;font-weight:bold;font-stretch:normal;font-size:medium;line-height:125%;font-family:'DejaVu Sans';-inkscape-font-specification:'DejaVu Sans, Bold';text-align:start;letter-spacing:0px;word-spacing:0px;writing-mode:lr-tb;text-anchor:start;fill:#000000;fill-opacity:1;stroke:none;stroke-width:4.17901897px;stroke-linecap:butt;stroke-linejoin:miter;stroke-opacity:1"
           d="m 112.6138,379.84153 q 0.49991,0.34909 1.02463,0.16753 0.52033,-0.18463 1.01028,-0.88626 0.48995,-0.70163 0.48406,-1.25372 -0.0103,-0.55515 -0.51018,-0.90424 -0.5043,-0.35215 -1.02463,-0.16752 -0.52473,0.18156 -1.01468,0.8832 -0.48995,0.70163 -0.47967,1.25678 0.006,0.55208 0.51019,0.90423 z m 1.18517,-3.90194 q 0.62766,-0.20753 1.15881,-0.13672 0.53114,0.0708 1.0442,0.42909 0.90774,0.63387 0.98877,1.76032 0.078,1.13083 -0.71513,2.26659 -0.7931,1.13577 -1.87547,1.44328 -1.08543,0.3119 -1.99317,-0.32197 -0.51306,-0.35827 -0.76248,-0.83252 -0.24943,-0.47426 -0.27078,-1.13499 l -0.50832,0.72794 -1.57867,-1.10239 4.73413,-6.77951 1.57867,1.10238 z" />
        <path
           inkscape:connector-curvature="0"
           id="path4178-4"
           style="font-style:normal;font-variant:normal;font-weight:bold;font-stretch:normal;font-size:medium;line-height:125%;font-family:'DejaVu Sans';-inkscape-font-specification:'DejaVu Sans, Bold';text-align:start;letter-spacing:0px;word-spacing:0px;writing-mode:lr-tb;text-anchor:start;fill:#000000;fill-opacity:1;stroke:none;stroke-width:4.17901897px;stroke-linecap:butt;stroke-linejoin:miter;stroke-opacity:1"
           d="m 105.30482,374.20275 q -0.54274,-0.63341 -0.58776,-1.29762 -0.0525,-0.6629 0.40381,-1.31629 0.6798,-0.97351 1.7805,-0.96163 1.09763,0.0163 2.5272,1.01455 0.50431,0.35215 0.9548,0.79068 0.44918,0.43108 0.83141,0.93936 l -0.90947,1.30241 q -0.30824,-0.56752 -0.68733,-1.0149 -0.38654,-0.44605 -0.83821,-0.76145 -0.67094,-0.46852 -1.18843,-0.48414 -0.52189,-0.0187 -0.82504,0.41545 -0.31234,0.44729 -0.10322,0.93254 0.20167,0.48658 0.91646,0.98572 l 0.67533,0.47157 -0.75942,1.08753 -0.71041,-0.49607 q -0.63585,-0.44402 -1.085,-0.4641 -0.45221,-0.0157 -0.73699,0.39213 -0.26335,0.37713 -0.10469,0.79452 0.15865,0.4174 0.71119,0.80323 0.40782,0.28479 0.88872,0.4836 0.4809,0.19881 1.01866,0.30687 l -0.86354,1.23663 q -0.5979,-0.20877 -1.13803,-0.48157 -0.54014,-0.2728 -1.01375,-0.60352 -1.27609,-0.89109 -1.61359,-1.75302 -0.34494,-0.86061 0.243,-1.70257 0.40114,-0.57446 0.96094,-0.73152 0.55674,-0.15268 1.25286,0.11161 z" />
        <path
           inkscape:connector-curvature="0"
           id="path4220-1-0"
           style="font-style:normal;font-variant:normal;font-weight:bold;font-stretch:normal;font-size:medium;line-height:125%;font-family:'DejaVu Sans';-inkscape-font-specification:'DejaVu Sans, Bold';text-align:start;letter-spacing:0px;word-spacing:0px;writing-mode:lr-tb;text-anchor:start;fill:#000000;fill-opacity:1;stroke:none;stroke-width:4.17901897px;stroke-linecap:butt;stroke-linejoin:miter;stroke-opacity:1"
           d="m 105.6417,390.26696 -1.6883,-1.17894 4.12781,-5.91124 q 0.85435,-1.22347 1.94348,-1.36318 1.08475,-0.14277 2.43101,0.79732 l 0.34204,0.23885 -0.8911,1.27609 -0.26311,-0.18373 q -0.52622,-0.36746 -0.99889,-0.26044 -0.47704,0.10395 -0.87513,0.67403 z" />
        <path
           inkscape:connector-curvature="0"
           id="path4194-9"
           style="font-style:normal;font-variant:normal;font-weight:bold;font-stretch:normal;font-size:medium;line-height:125%;font-family:'DejaVu Sans';-inkscape-font-specification:'DejaVu Sans, Bold';text-align:start;letter-spacing:0px;word-spacing:0px;writing-mode:lr-tb;text-anchor:start;fill:#000000;fill-opacity:1;stroke:none;stroke-width:4.17901897px;stroke-linecap:butt;stroke-linejoin:miter;stroke-opacity:1"
           d="m 138.27471,409.03412 0.0966,3.63583 -1.66199,-1.16057 0.0124,-2.15712 -2.03401,0.74546 -1.66199,-1.16057 3.44051,-1.15281 -0.0986,-3.81985 1.66199,1.16056 0.0211,2.32403 2.17593,-0.78987 1.66199,1.16056 -3.61395,1.21435 z" />
      </g>
    </g>
    <g
       id="g5436">
      <circle
         r="83.251228"
         cy="536.49908"
         cx="-37.532448"
         id="path5397-6"
         style="opacity:1;fill:#4d4d4d;fill-opacity:1;fill-rule:evenodd;stroke:none;stroke-width:2;stroke-linecap:square;stroke-linejoin:miter;stroke-miterlimit:4;stroke-dasharray:none;stroke-dashoffset:0;stroke-opacity:1" />
      <path
         d="m -37.129408,471.14409 v 1.79687 q 0,3.88672 -0.0977,7.94922 l -0.27343,8.33984 q -0.15625,4.29688 -0.39063,5.46875 -0.23437,1.17188 -0.89844,2.12891 -0.66406,0.97656 -1.60156,1.44531 -0.91797,0.46875 -2.1289,0.46875 h -1.03516 q -2.01172,0 -3.39844,-0.15625 l -1.05469,-4.39453 q 1.99219,0.42969 3.73047,0.42969 h 0.3125 q 0.72266,0 1.38672,-0.625 0.66406,-0.64453 0.76172,-1.54297 l 0.3125,-5.25391 q 0.21484,-4.35546 0.21484,-9.41406 v -2.55859 h -3.32031 q -0.80078,14.55078 -9.23828,24.04297 l -3.24219,-2.67578 q 7.65625,-8.65235 8.39844,-21.36719 h -6.67969 v -4.08203 h 6.77735 v -8.47657 h 4.0625 v 8.47657 z m 15.64453,26.95312 h -4.08203 v -3.39844 h -5.11719 v 3.39844 h -4.08203 v -30.39062 h 13.28125 z m -4.08203,-7.48047 v -18.82812 h -5.11719 v 18.82812 z"
         style="font-style:normal;font-variant:normal;font-weight:bold;font-stretch:normal;font-size:40px;line-height:125%;font-family:'Malgun Gothic';-inkscape-font-specification:'Malgun Gothic, Bold';font-variant-ligatures:normal;font-variant-caps:normal;font-variant-numeric:normal;font-feature-settings:normal;text-align:start;letter-spacing:0px;word-spacing:0px;writing-mode:lr-tb;text-anchor:start;fill:#f9f9f9;fill-opacity:1;stroke:none;stroke-width:1px;stroke-linecap:butt;stroke-linejoin:miter;stroke-opacity:1"
         id="path5382-6"
         inkscape:connector-curvature="0" />
      <path
         d="m -22.734908,583.02323 h -4.19921 v -4.16016 h -13.51563 q 2.63672,1.97266 4.43359,4.04297 l -3.0664,2.67578 q -1.75781,-2.53906 -4.57031,-4.39453 l 2.67578,-2.32422 h -10.80078 v 4.16016 h -4.19922 v -7.8711 h 14.49218 v -3.20312 h 4.27735 v 3.20312 h 14.47265 z m -5,-0.80078 q -5.70312,5.83984 -13.51562,9.88281 h 5.03906 q 1.3086,0 1.85547,-0.76172 0.54688,-0.78125 0.78125,-3.24219 l 3.80859,1.44532 q -0.58593,6.40625 -6.25,6.40625 h -6.83593 q -2.59766,0 -3.59375,-1.36719 -3.69141,1.5039 -8.65235,3.16406 l -2.22656,-3.4375 q 4.78516,-1.09375 10.11719,-3.35937 v -8.28125 h 4.08203 v 6.46484 q 7.36328,-3.88672 12.44141,-9.47266 z m -19.76562,2.79297 q -2.51953,4.19921 -6.07422,7.32421 l -3.02734,-2.79296 q 3.49609,-2.67579 5.91797,-6.83594 z m 26.25,7.08984 -3.28125,2.36328 q -2.32422,-4.27734 -5.95703,-7.28516 l 3.08594,-2.36328 q 3.90625,3.37891 6.15234,7.28516 z m -4.00391,15.99609 h -4.08203 v -1.67968 h -20.07812 v 1.67968 h -4.08203 v -9.88281 h 4.08203 v 4.375 h 8.00781 v -5.60547 h 4.08203 v 5.60547 h 7.98828 v -4.375 h 4.08203 z"
         style="font-style:normal;font-variant:normal;font-weight:bold;font-stretch:normal;font-size:40px;line-height:125%;font-family:'Malgun Gothic';-inkscape-font-specification:'Malgun Gothic, Bold';font-variant-ligatures:normal;font-variant-caps:normal;font-variant-numeric:normal;font-feature-settings:normal;text-align:start;letter-spacing:0px;word-spacing:0px;writing-mode:lr-tb;text-anchor:start;fill:#e6e6e6;fill-opacity:1;stroke:none;stroke-width:1px;stroke-linecap:butt;stroke-linejoin:miter;stroke-opacity:1"
         id="path5384-7"
         inkscape:connector-curvature="0" />
      <path
         d="m 7.6139817,522.57194 -3.28125,2.79297 q -1.26953,-2.5586 -5.52735,-4.86329 l 3.28125,-2.73437 q 3.59375,1.81641 5.52735,4.80469 z m 23.1835903,20 q 0,4.35547 -3.75,4.35547 h -2.92969 l -1.1914,-3.90625 q 1.91406,0.15625 3.125,0.15625 0.83984,0 0.83984,-1.07422 v -1.40625 h -5.17578 v 5.68359 h -3.90625 v -5.68359 h -5 v 6.23047 H 8.8444517 v -21.03516 h 7.4023403 q -1.66016,-0.9375 -3.88672,-1.71875 l 2.48047,-2.28516 H 7.8483517 v -3.59375 H 30.133512 v 3.59375 q -2.46094,1.60157 -7.01172,4.00391 h 7.67578 z m -7.94922,-20.6836 h -6.83594 q 2.71485,1.34766 3.71094,2.01172 2.40235,-1.40625 3.125,-2.01172 z m -5.03906,9.6875 V 529.486 h -5 v 2.08984 z m 9.08203,0 V 529.486 h -5.17578 v 2.08984 z m -9.08203,5.60547 v -2.08984 h -5 v 2.08984 z m 9.08203,0 v -2.08984 h -5.17578 v 2.08984 z m -20.4882803,-6.97265 -3.28125,2.8125 q -1.40625,-2.77344 -5.50781,-5.03907 l 3.18358997,-2.61718 q 3.67188003,1.85546 5.60547003,4.84375 z m 26.8359403,18.28125 -1.75782,3.80859 h -17.63671 q -3.69141,0 -5.8789103,-0.82031 -2.16797,-0.82032 -4.00391,-2.83203 -2.32422,2.7539 -4.43359003,4.80468 l -2.55858997,-2.83203 q 3.22264997,-3.00781 5,-5.72265 v -6.79688 h -4.80469 v -3.80859 h 8.59375 v 10.64453 q 2.34375,3.55469 7.3242203,3.55469 z"
         style="font-style:normal;font-variant:normal;font-weight:bold;font-stretch:normal;font-size:40px;line-height:125%;font-family:'Malgun Gothic';-inkscape-font-specification:'Malgun Gothic, Bold';font-variant-ligatures:normal;font-variant-caps:normal;font-variant-numeric:normal;font-feature-settings:normal;text-align:start;letter-spacing:0px;word-spacing:0px;writing-mode:lr-tb;text-anchor:start;fill:#f2f2f2;fill-opacity:1;stroke:none;stroke-width:1px;stroke-linecap:butt;stroke-linejoin:miter;stroke-opacity:1"
         id="path5386-0"
         inkscape:connector-curvature="0" />
      <path
         d="m -76.599378,525.0817 h -3.35938 v 0.76172 h -3.82812 v 1.15235 h 6.60156 v 2.40234 h -6.60156 v 1.67969 h 1.75781 v -0.9961 h 3.71094 v 3.35938 h -14.92188 v -3.35938 h 3.73047 v 0.9961 h 1.91406 v -1.67969 h -6.79687 v -2.40234 h 2.08984 l -2.05078,-1.38672 q 1.79688,-1.25 3.08594,-3.4375 h -14.726562 v 1.38672 h 10.605462 v 2.55859 h -4.843752 v 1.17187 h 4.121102 v 2.48047 h -4.121102 v 1.15235 l 5.644542,-0.52735 v 2.48047 q -6.523442,0.82031 -15.117192,1.48438 l -0.83985,-2.79297 q 3.32032,-0.11719 6.50391,-0.3711 v -1.42578 h -4.74609 v -2.48047 h 4.74609 v -1.17187 h -2.87109 v -0.99609 h -3.20313 v -5.72266 h 14.453132 v -2.03125 h 4.27734 v 2.03125 h 14.78516 z m -4.0625,-2.91015 h -6.44532 q -0.54687,0.9375 -0.83984,1.26953 h 7.28516 z m -6.9336,4.82422 v -1.15235 h -1.71875 q -0.33203,0.50781 -0.91797,1.15235 z m 12.05078,23.80859 -1.97265,3.04687 q -6.75781,-2.30468 -13.59375,-3.00781 l 1.64062,-2.63672 h -9.0039 l 2.1289,2.36328 q -5.390622,2.26563 -13.281252,3.1836 l -1.83593,-3.32031 q 7.14843,-0.3711 11.835932,-2.22657 h -6.523432 v -13.61328 h 25.488282 v 13.61328 h -5.48828 q 6.03515,0.9961 10.60546,2.59766 z m -9.33593,-12.24609 v -1.23047 h -17.070322 v 1.23047 z m 0,3.4375 v -1.15235 h -17.070322 v 1.15235 z m 0,3.49609 v -1.21094 h -17.070322 v 1.21094 z"
         style="font-style:normal;font-variant:normal;font-weight:bold;font-stretch:normal;font-size:40px;line-height:125%;font-family:'Malgun Gothic';-inkscape-font-specification:'Malgun Gothic, Bold';font-variant-ligatures:normal;font-variant-caps:normal;font-variant-numeric:normal;font-feature-settings:normal;text-align:start;letter-spacing:0px;word-spacing:0px;writing-mode:lr-tb;text-anchor:start;fill:#ececec;fill-opacity:1;stroke:none;stroke-width:1px;stroke-linecap:butt;stroke-linejoin:miter;stroke-opacity:1"
         id="path5388-2"
         inkscape:connector-curvature="0" />
      <rect
         ry="4.4217691"
         rx="3.4365478"
         y="508.76175"
         x="-65.857582"
         height="53.69458"
         width="54.187191"
         id="rect5395-0"
         style="opacity:1;fill:#ffff00;fill-opacity:1;fill-rule:evenodd;stroke:none;stroke-width:2;stroke-linecap:square;stroke-linejoin:miter;stroke-miterlimit:4;stroke-dasharray:none;stroke-dashoffset:0;stroke-opacity:1" />
    </g>
  </g>
</svg>
